<?xml version="1.0" encoding="utf-8"?><svg xmlns="http://www.w3.org/2000/svg" xmlns:xlink="http://www.w3.org/1999/xlink"><symbol viewBox="0 0 11 18" id="arrow" xmlns="http://www.w3.org/2000/svg"><path d="M1 .805l8 8-8 8"/></symbol><symbol viewBox="0 0 13 15" id="arrow-city" xmlns="http://www.w3.org/2000/svg"><path d="M12.282 2.33L1.57 7.533l5.588 1.498 1.76 5.854L12.281 2.33z"/></symbol><symbol viewBox="0 0 18 11" id="arrow-nav" xmlns="http://www.w3.org/2000/svg"><path d="M1 5.5h15.714m0 0L12.092 1m4.622 4.5L12.092 10"/></symbol><symbol viewBox="0 0 20 15" id="basket" xmlns="http://www.w3.org/2000/svg"><path d="M18.913 4.2h-2.665L12.343.325a.901.901 0 00-1.27 1.276l2.62 2.6H6.07l2.672-2.663A.9.9 0 107.469.263L3.52 4.2H.901A.9.9 0 10.9 6h1.063l1.656 8.271a.9.9 0 00.883.724L15.31 15a.9.9 0 00.884-.723L17.85 6h1.063a.9.9 0 100-1.8zm-4.34 9l-9.332-.004L3.801 6h12.212l-1.44 7.2z"/></symbol><symbol viewBox="0 0 13 11" id="checked" xmlns="http://www.w3.org/2000/svg"><path d="M1 6l3.385 4L12 1"/></symbol><symbol viewBox="0 0 12 16" id="city" xmlns="http://www.w3.org/2000/svg"><path d="M6 0a6 6 0 00-6 6c0 1.108.217 2.253.84 3.078L6 15.918l5.16-6.84c.566-.75.84-2.074.84-3.078a6 6 0 00-6-6zm0 3.475a2.525 2.525 0 110 5.05 2.525 2.525 0 010-5.05z"/></symbol><symbol viewBox="0 0 15 19" id="city-2" xmlns="http://www.w3.org/2000/svg"><path fill-rule="evenodd" clip-rule="evenodd" d="M0 7.365C0 3.084 3.32 0 7.4 0s7.337 3.079 7.337 7.365C14.764 13.624 7.4 18.947 7.4 18.947l-.028-.02C6.805 18.51-.026 13.488 0 7.364zm7.368 2.97a3.024 3.024 0 003.034-3.014 3.024 3.024 0 00-3.034-3.015 3.024 3.024 0 00-3.034 3.015 3.024 3.024 0 003.034 3.014z"/></symbol><symbol viewBox="0 0 19 19" id="close" xmlns="http://www.w3.org/2000/svg"><path d="M1 1l17 17M1 18L18 1"/></symbol><symbol viewBox="0 0 46 46" id="contacts" xmlns="http://www.w3.org/2000/svg"><path d="M30.017 39.034l-4.27-4.269a1.811 1.811 0 00-2.56 0l-2.561 2.562A25.127 25.127 0 018.674 25.375l2.56-2.562a1.811 1.811 0 000-2.56l-4.268-4.27a1.81 1.81 0 00-2.561 0L.99 19.399c-2.829 2.83.611 10.856 7.684 17.929 7.072 7.072 15.099 10.512 17.928 7.683l3.415-3.415a1.811 1.811 0 000-2.561zM41.845 3.482C39.225 1.237 35.755 0 32.075 0c-3.682 0-7.152 1.237-9.772 3.482-2.68 2.297-4.155 5.367-4.155 8.647 0 3.28 1.476 6.35 4.155 8.647.48.411.99.788 1.522 1.13a22.969 22.969 0 01-3.43 4.062 22.707 22.707 0 007.941-2.15c1.203.29 2.458.44 3.738.44 3.681 0 7.152-1.237 9.771-3.482C44.525 18.479 46 15.408 46 12.129c0-3.28-1.475-6.35-4.155-8.647zm-16.06 10.444a1.797 1.797 0 110-3.594 1.797 1.797 0 010 3.594zm6.29 0a1.797 1.797 0 110-3.594 1.797 1.797 0 010 3.594zm6.288 0a1.797 1.797 0 110-3.594 1.797 1.797 0 010 3.594z"/></symbol><symbol viewBox="0 0 21 26" id="document" xmlns="http://www.w3.org/2000/svg"><path d="M5.2 16.596c0-.428-.297-.684-.822-.684-.214 0-.359.021-.435.041v1.375c.09.02.2.027.353.027.559 0 .904-.283.904-.76zm3.247-.67c-.235 0-.387.02-.476.041v3.044c.09.021.235.021.366.021.952.007 1.574-.518 1.574-1.629.007-.966-.56-1.477-1.464-1.477z"/><path d="M14.48 0H4.12a2.75 2.75 0 00-2.746 2.745v10.152h-.268c-.61 0-1.106.495-1.106 1.106v6.71c0 .61.495 1.106 1.106 1.106h.268v1.23a2.748 2.748 0 002.746 2.745h14.136A2.748 2.748 0 0021 23.05V6.497L14.48 0zM2.902 15.214a8.67 8.67 0 011.422-.096c.649 0 1.111.124 1.422.373.297.234.497.621.497 1.076 0 .456-.152.843-.428 1.105-.359.338-.89.49-1.511.49a2.73 2.73 0 01-.36-.02v1.663H2.902v-4.59zm15.354 8.899H4.12a1.065 1.065 0 01-1.064-1.064v-1.23h13.178c.61 0 1.106-.495 1.106-1.107v-6.709c0-.611-.495-1.106-1.106-1.106H3.056V2.745c0-.585.478-1.062 1.064-1.062l9.73-.01V5.27c0 1.05.853 1.904 1.905 1.904l3.523-.01.04 15.885c0 .587-.477 1.064-1.063 1.064zm-11.34-4.329v-4.57c.386-.061.89-.096 1.421-.096.884 0 1.457.159 1.906.497.483.359.787.931.787 1.753 0 .89-.325 1.506-.774 1.885-.49.407-1.235.6-2.146.6-.546 0-.933-.034-1.195-.069zm7.533-2.706v.856h-1.67v1.871h-1.056v-4.652h2.844v.862h-1.788v1.063h1.67z"/></symbol><symbol viewBox="0 0 16 18" id="dwl" xmlns="http://www.w3.org/2000/svg"><path d="M15 6h-4V0H5v6H1l7 8 7-8zM0 16h16v2H0v-2z"/></symbol><symbol viewBox="0 0 16 20" id="file" xmlns="http://www.w3.org/2000/svg"><path d="M10 0H2C.9 0 .01.9.01 2L0 18c0 1.1.89 2 1.99 2H14c1.1 0 2-.9 2-2V6l-6-6zM2 18V2h7v5h5v11H2z"/></symbol><symbol viewBox="0 0 24 14" id="hamburger" xmlns="http://www.w3.org/2000/svg"><rect width="24" height="2" rx="1"/><rect y="6" width="24" height="2" rx="1"/><rect y="12" width="24" height="2" rx="1"/></symbol><symbol viewBox="0 0 14 21" id="learn-price" xmlns="http://www.w3.org/2000/svg"><path d="M13.052 8.086a.44.44 0 00-.383-.222H6.912L7.877.488a.442.442 0 00-.81-.287L.065 12.468a.44.44 0 00.374.67h5.672l-.765 7.386a.442.442 0 00.814.27L13.047 8.53a.44.44 0 00.005-.443z"/></symbol><symbol viewBox="0 0 20 11" id="m-hamburger" xmlns="http://www.w3.org/2000/svg"><path d="M7.62 10.593h4.353V8.828H7.62v1.765zM0 0v1.766h19.593V0H0zm3.265 6.18h13.062V4.413H3.265v1.765z"/></symbol><symbol viewBox="0 0 20 15" id="mail" xmlns="http://www.w3.org/2000/svg"><path d="M17.656 0H2.344A2.346 2.346 0 000 2.344v10a2.346 2.346 0 002.344 2.344h15.312A2.346 2.346 0 0020 12.344v-10A2.346 2.346 0 0017.656 0zm.782 12.344c0 .43-.351.781-.782.781H2.344a.782.782 0 01-.781-.781v-10c0-.431.35-.781.78-.781h15.313c.431 0 .782.35.782.78v10z"/><path d="M18.305.975L10 7.152 1.695.975.763 2.228 10 9.1l9.237-6.87-.932-1.254z"/></symbol><symbol viewBox="0 0 22 22" id="minus" xmlns="http://www.w3.org/2000/svg"><path d="M19.789 11H1.999"/></symbol><symbol viewBox="0 0 15 18" id="phone" xmlns="http://www.w3.org/2000/svg"><path d="M13.88 12.713l-2.247-1.64a.981.981 0 00-.743-.132l-.709.204c-.516.515-1.573 1.354-3.993-1.068-2.42-2.421-1.583-3.478-1.067-3.994l.204-.708a.977.977 0 00-.132-.745L3.555 2.383a.528.528 0 00-.628-.16L1.8 2.76C-.146 4.706.9 8.69 4.238 12.028c3.337 3.338 7.32 4.387 9.266 2.44l.536-1.129a.527.527 0 00-.16-.626z"/></symbol><symbol viewBox="0 0 21 22" id="plus" xmlns="http://www.w3.org/2000/svg"><path d="M19.244 11H1.454m8.895-8.894v17.788"/></symbol><symbol viewBox="0 0 19 19" id="search" xmlns="http://www.w3.org/2000/svg"><path d="M8.007 16a7.964 7.964 0 004.901-1.688l4.4 4.396 1.415-1.414-4.4-4.396A7.948 7.948 0 0016.015 8c0-4.411-3.592-8-8.007-8C3.592 0 0 3.589 0 8s3.592 8 8.007 8zm0-14a6.009 6.009 0 016.005 6c0 3.309-2.693 6-6.005 6a6.009 6.009 0 01-6.005-6c0-3.309 2.693-6 6.005-6z"/></symbol><symbol viewBox="0 0 15 15" id="time" xmlns="http://www.w3.org/2000/svg"><path d="M7.5 0C3.364 0 0 3.364 0 7.5S3.364 15 7.5 15 15 11.636 15 7.5 11.636 0 7.5 0zm0 13.36A5.867 5.867 0 011.64 7.5 5.867 5.867 0 017.5 1.64a5.866 5.866 0 015.86 5.86 5.867 5.867 0 01-5.86 5.86z"/><path d="M8.15 7.507V4.364a.635.635 0 10-1.271 0V7.71l.002.03a.632.632 0 00.184.48l2.366 2.366a.635.635 0 10.899-.898l-2.18-2.18z"/></symbol><symbol viewBox="0 0 20 20" id="view" xmlns="http://www.w3.org/2000/svg"><path d="M0 0h4v4H0zm8 0h4v4H8zm8 0h4v4h-4zM0 8h4v4H0zm8 0h4v4H8zm8 0h4v4h-4zM0 16h4v4H0zm8 0h4v4H8zm8 0h4v4h-4z"/></symbol><symbol viewBox="0 0 20 20" id="view-2" xmlns="http://www.w3.org/2000/svg"><rect width="4" height="4" rx="2"/><rect x="7" width="13" height="4" rx="2"/><rect y="8" width="4" height="4" rx="2"/><rect x="7" y="8" width="13" height="4" rx="2"/><rect y="16" width="4" height="4" rx="2"/><rect x="7" y="16" width="13" height="4" rx="2"/></symbol><symbol viewBox="0 0 18 20" id="view-3" xmlns="http://www.w3.org/2000/svg"><rect x="4" y="12" width="14" height="2" rx="1"/><rect y="12" width="2" height="2" rx="1"/><rect x="4" y="18" width="14" height="2" rx="1"/><rect y="18" width="2" height="2" rx="1"/><rect x="4" y="6" width="14" height="2" rx="1"/><rect y="6" width="2" height="2" rx="1"/><rect x="4" width="14" height="2" rx="1"/><rect width="2" height="2" rx="1"/></symbol></svg>