<svg width="20" height="21" viewBox="0 0 20 21" fill="none" xmlns="http://www.w3.org/2000/svg">
<path fill-rule="evenodd" clip-rule="evenodd" d="M1 16.01C1 16.7658 1.61465 17.3805 2.37043 17.3805H8.49663V15.928H2.45248V7.2419H15.428V8.99666H16.8804V6.51566C16.8804 6.4382 16.8683 6.36355 16.8458 6.29353L14.6299 2.27544C14.3647 1.79688 13.8604 1.50003 13.3131 1.50003H4.56738C4.0201 1.50003 3.51574 1.79693 3.25058 2.27468L1.02168 6.2859L1.03475 6.29316C1.01219 6.36329 1 6.43806 1 6.51566V16.01ZM13.3586 2.97871C13.3503 2.96334 13.3334 2.95251 13.3131 2.95251H9.66646V5.78942H14.9198L13.3586 2.97871ZM4.52005 2.97978L2.9597 5.78942H8.21398V2.95251H4.56738C4.54712 2.95251 4.52914 2.96348 4.52005 2.97978Z" fill="#273142"/>
<path fill-rule="evenodd" clip-rule="evenodd" d="M16.858 6.28676L14.6299 2.27544L16.8458 6.29353L16.858 6.28676Z" fill="#273142"/>
<path fill-rule="evenodd" clip-rule="evenodd" d="M9.57879 15.2894C9.57879 18.1626 11.9162 20.5 14.7894 20.5C17.6626 20.5 20 18.1626 20 15.2894C20 12.4162 17.6626 10.0788 14.7894 10.0788C11.9162 10.0788 9.57879 12.4162 9.57879 15.2894ZM14.7894 11.5313C12.7173 11.5313 11.0313 13.2173 11.0313 15.2894C11.0313 17.3615 12.7173 19.0476 14.7894 19.0476C16.8615 19.0476 18.5475 17.3615 18.5475 15.2894C18.5475 13.2173 16.8615 11.5313 14.7894 11.5313Z" fill="#273142"/>
<path fill-rule="evenodd" clip-rule="evenodd" d="M14.1649 15.4881L16.3106 13.0121L17.4956 14.0382L14.7982 17.1506C14.6582 17.3111 14.4588 17.4095 14.2449 17.4199C14.2265 17.4221 14.2119 17.4221 14.2063 17.422L14.205 17.422C13.9974 17.422 13.7976 17.3397 13.6509 17.192L12.1313 15.6724L13.2399 14.5638L14.1649 15.4881Z" fill="#273142"/>
</svg>
