<svg width="20" height="21" viewBox="0 0 20 21" fill="none" xmlns="http://www.w3.org/2000/svg">
<path fill-rule="evenodd" clip-rule="evenodd" d="M14.5605 9.6214C11.5612 9.6214 9.12106 12.0615 9.12106 15.0607C9.12106 18.0599 11.5612 20.5 14.5605 20.5C17.5598 20.5 20 18.0599 20 15.0607C20 12.0615 17.5598 9.6214 14.5605 9.6214ZM14.5605 10.9646C12.3019 10.9646 10.4643 12.8022 10.4643 15.0607C10.4643 17.3192 12.3019 19.1568 14.5605 19.1568C16.8191 19.1568 18.6567 17.3192 18.6567 15.0607C18.6567 12.8022 16.8191 10.9646 14.5605 10.9646Z" fill="#273142"/>
<path d="M15.2322 12.7308H13.8889V14.3891H12.2305V15.7323H13.8889V17.3906H15.2322V15.7323H16.8905V14.3891H15.2322V12.7308Z" fill="#273142"/>
<path fill-rule="evenodd" clip-rule="evenodd" d="M8.63044 0.567847C8.44503 0.477384 8.22827 0.477384 8.04286 0.567847L0.316 4.33399C0.11903 4.45672 0 4.67249 0 4.90347V12.5732C0 12.8159 0.131711 13.0407 0.34389 13.1597L7.43542 17.1225L8.09092 15.9495L1.34328 12.1792V5.97719L3.73134 7.13974V9.9199H5.07463V7.79368L8.04207 9.23829C8.22498 9.32789 8.45757 9.32783 8.64047 9.23823L15.34 5.97719V8.26987H16.6833V4.90347C16.6833 4.6726 16.5643 4.45681 16.3682 4.33486L8.63044 0.567847ZM14.477 4.90388L11.9429 3.67209L5.91585 6.70916L8.34163 7.89033L14.477 4.90388ZM4.3977 5.96993L10.4233 2.93338L8.33667 1.91909L2.20647 4.90296L4.3977 5.96993Z" fill="#273142"/>
</svg>
