<svg width="17" height="16" viewBox="0 0 17 16" fill="none" xmlns="http://www.w3.org/2000/svg">
<path fill-rule="evenodd" clip-rule="evenodd" d="M8.16308 11.8315C8.16308 14.13 10.033 16 12.3316 16C14.6301 16 16.5 14.13 16.5 11.8315C16.5 9.53296 14.6301 7.66302 12.3316 7.66302C10.033 7.66302 8.16308 9.53296 8.16308 11.8315ZM12.3316 8.825C10.6739 8.825 9.32506 10.1738 9.32506 11.8315C9.32506 13.4892 10.6739 14.838 12.3316 14.838C13.9892 14.838 15.3381 13.4892 15.3381 11.8315C15.3381 10.1738 13.9892 8.825 12.3316 8.825ZM12.9126 11.2505V10.0027H11.7506V11.2505H10.5027V12.4125H11.7506V13.6603H12.9126V12.4125H14.1604V11.2505H12.9126Z" fill="white"/>
<path fill-rule="evenodd" clip-rule="evenodd" d="M1.30005 12.408C1.30005 13.0126 1.79177 13.5043 2.39639 13.5043H7.29735V12.3424H2.46203V5.39349H12.8424V6.79729H14.0044V4.8125C14.0044 4.75052 13.9947 4.6908 13.9767 4.63479L12.2039 1.42032C11.9918 1.03747 11.5883 0.799988 11.1505 0.799988H4.15395C3.71613 0.799988 3.31264 1.03751 3.10051 1.41971L1.31739 4.62868L1.32785 4.63449C1.3098 4.6906 1.30005 4.75041 1.30005 4.8125V12.408ZM11.1869 1.98293C11.1803 1.97063 11.1667 1.96197 11.1505 1.96197H8.23322V4.2315H12.4359L11.1869 1.98293ZM4.11609 1.98379L2.86781 4.2315H7.07123V1.96197H4.15395C4.13775 1.96197 4.12336 1.97075 4.11609 1.98379Z" fill="white"/>
<path fill-rule="evenodd" clip-rule="evenodd" d="M13.9865 4.62937L12.2039 1.42032L13.9767 4.63479L13.9865 4.62937Z" fill="white"/>
</svg>
