<svg width="22" height="22" viewBox="0 0 22 22" fill="none" xmlns="http://www.w3.org/2000/svg">
<path fill-rule="evenodd" clip-rule="evenodd" d="M21.1712 6.94901L18.3089 1.79608L21.1556 6.95771L21.1712 6.94901Z" fill="#2CA483"/>
<path fill-rule="evenodd" clip-rule="evenodd" d="M0.800049 19.4395C0.800049 20.4104 1.58963 21.2 2.5605 21.2L10.4103 21.1998H19.4396C20.4105 21.1998 21.2001 20.4102 21.2001 19.4394V10.4301V7.24307C21.2001 7.14355 21.1844 7.04766 21.1556 6.95771L18.3089 1.79608C17.9683 1.18133 17.3204 0.799988 16.6174 0.799988H5.3827C4.67967 0.799988 4.03176 1.18139 3.69114 1.7951L0.827894 6.94791L0.844694 6.95724C0.815706 7.04733 0.800049 7.14338 0.800049 7.24307V19.4395ZM16.6759 2.6995C16.6653 2.67975 16.6435 2.66584 16.6174 2.66584H11.933V6.31014H18.6815L16.6759 2.6995ZM5.3219 2.70087L3.31747 6.31014H10.0671V2.66584H5.3827C5.35668 2.66584 5.33358 2.67993 5.3219 2.70087ZM19.3342 8.17599H2.6659V19.3341L10.4103 19.334H19.3342V10.4301V8.17599Z" fill="#2CA483"/>
</svg>
