<svg width="16" height="17" viewBox="0 0 16 17" fill="none" xmlns="http://www.w3.org/2000/svg">
<path d="M7.99967 14.6695C11.6816 14.6695 14.6663 11.6847 14.6663 8.00285C14.6663 4.32095 11.6816 1.33618 7.99967 1.33618C4.31778 1.33618 1.33301 4.32095 1.33301 8.00285C1.33301 11.6847 4.31778 14.6695 7.99967 14.6695Z" fill="#7D838E" fill-opacity="0.6"/>
<path fill-rule="evenodd" clip-rule="evenodd" d="M5.52827 5.53144C5.78862 5.27109 6.21073 5.27109 6.47108 5.53144L7.99967 7.06004L9.52827 5.53144C9.78862 5.27109 10.2107 5.27109 10.4711 5.53144C10.7314 5.79179 10.7314 6.2139 10.4711 6.47425L8.94248 8.00285L10.4711 9.53144C10.7314 9.79179 10.7314 10.2139 10.4711 10.4743C10.2107 10.7346 9.78862 10.7346 9.52827 10.4743L7.99967 8.94566L6.47108 10.4743C6.21073 10.7346 5.78862 10.7346 5.52827 10.4743C5.26792 10.2139 5.26792 9.79179 5.52827 9.53144L7.05687 8.00285L5.52827 6.47425C5.26792 6.2139 5.26792 5.79179 5.52827 5.53144Z" fill="white"/>
</svg>
