<svg width="50" height="50" viewBox="0 0 50 50" fill="none" xmlns="http://www.w3.org/2000/svg">
<path d="M20.1389 18.0556C14.2723 18.0556 8.33337 16.3862 8.33337 13.1945C8.33337 10.0028 14.2723 8.33337 20.1389 8.33337C26.0056 8.33337 31.9445 10.0028 31.9445 13.1945C31.9445 16.3862 26.0056 18.0556 20.1389 18.0556ZM20.1389 10.4167C13.8487 10.4167 10.4167 12.2514 10.4167 13.1945C10.4167 14.1375 13.8487 15.9723 20.1389 15.9723C26.4292 15.9723 29.8612 14.1375 29.8612 13.1945C29.8612 12.2514 26.4292 10.4167 20.1389 10.4167Z" fill="#2CA483"/>
<path d="M20.1389 25C14.2723 25 8.33337 23.3306 8.33337 20.1389H10.4167C10.4167 21.082 13.8487 22.9167 20.1389 22.9167C21.0875 22.9167 22.0514 22.8681 23.0056 22.7709L23.2167 24.8431C22.1931 24.9473 21.157 25 20.1389 25Z" fill="#2CA483"/>
<path d="M20.5 31.9445H20.1389C14.2723 31.9445 8.33337 30.275 8.33337 27.0834H10.4167C10.4167 28.0264 13.8487 29.8612 20.1389 29.8612H20.5V31.9445Z" fill="#2CA483"/>
<path d="M8.33337 13.1945H10.4167V27.0833H8.33337V13.1945Z" fill="#2CA483"/>
<path d="M29.8612 13.1945H31.9445V20.5014H29.8612V13.1945Z" fill="#2CA483"/>
<path d="M31.0834 35.4167H28.125V33.3334H31.0834C31.5584 33.3334 31.9445 32.9472 31.9445 32.4722C31.9445 31.9834 31.5584 31.5972 31.0834 31.5972H30.0278C28.4042 31.5972 27.0834 30.2764 27.0834 28.6528C27.0834 27.0153 28.4042 25.6945 30.0278 25.6945H32.9862V27.7778H30.0278C29.5528 27.7778 29.1667 28.1639 29.1667 28.6389C29.1667 29.1278 29.5528 29.5139 30.0278 29.5139H31.0834C32.707 29.5139 34.0278 30.8347 34.0278 32.4584C34.0278 34.0959 32.707 35.4167 31.0834 35.4167Z" fill="#2CA483"/>
<path d="M29.5139 24.6528H31.5972V26.7362H29.5139V24.6528Z" fill="#2CA483"/>
<path d="M29.5139 34.375H31.5972V36.4583H29.5139V34.375Z" fill="#2CA483"/>
<path d="M30.5556 41.6667C24.4292 41.6667 19.4445 36.682 19.4445 30.5556C19.4445 24.4292 24.4292 19.4445 30.5556 19.4445C36.6819 19.4445 41.6667 24.4292 41.6667 30.5556C41.6667 36.682 36.6819 41.6667 30.5556 41.6667ZM30.5556 21.5278C25.5778 21.5278 21.5278 25.5778 21.5278 30.5556C21.5278 35.5334 25.5778 39.5834 30.5556 39.5834C35.5333 39.5834 39.5833 35.5334 39.5833 30.5556C39.5833 25.5778 35.5333 21.5278 30.5556 21.5278Z" fill="#2CA483"/>
</svg>
