<svg width="50" height="50" viewBox="0 0 50 50" fill="none" xmlns="http://www.w3.org/2000/svg">
<path d="M32.2917 40.2778H12.1528C10.0459 40.2778 8.33337 38.5653 8.33337 36.4584V24.6528C8.33337 22.5459 10.0459 20.8334 12.1528 20.8334H32.2917C34.3987 20.8334 36.1112 22.5459 36.1112 24.6528V36.4584C36.1112 38.5653 34.3987 40.2778 32.2917 40.2778ZM12.1528 22.9167C11.1959 22.9167 10.4167 23.6959 10.4167 24.6528V36.4584C10.4167 37.4153 11.1959 38.1945 12.1528 38.1945H32.2917C33.2487 38.1945 34.0278 37.4153 34.0278 36.4584V24.6528C34.0278 23.6959 33.2487 22.9167 32.2917 22.9167H12.1528Z" fill="#2CA483"/>
<path d="M17.0139 31.9444H14.9306C13.5903 31.9444 12.5 30.8542 12.5 29.5139V27.4306C12.5 26.0903 13.5903 25 14.9306 25H17.0139C18.3542 25 19.4444 26.0903 19.4444 27.4306V29.5139C19.4444 30.8542 18.3542 31.9444 17.0139 31.9444ZM14.9306 27.0833C14.7389 27.0833 14.5833 27.2389 14.5833 27.4306V29.5139C14.5833 29.7056 14.7389 29.8611 14.9306 29.8611H17.0139C17.2056 29.8611 17.3611 29.7056 17.3611 29.5139V27.4306C17.3611 27.2389 17.2056 27.0833 17.0139 27.0833H14.9306Z" fill="#2CA483"/>
<path d="M12.5 34.0278H31.9444V36.1112H12.5V34.0278Z" fill="#2CA483"/>
<path d="M15.625 15.2778H39.9306V17.3612H15.625V15.2778Z" fill="#2CA483"/>
<path d="M39.5834 13.5416V25.3472C39.5834 26.3041 38.8042 27.0833 37.8472 27.0833V29.1666C39.9542 29.1666 41.6667 27.4541 41.6667 25.3472V13.5416C41.6667 11.4347 39.9542 9.72217 37.8472 9.72217H17.7084C15.6014 9.72217 13.8889 11.4347 13.8889 13.5416V20H15.9722V13.5416C15.9722 12.5847 16.7514 11.8055 17.7084 11.8055H37.8472C38.8042 11.8055 39.5834 12.5847 39.5834 13.5416Z" fill="#2CA483"/>
</svg>
