<svg width="50" height="50" viewBox="0 0 50 50" fill="none" xmlns="http://www.w3.org/2000/svg">
    <path d="M41.6668 41.625H39.5835V38.9736C39.5835 35.1625 36.546 32.0611 32.8127 32.0611H30.2085V29.9778H32.8127C37.696 29.9778 41.6668 34.0139 41.6668 38.9736V41.625Z"
          fill="white"/>
    <path d="M34.0804 35.7804L29.5234 31.8041C29.2971 31.6068 29.1665 31.3207 29.1665 31.0193C29.1665 30.7179 29.2971 30.4318 29.5234 30.2346L34.0804 26.2568L35.4498 27.8263L31.7915 31.0193L35.4498 34.211L34.0804 35.7804Z"
          fill="white"/>
    <path d="M29.5141 37.1111H10.5224C9.31544 37.1111 8.3335 36.1291 8.3335 34.9222V18.0138C8.3335 17.4388 8.80016 16.9722 9.37516 16.9722H35.0696C35.6446 16.9722 36.1113 17.4388 36.1113 18.0138V23.5694H34.0279V19.0555H10.4168V34.9222C10.4168 34.9805 10.4641 35.0277 10.5224 35.0277H29.5141V37.1111Z"
          fill="white"/>
    <path d="M34.1602 18.5196L30.3144 11.596C30.2519 11.4849 30.1366 11.4168 30.0102 11.4168H14.4352C14.3088 11.4168 14.1935 11.4849 14.131 11.596L10.2852 18.5196L8.46436 17.5071L12.3102 10.5835C12.7394 9.81266 13.5532 9.3335 14.4352 9.3335H30.0116C30.8935 9.3335 31.7074 9.81266 32.1352 10.5835L35.981 17.5071L34.1602 18.5196Z"
          fill="white"/>
    <path d="M21.1807 10.375H23.264V18.0139H21.1807V10.375Z" fill="white"/>
</svg>
