<svg width="15" height="16" viewBox="0 0 15 16" fill="none" xmlns="http://www.w3.org/2000/svg">
	<path fill-rule="evenodd" clip-rule="evenodd"
		  d="M7.5 2.31256C4.35888 2.31256 1.8125 4.85894 1.8125 8.00006C1.8125 11.1412 4.35888 13.6876 7.5 13.6876C10.6411 13.6876 13.1875 11.1412 13.1875 8.00006C13.1875 4.85894 10.6411 2.31256 7.5 2.31256ZM0.6875 8.00006C0.6875 4.23762 3.73756 1.18756 7.5 1.18756C11.2624 1.18756 14.3125 4.23762 14.3125 8.00006C14.3125 11.7625 11.2624 14.8126 7.5 14.8126C3.73756 14.8126 0.6875 11.7625 0.6875 8.00006Z"
		  fill="#7D838E"/>
	<path d="M7.67195 5.45362C7.36645 5.40122 7.05226 5.45863 6.78504 5.61568C6.51781 5.77273 6.31479 6.01929 6.21193 6.31168C6.10884 6.60474 5.7877 6.75874 5.49464 6.65565C5.20159 6.55256 5.04759 6.23142 5.15068 5.93836C5.3417 5.39534 5.71874 4.93745 6.21502 4.64578C6.7113 4.35411 7.29478 4.2475 7.86214 4.34481C8.42949 4.44213 8.94409 4.7371 9.31481 5.17748C9.68548 5.61781 9.88838 6.17512 9.88756 6.7507C9.88722 7.67393 9.20218 8.28923 8.69957 8.6243C8.43109 8.80329 8.16662 8.93512 7.97148 9.02185C7.87311 9.06557 7.79035 9.09871 7.73087 9.12137C7.70108 9.13272 7.677 9.14149 7.65956 9.14769L7.63845 9.15508L7.63183 9.15735L7.62953 9.15812L7.62865 9.15842L7.62793 9.15866C7.33322 9.2569 7.01466 9.09762 6.91642 8.8029C6.81831 8.50856 6.97705 8.19044 7.27105 8.09176L7.27176 8.09153L7.28267 8.0877C7.2927 8.08414 7.30889 8.07826 7.33037 8.07008C7.37343 8.05367 7.43716 8.02822 7.51457 7.99382C7.67099 7.92429 7.87527 7.82176 8.07554 7.68824C8.51031 7.39839 8.76256 7.07641 8.76256 6.75002L8.76256 6.74918C8.76302 6.43922 8.65377 6.1391 8.45415 5.90198C8.25454 5.66485 7.97744 5.50602 7.67195 5.45362Z"
		  fill="#7D838E"/>
	<path fill-rule="evenodd" clip-rule="evenodd"
		  d="M6.82495 11.125C6.82495 10.7523 7.12716 10.45 7.49995 10.45H7.50651C7.87931 10.45 8.18151 10.7523 8.18151 11.125C8.18151 11.4978 7.87931 11.8 7.50651 11.8H7.49995C7.12716 11.8 6.82495 11.4978 6.82495 11.125Z"
		  fill="#7D838E"/>
</svg>
