<svg width="18" height="18" viewBox="0 0 18 18" fill="none" xmlns="http://www.w3.org/2000/svg">
    <path d="M9.00083 5.99998C10.6576 5.99998 12.0009 7.34305 12.0009 8.99998C12.0009 10.6567 10.6576 12 9.00083 12C7.34388 12 6.0008 10.6567 6.0008 8.99998C6.0008 7.34305 7.34388 5.99998 9.00083 5.99998Z"
          fill="#2CA483"/>
    <path fill-rule="evenodd" clip-rule="evenodd"
          d="M9.00084 0C6.55657 0 6.24981 0.0106875 5.2898 0.054375C4.33167 0.09825 3.67766 0.249938 3.10541 0.4725C2.51346 0.702375 2.01133 1.00988 1.51108 1.51031C1.01045 2.01056 0.702945 2.51269 0.472317 3.10444C0.24919 3.67688 0.0973135 4.33106 0.0541881 5.28881C0.0112501 6.24881 0 6.55575 0 9C0 11.4443 0.0108751 11.7501 0.0543756 12.7101C0.0984385 13.6682 0.250128 14.3222 0.472505 14.8944C0.70257 15.4864 1.01007 15.9885 1.51052 16.4888C2.01058 16.9894 2.51271 17.2976 3.10428 17.5275C3.67691 17.7501 4.33111 17.9018 5.28906 17.9456C6.24907 17.9893 6.55563 18 8.99972 18C11.4442 18 11.75 17.9893 12.71 17.9456C13.6681 17.9018 14.3229 17.7501 14.8955 17.5275C15.4873 17.2976 15.9887 16.9894 16.4887 16.4888C16.9894 15.9885 17.2969 15.4864 17.5275 14.8946C17.7487 14.3222 17.9006 13.668 17.9456 12.7103C17.9888 11.7503 18 11.4443 18 9C18 6.55575 17.9888 6.249 17.9456 5.289C17.9006 4.33088 17.7487 3.67688 17.5275 3.10463C17.2969 2.51269 16.9894 2.01056 16.4887 1.51031C15.9881 1.00969 15.4875 0.702188 14.895 0.4725C14.3212 0.249938 13.6668 0.09825 12.7087 0.054375C11.7487 0.0106875 11.4431 0 8.99803 0H9.00084ZM9.00065 4.37814C6.44827 4.37824 4.37891 6.44764 4.37891 9.00002C4.37891 11.5525 6.44837 13.621 9.00083 13.621C11.5533 13.621 13.622 11.5525 13.622 9.00002C13.622 6.44758 11.5531 4.37814 9.00065 4.37814ZM12.0009 8.99998C12.0009 7.34305 10.6576 5.99998 9.00083 5.99998C7.34388 5.99998 6.0008 7.34305 6.0008 8.99998C6.0008 10.6567 7.34388 12 9.00083 12C10.6576 12 12.0009 10.6567 12.0009 8.99998ZM13.805 3.11627C13.2088 3.11627 12.725 3.59946 12.725 4.1959C12.725 4.79215 13.2088 5.2759 13.805 5.2759C14.4013 5.2759 14.885 4.79215 14.885 4.1959C14.885 3.59965 14.4013 3.11627 13.805 3.11627Z"
          fill="#2CA483"/>
</svg>
