<svg width="16" height="21" viewBox="0 0 16 21" fill="none" xmlns="http://www.w3.org/2000/svg">
<path fill-rule="evenodd" clip-rule="evenodd" d="M11.5782 16.5902C10.3822 17.7493 9.11174 18.9804 8 20.5326C6.88877 18.9809 5.61855 17.7499 4.4225 16.5908C2.06748 14.3085 0 12.3049 0 8.68076C0 4.01162 3.41726 0.532593 8 0.532593C12.5842 0.532593 16 4.01162 16 8.68072C16 12.3053 13.9332 14.3081 11.5782 16.5902ZM11.0769 8.65758C11.0769 10.3828 9.69958 11.7826 7.99941 11.7826C6.30042 11.7826 4.92308 10.3828 4.92308 8.65758C4.92308 6.93117 6.30042 5.53259 7.99941 5.53259C9.69958 5.53259 11.0769 6.93117 11.0769 8.65758Z" fill="#013543"/>
</svg>
