<svg width="16" height="16" viewBox="0 0 16 16" fill="none" xmlns="http://www.w3.org/2000/svg">
<path d="M2.43074 6.39998H5.56921C5.78954 6.39998 6.00085 6.31245 6.15665 6.15665C6.31245 6.00085 6.39998 5.78954 6.39998 5.56921V2.43074C6.39998 2.21041 6.31245 1.9991 6.15665 1.8433C6.00085 1.6875 5.78954 1.59998 5.56921 1.59998H2.43074C2.21041 1.59998 1.9991 1.6875 1.8433 1.8433C1.6875 1.9991 1.59998 2.21041 1.59998 2.43074V5.56921C1.59998 5.78954 1.6875 6.00085 1.8433 6.15665C1.9991 6.31245 2.21041 6.39998 2.43074 6.39998Z" fill="#2BBA93"/>
<path d="M10.4307 6.39998H13.5692C13.7895 6.39998 14.0008 6.31245 14.1566 6.15665C14.3124 6.00085 14.4 5.78954 14.4 5.56921V2.43074C14.4 2.21041 14.3124 1.9991 14.1566 1.8433C14.0008 1.6875 13.7895 1.59998 13.5692 1.59998H10.4307C10.2104 1.59998 9.9991 1.6875 9.8433 1.8433C9.6875 1.9991 9.59998 2.21041 9.59998 2.43074V5.56921C9.59998 5.78954 9.6875 6.00085 9.8433 6.15665C9.9991 6.31245 10.2104 6.39998 10.4307 6.39998Z" fill="#2BBA93"/>
<path d="M10.4307 14.4H13.5692C13.7895 14.4 14.0008 14.3124 14.1566 14.1566C14.3124 14.0008 14.4 13.7895 14.4 13.5692V10.4307C14.4 10.2104 14.3124 9.9991 14.1566 9.8433C14.0008 9.6875 13.7895 9.59998 13.5692 9.59998H10.4307C10.2104 9.59998 9.9991 9.6875 9.8433 9.8433C9.6875 9.9991 9.59998 10.2104 9.59998 10.4307V13.5692C9.59998 13.7895 9.6875 14.0008 9.8433 14.1566C9.9991 14.3124 10.2104 14.4 10.4307 14.4Z" fill="#2BBA93"/>
<path d="M2.43074 14.4H5.56921C5.78954 14.4 6.00085 14.3124 6.15665 14.1566C6.31245 14.0008 6.39998 13.7895 6.39998 13.5692V10.4307C6.39998 10.2104 6.31245 9.9991 6.15665 9.8433C6.00085 9.6875 5.78954 9.59998 5.56921 9.59998H2.43074C2.21041 9.59998 1.9991 9.6875 1.8433 9.8433C1.6875 9.9991 1.59998 10.2104 1.59998 10.4307V13.5692C1.59998 13.7895 1.6875 14.0008 1.8433 14.1566C1.9991 14.3124 2.21041 14.4 2.43074 14.4Z" fill="#2BBA93"/>
</svg>
