<svg width="11" height="18" viewBox="0 0 11 18" fill="none" xmlns="http://www.w3.org/2000/svg">
	<path fill-rule="evenodd" clip-rule="evenodd"
		  d="M7.34697 13.0803C8.32646 12.8649 9.27112 12.4908 10.1412 11.9633C10.7997 11.5625 10.998 10.7224 10.5831 10.0868C10.1686 9.44976 9.29876 9.25799 8.63914 9.65876C6.66807 10.8552 4.13037 10.8549 2.16045 9.65876C1.50083 9.25799 0.630752 9.44976 0.217016 10.0868C-0.197871 10.7229 -7.26208e-05 11.5625 0.658392 11.9633C1.52847 12.4902 2.47313 12.8649 3.45262 13.0803L0.762329 15.6772C0.21241 16.2085 0.21241 17.0701 0.762905 17.6015C1.03844 17.8669 1.39891 17.9998 1.75938 17.9998C2.12043 17.9998 2.48148 17.8669 2.75701 17.6015L5.39951 15.0496L8.0443 17.6015C8.59422 18.1329 9.48648 18.1329 10.037 17.6015C10.588 17.0701 10.588 16.208 10.037 15.6772L7.34697 13.0803Z"
		  fill="#2CA483"/>
	<path fill-rule="evenodd" clip-rule="evenodd"
		  d="M10.1997 4.64519C10.1997 7.20596 8.04205 9.28898 5.38775 9.28898C2.73403 9.28898 0.575809 7.20596 0.575809 4.64519C0.575809 2.08358 2.73403 0 5.38775 0C8.04205 0 10.1997 2.08358 10.1997 4.64519ZM7.3801 4.64521C7.3801 3.58466 6.48641 2.72227 5.38772 2.72227C4.2899 2.72227 3.39534 3.58466 3.39534 4.64521C3.39534 5.70492 4.2899 6.56787 5.38772 6.56787C6.48641 6.56787 7.3801 5.70492 7.3801 4.64521Z"
		  fill="#2CA483"/>
</svg>
