<svg width="50" height="50" viewBox="0 0 50 50" fill="none" xmlns="http://www.w3.org/2000/svg">
<path d="M25 31.9443C21.1708 31.9443 18.0555 28.829 18.0555 24.9999C18.0555 21.1707 21.1708 18.0554 25 18.0554C28.8292 18.0554 31.9444 21.1707 31.9444 24.9999C31.9444 28.829 28.8292 31.9443 25 31.9443ZM25 20.1388C22.3194 20.1388 20.1389 22.3193 20.1389 24.9999C20.1389 27.6804 22.3194 29.861 25 29.861C27.6805 29.861 29.8611 27.6804 29.8611 24.9999C29.8611 22.3193 27.6805 20.1388 25 20.1388Z" fill="white"/>
<path d="M27.3097 41.6668H22.6902C21.5791 41.6668 20.5972 40.8779 20.3555 39.7904L19.7708 37.1904C18.818 36.7863 17.9097 36.2585 17.0569 35.6141L14.5249 36.4141C13.4388 36.7516 12.2583 36.2904 11.7138 35.3182L9.41105 31.3363C8.85966 30.3502 9.04577 29.1363 9.85688 28.3724L11.8194 26.5682C11.7597 26.0391 11.7305 25.5141 11.7305 25.0002C11.7305 24.4863 11.7597 23.9613 11.818 23.4321L9.86522 21.6377C9.04438 20.8654 8.85688 19.6516 9.40272 18.6779L11.7194 14.671C12.2583 13.7085 13.443 13.2502 14.5208 13.5835L17.0569 14.3849C17.9097 13.7404 18.818 13.2127 19.7708 12.8085L20.3569 10.2057C20.5972 9.12239 21.5791 8.3335 22.6902 8.3335H27.3097C28.4208 8.3335 29.4027 9.12238 29.6444 10.2099L30.2291 12.8099C31.1819 13.2141 32.0902 13.7418 32.943 14.3863L35.4749 13.5863C36.5638 13.2516 37.7416 13.7099 38.286 14.6821L40.5888 18.6641C41.1402 19.6502 40.9541 20.8641 40.143 21.6279L38.1805 23.4321C38.2388 23.9613 38.268 24.4877 38.268 25.0002C38.268 25.5127 38.2388 26.0391 38.1805 26.5682L40.1333 28.3627C40.136 28.3654 40.1388 28.3682 40.143 28.371C40.9541 29.1349 41.1416 30.3488 40.5958 31.3224L38.2791 35.3293C37.7402 36.2891 36.5583 36.7488 35.4777 36.4141L32.9416 35.6127C32.0888 36.2571 31.1805 36.7849 30.2277 37.1891L29.6416 39.7918C29.4027 40.8779 28.4208 41.6668 27.3097 41.6668ZM17.2694 33.4154C17.5083 33.4154 17.743 33.4974 17.9319 33.6529C18.8861 34.4377 19.9263 35.0432 21.0277 35.4488C21.3597 35.571 21.6055 35.8529 21.6833 36.1974L22.3902 39.3363C22.4222 39.4807 22.5485 39.5835 22.6916 39.5835H27.311C27.4541 39.5835 27.5805 39.4807 27.611 39.3391L28.3194 36.1974C28.3972 35.8529 28.643 35.571 28.9749 35.4488C30.0749 35.0432 31.1166 34.4377 32.0708 33.6529C32.3416 33.4279 32.711 33.3557 33.0472 33.4627L36.1041 34.4279C36.2499 34.4738 36.4055 34.421 36.4722 34.3002L38.7888 30.2932C38.8583 30.1696 38.8333 30.0002 38.7222 29.8918L36.3777 27.7363C36.1235 27.5029 36.0013 27.1571 36.0527 26.8154C36.1444 26.2002 36.1902 25.5891 36.1902 24.9988C36.1902 24.4085 36.1444 23.7974 36.0527 23.1821C36.0013 22.8404 36.1235 22.496 36.3777 22.2613L38.7277 20.1002C38.8333 20.0016 38.8583 19.8293 38.7819 19.6918L36.4791 15.7099C36.4055 15.5766 36.2472 15.5238 36.1013 15.571L33.0485 16.5349C32.7138 16.6418 32.3458 16.5696 32.0722 16.3446C31.118 15.5599 30.0777 14.9543 28.9763 14.5488C28.6444 14.4266 28.3986 14.1446 28.3208 13.8002L27.6138 10.6613C27.5791 10.5196 27.4527 10.4168 27.3097 10.4168H22.6902C22.5472 10.4168 22.4208 10.5196 22.3902 10.6613L21.6819 13.8029C21.6041 14.1474 21.3583 14.4293 21.0263 14.5516C19.9263 14.9571 18.8847 15.5627 17.9305 16.3474C17.6583 16.571 17.2888 16.6418 16.9541 16.5377L13.8972 15.5724C13.7527 15.5293 13.5958 15.5807 13.5291 15.7002L11.2124 19.7071C11.143 19.8321 11.168 20.0043 11.2833 20.1127L13.6249 22.2641C13.8791 22.4974 14.0013 22.8432 13.9499 23.1849C13.8597 23.7988 13.8138 24.4099 13.8138 25.0002C13.8138 25.5904 13.8597 26.2016 13.9513 26.8168C14.0027 27.1585 13.8805 27.5029 13.6263 27.7377L11.2763 29.8988C11.1708 29.9974 11.1458 30.1696 11.2222 30.3071L13.5249 34.2891C13.5986 34.421 13.7541 34.471 13.9027 34.4279L16.9555 33.4641C17.0583 33.4307 17.1638 33.4154 17.2694 33.4154Z" fill="white"/>
</svg>
