<svg width="50" height="50" viewBox="0 0 50 50" fill="none" xmlns="http://www.w3.org/2000/svg">
<path d="M10.4167 40.6248H8.33337V17.7081C8.33337 17.3651 8.50143 17.0442 8.78337 16.8512C9.06671 16.654 9.42643 16.6165 9.74588 16.7345L22.9167 21.7526V17.7081C22.9167 17.3706 23.0806 17.0526 23.357 16.8581C23.6334 16.6637 23.9848 16.6109 24.3056 16.7262L35.5695 20.6984L34.8764 22.6623L25.0001 19.1804V23.2637C25.0001 23.6067 24.832 23.9276 24.5501 24.1206C24.2667 24.3165 23.907 24.3567 23.5876 24.2373L10.4167 19.2192V40.6248Z" fill="white"/>
<path d="M36.0139 12.5H39.3334V14.5833H36.0139V12.5Z" fill="white"/>
<path d="M12.5 26.3889H16.6667V28.4722H12.5V26.3889Z" fill="white"/>
<path d="M19.4445 26.3889H23.6111V28.4722H19.4445V26.3889Z" fill="white"/>
<path d="M26.3889 26.3889H30.9028V28.4722H26.3889V26.3889Z" fill="white"/>
<path d="M12.5 30.5554H16.6667V32.6387H12.5V30.5554Z" fill="white"/>
<path d="M19.4445 30.5554H23.6111V32.6387H19.4445V30.5554Z" fill="white"/>
<path d="M26.3889 30.5554H30.9028V32.6387H26.3889V30.5554Z" fill="white"/>
<path d="M12.5 34.7222H16.6667V36.8055H12.5V34.7222Z" fill="white"/>
<path d="M19.4445 34.7222H23.6111V36.8055H19.4445V34.7222Z" fill="white"/>
<path d="M26.3889 34.7222H30.9028V36.8055H26.3889V34.7222Z" fill="white"/>
<path d="M2.77783 39.5835H47.2223V41.6668H2.77783V39.5835Z" fill="white"/>
<path d="M39.5847 40.671L38.2402 10.4168H36.7611L35.4166 40.671L33.3361 40.5793L34.7249 9.32933C34.7486 8.771 35.2069 8.3335 35.7638 8.3335H39.2361C39.793 8.3335 40.2513 8.771 40.2763 9.32933L41.6652 40.5793L39.5847 40.671Z" fill="white"/>
</svg>
