<svg width="18" height="20" viewBox="0 0 18 20" fill="none" xmlns="http://www.w3.org/2000/svg">
<path fill-rule="evenodd" clip-rule="evenodd" d="M7.33342 2.49998C7.1124 2.49998 6.90044 2.58778 6.74416 2.74406C6.58788 2.90034 6.50008 3.1123 6.50008 3.33331V4.16665H11.5001V3.33331C11.5001 3.1123 11.4123 2.90034 11.256 2.74406C11.0997 2.58778 10.8878 2.49998 10.6667 2.49998H7.33342ZM13.1667 4.16665V3.33331C13.1667 2.67027 12.9034 2.03439 12.4345 1.56555C11.9657 1.09671 11.3298 0.833313 10.6667 0.833313H7.33342C6.67037 0.833313 6.03449 1.09671 5.56565 1.56555C5.09681 2.03439 4.83342 2.67027 4.83342 3.33331V4.16665H1.50008C1.03984 4.16665 0.666748 4.53974 0.666748 4.99998C0.666748 5.46022 1.03984 5.83331 1.50008 5.83331H2.33341V16.6666C2.33341 17.3297 2.59681 17.9656 3.06565 18.4344C3.53449 18.9033 4.17037 19.1666 4.83342 19.1666H13.1667C13.8298 19.1666 14.4657 18.9033 14.9345 18.4344C15.4034 17.9656 15.6667 17.3297 15.6667 16.6666V5.83331H16.5001C16.9603 5.83331 17.3334 5.46022 17.3334 4.99998C17.3334 4.53974 16.9603 4.16665 16.5001 4.16665H13.1667ZM4.00008 5.83331V16.6666C4.00008 16.8877 4.08788 17.0996 4.24416 17.2559C4.40044 17.4122 4.6124 17.5 4.83342 17.5H13.1667C13.3878 17.5 13.5997 17.4122 13.756 17.2559C13.9123 17.0996 14.0001 16.8877 14.0001 16.6666V5.83331H4.00008ZM7.33342 8.33331C7.79365 8.33331 8.16675 8.70641 8.16675 9.16665V14.1666C8.16675 14.6269 7.79365 15 7.33342 15C6.87318 15 6.50008 14.6269 6.50008 14.1666V9.16665C6.50008 8.70641 6.87318 8.33331 7.33342 8.33331ZM9.83342 9.16665C9.83342 8.70641 10.2065 8.33331 10.6667 8.33331C11.127 8.33331 11.5001 8.70641 11.5001 9.16665V14.1666C11.5001 14.6269 11.127 15 10.6667 15C10.2065 15 9.83342 14.6269 9.83342 14.1666V9.16665Z" fill="#273142" fill-opacity="0.9"/>
</svg>
