<svg width="50" height="50" viewBox="0 0 50 50" fill="none" xmlns="http://www.w3.org/2000/svg">
	<path d="M11.5 41C11.2285 41 10.957 40.9025 10.741 40.706C10.5895 40.5665 7 37.2485 7 33.782C7 31.145 9.019 29 11.5 29C13.981 29 16 31.145 16 33.782C16 37.25 12.4105 40.5665 12.259 40.706C12.043 40.9025 11.7715 41 11.5 41ZM11.5 31.25C10.2595 31.25 9.25 32.3855 9.25 33.782C9.25 35.3645 10.5265 37.1645 11.4985 38.2625C12.472 37.16 13.75 35.3555 13.75 33.782C13.75 32.3855 12.7405 31.25 11.5 31.25Z"
		  fill="white"/>
	<path d="M30.075 41.6667H12.5V39.5834H30.075C30.2722 39.5834 30.3597 39.4625 30.3986 39.3611C30.4375 39.2597 30.4542 39.1111 30.3083 38.9806L21.0708 30.6209C20.3194 29.9431 20.0694 28.8931 20.4333 27.9472C20.7986 27 21.6889 26.3889 22.7028 26.3889H34.7222V28.4722H22.7028C22.5056 28.4722 22.4181 28.5931 22.3792 28.6945C22.3403 28.7959 22.3236 28.9445 22.4694 29.075L31.707 37.4347C32.4583 38.1125 32.7083 39.1625 32.3445 40.1083C31.9792 41.0556 31.0889 41.6667 30.075 41.6667Z"
		  fill="white"/>
	<path d="M35 27C34.7216 27 34.4432 26.9077 34.2208 26.7231C33.9248 26.48 27 20.7154 27 14.7877C27 10.4938 30.5888 7 35 7C39.4112 7 43 10.4938 43 14.7877C43 20.7154 36.0752 26.48 35.7792 26.7231C35.5568 26.9077 35.2784 27 35 27ZM35 9.30769C31.912 9.30769 29.4 11.7662 29.4 14.7877C29.4 18.6062 33.2976 22.6754 35 24.2708C36.7024 22.6754 40.6 18.6062 40.6 14.7877C40.6 11.7662 38.088 9.30769 35 9.30769Z"
		  fill="white"/>
	<path d="M35 18C33.3455 18 32 16.6545 32 15C32 13.3455 33.3455 12 35 12C36.6545 12 38 13.3455 38 15C38 16.6545 36.6545 18 35 18ZM35 14.25C34.5875 14.25 34.25 14.5875 34.25 15C34.25 15.4125 34.5875 15.75 35 15.75C35.4125 15.75 35.75 15.4125 35.75 15C35.75 14.5875 35.4125 14.25 35 14.25Z"
		  fill="white"/>
</svg>
