<svg width="50" height="50" viewBox="0 0 50 50" fill="none" xmlns="http://www.w3.org/2000/svg">
<path d="M33.3332 42.3332C33.1943 42.3332 33.0554 42.3055 32.9249 42.2499C32.6026 42.1124 24.9999 38.8013 24.9999 31.9916V26.411C24.9999 25.9652 25.2832 25.5693 25.7068 25.4249L32.9985 22.9443C33.2151 22.8707 33.4513 22.8707 33.6679 22.9443L40.9596 25.4249C41.3832 25.5693 41.6665 25.9652 41.6665 26.411V31.9916C41.6665 38.8013 34.0638 42.1124 33.7415 42.2513C33.611 42.3055 33.4721 42.3332 33.3332 42.3332ZM27.0832 27.1568V31.9902C27.0832 36.6193 31.8832 39.4027 33.3332 40.136C34.7832 39.4027 39.5832 36.6193 39.5832 31.9902V27.1568L33.3332 25.0304L27.0832 27.1568Z" fill="white"/>
<path d="M32.9859 36.0831C32.7109 36.0831 32.4443 35.9747 32.2498 35.7775L29.472 32.9997L30.9457 31.5261L32.8748 33.4553L36.3193 28.8608L37.9846 30.1108L33.8179 35.6664C33.6373 35.9081 33.3609 36.0581 33.0582 36.0803C33.0346 36.0817 33.0109 36.0831 32.9859 36.0831Z" fill="white"/>
<path d="M23.0408 38.1667H12.152C10.045 38.1667 8.33252 36.4542 8.33252 34.3472V12.8194C8.33252 10.7125 10.045 9 12.152 9H28.1242C30.2311 9 31.9436 10.7125 31.9436 12.8194V20.3611H29.8603V12.8194C29.8603 11.8625 29.0811 11.0833 28.1242 11.0833H12.152C11.195 11.0833 10.4159 11.8625 10.4159 12.8194V34.3472C10.4159 35.3042 11.195 36.0833 12.152 36.0833H23.0408V38.1667Z" fill="white"/>
<path d="M13.5422 20.1111H26.7367V22.1944H13.5422V20.1111Z" fill="white"/>
<path d="M13.5422 25.6666H21.1811V27.7499H13.5422V25.6666Z" fill="white"/>
<path d="M13.5422 14.5557H19.7922V16.639H13.5422V14.5557Z" fill="white"/>
</svg>
