<svg width="50" height="50" viewBox="0 0 50 50" fill="none" xmlns="http://www.w3.org/2000/svg">
<path d="M31.25 36.4585C30.9737 36.4585 30.7084 36.3488 30.5139 36.1529L28.0834 33.7224L29.557 32.2488L31.1973 33.8876L34.9778 29.5251L36.5528 30.889L32.0389 36.0974C31.8487 36.3154 31.5778 36.446 31.2889 36.4557C31.275 36.4585 31.2625 36.4585 31.25 36.4585Z" fill="white"/>
<path d="M32.6389 41.6666C27.6611 41.6666 23.6111 37.6166 23.6111 32.6389C23.6111 27.6611 27.6611 23.6111 32.6389 23.6111C37.6166 23.6111 41.6666 27.6611 41.6666 32.6389C41.6666 37.6166 37.6166 41.6666 32.6389 41.6666ZM32.6389 25.6944C28.8097 25.6944 25.6944 28.8097 25.6944 32.6389C25.6944 36.468 28.8097 39.5833 32.6389 39.5833C36.468 39.5833 39.5833 36.468 39.5833 32.6389C39.5833 28.8097 36.468 25.6944 32.6389 25.6944Z" fill="white"/>
<path d="M21.1806 36.1111H10.5223C9.31532 36.1111 8.33337 35.1291 8.33337 33.9222V17.0138C8.33337 16.4388 8.80004 15.9722 9.37504 15.9722H35.0695C35.6445 15.9722 36.1112 16.4388 36.1112 17.0138V21.1805H34.0278V18.0555H10.4167V33.9222C10.4167 33.9805 10.4639 34.0277 10.5223 34.0277H21.1806V36.1111Z" fill="white"/>
<path d="M34.1584 17.5196L30.3125 10.596C30.2528 10.4849 30.1361 10.4168 30.0097 10.4168H14.4347C14.3084 10.4168 14.1917 10.4849 14.1306 10.5946L10.2847 17.5196L8.46252 16.5071L12.3097 9.5835C12.7375 8.81266 13.5514 8.3335 14.4347 8.3335H30.0097C30.8931 8.3335 31.707 8.81266 32.1347 9.58489L35.9806 16.5085L34.1584 17.5196Z" fill="white"/>
<path d="M21.1805 9.375H23.2639V17.0139H21.1805V9.375Z" fill="white"/>
</svg>
