<svg width="50" height="50" viewBox="0 0 50 50" fill="none" xmlns="http://www.w3.org/2000/svg">
	<path d="M15.2784 25.389C15.0368 25.389 14.7951 25.3057 14.602 25.139C14.3451 24.9196 8.33398 19.7154 8.33398 14.3641C8.33398 10.4877 11.4493 7.3335 15.2784 7.3335C19.1076 7.3335 22.2229 10.4877 22.2229 14.3641C22.2229 19.7154 16.2118 24.9196 15.9548 25.139C15.7618 25.3057 15.5201 25.389 15.2784 25.389ZM15.2784 9.41683C12.5979 9.41683 10.4173 11.6363 10.4173 14.3641C10.4173 17.8113 13.8007 21.4849 15.2784 22.9252C16.7562 21.4849 20.1395 17.8113 20.1395 14.3641C20.1395 11.6363 17.959 9.41683 15.2784 9.41683Z"
		  fill="white"/>
	<path d="M15.2778 17.0556C13.7458 17.0556 12.5 15.8097 12.5 14.2778C12.5 12.7458 13.7458 11.5 15.2778 11.5C16.8097 11.5 18.0556 12.7458 18.0556 14.2778C18.0556 15.8097 16.8097 17.0556 15.2778 17.0556ZM15.2778 13.5833C14.8958 13.5833 14.5833 13.8958 14.5833 14.2778C14.5833 14.6597 14.8958 14.9722 15.2778 14.9722C15.6597 14.9722 15.9722 14.6597 15.9722 14.2778C15.9722 13.8958 15.6597 13.5833 15.2778 13.5833Z"
		  fill="white"/>
	<path d="M16.3207 37.8889H11.4596C10.8846 37.8889 10.418 37.4222 10.418 36.8472V27.125H12.5013V35.8055H16.3207V37.8889Z"
		  fill="white"/>
	<path d="M31.5978 37.8891H21.1533V35.8057H30.5561V23.3057H22.2228V21.2224H31.5978C32.1728 21.2224 32.6394 21.6891 32.6394 22.2641V36.8474C32.6394 37.4224 32.1728 37.8891 31.5978 37.8891Z"
		  fill="white"/>
	<path d="M40.6251 37.8889H37.8182V35.8056H39.5834V32.7501C39.5834 30.2612 37.5584 28.2362 35.0696 28.2362H32.639V35.8056H32.9862V37.8889H31.5973C31.0223 37.8889 30.5557 37.4223 30.5557 36.8473V27.1945C30.5557 26.6195 31.0223 26.1528 31.5973 26.1528H35.0696C38.7071 26.1528 41.6668 29.1126 41.6668 32.7501V36.8473C41.6668 37.4223 41.2001 37.8889 40.6251 37.8889Z"
		  fill="white"/>
	<path d="M18.7505 40.6669C16.8353 40.6669 15.2783 39.1099 15.2783 37.1946C15.2783 35.2794 16.8353 33.7224 18.7505 33.7224C20.6658 33.7224 22.2228 35.2794 22.2228 37.1946C22.2228 39.1099 20.6658 40.6669 18.7505 40.6669ZM18.7505 35.8057C17.9839 35.8057 17.3617 36.428 17.3617 37.1946C17.3617 37.9613 17.9839 38.5835 18.7505 38.5835C19.5172 38.5835 20.1394 37.9613 20.1394 37.1946C20.1394 36.428 19.5172 35.8057 18.7505 35.8057Z"
		  fill="white"/>
	<path d="M35.4175 40.6669C33.5023 40.6669 31.9453 39.1099 31.9453 37.1946C31.9453 35.2794 33.5023 33.7224 35.4175 33.7224C37.3328 33.7224 38.8898 35.2794 38.8898 37.1946C38.8898 39.1099 37.3328 40.6669 35.4175 40.6669ZM35.4175 35.8057C34.6509 35.8057 34.0286 36.428 34.0286 37.1946C34.0286 37.9613 34.6509 38.5835 35.4175 38.5835C36.1842 38.5835 36.8064 37.9613 36.8064 37.1946C36.8064 36.428 36.1842 35.8057 35.4175 35.8057Z"
		  fill="white"/>
</svg>
