<svg width="21" height="12" viewBox="0 0 21 12" fill="none" xmlns="http://www.w3.org/2000/svg">
<path fill-rule="evenodd" clip-rule="evenodd" d="M11.1181 11.203C11.1181 11.203 11.4836 11.1634 11.6707 10.9676C11.8421 10.7882 11.8362 10.4497 11.8362 10.4497C11.8362 10.4497 11.8134 8.86892 12.5671 8.63552C13.3099 8.40597 14.2637 10.1642 15.2759 10.8403C16.0405 11.3515 16.6209 11.2396 16.6209 11.2396L19.3258 11.203C19.3258 11.203 20.7401 11.1181 20.0696 10.035C20.0141 9.94625 19.6784 9.2335 18.059 7.76941C16.3624 6.23684 16.5902 6.48472 18.6325 3.83335C19.8764 2.2188 20.3736 1.2331 20.2181 0.811616C20.0706 0.408461 19.1554 0.515519 19.1554 0.515519L16.1108 0.533844C16.1108 0.533844 15.885 0.503945 15.7176 0.601358C15.5542 0.696842 15.4482 0.919638 15.4482 0.919638C15.4482 0.919638 14.9669 2.16865 14.3241 3.23151C12.9682 5.47297 12.4264 5.5916 12.2046 5.45272C11.6886 5.12769 11.8173 4.14873 11.8173 3.45334C11.8173 1.28036 12.1561 0.374704 11.1587 0.140335C10.8279 0.0622112 10.5842 0.0110935 9.73743 0.00241318C8.65093 -0.00819616 7.73182 0.0062711 7.21085 0.254144C6.8642 0.419071 6.59679 0.787504 6.76021 0.808723C6.96126 0.834764 7.41686 0.928319 7.65852 1.24853C7.97051 1.66229 7.95961 2.59013 7.95961 2.59013C7.95961 2.59013 8.13888 5.14794 7.54066 5.46526C7.13063 5.68323 6.56806 5.2386 5.35875 3.2045C4.73973 2.16286 4.27225 1.01126 4.27225 1.01126C4.27225 1.01126 4.18212 0.796184 4.02068 0.680446C3.82557 0.540596 3.5532 0.497194 3.5532 0.497194L0.660158 0.515519C0.660158 0.515519 0.22536 0.527093 0.0659015 0.71131C-0.0757298 0.874308 0.0550067 1.21284 0.0550067 1.21284C0.0550067 1.21284 2.32012 6.3738 4.88533 8.97502C7.23759 11.3592 9.90779 11.203 9.90779 11.203H11.1181Z" fill="#2CA483"/>
</svg>
