<svg width="16" height="16" viewBox="0 0 16 16" fill="none" xmlns="http://www.w3.org/2000/svg">
	<path fill-rule="evenodd" clip-rule="evenodd"
		  d="M8.00007 1.93334C4.64954 1.93334 1.9334 4.64948 1.9334 8C1.9334 11.3505 4.64954 14.0667 8.00007 14.0667C11.3506 14.0667 14.0667 11.3505 14.0667 8C14.0667 4.64948 11.3506 1.93334 8.00007 1.93334ZM0.733398 8C0.733398 3.98673 3.9868 0.733337 8.00007 0.733337C12.0133 0.733337 15.2667 3.98673 15.2667 8C15.2667 12.0133 12.0133 15.2667 8.00007 15.2667C3.9868 15.2667 0.733398 12.0133 0.733398 8Z"
		  fill="#7D838E"/>
	<path fill-rule="evenodd" clip-rule="evenodd"
		  d="M8.00006 4.73334C8.33144 4.73334 8.60006 5.00197 8.60006 5.33334V8C8.60006 8.33137 8.33144 8.6 8.00006 8.6C7.66869 8.6 7.40006 8.33137 7.40006 8V5.33334C7.40006 5.00197 7.66869 4.73334 8.00006 4.73334Z"
		  fill="#7D838E"/>
	<path fill-rule="evenodd" clip-rule="evenodd"
		  d="M7.28006 10.6667C7.28006 10.269 7.60242 9.94667 8.00007 9.94667H8.00707C8.40471 9.94667 8.72707 10.269 8.72707 10.6667C8.72707 11.0643 8.40471 11.3867 8.00707 11.3867H8.00007C7.60242 11.3867 7.28006 11.0643 7.28006 10.6667Z"
		  fill="#7D838E"/>
</svg>
