<svg width="16" height="16" viewBox="0 0 16 16" fill="none" xmlns="http://www.w3.org/2000/svg">
    <path fill-rule="evenodd" clip-rule="evenodd"
          d="M8.00007 1.9334C4.64954 1.9334 1.9334 4.64954 1.9334 8.00007C1.9334 11.3506 4.64954 14.0667 8.00007 14.0667C11.3506 14.0667 14.0667 11.3506 14.0667 8.00007C14.0667 4.64954 11.3506 1.9334 8.00007 1.9334ZM0.733398 8.00007C0.733398 3.9868 3.9868 0.733398 8.00007 0.733398C12.0133 0.733398 15.2667 3.9868 15.2667 8.00007C15.2667 12.0133 12.0133 15.2667 8.00007 15.2667C3.9868 15.2667 0.733398 12.0133 0.733398 8.00007Z"
          fill="#7D838E" fill-opacity="0.3"/>
    <path fill-rule="evenodd" clip-rule="evenodd"
          d="M8.00006 4.7334C8.33144 4.7334 8.60006 5.00203 8.60006 5.3334V8.00006C8.60006 8.33144 8.33144 8.60006 8.00006 8.60006C7.66869 8.60006 7.40006 8.33144 7.40006 8.00006V5.3334C7.40006 5.00203 7.66869 4.7334 8.00006 4.7334Z"
          fill="#7D838E" fill-opacity="0.3"/>
    <path fill-rule="evenodd" clip-rule="evenodd"
          d="M7.28006 10.6667C7.28006 10.2691 7.60242 9.94673 8.00007 9.94673H8.00707C8.40471 9.94673 8.72707 10.2691 8.72707 10.6667C8.72707 11.0644 8.40471 11.3867 8.00707 11.3867H8.00007C7.60242 11.3867 7.28006 11.0644 7.28006 10.6667Z"
          fill="#7D838E" fill-opacity="0.3"/>
</svg>
