<svg width="20" height="14" viewBox="0 0 20 14" fill="none" xmlns="http://www.w3.org/2000/svg">
	<path fill-rule="evenodd" clip-rule="evenodd"
		  d="M17.0344 0.40304C17.8573 0.624811 18.5054 1.27825 18.7253 2.10807C19.125 3.61201 19.125 6.75 19.125 6.75C19.125 6.75 19.125 9.88788 18.7253 11.3919C18.5054 12.2217 17.8573 12.8752 17.0344 13.0971C15.5431 13.5 9.5625 13.5 9.5625 13.5C9.5625 13.5 3.58192 13.5 2.09049 13.0971C1.26757 12.8752 0.619498 12.2217 0.39956 11.3919C0 9.88788 0 6.75 0 6.75C0 6.75 0 3.61201 0.39956 2.10807C0.619498 1.27825 1.26757 0.624811 2.09049 0.40304C3.58192 0 9.5625 0 9.5625 0C9.5625 0 15.5431 0 17.0344 0.40304ZM7.76953 4.1087V9.97826L12.5508 7.04359L7.76953 4.1087Z"
		  fill="#2CA483"/>
</svg>
