<svg width="6" height="12" viewBox="0 0 6 12" fill="none" xmlns="http://www.w3.org/2000/svg">
<path d="M3.79995 11.5994H2.2C2.08 11.5994 2 11.5194 2 11.3994V1.59961H3.99996V11.3994C3.99996 11.5194 3.91996 11.5994 3.79995 11.5994Z" fill="#FB7257"/>
<path d="M1.19998 1.59997H0.200005C0.0799974 1.59997 0 1.51997 0 1.39996V0.200005C0 0.0799973 0.0799974 0 0.200005 0H1.19998V1.59997Z" fill="#FB7257"/>
<path d="M5.79978 1.59997H4.7998V0H5.79978C5.91979 0 5.99979 0.0799973 5.99979 0.200005V1.39999C5.99979 1.51997 5.91979 1.59997 5.79978 1.59997Z" fill="#FB7257"/>
<path d="M1.2002 1.59997H4.80012V0H1.2002V1.59997Z" fill="#FB846C"/>
</svg>
