<svg width="167" height="19" viewBox="0 0 167 19" fill="none" xmlns="http://www.w3.org/2000/svg">
<path d="M0 0H7.53477C9.31103 0 10.6767 0.133697 11.6316 0.401091C12.6057 0.649385 13.2933 1.06003 13.6944 1.63301C14.0955 2.1869 14.296 2.96998 14.296 3.98226V6.2742C14.296 6.78989 14.0859 7.27693 13.6657 7.73532C13.2646 8.19371 12.7872 8.50885 12.2333 8.68075V8.82399C12.959 8.90039 13.618 9.21553 14.2101 9.76942C14.8213 10.3042 15.1268 10.9058 15.1268 11.5743V14.4393C15.1268 15.9481 14.5252 17.0177 13.3219 17.648C12.1187 18.2783 10.2565 18.5934 7.73532 18.5934H0V0ZM7.53477 7.56342C8.24146 7.56342 8.76669 7.50612 9.11049 7.39153C9.45428 7.27693 9.68347 7.09548 9.79807 6.84719C9.93177 6.5798 9.99862 6.1978 9.99862 5.70122V4.78444C9.99862 4.34515 9.94132 4.02046 9.82672 3.81036C9.71212 3.58117 9.47338 3.41882 9.11049 3.32332C8.76669 3.22782 8.21281 3.18008 7.44883 3.18008H4.4693V7.56342H7.53477ZM7.64937 15.4133C8.73805 15.4133 9.51158 15.2892 9.96997 15.0409C10.4284 14.7926 10.6576 14.3915 10.6576 13.8376V12.3479C10.6576 11.6603 10.4761 11.1732 10.1132 10.8867C9.76942 10.6003 9.14869 10.457 8.25101 10.457H4.4693V15.4133H7.64937Z" fill="white"/>
<path d="M19.0451 0H33.2265V3.18008H23.5144V7.44883H32.2811V10.6289H23.5144V15.4133H33.513V18.5934H19.0451V0Z" fill="white"/>
<path d="M37.3907 0H41.86V15.4133H50.9992V18.5934H37.3907V0Z" fill="white"/>
<path d="M52.8636 0H57.3902L62.3752 14.869H62.4898L67.4748 0H71.8868L65.0109 18.5934H59.5389L52.8636 0Z" fill="white"/>
<path d="M74.7535 0H79.2228V18.5934H74.7535V0Z" fill="white"/>
<path d="M84.0903 0H88.6168L97.6127 12.6917V0H101.595V18.5934H97.0684L88.0725 5.70122V18.5934H84.0903V0Z" fill="white"/>
<path d="M110.762 3.18008H105.032V0H120.933V3.18008H115.231V18.5934H110.762V3.18008Z" fill="white"/>
<path d="M122.977 14.6398H127.446V18.5934H122.977V14.6398Z" fill="#FB7257"/>
<path d="M131.739 0H139.274C141.05 0 142.416 0.133697 143.371 0.401091C144.345 0.649385 145.033 1.06003 145.434 1.63301C145.835 2.1869 146.035 2.96998 146.035 3.98226V6.2742C146.035 6.78989 145.825 7.27693 145.405 7.73532C145.004 8.19371 144.526 8.50885 143.972 8.68075V8.82399C144.698 8.90039 145.357 9.21553 145.949 9.76942C146.56 10.3042 146.866 10.9058 146.866 11.5743V14.4393C146.866 15.9481 146.264 17.0177 145.061 17.648C143.858 18.2783 141.996 18.5934 139.475 18.5934H131.739V0ZM139.274 7.56342C139.981 7.56342 140.506 7.50612 140.85 7.39153C141.194 7.27693 141.423 7.09548 141.537 6.84719C141.671 6.5798 141.738 6.1978 141.738 5.70122V4.78444C141.738 4.34515 141.681 4.02046 141.566 3.81036C141.451 3.58117 141.213 3.41882 140.85 3.32332C140.506 3.22782 139.952 3.18008 139.188 3.18008H136.209V7.56342H139.274ZM139.389 15.4133C140.477 15.4133 141.251 15.2892 141.709 15.0409C142.168 14.7926 142.397 14.3915 142.397 13.8376V12.3479C142.397 11.6603 142.215 11.1732 141.852 10.8867C141.509 10.6003 140.888 10.457 139.99 10.457H136.209V15.4133H139.389Z" fill="#FB7257"/>
<path d="M155.741 11.1446L149.008 0H154.079L158.004 7.27693L161.9 0H167L160.21 11.0873V18.5934H155.741V11.1446Z" fill="#FB7257"/>
</svg>
