<svg width="168" height="18" viewBox="0 0 168 18" fill="none" xmlns="http://www.w3.org/2000/svg">
<path d="M6.29446 0H11.2776L17.4147 17.0213H13.2708L11.7497 12.5365H5.53388L4.03895 17.0213H0L6.29446 0ZM10.858 9.80887L8.70734 3.4095H8.60243L6.45183 9.80887H10.858Z" fill="#4B535B"/>
<path d="M20.3513 0H24.4427V14.1101H32.8091V17.0213H20.3513V0Z" fill="#4B535B"/>
<path d="M35.8272 8.05167H43.9051V10.9891H35.8272V8.05167Z" fill="#4B535B"/>
<path d="M51.7652 2.91119H46.5198V0H61.0758V2.91119H55.8566V17.0213H51.7652V2.91119Z" fill="#4B535B"/>
<path d="M64.4781 0H68.5695V17.0213H64.4781V0Z" fill="#4B535B"/>
<path d="M77.2217 2.91119H71.9763V0H86.5323V2.91119H81.3131V17.0213H77.2217V2.91119Z" fill="#4B535B"/>
<path d="M94.4456 0H99.4288L105.566 17.0213H101.422L99.9008 12.5365H93.6851L92.1901 17.0213H88.1512L94.4456 0ZM99.0091 9.80887L96.8585 3.4095H96.7536L94.603 9.80887H99.0091Z" fill="#4B535B"/>
<path d="M108.502 0H112.646L120.882 11.6185V0H124.527V17.0213H120.383L112.148 5.21916V17.0213H108.502V0Z" fill="#4B535B"/>
<path d="M126.435 13.402H130.526V17.0213H126.435V13.402Z" fill="#4786DF"/>
<path d="M134.719 0H142.377C144.65 0 146.294 0.279754 147.308 0.839262C148.322 1.38129 148.829 2.29923 148.829 3.59309V6.58296C148.829 7.57958 148.471 8.36639 147.754 8.94339C147.054 9.50289 146.119 9.86133 144.948 10.0187L149.878 17.0213H145.157L140.699 10.3334H138.81V17.0213H134.719V0ZM142.325 7.63204C143.287 7.63204 143.942 7.50965 144.292 7.26486C144.642 7.00259 144.816 6.50428 144.816 5.76993V4.56349C144.816 3.93404 144.624 3.50567 144.239 3.27837C143.872 3.03358 143.234 2.91119 142.325 2.91119H138.81V7.63204H142.325Z" fill="#4786DF"/>
<path d="M160.604 17.2836C155.691 17.2836 153.234 15.64 153.234 12.3529V0H157.326V12.3529C157.326 13.1222 157.571 13.6555 158.06 13.9527C158.567 14.2325 159.433 14.3724 160.657 14.3724C161.863 14.3724 162.702 14.2325 163.174 13.9527C163.664 13.6555 163.909 13.1222 163.909 12.3529V0H168V12.3529C168 15.64 165.535 17.2836 160.604 17.2836Z" fill="#4786DF"/>
</svg>
