<svg width="137" height="44" viewBox="0 0 137 44" fill="none" xmlns="http://www.w3.org/2000/svg">
<rect x="66" y="24" width="14" height="14" transform="rotate(45 66 24)" fill="#4786DF"/>
<path d="M0 5V29C0 31.7614 2.23858 34 5 34H132C134.761 34 137 31.7614 137 29V5C137 2.23858 134.761 0 132 0H5C2.23858 0 0 2.23858 0 5Z" fill="#4786DF"/>
<path d="M43.4157 22C43.3223 22 43.243 21.972 43.1777 21.916C43.1217 21.8507 43.0937 21.7713 43.0937 21.678V12.536C43.0937 12.4333 43.1217 12.354 43.1777 12.298C43.243 12.2327 43.3223 12.2 43.4157 12.2H44.1157C44.265 12.2 44.3863 12.2747 44.4797 12.424L47.4337 18.08L50.4157 12.424C50.4343 12.368 50.4717 12.3167 50.5277 12.27C50.593 12.2233 50.6723 12.2 50.7657 12.2H51.4517C51.5543 12.2 51.6337 12.2327 51.6897 12.298C51.755 12.354 51.7877 12.4333 51.7877 12.536V21.678C51.7877 21.7713 51.755 21.8507 51.6897 21.916C51.6243 21.972 51.545 22 51.4517 22H50.7657C50.6723 22 50.593 21.972 50.5277 21.916C50.4717 21.8507 50.4437 21.7713 50.4437 21.678V14.79L48.1057 19.354C48.0123 19.55 47.863 19.648 47.6577 19.648H47.2237C47.0183 19.648 46.869 19.55 46.7757 19.354L44.4237 14.79V21.678C44.4237 21.7713 44.391 21.8507 44.3257 21.916C44.2697 21.972 44.195 22 44.1017 22H43.4157ZM54.9089 22C54.8156 22 54.7362 21.972 54.6709 21.916C54.6149 21.8507 54.5869 21.7713 54.5869 21.678V15.042C54.5869 14.9487 54.6149 14.874 54.6709 14.818C54.7362 14.7527 54.8156 14.72 54.9089 14.72H55.5809C55.6742 14.72 55.7489 14.7527 55.8049 14.818C55.8702 14.874 55.9029 14.9487 55.9029 15.042V17.1H57.3589C58.2829 17.1 58.9689 17.3193 59.4169 17.758C59.8742 18.1873 60.1029 18.7987 60.1029 19.592C60.1029 20.4133 59.8602 21.02 59.3749 21.412C58.8989 21.804 58.1709 22 57.1909 22H54.9089ZM61.4189 22C61.3256 22 61.2462 21.972 61.1809 21.916C61.1249 21.8507 61.0969 21.7713 61.0969 21.678V15.042C61.0969 14.9487 61.1249 14.874 61.1809 14.818C61.2462 14.7527 61.3256 14.72 61.4189 14.72H62.0909C62.1842 14.72 62.2589 14.7527 62.3149 14.818C62.3802 14.874 62.4129 14.9487 62.4129 15.042V21.678C62.4129 21.7713 62.3802 21.8507 62.3149 21.916C62.2589 21.972 62.1842 22 62.0909 22H61.4189ZM57.2329 20.95C57.8116 20.95 58.2269 20.8473 58.4789 20.642C58.7402 20.4367 58.8709 20.0867 58.8709 19.592C58.8709 19.0973 58.7402 18.7333 58.4789 18.5C58.2269 18.2667 57.8116 18.15 57.2329 18.15H55.8889V20.95H57.2329ZM71.2766 22C71.1833 22 71.104 21.972 71.0386 21.916C70.9826 21.8507 70.9546 21.7713 70.9546 21.678V15.84H68.5186C68.4253 15.84 68.346 15.812 68.2806 15.756C68.2246 15.6907 68.1966 15.6113 68.1966 15.518V15.042C68.1966 14.9487 68.2246 14.874 68.2806 14.818C68.346 14.7527 68.4253 14.72 68.5186 14.72H74.6786C74.772 14.72 74.8466 14.7527 74.9026 14.818C74.968 14.874 75.0006 14.9487 75.0006 15.042V15.518C75.0006 15.6113 74.968 15.6907 74.9026 15.756C74.8466 15.812 74.772 15.84 74.6786 15.84H72.2426V21.678C72.2426 21.7713 72.2146 21.8507 72.1586 21.916C72.1026 21.972 72.028 22 71.9346 22H71.2766ZM82.7527 14.72C82.8274 14.72 82.8927 14.748 82.9487 14.804C83.0047 14.86 83.0327 14.9253 83.0327 15C83.0327 15.0653 83.0094 15.1493 82.9627 15.252L80.3027 21.552L80.1767 21.832C79.934 22.42 79.71 22.9053 79.5047 23.288C79.2994 23.6707 79.0427 23.9927 78.7347 24.254C78.4267 24.5247 78.0627 24.66 77.6427 24.66H77.1107C77.0174 24.66 76.938 24.632 76.8727 24.576C76.8167 24.52 76.7887 24.4407 76.7887 24.338V23.862C76.7887 23.7687 76.8167 23.6893 76.8727 23.624C76.938 23.568 77.0174 23.54 77.1107 23.54H77.4747C77.68 23.54 77.848 23.498 77.9787 23.414C78.1094 23.3393 78.226 23.2087 78.3287 23.022C78.4407 22.8353 78.576 22.5507 78.7347 22.168L78.9727 21.594L76.2287 15.252C76.182 15.1307 76.1587 15.0513 76.1587 15.014C76.168 14.93 76.2007 14.86 76.2567 14.804C76.3127 14.748 76.378 14.72 76.4527 14.72H77.1107C77.2694 14.72 77.386 14.7993 77.4607 14.958L79.6027 20.096L81.7727 14.958C81.838 14.7993 81.9547 14.72 82.1227 14.72H82.7527ZM87.2306 22C87.1373 22 87.058 21.972 86.9926 21.916C86.9366 21.8507 86.9086 21.7713 86.9086 21.678V15.84H84.4726C84.3793 15.84 84.3 15.812 84.2346 15.756C84.1786 15.6907 84.1506 15.6113 84.1506 15.518V15.042C84.1506 14.9487 84.1786 14.874 84.2346 14.818C84.3 14.7527 84.3793 14.72 84.4726 14.72H90.6326C90.726 14.72 90.8006 14.7527 90.8566 14.818C90.922 14.874 90.9546 14.9487 90.9546 15.042V15.518C90.9546 15.6113 90.922 15.6907 90.8566 15.756C90.8006 15.812 90.726 15.84 90.6326 15.84H88.1966V21.678C88.1966 21.7713 88.1686 21.8507 88.1126 21.916C88.0566 21.972 87.982 22 87.8886 22H87.2306ZM93.0787 19.676C92.9854 19.676 92.906 19.648 92.8407 19.592C92.7847 19.5267 92.7567 19.4473 92.7567 19.354V12.522C92.7567 12.4287 92.7847 12.354 92.8407 12.298C92.906 12.2327 92.9854 12.2 93.0787 12.2H93.7367C93.83 12.2 93.9047 12.2327 93.9607 12.298C94.026 12.354 94.0587 12.4287 94.0587 12.522V19.354C94.0587 19.4473 94.026 19.5267 93.9607 19.592C93.9047 19.648 93.83 19.676 93.7367 19.676H93.0787ZM92.9527 22C92.8594 22 92.78 21.972 92.7147 21.916C92.6587 21.8507 92.6307 21.7713 92.6307 21.678V20.796C92.6307 20.7027 92.6587 20.6233 92.7147 20.558C92.78 20.4927 92.8594 20.46 92.9527 20.46H93.8487C93.942 20.46 94.0167 20.4927 94.0727 20.558C94.138 20.6233 94.1707 20.7027 94.1707 20.796V21.678C94.1707 21.7713 94.138 21.8507 94.0727 21.916C94.0167 21.972 93.942 22 93.8487 22H92.9527Z" fill="white"/>
</svg>
