<svg width="409" height="214" viewBox="0 0 409 214" fill="none" xmlns="http://www.w3.org/2000/svg">
<path d="M4 10.4143C15.2937 38.8126 67.8598 75.2103 105.499 77.9751V10.4143H4Z" fill="#2CA483"/>
<path d="M399.565 38.4568C400.1 38.3739 400.51 37.9108 400.51 37.3688V22.37H132.059L134.905 59.2332C135.806 69.637 140.98 75.8508 152.864 80.4316C153.499 80.6762 154.152 80.9162 154.826 81.1518C161.107 83.3509 166.11 88.2682 169.57 94.1038H280.878C307.462 57.7147 334.774 48.4884 399.565 38.4568Z" fill="#2CA483"/>
<path d="M400.51 22.37C407.078 19.4136 407.149 7.68492 400.725 4.5374C400.585 4.46902 400.43 4.43652 400.274 4.43652H132.059C126.186 4.43653 122.87 7.12189 121.781 10.4143C120.055 15.6303 123.918 22.37 132.059 22.37H400.51Z" fill="#2CA483"/>
<path d="M336.073 168.826C306.056 166.478 258.112 133.732 273.399 105.063C275.906 101.157 278.388 97.5111 280.878 94.1038H169.57C173.946 101.487 175.852 110.341 174.746 117.019C170.952 139.934 150.074 161.34 111.19 168.826L104.55 186.76H165.26C207.946 139.934 234.871 142.56 278.142 186.76H345.492L336.073 168.826Z" fill="#2CA483"/>
<path d="M220.278 194.73C231.661 194.73 261.067 199.712 278.142 210.671V186.76C234.871 142.56 207.946 139.934 165.26 186.76V210.671C179.489 200.708 207.946 194.73 220.278 194.73Z" fill="#2CA483"/>
<path d="M104.55 210.671H165.26V186.76H104.55V210.671Z" fill="#2CA483"/>
<path d="M278.142 210.671H345.492V186.76H278.142V210.671Z" fill="#2CA483"/>
<path d="M132.059 22.37C123.918 22.37 120.055 15.6303 121.781 10.4143H105.499V77.9751C105.499 81.2895 108.2 83.8846 111.34 83.548C125.084 82.0743 145.382 78.7868 152.864 80.4316C140.98 75.8508 135.806 69.637 134.905 59.2332L132.059 22.37Z" fill="#2CA483"/>
<path d="M400.51 22.37C407.078 19.4136 407.149 7.68492 400.725 4.5374C400.585 4.46902 400.429 4.43652 400.274 4.43652H132.059M400.51 22.37V37.3688C400.51 37.9108 400.1 38.3739 399.565 38.4568C334.774 48.4884 307.462 57.7147 280.878 94.1038M400.51 22.37H132.059M345.492 186.76L336.073 168.826C306.056 166.478 258.112 133.732 273.399 105.063C275.906 101.157 278.388 97.5111 280.878 94.1038M345.492 186.76V210.671H278.142M345.492 186.76H278.142M278.142 210.671C261.067 199.712 231.661 194.73 220.278 194.73C207.946 194.73 179.489 200.708 165.26 210.671M278.142 210.671V186.76M165.26 210.671H104.55V186.76M165.26 210.671V186.76M104.55 186.76L111.19 168.826C150.074 161.34 170.952 139.934 174.746 117.019C175.852 110.341 173.946 101.487 169.57 94.1038M104.55 186.76H165.26M154.826 81.1518C161.107 83.3509 166.11 88.2682 169.57 94.1038M154.826 81.1518C154.34 80.8476 153.678 80.6105 152.864 80.4316M154.826 81.1518C154.152 80.9161 153.499 80.6762 152.864 80.4316M132.059 4.43652C116.882 4.43655 118.779 22.37 132.059 22.37M132.059 4.43652C126.186 4.43653 122.87 7.12189 121.781 10.4143M132.059 22.37L134.905 59.2332C135.806 69.637 140.98 75.8508 152.864 80.4316M132.059 22.37C123.918 22.37 120.055 15.6303 121.781 10.4143M169.57 94.1038H280.878M165.26 186.76C207.946 139.934 234.871 142.56 278.142 186.76M121.781 10.4143H105.499M105.499 77.9751C67.8598 75.2103 15.2937 38.8126 4 10.4143H105.499M105.499 77.9751V10.4143M105.499 77.9751C105.499 81.2895 108.2 83.8846 111.34 83.548C125.084 82.0743 145.382 78.7868 152.864 80.4316" stroke="#013543" stroke-width="5"/>
<path d="M220.946 193.725C232.329 193.725 261.735 198.706 278.809 209.666V185.754C237.045 142.614 204.047 142.614 165.927 185.754V209.666C180.156 199.703 208.614 193.725 220.946 193.725Z" fill="#55E3AA"/>
<path d="M132.727 21.3644C124.586 21.3644 120.722 14.6247 122.448 9.40872H106.166V76.9695C106.166 80.2839 108.868 82.879 112.007 82.5424C125.752 81.0687 146.049 77.7812 153.532 79.426C141.648 74.8452 136.473 68.6314 135.573 58.2276L132.727 21.3644Z" fill="#55E3AA"/>
<path fill-rule="evenodd" clip-rule="evenodd" d="M122.448 9.40872C122.482 9.30694 122.518 9.20574 122.555 9.10517C122.671 8.79912 122.806 8.49901 122.962 8.20657C122.755 8.5951 122.584 8.99717 122.448 9.40872Z" fill="#55E3AA"/>
<path fill-rule="evenodd" clip-rule="evenodd" d="M155.493 80.1462C155.007 79.842 154.345 79.6049 153.532 79.426C154.166 79.6706 154.82 79.9105 155.493 80.1462Z" fill="#55E3AA"/>
<path d="M105.218 209.666H165.927V185.754H105.218V209.666Z" fill="#55E3AA"/>
<path d="M278.809 209.666H346.159V185.754H278.809V209.666Z" fill="#55E3AA"/>
<path d="M401.177 21.3644C407.746 18.4076 407.817 6.67634 401.39 3.53059C401.252 3.46305 401.098 3.43091 400.944 3.43091H132.727C127.588 3.43092 124.406 5.4869 122.962 8.20657C122.806 8.49901 122.671 8.79912 122.555 9.10517C122.518 9.20574 122.482 9.30694 122.448 9.40872C120.722 14.6247 124.586 21.3644 132.727 21.3644H401.177Z" fill="#55E3AA"/>
<path d="M401.177 21.3644C407.746 18.4076 407.817 6.67634 401.39 3.53059C401.252 3.46305 401.098 3.43091 400.944 3.43091H132.727C127.588 3.43092 124.406 5.48689 122.962 8.20657M401.177 21.3644V36.374C401.177 36.9098 400.773 37.3675 400.243 37.4495C335.444 47.4818 308.131 56.7071 281.545 93.0981M401.177 21.3644H132.727M346.159 185.754L336.741 167.821C306.723 165.472 258.78 132.727 274.067 104.057C276.573 100.151 279.056 96.5054 281.545 93.0981M346.159 185.754V209.666H278.809M346.159 185.754H278.809M278.809 209.666C261.735 198.706 232.329 193.725 220.946 193.725C208.614 193.725 180.156 199.703 165.927 209.666M278.809 209.666V185.754M165.927 209.666H105.218V185.754M165.927 209.666V185.754M105.218 185.754L111.858 167.821C150.741 160.334 171.619 138.928 175.413 116.013C176.519 109.335 174.614 100.482 170.237 93.0981M105.218 185.754H165.927M155.493 80.1462C161.774 82.3453 166.778 87.2626 170.237 93.0981M155.493 80.1462C155.007 79.842 154.345 79.6049 153.532 79.426M155.493 80.1462C154.82 79.9105 154.166 79.6706 153.532 79.426M132.727 21.3644L135.573 58.2276C136.473 68.6314 141.648 74.8452 153.532 79.426M132.727 21.3644C124.586 21.3644 120.722 14.6247 122.448 9.40872M132.727 21.3644C124.427 21.3644 120.573 14.3591 122.555 9.10517M170.237 93.0981H281.545M165.927 185.754C204.047 142.614 237.045 142.614 278.809 185.754M122.448 9.40872H106.166M122.448 9.40872C122.482 9.30694 122.518 9.20574 122.555 9.10517M122.448 9.40872C122.584 8.99717 122.755 8.5951 122.962 8.20657M106.166 76.9695C68.5273 74.2047 15.9612 37.807 4.66748 9.40872H106.166M106.166 76.9695V9.40872M106.166 76.9695C106.166 80.2839 108.868 82.879 112.007 82.5424C125.752 81.0687 146.049 77.7812 153.532 79.426M122.555 9.10517C122.671 8.79912 122.806 8.49901 122.962 8.20657" stroke="#013543" stroke-width="5"/>
<path d="M136.77 205L118.198 186.73L127.376 188.216L136.77 205Z" fill="#013543"/>
<path d="M123.638 205.03L105.065 186.76L114.244 188.246L123.638 205.03Z" fill="#013543"/>
<path d="M150.706 204.968L132.134 186.698L141.312 188.184L150.706 204.968Z" fill="#013543"/>
<path d="M164.642 204.935L146.07 186.665L155.248 188.151L164.642 204.935Z" fill="#013543"/>
<path d="M315.841 207.205L293.853 185.575L304.719 187.334L315.841 207.205Z" fill="#013543"/>
<path d="M300.294 207.241L278.306 185.61L289.172 187.37L300.294 207.241Z" fill="#013543"/>
<path d="M332.34 207.167L310.352 185.537L321.218 187.296L332.34 207.167Z" fill="#013543"/>
<path d="M348.839 207.128L326.851 185.497L337.717 187.257L348.839 207.128Z" fill="#013543"/>
<g clip-path="url(#clip0)">
<path d="M148.188 20.814L123.616 -3.47166L135.783 -1.47222L148.188 20.814Z" fill="#013543"/>
<path d="M164.346 20.814L139.775 -3.47166L151.941 -1.47222L164.346 20.814Z" fill="#013543"/>
<path d="M181.151 20.68L156.58 -3.60569L168.746 -1.60626L181.151 20.68Z" fill="#013543"/>
<path d="M198.26 20.0882L174.226 -3.66621L186.126 -1.71052L198.26 20.0882Z" fill="#013543"/>
<path d="M216.245 20.814L191.673 -3.47166L203.84 -1.47222L216.245 20.814Z" fill="#013543"/>
<path d="M290.489 20.814L265.918 -3.47166L278.084 -1.47222L290.489 20.814Z" fill="#013543"/>
<path d="M364.734 20.814L340.162 -3.47166L352.329 -1.47222L364.734 20.814Z" fill="#013543"/>
<path d="M232.403 20.814L207.832 -3.47166L219.998 -1.47222L232.403 20.814Z" fill="#013543"/>
<path d="M306.648 20.814L282.076 -3.47166L294.243 -1.47222L306.648 20.814Z" fill="#013543"/>
<path d="M380.893 20.814L356.321 -3.47166L368.488 -1.47222L380.893 20.814Z" fill="#013543"/>
<path d="M249.208 20.68L224.637 -3.60569L236.803 -1.60626L249.208 20.68Z" fill="#013543"/>
<path d="M323.453 20.68L298.881 -3.60569L311.048 -1.60626L323.453 20.68Z" fill="#013543"/>
<path d="M397.697 20.68L373.126 -3.60569L385.292 -1.60626L397.697 20.68Z" fill="#013543"/>
<path d="M266.318 20.0882L242.284 -3.66621L254.184 -1.71052L266.318 20.0882Z" fill="#013543"/>
<path d="M340.562 20.0882L316.528 -3.66621L328.428 -1.71052L340.562 20.0882Z" fill="#013543"/>
<path d="M414.806 20.0882L390.772 -3.66621L402.672 -1.71052L414.806 20.0882Z" fill="#013543"/>
</g>
<defs>
<clipPath id="clip0">
<rect x="124" y="3" width="281" height="24" rx="12" fill="white"/>
</clipPath>
</defs>
</svg>
