<svg width="419" height="300" viewBox="0 0 419 300" fill="none" xmlns="http://www.w3.org/2000/svg">
<path d="M460.785 166.286C462.187 156.027 463.347 142.621 462.191 131.97C460.06 112.334 449.144 107.034 436.967 105.9C433.866 105.612 430.847 105.676 428.065 105.932C408.35 82.2609 382.498 63.8835 352.95 53.2428C353.274 43.3926 353.576 33.3253 353.576 30.0732C353.576 23.0716 353.946 13.3408 351.488 11.2099C349.031 9.07907 344.021 11.9601 342.96 14.2433C342.137 16.0129 328.288 36.2568 322.307 45.2776C313.013 43.7493 303.471 42.9535 293.745 42.9535C280.322 42.9535 267.254 44.4691 254.7 47.335C254.181 44.0197 253.281 38.3696 252.008 30.7356C249.878 17.9497 252.628 11.381 248.229 10.9965C243.832 10.6115 242.582 17.6238 240.157 24.3213C238.586 28.6618 234.333 43.9828 231.862 54.2299C175.726 75.4948 133.406 124.848 122.049 185.135C117.631 185.135 112.735 186.06 108.473 190.554C104.211 195.049 89.0114 224.721 86.2715 229.151C83.5316 233.58 82.192 244.387 88.6461 248.04L121.75 266.864C121.776 270.307 122.158 275.92 123.857 282.897C126.749 294.769 134.928 303.482 143.351 311.512C145.56 313.619 147.968 315.643 150.318 317.486C181.889 362.769 234.356 392.401 293.745 392.401C390.242 392.401 468.468 314.174 468.468 217.677C468.468 199.792 465.779 182.534 460.785 166.286Z" fill="#023543"/>
<path d="M130.554 272.471C129.599 271.924 128.677 271.395 127.793 270.887C128.263 274.283 129.137 280.617 130.764 285.644C133.035 292.662 141.935 300.672 141.935 300.672C141.935 300.672 135.007 290.888 134.247 282.725C134.045 280.552 133.915 278.866 133.795 277.523C133.607 275.41 132.395 273.525 130.554 272.471Z" fill="#E6B584"/>
<path d="M295.405 129.693C295.405 129.693 301.188 131.424 308.742 136.617C316.295 141.81 320.151 148.774 320.033 147.948C319.915 147.121 319.521 140.9 316.806 136.027C314.092 131.155 310.709 128.434 310.709 128.434C310.709 128.434 315.666 130.362 318.459 134.65C317.358 130.05 315.861 124.853 309.487 120.25C303.114 115.647 296.973 115.53 296.973 115.53C301.339 117.103 307.934 121.75 310.04 124.933C310.04 124.933 306.145 123.634 301.542 122.926C296.939 122.219 294.422 122.926 294.422 122.926C294.422 122.926 301.227 125.226 305.122 128.216C308.167 130.554 310 133.273 310 133.273C310 133.273 302.722 129.221 295.405 129.693Z" fill="#EFD9C2"/>
<path d="M244.497 152.627C242.549 154.897 240.645 157.13 232.154 160.642C223.663 164.153 210.436 166.26 203.905 172.664C197.373 179.067 199.333 190.221 199.333 190.221C199.333 190.221 201.811 181.86 205.429 178.447C209.385 174.716 213.267 173.903 213.267 173.903C213.267 173.903 206.3 177.621 203.47 186.503C200.639 195.385 204.994 204.267 204.994 204.267C204.994 204.267 206.205 193.266 211.12 186.948C217.522 178.72 225.849 174.549 225.849 174.549C225.849 174.549 220.005 179.116 214.183 188.255C210.909 193.394 208.277 200.467 208.041 207.158C207.388 225.748 224.133 236.283 224.133 236.283C224.133 236.283 220.538 231.208 220.026 219.454C219.592 209.479 221.514 202.351 227.501 193.416C233.167 184.962 242.608 180.091 242.608 180.091C242.608 180.091 234.678 188.127 228.799 198.455C222.921 208.783 222.823 221.344 227.915 233.167C232.399 243.581 244.674 249.796 249.985 250.747C243.671 242.965 239.489 234.581 239.706 223.772C239.942 212.014 246.857 202.374 246.857 202.374C246.857 202.374 241.695 219.924 244.851 230.256C248.49 242.171 254.836 245.093 261.846 246.38C261.846 246.38 253.212 235.977 255.639 221.07C258 206.57 261.916 201.843 265.162 190.962C267.844 181.978 268.22 172.365 268.22 172.365C268.22 172.365 270.842 179.733 266.685 195.431C262.529 211.13 260.075 215.904 260.075 222.479C260.075 229.053 261.669 231.263 262.732 233.559C264.725 227.392 272.826 219.291 278.184 211.346C285.192 200.955 284.652 190.806 284.389 180.819C286.71 187.332 287.657 194.913 284.494 205.945C281.461 216.527 275.316 224.922 275.316 224.922C275.316 224.922 286.556 220.01 292.297 212.452C300.716 201.366 301.006 186.916 301.006 186.916C301.006 186.916 302.965 192.951 302.312 198.942C301.659 204.932 300.353 207.985 300.353 207.985C300.353 207.985 311.96 199.527 312.545 183.404C313.01 170.573 307.817 157.472 307.817 157.472C307.817 157.472 314.097 164.18 315.621 173.682C317.145 183.184 315.81 189.808 315.81 189.808C315.81 189.808 325.95 179.201 322.321 163.487C316.697 139.139 294.834 134.965 294.834 134.965C294.834 134.965 306.624 143.937 309.941 148.458C314.953 155.288 316.02 160.775 316.02 160.775C315.596 160.023 312.958 154.686 306.269 148.789C303.219 146.101 299.328 143.66 294.421 140.844C304.689 157.136 305.883 171.732 305.47 176.247C300.244 162.847 293.528 158.592 281.615 153.609C287.23 160.615 291.291 167.88 293.159 174.948C295.648 184.373 294.612 193.449 291.789 201.1C291.789 201.1 293.013 190.63 290.88 181.099C286.395 161.056 278.195 157.675 271.524 151.314C271.524 151.314 276.756 160.464 278.307 170.36C280.021 181.298 276.839 188.569 276.839 188.569C276.245 161.951 263.906 152.351 264.051 152.627C264.196 152.902 264.099 166.904 259.164 177.852C254.229 188.799 249.988 193.319 249.988 193.319C249.988 193.319 257.303 176.458 258.247 168.334C259.19 160.209 257.48 152.627 257.48 152.627C255.001 159.488 252.093 164.883 243.892 170.942C235.691 177.002 228.977 181.491 224.728 186.418C221.565 190.085 219.593 193.976 219.593 193.976C219.593 193.976 220.524 188.775 225.821 182.992C231.119 177.208 243.021 169.51 246.577 162.955C248.82 158.821 249.117 155.175 248.972 155.382C248.827 155.588 248.536 159.582 239.32 164.057C230.103 168.532 226.58 168.509 223.46 169.542C220.339 170.575 216.938 172.197 216.938 172.197C216.938 172.197 219.614 169.528 230.137 166.086C240.66 162.643 243.916 154.21 244.497 152.627Z" fill="#EFD9C2"/>
<path d="M238.223 108.01C237.497 108.313 236.183 109.304 236.183 110.72C236.183 112.136 236.357 115.032 238.23 119.858C239.728 123.72 241.056 124.972 241.056 124.972V135.707C241.056 135.707 245.33 128.323 247.508 123.747C250.201 118.088 251.363 112.397 251.363 112.397C251.363 112.397 249.473 113.485 248.352 114.783C247.231 116.081 246.273 117.906 244.577 120.245C245.04 118.766 246.111 115.524 245.934 115.111C245.757 114.698 243.81 114.462 241.213 111.511C238.617 108.561 239.329 107.549 238.223 108.01Z" fill="#E6B584"/>
<path d="M257.737 104.371C255.789 104.371 254.254 104.874 253.9 106.349C253.546 107.824 251.6 120.658 251.364 123.196C251.128 125.733 252.485 126.973 254.019 127.091C255.554 127.209 256.712 127.091 257.716 127.091C259.171 127.091 261.137 125.523 262.555 125.523C264.051 125.523 265.312 125.602 266.083 125.602C266.513 125.602 268.091 123.769 266.765 121.117C265.702 118.993 263.538 118.953 262.104 119.655C260.922 120.234 258.896 122.297 258.896 122.297C259.073 121.858 259.825 119.206 260.313 115.757C260.819 112.164 261.082 108.253 261.16 106.2C261.212 104.839 258.506 104.371 257.737 104.371Z" fill="#E6B584"/>
<path d="M264.052 111.571C264.17 112.692 266.825 116.576 272.077 122.89C277.33 129.205 286.121 136.618 286.121 136.618C286.121 136.618 287.537 136.461 287.183 131.976C286.829 127.491 285.923 124.764 286.159 123.584C286.395 122.404 292.024 117.885 293.086 114.993C294.148 112.102 293.145 108.856 291.728 106.437C290.312 104.017 289.604 104.548 289.545 104.725C289.486 104.903 288.796 110.082 284.665 112.148C280.534 114.213 280.215 115.294 281.1 117.065C281.985 118.835 282.935 122.008 282.818 121.805C282.7 121.603 278.214 116.469 277.447 116.292C276.68 116.115 275.124 116.376 270.581 114.901C266.037 113.426 264.052 111.571 264.052 111.571Z" fill="#E6B584"/>
<path d="M252.066 96.0021C252.089 96.1872 252.898 101.48 254.078 102.601C255.258 103.722 256.812 103.323 258.257 103.309C259.56 103.296 259.743 102.07 259.802 101.067C259.891 99.5612 260.386 96.3563 259.845 96.0021C259.667 95.8855 258.698 95.5921 257.603 95.5823C257.013 95.5765 257.016 98.9004 256.378 98.8639C255.591 98.8187 255.026 95.6553 254.393 95.6996C253.492 95.7624 252.023 95.645 252.066 96.0021Z" fill="#E6B584"/>
<path d="M250.891 97.9269C251.715 99.358 252.313 101.689 251.336 103.145C250.36 104.601 248.47 104.987 245.756 103.641C243.041 102.295 241.034 99.4857 241.034 99.4857C237.927 98.8639 232.769 99.7923 232.769 99.7923C232.769 99.7923 234.195 98.069 236.184 97.2366C238.051 96.4556 238.969 96.3477 239.756 96.2689C239.205 95.6397 238.789 94.2468 238.789 94.2468C239.774 94.2435 244.378 96.0961 247.543 98.3374C247 97.0401 247.646 95.4592 247.646 95.4592C247.646 95.4592 249.913 96.2291 250.891 97.9269Z" fill="#EFD9C2"/>
<path d="M265.64 95.6118C265.073 95.5818 261.851 96.4962 261.375 100.384C261.033 103.174 262.969 104.622 265.191 104.565C267.995 104.493 273.453 101.019 275.913 99.1524C275.913 99.1524 281.047 98.3517 285.178 99.001C289.309 99.6498 293.529 100.777 293.529 100.777C293.529 100.777 292.835 98.529 287.406 96.6407C281.977 94.752 277.661 95.2642 277.661 95.2642C277.661 95.2642 278.96 94.2468 279.853 93.1604C278.134 93.1604 275.303 93.334 270.777 95.2301C267.598 96.5619 266.41 97.6298 265.226 98.5758C265.566 97.4681 265.72 96.4055 265.64 95.6118Z" fill="#EFD9C2"/>
<path d="M275.913 103.958C276.621 103.84 280.043 103.722 282.168 104.371C284.292 105.02 284.647 105.012 284.823 103.865C285.001 102.718 284.706 101.156 282.109 101.023C279.512 100.889 275.913 103.958 275.913 103.958Z" fill="#E6B584"/>
<path d="M238.912 106.349L241.214 105.138C241.214 105.138 240.447 103.427 238.912 103.663C237.378 103.899 238.912 106.349 238.912 106.349Z" fill="#E6B584"/>
<path d="M242.608 109.236C242.608 109.236 243.987 110.036 246.584 109.977C247.454 109.957 248.099 109.888 248.572 109.804C249.181 109.697 249.677 110.312 249.406 110.867C249.03 111.639 248.263 112.454 246.701 112.574C243.633 112.81 242.608 109.236 242.608 109.236Z" fill="#E6B584"/>
<path d="M269.303 110.449C270.068 111.478 272.27 112.611 275.734 112.583C279.175 112.556 281.695 109.564 281.695 109.564C281.695 109.564 278.763 109.845 275.222 109.786C271.681 109.727 268.538 109.42 269.303 110.449Z" fill="#E6B584"/>
<path d="M250.162 127.572C247.801 131.091 242.411 135.807 239.325 139.61C236.431 143.176 235.312 147.229 235.548 150.548C235.784 153.868 236.767 156.177 236.767 156.177C236.767 156.177 242.608 148.64 247.624 145.049C252.64 141.457 254.873 141.073 255.999 139.793C257.745 137.805 258.032 134.713 258.032 134.713C258.032 134.713 257.903 138.184 260.381 139.98C262.86 141.776 277.827 146.585 284.076 149.352C291.745 152.749 296.648 157.755 296.648 157.755C296.648 157.755 296.648 149.846 291.267 144.205C284.822 137.449 272.468 130.601 268.692 127.01C266.626 128.234 266.98 129.567 268.22 131.145C269.459 132.723 274.145 136.021 274.145 136.021C274.145 136.021 267.541 132.56 264.62 129.241C264.62 129.241 262.194 130.669 262.728 132.778C263.197 134.63 267.895 137.703 267.895 137.703C267.895 137.703 263.043 135.475 261.197 132.397C259.936 130.295 256.604 130.248 254.696 132.56C252.787 134.873 250.968 136.87 250.065 137.444C250.723 136.721 252.197 134.781 253.073 132.986C253.579 131.949 253.191 130.547 252.443 129.821C249.454 134.084 246.355 136.043 246.355 136.043C246.355 136.043 250.516 131.708 250.87 130.22C251.27 128.537 250.162 127.572 250.162 127.572Z" fill="#EFD9C2"/>
<path d="M260.931 143.198C260.024 143.172 256.959 142.885 254.159 143.307C252.083 143.62 252.267 147.168 253.391 147.076C255.963 146.866 259.357 146.76 263.315 147.456C265.191 147.785 265.642 146.471 264.813 145.068C263.883 143.492 261.917 143.226 260.931 143.198Z" fill="#E6B584"/>
<path d="M347.171 18.1623C347.171 18.1623 337.33 34.4244 324.761 51.3053C310.018 71.1076 303.677 83.2553 303.677 98.7795C309.467 83.2553 314.797 74.6535 326.402 59.8521C338.65 44.2307 344.518 36.0525 346.688 31.9299C348.857 27.8073 347.171 18.1623 347.171 18.1623Z" fill="#EFD9C2"/>
<path d="M346.4 39.3072C346.4 39.3072 335.441 53.9277 327.757 63.0765C316.462 76.5244 307.016 93.1042 304.081 104.548C304.081 104.548 316.073 85.7517 325.431 75.01C333.04 66.2765 341.998 55.7729 343.769 53.1036C347.339 47.7227 346.4 39.3072 346.4 39.3072Z" fill="#EFD9C2"/>
<path d="M344.005 57.1946C344.005 57.1946 327.189 77.1036 320.322 85.3631C312.249 95.0729 307.751 102.607 304.081 110.006C304.081 110.006 319.097 92.8017 325.431 86.9431C331.764 81.085 341.418 71.144 342.355 68.2219C344.005 63.0762 344.005 57.1946 344.005 57.1946Z" fill="#EFD9C2"/>
<path d="M339.584 75.6728C338.264 77.0817 327.796 87.4093 320.242 95.6963C314.439 102.062 305.057 112.981 305.057 112.981C305.057 112.981 322.373 100.026 331.572 91.7366C338.733 85.2846 339.584 75.6728 339.584 75.6728Z" fill="#EFD9C2"/>
<path d="M234.78 93.9321C234.129 91.3285 233.025 79.0207 234.544 69.9076C236.063 60.7944 246.808 18.1623 246.808 18.1623C246.808 18.1623 246.918 33.2806 246.484 37.6202C246.049 41.9599 245.033 49.8935 243.514 55.535C241.995 61.1761 240.25 65.3221 238.714 69.3043C234.948 79.0728 234.78 93.9321 234.78 93.9321Z" fill="#EFD9C2"/>
<path d="M248.155 42.0574C248.155 42.0574 247.524 49.5728 246.63 53.2525C245.94 56.0909 244.894 59.4362 244.894 59.4362C244.894 59.4362 248.181 55.8348 249.965 54.59C250.884 46.5784 248.155 42.0574 248.155 42.0574Z" fill="#EFD9C2"/>
<path d="M285.413 91.3535C282.524 90.8302 281.385 94.072 281.125 94.0499C292.297 94.9942 300.492 100.463 300.492 100.463C300.492 100.463 299.027 96.5776 294.826 94.3819C292.349 93.0871 290.055 92.194 285.413 91.3535Z" fill="#55E3AA"/>
<path d="M280.722 90.5738C263.901 87.6073 245.545 89.0499 242.306 89.5794C239.196 90.0874 238.892 93.6929 241.214 93.8082C247.787 94.1349 253.191 93.3703 267.284 93.7639C268.888 93.8086 278.562 91.2982 280.722 90.5738Z" fill="#55E3AA"/>
<path d="M327.586 100.803C327.981 101.367 335.731 103.335 338.564 114.94C340.915 124.576 336.675 131.773 330.753 140.123C326.109 146.671 323.614 156.485 323.614 156.485C323.614 156.485 321.107 147.216 324.884 140.335C329.079 132.691 332.283 126.269 332.544 117.97C332.839 108.587 327.586 100.803 327.586 100.803Z" fill="#EFD9C2"/>
<path d="M324.577 101.946C324.577 101.946 326.466 107.642 325.736 114.075C324.91 121.361 318.086 125.346 318.086 125.346C318.086 125.346 319.856 125.995 321.686 125.759C323.515 125.523 324.98 124.874 324.98 124.874C324.98 124.874 321.863 129.713 321.449 134.08C321.036 138.447 321.213 139.509 321.213 139.509C321.213 139.509 324.695 134.021 326.82 130.126C328.944 126.231 331.316 120.02 329.545 112.498C327.775 104.976 324.577 101.946 324.577 101.946Z" fill="#EFD9C2"/>
<path d="M339.956 110.565C341.451 114.308 344.312 124.382 335.955 137.64C331.245 145.111 328.347 150.763 327.006 154.99C325.476 159.815 325.735 167.264 325.735 167.264C325.735 167.264 329 157.344 332.593 150.917C337.806 141.593 348.545 125.454 354.591 119.056C351.443 111.608 339.956 110.565 339.956 110.565Z" fill="#EFD9C2"/>
<path d="M394.348 163.094C390.876 156.485 384.263 153.685 377.556 153.938C357.926 154.679 345.583 165.663 345.583 165.663C345.583 165.663 355.805 160.718 372.865 160.411C381.592 160.253 394.348 163.094 394.348 163.094Z" fill="#E6B584"/>
<path d="M236.183 119.622C235.233 120.291 232.874 123.067 231.631 126.526C230.692 129.143 230.608 132.29 230.903 135.123C232.182 130.952 234.778 126.782 238.23 124.225C238.23 124.225 236.588 121.471 236.183 119.622Z" fill="#EFD9C2"/>
<path d="M239.5 125.72C239.5 125.72 233.796 130.756 232.026 137.05C230.462 142.608 230.924 147.515 231.553 150.662C232.183 153.81 233.993 157.272 233.993 157.272C233.993 157.272 231.868 148.015 234.704 141.851C236.873 137.137 239.5 133.903 239.5 133.903C238.985 133.603 236.904 134.965 234.695 137.141C234.695 137.141 236.747 133.116 239.5 125.72Z" fill="#EFD9C2"/>
<path d="M321.508 103.334C321.626 106.521 321.407 109.294 320.035 112.245C316.745 119.318 314.603 111.95 316.262 107.013C316.262 107.013 313.158 109.229 311.624 110.599L310.09 111.97C310.09 111.97 310.472 116.14 312.951 119.563C315.429 122.985 319.753 121.682 321.925 116.893C325.048 110.006 321.508 103.334 321.508 103.334Z" fill="#E6B584"/>
<path d="M306.024 214.575C305.735 215.259 305.623 226.481 314.615 236.109C321.778 243.779 331.781 247.271 338.722 246.802C330.937 242.769 322.371 238.438 317.119 228.052C311.867 217.666 311.417 209.618 311.417 209.618L306.024 214.575Z" fill="#2CA483"/>
<path d="M327.321 283.895C327.478 284.682 326.971 290.455 323.495 294.861C320.018 299.267 313.268 301.942 313.268 301.942C313.268 301.942 319.42 304.589 325.715 303.098C329.279 302.253 332.639 299.216 332.557 295.133C332.443 289.395 327.321 283.895 327.321 283.895Z" fill="#2CA483"/>
<path d="M333.071 278.638C333.071 278.638 340.528 282.032 345.819 281.244C351.109 280.455 352.716 276.347 352.048 272.378C345.125 276.531 333.071 278.638 333.071 278.638Z" fill="#2CA483"/>
<path d="M314.731 276.87C314.731 276.87 308.035 285.826 300.972 289.173C295.375 291.825 287.507 294.03 287.507 294.03C287.507 294.03 295.159 298.786 303.971 298.158C312.784 297.53 317.074 293.043 317.868 287.021C318.618 281.33 314.731 276.87 314.731 276.87Z" fill="#2CA483"/>
<path d="M315.37 273.245C315.37 273.245 331.165 273.859 338.789 268.551C343.141 265.52 344.759 260.296 343.224 256.044C335.406 264.655 315.37 273.245 315.37 273.245Z" fill="#2CA483"/>
<path d="M387.583 238.877C387.583 238.877 369.677 238.641 357.108 235.264C344.538 231.887 339.004 225.228 339.004 225.228C339.004 225.228 349.228 230.574 359.546 232.075C369.865 233.576 375.18 233.201 374.492 233.201C373.414 233.201 358.432 229.086 349.146 220.27C355.211 222.767 364.499 225.097 382.059 229.73C382.059 229.73 376.696 223.726 367.895 216.785C359.094 209.844 356.639 208.062 356.639 208.062C356.639 208.062 368.927 212.191 377.932 218.944L386.937 225.697C386.937 225.697 382.593 214.09 372.556 204.709C363.731 196.462 358.421 192.135 358.421 192.135C358.421 192.135 379.797 204.301 387.593 215.941C394.363 226.048 395.416 227.986 395.579 228.572C395.26 227.214 392.756 215.526 385.663 203.822C379.177 193.119 375.058 189.217 372.491 187.009C378.401 190.333 385.397 194.614 392.846 206.186C400.817 218.568 402.32 225.769 402.32 225.769C402.32 225.769 403.162 217.96 398.287 203.278C395.609 195.211 390.689 187.009 390.689 187.009C390.689 187.009 401.852 196.618 405.697 211.439C408.34 221.624 407.198 225.769 407.198 225.769C407.198 225.769 409.111 223.172 410.669 216.785C411.607 212.939 411.419 206.373 411.419 206.373C411.419 206.373 413.092 211.241 412.529 218.746C411.966 226.25 410.575 230.011 410.575 230.011C414.89 228.698 420.131 215.47 420.381 208.061C420.685 199.035 418.803 189.708 413.758 182.871C401.857 166.748 386.822 167.232 386.822 167.232C386.822 167.232 401.111 174.899 406.546 187.055C410.595 196.11 410.986 202.495 410.986 202.495C410.986 202.495 405.833 188.488 396.665 179C388.183 170.222 375.272 167.46 364.074 166.598C354.641 165.871 348.903 168.211 345.582 171.035C339.025 176.609 344.169 182.283 346.785 184.896C339.868 181.508 331.395 178.045 325.2 186.975C318.52 196.607 327.185 212.846 335.064 221.851C325.309 215.035 323.106 209.75 320.17 197.213C320.17 197.213 316.431 200.25 317.336 210.501C318.079 218.929 323.296 233.614 341.068 240.048C362.051 247.646 387.583 238.877 387.583 238.877Z" fill="#E6B584"/>
<path d="M320.704 252.017C317.87 257.377 307.885 263.423 301.413 265.393C306.829 261.37 312.083 254.087 314.407 247.695C310.023 251.624 303.828 255.151 295.823 257.402C300.288 253.012 306.67 245.468 308.893 240.893C303.703 244.632 300.276 246.098 290.946 249.031C294.538 245.016 299.239 238.836 301.627 232.138C278.939 247.772 271.06 251.024 253.917 254.524C252.445 259.06 250.025 268.878 252.434 276.788C255.684 287.463 263.941 291.957 270.309 291.546C275.908 291.185 294.356 286.705 305.922 275.139C317.489 263.572 318.221 259.349 320.704 252.017Z" fill="#55E3AA"/>
<path d="M281.698 74.4878C285.62 73.0186 292.667 72.7284 301.954 75.6727C298.014 70.3603 292.515 67.4912 283.979 67.8663C289.853 65.6706 295.294 65.9517 303.267 68.2032C299.984 63.4191 293.887 61.6371 287.602 61.168C287.602 61.168 294.516 58.8249 304.084 59.4369C298.362 55.8614 290.81 56.0469 290.81 56.0469C294.789 54.3219 298.014 53.3825 309.03 51.6399C309.03 51.6399 286.386 47.718 272.965 61.6309C261.485 73.5332 264.055 86.0696 264.055 86.0696C281.698 86.2099 291.876 89.1686 300.01 94.327C293.513 84.0557 281.698 81.4295 281.698 81.4295C281.698 81.4295 290.041 80.4913 301.109 83.601C295.763 75.0509 281.698 74.4878 281.698 74.4878Z" fill="#55E3AA"/>
<path d="M267.837 107.318C267.837 107.178 270.979 105.677 270.979 105.677C270.979 105.677 270.416 106.99 270.604 107.694C270.791 108.397 270.991 108.632 270.991 108.632L267.837 107.318Z" fill="#EFD9C2"/>
<path d="M242.939 107.318C242.939 106.756 244.49 105.677 244.49 105.677C244.288 105.865 244.006 106.99 244.167 107.694C244.329 108.397 244.5 108.632 244.5 108.632C244.5 108.632 242.939 107.881 242.939 107.318Z" fill="#EFD9C2"/>
<path d="M438.62 133.597C424.746 127.046 408.855 130.35 408.855 130.35C408.855 130.35 420.45 126.279 430.733 128.133C450.512 131.697 456.115 143.904 456.115 143.904C455.07 138.877 452.958 131.931 444.261 127.285C434.968 122.321 424.539 122.391 424.539 122.391C424.539 122.391 434.185 120.959 441.757 122.696C449.33 124.434 454.96 128.784 454.96 128.784C454.96 128.784 453.164 124.172 446.416 120.206C442.208 117.733 432.534 116.318 432.534 116.318C438.567 115.073 446.953 116.701 454.855 122.565C449.437 114.402 444.273 111.691 433.77 111.319C398.001 110.052 334.291 159.529 327.311 173.868C368.811 144.757 397.894 134.187 425.944 136.745C451.703 139.095 454.757 167.741 454.757 167.741C456.229 154.06 451.712 139.779 438.62 133.597Z" fill="#55E3AA"/>
<path d="M395.912 115.575C390.28 115.254 380.719 118.751 370.494 124.287C373.399 120.777 385.798 114.237 396.585 112.137C385.72 109.96 377.851 114.643 371.983 117.613C371.983 117.613 382.213 109.391 392.316 108.355C385.201 106.45 376.518 109.464 370.576 113.521C351.184 126.766 339.2 146.1 331.179 161.87C354.916 136.702 385.649 119.315 395.912 115.575Z" fill="#55E3AA"/>
<path d="M249.347 106.397C249.347 106.964 248.888 107.423 248.321 107.423C247.755 107.423 247.295 106.964 247.295 106.397C247.295 105.83 247.755 105.371 248.321 105.371C248.888 105.371 249.347 105.83 249.347 106.397Z" fill="#EFD9C2"/>
<path d="M275.936 106.397C275.936 106.964 275.477 107.423 274.91 107.423C274.344 107.423 273.885 106.964 273.885 106.397C273.885 105.83 274.344 105.371 274.91 105.371C275.477 105.371 275.936 105.83 275.936 106.397Z" fill="#EFD9C2"/>
<path d="M440.979 155.163C440.979 155.163 442.048 159.079 440.981 167.404C439.914 175.73 432.637 180.958 432.637 180.958C432.637 180.958 438.988 171.222 437.617 160.585C436.245 149.947 429.284 145.404 429.284 145.404C429.284 145.404 433.264 153.26 430.656 161.687C429.028 166.945 425.533 171.245 425.533 171.245C425.533 171.245 429.252 163.537 427.515 156.599C425.779 149.661 421.05 146.89 419.173 145.807C420.99 150.66 421.808 160.309 416.72 164.674C416.72 164.674 417.935 156.991 415.629 153.049C412.192 147.173 403.676 147.04 403.676 147.04C403.676 147.04 409.542 151.012 409.088 156.709C408.487 164.239 407.182 167.083 407.182 167.083C410.087 164.353 411.995 162.46 412.904 157.184C414.539 162.055 413.085 169.781 413.085 169.781C419.445 170.969 422.805 164.373 423.625 161.228C423.641 165.031 421.642 175.848 420.172 176.915C424.38 178.413 428.804 178.256 433.256 167.072C433.074 173.137 429.393 181.803 427.021 185.44C431.257 188.522 438.439 182.783 440.161 180.802C440.161 180.802 438.707 187.143 431.418 194.853C435.159 193.048 442.432 189.992 444.791 176.759C446.377 167.853 440.979 155.163 440.979 155.163Z" fill="#2CA483"/>
<path d="M215.294 234.019C215.294 234.019 219.808 239.826 228.306 244.895C236.805 249.964 239.637 251.531 239.903 251.992C240.168 252.452 240.7 265.877 238.398 272.529C238.159 273.22 237.912 273.855 237.662 274.439C236.058 278.178 231.407 279.477 228.077 277.14L212.461 266.186C212.461 266.186 219.012 268.121 222.907 268.858C226.802 269.596 227.952 269.688 227.952 269.688C227.952 269.688 222.287 267.66 218.658 263.513C215.028 259.365 213.435 257.337 213.435 257.337C213.435 257.337 216.091 258.259 219.986 258.627C223.881 258.996 225.208 259.033 225.208 259.033C225.208 259.033 219.012 254.204 215.914 248.674C212.815 243.144 211.665 239.918 211.665 239.918C211.665 239.918 216.268 244.526 219.897 246.738C223.526 248.95 225.208 249.324 225.208 249.324C225.208 249.324 216.976 241.853 215.294 234.019Z" fill="#55E3AA"/>
<path d="M197.456 196.806C191.359 201.496 186.846 212.71 187.232 226.635C193.329 230.856 202.241 237.328 205.148 239.579C204.117 227.854 205.993 217.536 205.993 217.536C205.993 217.536 203.851 218.922 202.155 222.977C200.458 227.031 200.458 229.824 200.458 229.824C200.458 229.824 198.769 224.863 199.058 219.13C199.34 213.555 201.584 206.28 201.584 206.28C201.584 206.28 199.281 208.093 196.601 213.221C194.443 217.348 193.142 222.883 193.142 222.883C193.142 222.883 192.538 215.462 193.704 209.281C194.643 204.31 197.456 196.806 197.456 196.806Z" fill="#E6B584"/>
<path d="M231.437 60.0404C177.634 81.1835 137.238 128.997 126.526 187.206L126.589 187.239C129.393 188.695 132.792 187.063 133.449 183.972C144.155 133.558 178.078 91.7289 223.495 70.1952C227.568 68.2642 230.499 64.5368 231.419 60.1245L231.437 60.0404Z" fill="#2CA483"/>
<path d="M349.775 57.8815C349.77 57.9049 349.766 57.9283 349.761 57.9517C349.065 61.3963 350.951 64.8236 354.214 66.1279C374.831 74.3689 393.38 86.682 408.865 102.074C412.284 105.472 416.97 107.251 421.781 106.972L421.864 106.967C402.708 84.868 377.938 67.7695 349.775 57.8815Z" fill="#2CA483"/>
<path d="M366.21 248.236C364.959 251.049 363.454 259.847 365.751 267.225C368.419 275.796 378.12 278.546 385.373 278.914C385.373 278.914 396.754 279.414 408.386 288.419C413.435 287.042 421.286 280.103 423.299 269.164C425.313 258.226 419.58 242.348 410.324 238.316C412.138 242.348 413.263 251.121 413.263 251.121C413.263 251.121 407.823 243.832 403.471 240.422C404.042 244.406 406.001 254.875 403.821 262.155C402.07 256.089 400.128 250.475 397.55 245.156C397.129 252.337 393.015 265.814 393.015 265.814C393.015 265.814 391.376 256.151 390.105 250.602C386.123 258.153 379.044 259.866 379.044 259.866C379.044 259.866 382.184 252.712 382.309 248.772C375.232 249.223 366.21 248.236 366.21 248.236Z" fill="#E6B584"/>
<path d="M463.328 218.132C463.328 206.842 462.223 195.809 460.121 185.136L460.064 185.181C456.793 187.797 455.133 191.938 455.693 196.089C456.7 203.563 457.203 211.197 457.164 218.956C456.72 308.875 383.227 381.889 293.308 381.77C255.833 381.72 221.312 369.072 193.749 347.836C190.733 345.513 186.583 345.263 183.323 347.228L183.268 347.262C212.99 372.664 251.585 387.987 293.761 387.931C387.465 387.806 463.328 311.836 463.328 218.132Z" fill="#2CA483"/>
<path d="M346.226 302.115C349.139 299.5 363.16 289.055 366.795 286.385C370.43 283.715 374.838 283.415 378.054 284.053C382.368 284.909 386.492 284.306 401.569 295.111C409.074 300.489 412.951 310.557 413.638 314.371C409.5 309.391 399.568 301.114 388.75 297.925C394.868 302.203 399.671 308.772 402.709 314.961C405.747 321.151 407.048 325.949 407.048 325.949C407.048 325.949 396.164 314.075 391.626 310.244C387.088 306.413 380.557 304.053 380.557 304.053C380.557 304.053 390.669 313.677 393.127 319.937C395.585 326.197 395.7 333.132 395.7 333.132C395.7 333.132 389.687 323.126 385.31 317.999C381.984 314.103 380.058 312.907 375.93 310.494C378.431 313.496 384.435 324.44 383.334 333.327C383.334 333.327 375.117 315.81 360.734 305.804C353.603 300.843 346.226 302.115 346.226 302.115Z" fill="#55E3AA"/>
<path d="M173.627 128.644C177.802 129.844 181.107 133.098 182.374 137.244C183.641 133.098 186.946 129.844 191.121 128.644C186.946 127.444 183.641 124.19 182.374 120.044C181.107 124.19 177.802 127.444 173.627 128.644Z" fill="#55E3AA"/>
<path d="M149.361 161.871C152.179 162.681 154.409 164.876 155.264 167.675C156.119 164.876 158.349 162.681 161.167 161.871C158.349 161.061 156.119 158.865 155.264 156.067C154.409 158.865 152.179 161.061 149.361 161.871Z" fill="#2CA483"/>
<path d="M167.724 198.512C170.542 199.322 172.772 201.518 173.627 204.316C174.482 201.518 176.713 199.322 179.53 198.512C176.713 197.703 174.482 195.507 173.627 192.708C172.772 195.507 170.542 197.703 167.724 198.512Z" fill="#55E3AA"/>
<path d="M343.715 97.8333C346.533 98.6431 348.763 100.839 349.618 103.637C350.474 100.839 352.704 98.6431 355.522 97.8333C352.704 97.0236 350.474 94.8279 349.618 92.0293C348.763 94.8279 346.533 97.0236 343.715 97.8333Z" fill="#55E3AA"/>
<path d="M199.564 107C199.564 105.363 198.237 104.036 196.6 104.036C194.963 104.036 193.636 105.363 193.636 107C193.636 108.637 194.963 109.964 196.6 109.964C198.237 109.964 199.564 108.637 199.564 107Z" fill="#2CA483"/>
<path d="M364.556 82.4413C364.556 81.1842 363.537 80.1655 362.28 80.1655C361.023 80.1655 360.004 81.1842 360.004 82.4413C360.004 83.6983 361.023 84.717 362.28 84.717C363.537 84.717 364.556 83.6983 364.556 82.4413Z" fill="#2CA483"/>
<path d="M374.517 98.7792C374.517 97.5221 373.498 96.5035 372.241 96.5035C370.984 96.5035 369.965 97.5221 369.965 98.7792C369.965 100.036 370.984 101.055 372.241 101.055C373.498 101.055 374.517 100.036 374.517 98.7792Z" fill="#2CA483"/>
<path d="M189.484 159.347C189.484 158.09 188.465 157.071 187.208 157.071C185.951 157.071 184.932 158.09 184.932 159.347C184.932 160.604 185.951 161.623 187.208 161.623C188.465 161.623 189.484 160.604 189.484 159.347Z" fill="#2CA483"/>
<path d="M168.402 267.26C169.184 259.215 176.502 257.976 176.502 257.976C176.502 257.976 172.206 263.46 173.485 270.829C173.537 271.124 173.655 271.495 173.82 271.914C173.831 271.591 173.853 271.256 173.887 270.907C174.669 262.862 181.987 261.623 181.987 261.623C181.987 261.623 177.691 267.107 178.971 274.476C179.022 274.771 179.14 275.141 179.305 275.561C179.317 275.238 179.338 274.903 179.372 274.554C180.154 266.509 187.472 265.27 187.472 265.27C187.472 265.27 183.176 270.754 184.456 278.123C184.507 278.418 184.625 278.788 184.79 279.208C184.802 278.885 184.823 278.55 184.857 278.201C185.639 270.157 192.957 268.917 192.957 268.917C192.957 268.917 188.662 274.401 189.941 281.77C189.992 282.065 190.11 282.436 190.275 282.855C190.287 282.532 190.308 282.197 190.342 281.848C191.124 273.804 198.442 272.564 198.442 272.564C198.442 272.564 194.147 278.048 195.426 285.417C195.477 285.712 195.595 286.083 195.76 286.502C195.772 286.179 195.793 285.844 195.827 285.495C196.609 277.451 203.928 276.211 203.928 276.211C203.928 276.211 199.631 281.695 200.911 289.064C200.962 289.36 201.081 289.729 201.245 290.149C201.257 289.826 201.278 289.491 201.312 289.142C202.095 281.098 209.412 279.858 209.412 279.858C209.412 279.858 205.117 285.343 206.396 292.711C206.447 293.007 206.565 293.377 206.731 293.797C206.742 293.474 206.763 293.138 206.798 292.789C207.579 284.745 214.897 283.505 214.897 283.505C214.897 283.505 210.602 288.989 211.881 296.358C211.932 296.654 212.051 297.024 212.215 297.444C212.227 297.121 212.249 296.785 212.283 296.436C213.065 288.392 220.383 287.152 220.383 287.152C220.383 287.152 216.087 292.636 217.366 300.006C217.417 300.301 217.536 300.671 217.7 301.091C217.712 300.768 217.734 300.432 217.767 300.083C218.55 292.039 225.868 290.799 225.868 290.799C225.868 290.799 221.572 296.284 222.851 303.653C222.902 303.948 223.021 304.318 223.186 304.738C223.197 304.415 223.219 304.079 223.253 303.73C224.035 295.686 231.353 294.447 231.353 294.447C231.353 294.447 227.057 299.931 228.336 307.3C228.387 307.595 228.505 307.965 228.671 308.385C228.682 308.062 228.704 307.726 228.738 307.377C229.52 299.333 236.838 298.094 236.838 298.094C236.838 298.094 232.542 303.578 233.821 310.947C233.873 311.242 233.991 311.612 234.155 312.032C234.167 311.709 234.189 311.373 234.223 311.024C235.005 302.98 242.323 301.741 242.323 301.741C242.323 301.741 238.027 307.225 239.307 314.594C239.357 314.889 239.476 315.259 239.641 315.679C239.652 315.356 239.674 315.021 239.708 314.671C240.49 306.627 247.808 305.388 247.808 305.388C247.808 305.388 243.512 310.872 244.791 318.241C244.843 318.536 244.961 318.906 245.126 319.326C245.138 319.003 245.159 318.667 245.193 318.319C245.975 310.275 253.293 309.035 253.293 309.035C253.293 309.035 248.997 314.519 250.276 321.888C250.328 322.183 250.446 322.553 250.611 322.973C250.622 322.65 250.644 322.314 250.678 321.965C251.46 313.921 258.778 312.682 258.778 312.682C258.778 312.682 254.482 318.166 255.761 325.535C255.826 325.906 255.995 326.394 256.233 326.954C261.298 316.06 268.006 311.155 268.006 311.155C266.126 310.335 179.743 251.304 179.743 251.304C179.743 251.304 176.721 249.348 171.489 255.78C167.539 260.638 167.567 265.213 168.368 267.768C168.38 267.598 168.385 267.436 168.402 267.26Z" fill="#55E3AA"/>
<path d="M202.615 244.27C201.786 243.55 139.145 198.075 134.046 195.024C129.268 192.165 120.726 190.438 117.63 192.136C119.23 192.208 123.897 194.437 127.705 196.562C135.014 200.641 147.482 209.628 154.206 214.541C155.87 215.755 159.935 220.632 157.286 225.818C156.516 230.248 130.502 266.437 130.502 266.437C135.483 265.591 138.364 262.712 138.364 262.712C138.364 262.712 138.067 266.409 134.811 269.57C135.035 269.539 135.26 269.506 135.483 269.468C140.464 268.622 143.344 265.743 143.344 265.743C143.344 265.743 143.048 269.441 139.792 272.602C140.016 272.571 140.241 272.537 140.464 272.5C145.445 271.654 148.325 268.775 148.325 268.775C148.325 268.775 148.028 272.472 144.772 275.633C144.997 275.602 145.222 275.569 145.445 275.531C150.425 274.685 153.306 271.807 153.306 271.807C153.306 271.807 153.009 275.504 149.753 278.665C149.978 278.634 150.202 278.601 150.425 278.563C155.406 277.718 158.287 274.838 158.287 274.838C158.287 274.838 157.99 278.535 154.734 281.696C154.959 281.666 155.183 281.632 155.406 281.594C160.387 280.749 163.268 277.87 163.268 277.87C163.268 277.87 162.971 281.567 159.715 284.728C159.94 284.697 160.164 284.664 160.387 284.626C165.367 283.78 168.249 280.901 168.249 280.901C168.249 280.901 167.952 284.598 164.696 287.76C164.921 287.729 165.145 287.695 165.367 287.658C170.348 286.812 173.229 283.933 173.229 283.933C173.229 283.933 172.933 287.63 169.676 290.792C169.902 290.76 170.125 290.727 170.348 290.689C175.329 289.843 178.21 286.964 178.21 286.964C178.21 286.964 177.913 290.661 174.657 293.823C174.882 293.792 175.106 293.758 175.329 293.721C180.31 292.875 183.191 289.996 183.191 289.996C183.191 289.996 182.927 293.283 180.168 296.308C183.416 296.328 185.727 294.228 186.958 292.794C188.69 290.778 190.621 288.01 190.621 288.01C190.621 288.01 171.607 275.166 167.237 271.671C162.868 268.176 164.284 261.382 167.426 256.676C170.569 251.971 174.806 245.189 181.128 248.87C187.451 252.551 204.364 264.938 204.364 264.938C204.364 264.938 207.991 260.536 208.499 255.195C209.007 249.854 203.444 244.991 202.615 244.27Z" fill="#2CA483"/>
<path d="M222.519 156.592C220.003 152.389 216.607 145.575 215.128 139.181C213.862 133.706 213.055 128.01 214.266 123.088C214.292 129.873 216.558 136.978 218.703 142.642C221.011 148.738 224.897 154.002 229.524 158.045C211.464 127.172 223.157 108.632 223.157 108.632C214.66 110.212 206.366 117.93 210.025 133.922C213.154 147.595 222.086 156.684 224.5 159.347C224.026 158.516 223.131 157.614 222.519 156.592Z" fill="#55E3AA"/>
<path d="M203.576 130.621C203.466 131.173 203.903 139.096 210.116 147.939C216.328 156.783 220.906 159.915 220.906 159.915C220.906 159.915 208.334 153.752 202.897 143.987C197.46 134.222 203.576 130.621 203.576 130.621Z" fill="#55E3AA"/>
<path d="M269.809 236.265C269.809 236.265 280.565 231.388 288.695 225.759C296.824 220.131 299.107 216.661 299.107 216.661C299.107 216.661 293.323 231.486 281.691 238.316C270.059 245.145 269.809 236.265 269.809 236.265Z" fill="#55E3AA"/>
<path d="M138.652 237.34C138.652 237.34 145.513 221.941 148.94 217.18C149.061 217.013 149.181 216.853 149.302 216.697C149.293 216.691 149.284 216.685 149.275 216.679C147.807 215.681 145.812 216.046 144.796 217.501C139.713 224.773 133.279 233.894 133.279 233.894C133.279 233.894 140.14 218.495 143.567 213.734C143.725 213.516 143.883 213.309 144.042 213.109C144.033 213.103 144.024 213.097 144.015 213.09C142.547 212.086 140.545 212.449 139.526 213.907C134.428 221.203 127.906 230.449 127.906 230.449C127.906 230.449 134.767 215.05 138.195 210.288C138.393 210.013 138.593 209.754 138.794 209.507C138.784 209.5 138.775 209.494 138.766 209.488C137.296 208.477 135.286 208.84 134.264 210.303C129.15 217.623 122.534 227.003 122.534 227.003C122.534 227.003 129.394 211.604 132.821 206.843C133.065 206.505 133.31 206.192 133.556 205.898C133.546 205.891 133.537 205.885 133.527 205.878C132.052 204.86 130.031 205.225 129.005 206.695C123.876 214.038 117.16 223.557 117.16 223.557C117.16 223.557 124.021 208.158 127.449 203.397C127.736 202.997 128.028 202.631 128.319 202.292C128.308 202.284 128.297 202.276 128.286 202.269C126.799 201.249 124.769 201.619 123.737 203.097C118.595 210.46 111.787 220.112 111.787 220.112C111.787 220.112 118.648 204.712 122.075 199.951C122.378 199.531 122.684 199.148 122.99 198.795C122.979 198.788 122.968 198.781 122.957 198.774C121.402 197.807 119.362 198.223 118.313 199.725C113.177 207.079 106.414 216.666 106.414 216.666C106.414 216.666 113.275 201.267 116.702 196.505C116.921 196.202 117.141 195.918 117.362 195.65C116.673 195.405 115.996 195.261 115.258 195.224C111.629 195.04 111.577 195.943 109.069 199.032C106.561 202.121 92.3105 228.301 90.7124 230.974C89.5378 232.938 87.0294 238.424 90.1567 241.884C90.2256 241.409 90.2667 241.127 90.2667 241.127C91.5673 236.403 94.9121 234.201 94.9121 234.201C94.9121 234.201 93.6842 238.423 95.4715 243.577C95.5511 243.807 95.6361 244.037 95.7235 244.266C97.0237 239.542 100.369 237.34 100.369 237.34C100.369 237.34 99.141 241.563 100.928 246.716C101.008 246.946 101.093 247.176 101.18 247.405C102.48 242.681 105.826 240.479 105.826 240.479C105.826 240.479 104.597 244.702 106.385 249.855C106.465 250.086 106.55 250.315 106.637 250.544C107.938 245.82 111.282 243.618 111.282 243.618C111.282 243.618 110.054 247.841 111.842 252.994C111.921 253.225 112.006 253.454 112.094 253.684C113.394 248.959 116.739 246.758 116.739 246.758C116.739 246.758 115.511 250.98 117.298 256.134C117.378 256.364 117.463 256.593 117.55 256.823C118.85 252.099 122.196 249.897 122.196 249.897C122.196 249.897 120.968 254.119 122.755 259.273C122.835 259.503 122.92 259.733 123.007 259.962C124.308 255.237 127.653 253.036 127.653 253.036C127.653 253.036 126.425 257.259 128.212 262.412C128.292 262.642 128.377 262.872 128.464 263.101C136.4 250.855 143.082 240.693 152.181 225.973C153.994 223.633 153.94 220.86 151.792 218.621C146.585 226.095 138.652 237.34 138.652 237.34Z" fill="#55E3AA"/>
<path d="M240.98 80.6789C240.98 80.6789 241.918 80.1162 244.482 78.4902C247.046 76.8641 249.347 72.7284 249.347 72.7284C249.347 72.7284 242.981 73.4873 242.794 73.5496C242.606 73.6124 245.045 72.5491 247.171 71.0486C249.298 69.5477 252.066 66.5829 252.066 66.5829L245.733 67.0984C245.733 67.0984 247.984 66.0457 250.423 64.7324C252.862 63.4191 257.377 59.4369 257.377 59.4369L250.986 60.0406C250.986 60.0406 255.238 58.479 258.428 57.2285C262.021 55.8191 264.196 52.5383 270.356 49.5731C270.356 49.5731 252.75 52.4263 244.411 63.5607C237.383 72.9451 236.747 87.6374 237.326 90.2418C238.142 88.058 240.257 87.1248 242.431 86.7152C245.133 86.2059 247.146 83.9248 247.44 81.1906C247.498 80.651 247.574 80.0727 247.668 79.4673L240.98 80.6789Z" fill="#55E3AA"/>
<path d="M264.051 56.7148C248.434 69.2253 250.044 85.7378 250.154 86.2101H254.035C257.248 86.2101 259.995 83.8548 260.435 80.6725C260.543 79.8968 260.682 79.0571 260.861 78.169L254.862 78.865C254.862 78.865 256.167 77.7307 257.98 76.6677C259.126 75.9959 261.897 73.8782 262.644 71.9271H256.488C256.488 71.9271 257.292 71.87 260.231 70.5567C262.518 69.5352 264.805 67.0982 265.292 65.6076H259.427C259.427 65.6076 260.526 64.8918 263.903 63.5161C267.279 62.1404 270.353 59.1666 270.353 59.1666H265.592C265.592 59.1666 266.53 58.9791 269.203 58.166C271.876 57.3534 277.045 54.039 277.045 54.039H272.059C272.059 54.039 275.978 53.2809 279.494 52.449C280.25 52.2701 280.992 52.03 281.707 51.7263C288.747 48.7365 294.711 48.8181 294.711 48.8181C294.711 48.8181 279.668 44.2043 264.051 56.7148Z" fill="#55E3AA"/>
<path d="M144.12 280.765C145.357 281.538 146.287 282.714 146.751 284.097C147.85 287.373 150.071 293.727 152.15 298.018C155.058 304.022 165.47 313.684 165.47 313.684C165.47 313.684 155.902 310.119 149.054 303.459C142.207 296.799 140.518 291.828 139.487 287.982C138.455 284.136 137.648 276.723 137.648 276.723L144.12 280.765Z" fill="#E6B584"/>
<path d="M159.784 289.695L168.536 294.797C168.536 294.797 168.789 297.455 168.536 298.487C168.282 299.519 167.941 299.941 167.941 299.941C167.941 299.941 170.206 297.831 171.519 298.44C172.832 299.05 174.004 300.363 174.52 302.052C175.036 303.74 174.849 305.241 174.52 306.742C174.192 308.243 174.051 308.759 174.051 308.759C174.051 308.759 177.475 305.038 179.164 305.139C180.852 305.241 179.726 305.382 183.267 308.196C186.808 311.01 196.355 316.644 199.003 319.921L201.65 323.198C201.65 323.198 194.969 320.249 189.2 318.139C183.432 316.028 174.003 314.011 169.9 310.213C165.797 306.413 161.627 300.93 160.685 296.611C159.741 292.292 159.784 289.695 159.784 289.695Z" fill="#E6B584"/>
</svg>
