<svg width="420" height="300" viewBox="0 0 420 300" fill="none" xmlns="http://www.w3.org/2000/svg">
<path d="M378.989 115.664C380.099 125.891 378.985 138.763 377.639 148.613C372.126 169.438 355.205 182.667 346.591 189.128C358.094 200.26 367.819 216.509 367.819 236.814C365.665 258.041 356.435 281.115 335.515 298.651C314.542 315.161 299.493 325.759 275.831 337.415C276.446 346.337 270.601 352.61 265.371 355.567C258.295 359.566 248.758 360.181 240.451 354.028C214.301 360.181 147.541 348.798 143.849 327.263C143.51 325.283 142.672 315.741 142.619 308.188C130.928 320.802 113.392 314.649 104.47 300.805C90.318 300.497 76.7012 291.723 72.8527 288.053C64.7655 280.343 56.9124 271.978 54.1354 260.578C52.5041 253.879 52.1376 248.49 52.1127 245.184L20.3277 227.11C14.1308 223.603 15.417 213.226 18.0477 208.973C20.6784 204.721 35.2723 176.231 39.3646 171.915C43.4565 167.6 48.1576 166.712 52.4 166.712C63.2526 167.87 87.5995 187.211 112.777 204.51C112.838 192.269 113.115 185.439 122.314 173.745C123.151 159.279 124.563 150.794 143.542 145.441C131.236 138.365 122.621 126.367 125.083 116.215C127.229 107.36 136.761 94.5357 154.925 87.2955C152.218 76.7415 152.52 58.7826 157.837 41.0223C160.209 31.1835 164.293 16.4729 165.802 12.3054C168.13 5.87476 169.33 -0.858093 173.552 -0.488464C177.776 -0.119232 175.135 6.18768 177.181 18.4641C178.403 25.794 179.961 34.2731 180.46 37.4563C192.513 34.7046 198.952 33.1492 211.84 33.1492C221.685 33.1492 230.607 34.4021 239.528 37.4563C245.271 28.7949 263.718 4.32812 264.508 2.62894C265.527 0.436798 270.338 -2.3295 272.697 -0.283569C275.056 1.76239 274.701 11.1055 274.701 17.8281C274.701 20.9506 274.411 30.6169 274.1 40.0746C270.601 63.6065 265.986 73.7589 255.834 85.1419L262.91 92.2179C272.755 94.0638 273.309 95.7832 278.292 100.832C285.539 95.2594 291.723 90.8495 302.289 88.8337C309.98 86.6802 320.691 91.979 324.747 96.8326C334.775 92.3448 339.318 91.1848 346.222 90.6643C348.893 90.4188 351.793 90.3565 354.769 90.6335C366.462 91.7219 376.943 96.8116 378.989 115.664Z" fill="#013543"/>
<path d="M60.5656 251.797C59.649 251.273 58.764 250.765 57.9152 250.277C58.3664 253.538 59.2049 259.619 60.767 264.446C62.9481 271.184 71.4936 278.875 71.4936 278.875C71.4936 278.875 64.8415 269.481 64.1117 261.643C63.9174 259.557 63.7925 257.938 63.6775 256.648C63.497 254.619 62.3333 252.81 60.5656 251.797Z" fill="#E6B584"/>
<path d="M218.848 114.709C218.848 114.709 224.401 116.371 231.653 121.357C238.906 126.343 242.608 133.03 242.495 132.237C242.381 131.443 242.003 125.469 239.397 120.791C236.791 116.113 233.542 113.5 233.542 113.5C233.542 113.5 238.302 115.351 240.984 119.469C239.927 115.052 238.489 110.061 232.369 105.642C226.251 101.222 220.354 101.11 220.354 101.11C224.546 102.621 230.878 107.083 232.9 110.139C232.9 110.139 229.16 108.892 224.741 108.212C220.321 107.532 217.904 108.212 217.904 108.212C217.904 108.212 224.439 110.42 228.178 113.291C231.102 115.536 232.862 118.147 232.862 118.147C232.862 118.147 225.874 114.256 218.848 114.709Z" fill="#EFD9C2"/>
<path d="M169.969 136.729C168.099 138.908 166.27 141.053 158.118 144.425C149.965 147.796 137.265 149.819 130.994 155.967C124.723 162.115 126.604 172.825 126.604 172.825C126.604 172.825 128.984 164.797 132.457 161.521C136.255 157.938 139.983 157.157 139.983 157.157C139.983 157.157 133.294 160.727 130.576 169.255C127.858 177.783 132.039 186.311 132.039 186.311C132.039 186.311 133.202 175.749 137.921 169.683C144.068 161.782 152.064 157.777 152.064 157.777C152.064 157.777 146.452 162.163 140.863 170.937C137.719 175.872 135.192 182.663 134.966 189.088C134.339 206.937 150.417 217.052 150.417 217.052C150.417 217.052 146.964 212.179 146.473 200.893C146.056 191.316 147.901 184.472 153.65 175.893C159.09 167.776 168.155 163.099 168.155 163.099C168.155 163.099 160.541 170.815 154.897 180.731C149.253 190.647 149.158 202.708 154.047 214.06C158.353 224.059 170.139 230.026 175.238 230.94C169.175 223.468 165.16 215.417 165.369 205.039C165.595 193.75 172.235 184.494 172.235 184.494C172.235 184.494 167.279 201.345 170.309 211.265C173.803 222.705 179.896 225.51 186.627 226.747C186.627 226.747 178.337 216.758 180.667 202.445C182.933 188.522 186.694 183.984 189.811 173.537C192.385 164.911 192.746 155.68 192.746 155.68C192.746 155.68 195.264 162.755 191.273 177.828C187.282 192.901 184.927 197.485 184.927 203.797C184.927 210.11 186.457 212.232 187.477 214.436C189.391 208.516 197.169 200.736 202.314 193.108C209.042 183.132 208.524 173.387 208.271 163.798C210.5 170.051 211.409 177.33 208.373 187.923C205.46 198.083 199.559 206.144 199.559 206.144C199.559 206.144 210.352 201.428 215.864 194.17C223.948 183.526 224.226 169.652 224.226 169.652C224.226 169.652 226.108 175.447 225.481 181.198C224.853 186.95 223.599 189.881 223.599 189.881C223.599 189.881 234.744 181.761 235.305 166.28C235.752 153.96 230.766 141.381 230.766 141.381C230.766 141.381 236.796 147.822 238.259 156.945C239.722 166.068 238.441 172.428 238.441 172.428C238.441 172.428 248.176 162.244 244.692 147.157C239.292 123.779 218.3 119.771 218.3 119.771C218.3 119.771 229.621 128.385 232.806 132.726C237.618 139.284 238.642 144.553 238.642 144.553C238.235 143.831 235.702 138.706 229.279 133.044C226.351 130.463 222.615 128.119 217.904 125.416C227.763 141.058 228.908 155.072 228.512 159.408C223.495 146.542 217.047 142.456 205.608 137.672C210.999 144.399 214.899 151.374 216.692 158.161C219.081 167.21 218.087 175.924 215.377 183.27C215.377 183.27 216.552 173.217 214.504 164.066C210.198 144.822 202.324 141.576 195.919 135.468C195.919 135.468 200.943 144.253 202.431 153.755C204.077 164.257 201.023 171.239 201.023 171.239C200.452 145.682 188.604 136.464 188.744 136.729C188.883 136.993 188.79 150.437 184.051 160.949C179.313 171.46 175.241 175.8 175.241 175.8C175.241 175.8 182.265 159.611 183.171 151.81C184.077 144.009 182.434 136.729 182.434 136.729C180.054 143.316 177.262 148.497 169.388 154.315C161.514 160.132 155.067 164.443 150.987 169.173C147.951 172.695 146.058 176.43 146.058 176.43C146.058 176.43 146.951 171.437 152.037 165.884C157.124 160.331 168.552 152.939 171.966 146.646C174.12 142.676 174.405 139.176 174.265 139.374C174.126 139.572 173.847 143.407 164.998 147.704C156.149 152.001 152.766 151.978 149.77 152.97C146.773 153.961 143.508 155.519 143.508 155.519C143.508 155.519 146.078 152.957 156.181 149.652C166.285 146.346 169.411 138.249 169.969 136.729Z" fill="#EFD9C2"/>
<path d="M163.945 93.8897C163.248 94.1805 161.986 95.1318 161.986 96.4917C161.986 97.8516 162.154 100.632 163.951 105.266C165.39 108.973 166.665 110.176 166.665 110.176V120.483C166.665 120.483 170.769 113.393 172.86 108.999C175.446 103.566 176.561 98.1014 176.561 98.1014C176.561 98.1014 174.747 99.146 173.67 100.393C172.594 101.639 171.674 103.392 170.045 105.637C170.49 104.217 171.519 101.105 171.349 100.708C171.179 100.311 169.309 100.085 166.816 97.2514C164.323 94.4185 165.007 93.4468 163.945 93.8897Z" fill="#E6B584"/>
<path d="M182.681 90.3958C180.811 90.3958 179.337 90.8789 178.997 92.2952C178.657 93.7118 176.789 106.034 176.562 108.471C176.336 110.907 177.639 112.097 179.112 112.21C180.585 112.324 181.697 112.21 182.661 112.21C184.058 112.21 185.946 110.706 187.307 110.706C188.744 110.706 189.954 110.781 190.695 110.781C191.108 110.781 192.622 109.021 191.349 106.475C190.329 104.435 188.251 104.397 186.874 105.071C185.739 105.627 183.794 107.608 183.794 107.608C183.964 107.187 184.686 104.64 185.154 101.328C185.641 97.8786 185.893 94.1228 185.968 92.1525C186.018 90.845 183.419 90.3958 182.681 90.3958Z" fill="#E6B584"/>
<path d="M188.744 97.3085C188.858 98.3851 191.407 102.114 196.45 108.177C201.493 114.24 209.934 121.357 209.934 121.357C209.934 121.357 211.294 121.206 210.954 116.9C210.614 112.594 209.744 109.976 209.971 108.843C210.198 107.71 215.602 103.371 216.621 100.595C217.642 97.8184 216.678 94.7022 215.318 92.3789C213.958 90.0559 213.279 90.5658 213.222 90.7356C213.165 90.9059 212.503 95.8789 208.536 97.8622C204.57 99.8451 204.263 100.883 205.113 102.583C205.963 104.283 206.876 107.329 206.763 107.135C206.649 106.941 202.343 102.011 201.606 101.841C200.87 101.672 199.376 101.923 195.013 100.506C190.65 99.09 188.744 97.3085 188.744 97.3085Z" fill="#E6B584"/>
<path d="M177.236 82.3601C177.258 82.5378 178.035 87.6196 179.168 88.6962C180.301 89.7727 181.793 89.3897 183.18 89.3759C184.432 89.3633 184.607 88.1858 184.664 87.2228C184.749 85.7774 185.225 82.7002 184.705 82.3601C184.534 82.2482 183.604 81.9664 182.553 81.957C181.986 81.9515 181.989 85.1429 181.376 85.1079C180.621 85.0645 180.078 82.0271 179.471 82.0697C178.605 82.13 177.195 82.0173 177.236 82.3601Z" fill="#E6B584"/>
<path d="M176.108 84.2084C176.899 85.5825 177.473 87.8207 176.536 89.2188C175.598 90.6169 173.783 90.987 171.177 89.6944C168.57 88.4019 166.644 85.705 166.644 85.705C163.66 85.108 158.708 85.9994 158.708 85.9994C158.708 85.9994 160.077 84.3447 161.987 83.5456C163.779 82.7957 164.661 82.6921 165.416 82.6164C164.887 82.0123 164.488 80.6749 164.488 80.6749C165.434 80.6717 169.855 82.4505 172.893 84.6024C172.372 83.3568 172.992 81.8389 172.992 81.8389C172.992 81.8389 175.169 82.5782 176.108 84.2084Z" fill="#EFD9C2"/>
<path d="M190.269 81.9855C189.725 81.9567 186.631 82.8347 186.174 86.5676C185.846 89.2464 187.705 90.637 189.838 90.5818C192.53 90.5125 197.771 87.1768 200.133 85.385C200.133 85.385 205.063 84.6162 209.029 85.2396C212.995 85.8626 217.047 86.9451 217.047 86.9451C217.047 86.9451 216.381 84.7864 211.168 82.9734C205.956 81.1599 201.811 81.6517 201.811 81.6517C201.811 81.6517 203.059 80.6748 203.916 79.6318C202.266 79.6318 199.547 79.7984 195.202 81.619C192.149 82.8977 191.009 83.923 189.872 84.8313C190.198 83.7678 190.346 82.7476 190.269 81.9855Z" fill="#EFD9C2"/>
<path d="M200.133 89.9989C200.813 89.8855 204.099 89.7724 206.139 90.3954C208.179 91.0188 208.519 91.0109 208.688 89.9099C208.859 88.8089 208.575 87.3087 206.082 87.1806C203.589 87.0526 200.133 89.9989 200.133 89.9989Z" fill="#E6B584"/>
<path d="M164.606 92.2951L166.816 91.1322C166.816 91.1322 166.08 89.489 164.606 89.7156C163.133 89.9422 164.606 92.2951 164.606 92.2951Z" fill="#E6B584"/>
<path d="M168.155 95.0668C168.155 95.0668 169.479 95.8352 171.972 95.7785C172.808 95.7595 173.427 95.6926 173.881 95.6126C174.466 95.5093 174.943 96.1004 174.683 96.6332C174.321 97.374 173.584 98.1562 172.085 98.2717C169.139 98.4982 168.155 95.0668 168.155 95.0668Z" fill="#E6B584"/>
<path d="M193.786 96.2319C194.521 97.2198 196.635 98.3081 199.961 98.2813C203.265 98.2545 205.685 95.3819 205.685 95.3819C205.685 95.3819 202.87 95.6522 199.47 95.5955C196.07 95.5391 193.052 95.2436 193.786 96.2319Z" fill="#E6B584"/>
<path d="M175.408 112.672C173.141 116.051 167.966 120.579 165.003 124.231C162.224 127.654 161.149 131.546 161.376 134.733C161.603 137.92 162.547 140.138 162.547 140.138C162.547 140.138 168.155 132.901 172.971 129.452C177.787 126.004 179.932 125.635 181.012 124.406C182.689 122.497 182.964 119.529 182.964 119.529C182.964 119.529 182.84 122.861 185.22 124.585C187.6 126.31 201.971 130.927 207.971 133.585C215.335 136.846 220.042 141.652 220.042 141.652C220.042 141.652 220.042 134.059 214.876 128.643C208.687 122.155 196.825 115.58 193.199 112.132C191.216 113.308 191.556 114.588 192.746 116.103C193.936 117.618 198.435 120.785 198.435 120.785C198.435 120.785 192.094 117.461 189.29 114.274C189.29 114.274 186.96 115.646 187.473 117.671C187.924 119.449 192.434 122.399 192.434 122.399C192.434 122.399 187.776 120.26 186.003 117.305C184.793 115.287 181.593 115.241 179.761 117.461C177.928 119.683 176.182 121.6 175.315 122.151C175.946 121.456 177.362 119.594 178.203 117.871C178.689 116.875 178.316 115.528 177.599 114.832C174.728 118.924 171.753 120.805 171.753 120.805C171.753 120.805 175.748 116.643 176.088 115.215C176.472 113.599 175.408 112.672 175.408 112.672Z" fill="#EFD9C2"/>
<path d="M185.748 127.675C184.877 127.65 181.934 127.375 179.246 127.78C177.253 128.081 177.429 131.487 178.509 131.399C180.977 131.197 184.236 131.095 188.037 131.763C189.838 132.08 190.271 130.818 189.475 129.47C188.582 127.958 186.694 127.703 185.748 127.675Z" fill="#E6B584"/>
<path d="M268.552 7.62173C268.552 7.62173 259.103 23.2359 247.035 39.4442C232.879 58.4575 226.791 70.1212 226.791 85.0268C232.35 70.1212 237.468 61.8621 248.611 47.6504C260.371 32.6515 266.005 24.7991 268.088 20.8408C270.171 16.8825 268.552 7.62173 268.552 7.62173Z" fill="#EFD9C2"/>
<path d="M267.812 27.9242C267.812 27.9242 257.289 41.9621 249.911 50.7464C239.066 63.6585 229.997 79.5776 227.179 90.5651C227.179 90.5651 238.693 72.5181 247.678 62.2044C254.984 53.8189 263.585 43.7338 265.286 41.1708C268.713 36.0044 267.812 27.9242 267.812 27.9242Z" fill="#EFD9C2"/>
<path d="M265.512 45.0993C265.512 45.0993 249.366 64.215 242.772 72.1454C235.021 81.4684 230.702 88.7025 227.179 95.8066C227.179 95.8066 241.597 79.2877 247.678 73.6625C253.759 68.0378 263.028 58.4929 263.928 55.6872C265.512 50.7466 265.512 45.0993 265.512 45.0993Z" fill="#EFD9C2"/>
<path d="M261.267 62.841C260 64.1938 249.948 74.1099 242.696 82.0667C237.124 88.1789 228.115 98.6628 228.115 98.6628C228.115 98.6628 244.742 86.2244 253.575 78.2648C260.45 72.0698 261.267 62.841 261.267 62.841Z" fill="#EFD9C2"/>
<path d="M160.639 80.3726C160.014 77.8727 158.954 66.0553 160.412 57.3052C161.871 48.5552 172.188 7.62173 172.188 7.62173C172.188 7.62173 172.293 22.1376 171.876 26.3044C171.459 30.4711 170.483 38.0887 169.025 43.5054C167.566 48.9217 165.891 52.9024 164.416 56.726C160.8 66.1053 160.639 80.3726 160.639 80.3726Z" fill="#EFD9C2"/>
<path d="M173.481 30.5653C173.481 30.5653 172.875 37.7813 172.016 41.3144C171.354 44.0397 170.35 47.2517 170.35 47.2517C170.35 47.2517 173.506 43.7938 175.219 42.5987C176.101 34.9063 173.481 30.5653 173.481 30.5653Z" fill="#EFD9C2"/>
<path d="M209.254 77.897C206.48 77.3946 205.387 80.5073 205.137 80.486C215.865 81.3927 223.732 86.6431 223.732 86.6431C223.732 86.6431 222.326 82.913 218.293 80.8048C215.914 79.5615 213.712 78.7041 209.254 77.897Z" fill="#55E3AA"/>
<path d="M204.751 77.1482C188.599 74.2999 170.975 75.685 167.865 76.1934C164.879 76.6812 164.587 80.143 166.816 80.2537C173.128 80.5674 178.317 79.8333 191.848 80.2112C193.388 80.2541 202.676 77.8437 204.751 77.1482Z" fill="#55E3AA"/>
<path d="M249.747 86.9702C250.127 87.5112 257.568 89.4007 260.287 100.544C262.545 109.796 258.474 116.705 252.788 124.723C248.329 131.01 245.933 140.433 245.933 140.433C245.933 140.433 243.526 131.534 247.153 124.927C251.181 117.587 254.257 111.421 254.508 103.452C254.791 94.4435 249.747 86.9702 249.747 86.9702Z" fill="#EFD9C2"/>
<path d="M246.858 88.067C246.858 88.067 248.671 93.5369 247.971 99.713C247.177 106.709 240.626 110.535 240.626 110.535C240.626 110.535 242.325 111.158 244.082 110.932C245.838 110.705 247.245 110.082 247.245 110.082C247.245 110.082 244.252 114.728 243.855 118.921C243.458 123.114 243.628 124.133 243.628 124.133C243.628 124.133 246.972 118.864 249.011 115.125C251.051 111.385 253.328 105.421 251.628 98.1986C249.929 90.9763 246.858 88.067 246.858 88.067Z" fill="#EFD9C2"/>
<path d="M261.624 96.3435C263.06 99.9365 265.807 109.61 257.782 122.339C253.26 129.513 250.478 134.94 249.191 138.998C247.721 143.63 247.97 150.783 247.97 150.783C247.97 150.783 251.105 141.258 254.555 135.088C259.56 126.135 269.871 110.638 275.676 104.496C272.653 97.3448 261.624 96.3435 261.624 96.3435Z" fill="#EFD9C2"/>
<path d="M313.849 146.779C310.515 140.433 304.166 137.745 297.726 137.988C278.878 138.699 267.027 149.245 267.027 149.245C267.027 149.245 276.842 144.498 293.222 144.202C301.601 144.051 313.849 146.779 313.849 146.779Z" fill="#E6B584"/>
<path d="M161.986 105.039C161.074 105.681 158.809 108.346 157.616 111.668C156.714 114.18 156.633 117.202 156.916 119.922C158.144 115.918 160.637 111.914 163.951 109.458C163.951 109.458 162.375 106.814 161.986 105.039Z" fill="#EFD9C2"/>
<path d="M165.171 110.894C165.171 110.894 159.694 115.729 157.994 121.773C156.493 127.109 156.937 131.821 157.541 134.843C158.145 137.864 159.883 141.189 159.883 141.189C159.883 141.189 157.843 132.301 160.566 126.382C162.648 121.856 165.171 118.751 165.171 118.751C164.676 118.463 162.678 119.771 160.557 121.86C160.557 121.86 162.527 117.995 165.171 110.894Z" fill="#EFD9C2"/>
<path d="M243.911 89.4006C244.025 92.4601 243.815 95.1231 242.497 97.9564C239.339 104.748 237.282 97.6731 238.874 92.933C238.874 92.933 235.894 95.0601 234.421 96.3762L232.948 97.6924C232.948 97.6924 233.315 101.696 235.695 104.982C238.075 108.268 242.226 107.018 244.312 102.419C247.311 95.8064 243.911 89.4006 243.911 89.4006Z" fill="#E6B584"/>
<path d="M229.044 196.209C228.767 196.866 228.66 207.64 237.293 216.885C244.17 224.249 253.775 227.602 260.44 227.152C252.964 223.279 244.74 219.121 239.698 209.148C234.655 199.176 234.222 191.449 234.222 191.449L229.044 196.209Z" fill="#2CA483"/>
<path d="M249.493 262.767C249.643 263.522 249.157 269.065 245.819 273.296C242.481 277.526 236 280.094 236 280.094C236 280.094 241.906 282.636 247.95 281.204C251.373 280.394 254.598 277.477 254.52 273.557C254.411 268.047 249.493 262.767 249.493 262.767Z" fill="#2CA483"/>
<path d="M255.013 257.719C255.013 257.719 262.173 260.979 267.253 260.221C272.333 259.464 273.875 255.52 273.235 251.708C266.587 255.696 255.013 257.719 255.013 257.719Z" fill="#2CA483"/>
<path d="M237.405 256.022C237.405 256.022 230.975 264.621 224.194 267.834C218.82 270.38 211.265 272.498 211.265 272.498C211.265 272.498 218.612 277.065 227.074 276.462C235.535 275.859 239.654 271.55 240.416 265.768C241.137 260.304 237.405 256.022 237.405 256.022Z" fill="#2CA483"/>
<path d="M238.017 252.541C238.017 252.541 253.183 253.131 260.504 248.034C264.682 245.124 266.236 240.108 264.762 236.025C257.256 244.293 238.017 252.541 238.017 252.541Z" fill="#2CA483"/>
<path d="M307.353 219.542C307.353 219.542 290.161 219.316 278.092 216.074C266.024 212.832 260.71 206.437 260.71 206.437C260.71 206.437 270.527 211.571 280.434 213.012C290.341 214.453 295.445 214.093 294.784 214.093C293.749 214.093 279.364 210.142 270.448 201.677C276.271 204.074 285.189 206.312 302.05 210.76C302.05 210.76 296.9 204.996 288.45 198.331C280 191.666 277.642 189.955 277.642 189.955C277.642 189.955 289.441 193.92 298.087 200.404L306.733 206.888C306.733 206.888 302.562 195.743 292.925 186.736C284.452 178.818 279.353 174.663 279.353 174.663C279.353 174.663 299.878 186.344 307.363 197.521C313.863 207.225 314.874 209.086 315.031 209.648C314.724 208.344 312.321 197.122 305.51 185.885C299.282 175.608 295.327 171.861 292.863 169.741C298.537 172.933 305.255 177.044 312.407 188.154C320.061 200.042 321.504 206.957 321.504 206.957C321.504 206.957 322.312 199.459 317.631 185.362C315.059 177.616 310.335 169.741 310.335 169.741C310.335 169.741 321.054 178.968 324.746 193.198C327.284 202.977 326.187 206.957 326.187 206.957C326.187 206.957 328.024 204.463 329.52 198.331C330.42 194.638 330.24 188.334 330.24 188.334C330.24 188.334 331.846 193.008 331.306 200.213C330.765 207.418 329.429 211.03 329.429 211.03C333.573 209.769 338.605 197.069 338.845 189.954C339.137 181.288 337.33 172.332 332.485 165.769C321.059 150.288 306.623 150.752 306.623 150.752C306.623 150.752 320.342 158.114 325.561 169.785C329.448 178.479 329.824 184.611 329.824 184.611C329.824 184.611 324.877 171.161 316.074 162.051C307.93 153.623 295.533 150.971 284.782 150.143C275.724 149.446 270.214 151.692 267.026 154.404C260.731 159.756 265.669 165.204 268.182 167.712C261.54 164.46 253.404 161.134 247.457 169.709C241.042 178.956 249.362 194.549 256.927 203.195C247.561 196.651 245.446 191.577 242.627 179.539C242.627 179.539 239.037 182.455 239.905 192.297C240.619 200.39 245.628 214.489 262.692 220.667C282.839 227.963 307.353 219.542 307.353 219.542Z" fill="#E6B584"/>
<path d="M243.14 232.159C240.418 237.305 230.831 243.11 224.617 245.002C229.818 241.139 234.861 234.146 237.093 228.009C232.884 231.782 226.936 235.168 219.25 237.329C223.537 233.114 229.664 225.871 231.799 221.478C226.816 225.068 223.526 226.476 214.567 229.292C218.016 225.437 222.53 219.503 224.822 213.072C203.039 228.083 195.473 231.206 179.013 234.566C177.6 238.921 175.276 248.348 177.589 255.943C180.711 266.193 188.638 270.507 194.753 270.113C200.129 269.766 217.841 265.465 228.947 254.359C240.052 243.254 240.756 239.198 243.14 232.159Z" fill="#55E3AA"/>
<path d="M205.688 61.7031C209.453 60.2924 216.22 60.0138 225.136 62.8407C221.353 57.74 216.073 54.9852 207.877 55.3454C213.518 53.2372 218.741 53.5071 226.397 55.6689C223.245 51.0754 217.391 49.3644 211.356 48.914C211.356 48.914 217.994 46.6643 227.181 47.2518C221.687 43.8188 214.436 43.9969 214.436 43.9969C218.256 42.3407 221.353 41.4387 231.931 39.7655C231.931 39.7655 210.189 35.9999 197.303 49.3585C186.279 60.7865 188.747 72.8234 188.747 72.8234C205.688 72.9581 215.459 75.7989 223.27 80.7518C217.032 70.8897 205.688 68.3682 205.688 68.3682C205.688 68.3682 213.698 67.4673 224.325 70.4531C219.192 62.2437 205.688 61.7031 205.688 61.7031Z" fill="#55E3AA"/>
<path d="M192.378 93.2259C192.378 93.0907 195.396 91.6496 195.396 91.6496C195.396 91.6496 194.855 92.9106 195.035 93.5864C195.216 94.2614 195.407 94.4868 195.407 94.4868L192.378 93.2259Z" fill="#EFD9C2"/>
<path d="M168.472 93.2259C168.472 92.6856 169.962 91.6496 169.962 91.6496C169.768 91.8301 169.497 92.9106 169.652 93.5864C169.807 94.2614 169.971 94.4868 169.971 94.4868C169.971 94.4868 168.472 93.7665 168.472 93.2259Z" fill="#EFD9C2"/>
<path d="M356.357 118.458C343.036 112.167 327.778 115.34 327.778 115.34C327.778 115.34 338.911 111.431 348.785 113.211C367.775 116.633 373.155 128.354 373.155 128.354C372.152 123.527 370.123 116.857 361.774 112.397C352.851 107.63 342.837 107.698 342.837 107.698C342.837 107.698 352.098 106.323 359.37 107.991C366.64 109.659 372.046 113.836 372.046 113.836C372.046 113.836 370.322 109.408 363.842 105.6C359.802 103.226 350.513 101.867 350.513 101.867C356.306 100.671 364.358 102.235 371.945 107.865C366.744 100.027 361.785 97.4244 351.701 97.0673C317.356 95.8505 256.185 143.356 249.483 157.124C289.33 129.173 317.254 119.023 344.186 121.48C368.918 123.737 371.851 151.241 371.851 151.241C373.264 138.105 368.927 124.393 356.357 118.458Z" fill="#55E3AA"/>
<path d="M315.351 101.153C309.943 100.845 300.763 104.203 290.945 109.519C293.735 106.149 305.64 99.8686 315.996 97.8526C305.565 95.7625 298.01 100.259 292.375 103.11C292.375 103.11 302.197 95.2156 311.898 94.221C305.066 92.3921 296.729 95.2857 291.025 99.1817C272.405 111.898 260.899 130.462 253.197 145.604C275.988 121.438 305.496 104.745 315.351 101.153Z" fill="#55E3AA"/>
<path d="M174.625 92.3409C174.625 92.8851 174.184 93.326 173.64 93.326C173.096 93.326 172.656 92.8851 172.656 92.3409C172.656 91.7971 173.096 91.3558 173.64 91.3558C174.184 91.3558 174.625 91.7971 174.625 92.3409Z" fill="#EFD9C2"/>
<path d="M200.155 92.3409C200.155 92.8851 199.714 93.326 199.17 93.326C198.626 93.326 198.186 92.8851 198.186 92.3409C198.186 91.7971 198.626 91.3558 199.17 91.3558C199.714 91.3558 200.155 91.7971 200.155 92.3409Z" fill="#EFD9C2"/>
<path d="M358.622 139.164C358.622 139.164 359.649 142.924 358.625 150.918C357.6 158.911 350.613 163.931 350.613 163.931C350.613 163.931 356.711 154.584 355.394 144.37C354.077 134.156 347.393 129.793 347.393 129.793C347.393 129.793 351.215 137.337 348.711 145.428C347.148 150.477 343.791 154.605 343.791 154.605C343.791 154.605 347.362 147.204 345.695 140.543C344.027 133.881 339.487 131.22 337.685 130.181C339.43 134.84 340.215 144.105 335.329 148.296C335.329 148.296 336.497 140.919 334.282 137.134C330.982 131.493 322.806 131.365 322.806 131.365C322.806 131.365 328.438 135.178 328.002 140.649C327.425 147.879 326.172 150.609 326.172 150.609C328.961 147.987 330.793 146.17 331.665 141.105C333.236 145.781 331.84 153.199 331.84 153.199C337.946 154.34 341.172 148.008 341.959 144.987C341.975 148.638 340.055 159.025 338.645 160.05C342.685 161.487 346.932 161.337 351.207 150.598C351.033 156.422 347.498 164.743 345.221 168.234C349.288 171.193 356.184 165.684 357.837 163.782C357.837 163.782 356.441 169.87 349.442 177.272C353.034 175.54 360.018 172.605 362.282 159.899C363.806 151.348 358.622 139.164 358.622 139.164Z" fill="#2CA483"/>
<path d="M256.337 288.768C261.52 289.987 264.733 289.3 273.649 297.493C282.535 305.658 286.678 319.048 286.678 319.048C286.678 319.048 286.519 299.762 278.332 289.507C270.145 279.252 259.178 279.78 256.337 288.768Z" fill="#55E3AA"/>
<path d="M141.929 214.878C141.929 214.878 146.264 220.453 154.423 225.321C162.583 230.188 165.302 231.692 165.557 232.135C165.812 232.577 166.323 245.466 164.113 251.853C163.883 252.517 163.646 253.127 163.406 253.687C161.866 257.277 157.4 258.525 154.203 256.281L139.209 245.763C139.209 245.763 145.499 247.621 149.239 248.329C152.979 249.037 154.083 249.125 154.083 249.125C154.083 249.125 148.644 247.178 145.159 243.196C141.674 239.214 140.144 237.267 140.144 237.267C140.144 237.267 142.694 238.152 146.434 238.506C150.174 238.86 151.448 238.895 151.448 238.895C151.448 238.895 145.499 234.258 142.524 228.949C139.549 223.639 138.445 220.542 138.445 220.542C138.445 220.542 142.864 224.966 146.349 227.09C149.834 229.214 151.448 229.573 151.448 229.573C151.448 229.573 143.544 222.4 141.929 214.878Z" fill="#55E3AA"/>
<path d="M124.803 179.148C118.948 183.651 114.615 194.418 114.985 207.788C120.84 211.841 129.396 218.056 132.188 220.217C131.197 208.959 132.999 199.052 132.999 199.052C132.999 199.052 130.943 200.383 129.314 204.276C127.685 208.169 127.685 210.85 127.685 210.85C127.685 210.85 126.063 206.087 126.341 200.583C126.611 195.229 128.766 188.244 128.766 188.244C128.766 188.244 126.554 189.985 123.981 194.909C121.909 198.872 120.66 204.186 120.66 204.186C120.66 204.186 120.081 197.061 121.2 191.126C122.101 186.353 124.803 179.148 124.803 179.148Z" fill="#E6B584"/>
<path d="M286.832 228.528C285.631 231.229 284.186 239.677 286.392 246.761C288.953 254.99 298.268 257.631 305.231 257.984C305.231 257.984 316.159 258.464 327.328 267.111C332.176 265.788 339.714 259.126 341.647 248.623C343.58 238.12 338.075 222.875 329.188 219.003C330.93 222.875 332.011 231.298 332.011 231.298C332.011 231.298 326.787 224.3 322.608 221.026C323.157 224.851 325.038 234.903 322.944 241.893C321.263 236.068 319.398 230.679 316.923 225.572C316.519 232.466 312.569 245.406 312.569 245.406C312.569 245.406 310.996 236.128 309.775 230.8C305.952 238.05 299.155 239.695 299.155 239.695C299.155 239.695 302.17 232.826 302.29 229.043C295.495 229.476 286.832 228.528 286.832 228.528Z" fill="#E6B584"/>
<path d="M341.407 205.627C341.407 205.627 352.215 212.564 357.889 222.875C363.563 233.187 364.374 237.267 364.374 237.267C364.374 237.267 363.712 223.105 356.538 210.49C350.324 199.562 344.896 196.651 344.896 196.651L341.407 205.627Z" fill="#E6B584"/>
<path d="M267.644 280.26C270.441 277.75 283.903 267.721 287.394 265.158C290.884 262.594 295.117 262.306 298.205 262.919C302.347 263.741 306.306 263.161 320.782 273.536C327.988 278.699 331.71 288.366 332.371 292.029C328.398 287.247 318.861 279.299 308.474 276.237C314.349 280.345 318.96 286.653 321.877 292.595C324.794 298.538 326.043 303.145 326.043 303.145C326.043 303.145 315.593 291.745 311.236 288.066C306.878 284.387 300.608 282.122 300.608 282.122C300.608 282.122 310.316 291.362 312.677 297.373C315.037 303.383 315.147 310.042 315.147 310.042C315.147 310.042 309.374 300.435 305.171 295.511C301.978 291.771 300.128 290.622 296.165 288.306C298.567 291.188 304.331 301.696 303.274 310.229C303.274 310.229 295.384 293.41 281.575 283.803C274.727 279.04 267.644 280.26 267.644 280.26Z" fill="#55E3AA"/>
<path d="M96.9058 246.794C97.6569 239.07 104.683 237.88 104.683 237.88C104.683 237.88 100.558 243.146 101.787 250.221C101.836 250.505 101.949 250.86 102.108 251.263C102.119 250.953 102.14 250.631 102.172 250.296C102.923 242.572 109.95 241.382 109.95 241.382C109.95 241.382 105.825 246.647 107.053 253.723C107.102 254.006 107.216 254.362 107.374 254.765C107.385 254.454 107.406 254.132 107.439 253.797C108.19 246.073 115.216 244.883 115.216 244.883C115.216 244.883 111.091 250.149 112.32 257.224C112.369 257.508 112.483 257.863 112.641 258.266C112.652 257.956 112.673 257.634 112.705 257.299C113.456 249.575 120.483 248.385 120.483 248.385C120.483 248.385 116.358 253.651 117.586 260.726C117.635 261.01 117.749 261.365 117.907 261.768C117.919 261.458 117.939 261.136 117.972 260.801C118.723 253.077 125.749 251.887 125.749 251.887C125.749 251.887 121.625 257.153 122.853 264.228C122.902 264.511 123.016 264.867 123.174 265.27C123.185 264.96 123.206 264.637 123.238 264.303C123.989 256.579 131.016 255.389 131.016 255.389C131.016 255.389 126.891 260.654 128.119 267.73C128.168 268.013 128.282 268.368 128.44 268.772C128.451 268.461 128.472 268.139 128.504 267.805C129.256 260.081 136.282 258.891 136.282 258.891C136.282 258.891 132.157 264.156 133.386 271.232C133.435 271.515 133.548 271.87 133.707 272.274C133.718 271.963 133.739 271.641 133.771 271.306C134.522 263.582 141.549 262.392 141.549 262.392C141.549 262.392 137.424 267.658 138.652 274.733C138.702 275.017 138.815 275.372 138.973 275.775C138.984 275.465 139.005 275.143 139.038 274.808C139.789 267.084 146.815 265.894 146.815 265.894C146.815 265.894 142.691 271.16 143.919 278.235C143.968 278.519 144.082 278.874 144.24 279.277C144.251 278.967 144.272 278.645 144.304 278.31C145.055 270.586 152.082 269.396 152.082 269.396C152.082 269.396 147.957 274.662 149.185 281.737C149.234 282.021 149.348 282.376 149.507 282.779C149.518 282.469 149.538 282.146 149.571 281.811C150.322 274.088 157.348 272.898 157.348 272.898C157.348 272.898 153.223 278.163 154.452 285.239C154.501 285.522 154.614 285.878 154.773 286.281C154.784 285.97 154.805 285.648 154.838 285.313C155.588 277.589 162.615 276.399 162.615 276.399C162.615 276.399 158.49 281.665 159.718 288.74C159.768 289.024 159.881 289.379 160.039 289.782C160.051 289.472 160.072 289.15 160.104 288.815C160.855 281.091 167.881 279.901 167.881 279.901C167.881 279.901 163.757 285.167 164.985 292.242C165.034 292.525 165.148 292.881 165.306 293.284C165.317 292.974 165.338 292.652 165.37 292.316C166.122 284.593 173.148 283.403 173.148 283.403C173.148 283.403 169.023 288.669 170.251 295.744C170.301 296.027 170.414 296.383 170.573 296.786C170.584 296.476 170.604 296.153 170.637 295.818C171.388 288.095 178.414 286.905 178.414 286.905C178.414 286.905 174.29 292.17 175.518 299.246C175.567 299.529 175.681 299.884 175.839 300.287C175.85 299.977 175.871 299.655 175.904 299.32C176.654 291.597 183.681 290.406 183.681 290.406C183.681 290.406 179.556 295.672 180.784 302.748C180.846 303.103 181.009 303.572 181.237 304.109C186.101 293.65 192.541 288.941 192.541 288.941C190.736 288.153 107.794 231.474 107.794 231.474C107.794 231.474 104.893 229.596 99.8699 235.771C96.0767 240.436 96.1043 244.829 96.8735 247.282C96.8842 247.119 96.8893 246.963 96.9058 246.794Z" fill="#55E3AA"/>
<path d="M129.756 224.72C128.959 224.029 68.8142 180.366 63.9185 177.436C59.3309 174.691 51.129 173.033 48.157 174.663C49.6934 174.732 54.1738 176.873 57.8303 178.913C64.8481 182.83 76.8191 191.459 83.2757 196.175C84.8733 197.342 88.776 202.024 86.2324 207.003C85.4931 211.257 60.5158 246.004 60.5158 246.004C65.2981 245.192 68.0644 242.428 68.0644 242.428C68.0644 242.428 67.7795 245.977 64.653 249.013C64.8686 248.983 65.0841 248.95 65.2981 248.914C70.0807 248.102 72.8466 245.338 72.8466 245.338C72.8466 245.338 72.5617 248.888 69.4353 251.923C69.6512 251.894 69.8668 251.861 70.0807 251.825C74.863 251.013 77.6289 248.249 77.6289 248.249C77.6289 248.249 77.344 251.799 74.2176 254.834C74.4335 254.804 74.649 254.772 74.863 254.736C79.6453 253.924 82.4112 251.16 82.4112 251.16C82.4112 251.16 82.1263 254.71 78.9998 257.745C79.2162 257.715 79.4313 257.683 79.6453 257.647C84.4276 256.835 87.1939 254.07 87.1939 254.07C87.1939 254.07 86.909 257.62 83.7825 260.655C83.9981 260.626 84.2136 260.594 84.4276 260.557C89.2099 259.746 91.9761 256.981 91.9761 256.981C91.9761 256.981 91.6912 260.531 88.5648 263.566C88.7807 263.536 88.9959 263.505 89.2099 263.468C93.9921 262.656 96.7584 259.892 96.7584 259.892C96.7584 259.892 96.4735 263.442 93.3471 266.477C93.563 266.447 93.7785 266.415 93.9921 266.379C98.7744 265.567 101.541 262.803 101.541 262.803C101.541 262.803 101.256 266.353 98.1293 269.388C98.3457 269.358 98.5604 269.326 98.7744 269.29C103.557 268.478 106.323 265.714 106.323 265.714C106.323 265.714 106.038 269.263 102.912 272.299C103.128 272.269 103.343 272.237 103.557 272.201C108.339 271.389 111.106 268.624 111.106 268.624C111.106 268.624 110.852 271.78 108.203 274.685C111.322 274.704 113.54 272.688 114.722 271.311C116.385 269.375 118.239 266.718 118.239 266.718C118.239 266.718 99.9826 254.386 95.7875 251.029C91.5919 247.674 92.9522 241.15 95.9691 236.632C98.986 232.114 103.055 225.603 109.125 229.137C115.196 232.671 131.435 244.565 131.435 244.565C131.435 244.565 134.917 240.338 135.405 235.21C135.893 230.082 130.552 225.412 129.756 224.72Z" fill="#2CA483"/>
<path d="M148.866 140.536C146.451 136.501 143.19 129.958 141.77 123.819C140.554 118.562 139.779 113.093 140.943 108.367C140.967 114.882 143.143 121.703 145.202 127.142C147.418 132.995 151.15 138.05 155.592 141.932C138.252 112.288 149.479 94.4867 149.479 94.4867C141.32 96.0046 133.357 103.415 136.87 118.769C139.875 131.898 148.451 140.624 150.768 143.181C150.313 142.384 149.454 141.518 148.866 140.536Z" fill="#55E3AA"/>
<path d="M130.678 115.599C130.573 116.13 130.992 123.737 136.957 132.228C142.922 140.72 147.318 143.727 147.318 143.727C147.318 143.727 135.246 137.809 130.026 128.433C124.806 119.057 130.678 115.599 130.678 115.599Z" fill="#55E3AA"/>
<path d="M162.684 331.188C171.228 332.86 176.925 333.148 183.664 332.191C183.664 332.191 172.364 327.982 168 324.722C163.636 321.46 157.463 316.18 155.849 312.793C167.62 320.138 172.462 316.751 172.462 316.751C172.462 316.751 166.861 314.229 160.35 308.563C155.11 304.004 151.008 299.516 151.008 299.516C151.008 299.516 161.853 304.481 165.982 304.02C157.61 297.199 146.293 288.691 144.152 287.086C144.102 288.887 144.614 291.666 145.59 294.119C146.723 296.965 147.636 297.913 147.636 297.913L144.102 295.067C144.102 295.067 144.177 301.363 145.869 305.072C147.459 308.556 150.424 311.195 150.424 311.195C150.424 311.195 146.396 309.528 145.038 306.987C144.849 310.321 145.137 315.091 146.899 317.98C148.153 320.034 150.022 322.268 150.752 323.516C148.346 322.41 146.172 319.726 146.172 319.726C146.748 327.294 150.123 333.03 155.334 335.918C160.901 339.003 168.956 342.986 177.114 345.346C191.852 349.61 198.185 348.064 198.185 348.064C185.942 345.123 176.449 342.113 162.684 331.188Z" fill="#2CA483"/>
<path d="M194.273 217.035C194.273 217.035 204.6 212.351 212.406 206.947C220.211 201.544 222.403 198.211 222.403 198.211C222.403 198.211 216.849 212.446 205.681 219.004C194.513 225.561 194.273 217.035 194.273 217.035Z" fill="#55E3AA"/>
<path d="M262.871 307.49C259.984 304.919 252.995 299.326 246.32 295.962C243.533 294.557 233.517 288.09 223.512 286.438C213.507 284.785 209.229 281.215 203.068 283.082C197.042 284.908 196.445 289.604 194.421 292.449C192.399 295.294 187.584 302.661 185.076 305.693C182.569 308.725 180.314 311.547 182.045 315.45C182.732 316.998 184.128 318.632 185.563 320.04C185.162 318.331 185.053 316.579 185.505 314.965C187.126 309.185 196.373 300.573 198.355 297.241C200.336 293.908 200.816 291.608 205.139 290.648C211.145 289.313 214.686 292.149 214.686 292.149C214.686 292.149 210.23 292.475 206.911 295.641C206.397 296.345 205.961 297.194 205.764 298.199C205.086 301.639 205.218 302.703 204.254 304.247C203.289 305.79 198.923 310.848 195.429 315.154C192.218 319.111 191.45 322.552 192.05 324.365C192.948 327.077 194.081 327.876 196.326 329.691C195.764 328.171 195.541 326.589 195.969 325.061C197.59 319.281 207.399 310.501 209.381 307.168C211.362 303.836 212.379 299.709 218.169 298.558C224.203 297.358 229.337 300.855 229.337 300.855C229.337 300.855 226.392 300.887 223.3 301.795C222.593 302.091 218.836 303.742 218.018 305.673C217.114 307.806 217.021 310.017 216.762 311.511C216.226 314.602 204.876 326.25 204.562 331.669C204.38 334.806 205.338 336.29 206.954 337.729C207.83 338.509 209.481 339.808 211.152 340.942C210.352 339.472 209.903 337.711 210.369 335.672C211.707 329.819 220.585 320.371 222.402 316.947C224.219 313.522 223.341 308.793 229.097 306.619C234.852 304.445 240.109 308.03 240.109 308.03C240.109 308.03 236.204 308.513 233.035 310.92C232.173 311.787 231.213 313.123 230.918 314.96C230.345 318.527 230.549 320.064 229.921 321.757C229.293 323.449 221.672 332.992 220.212 337.291C218.751 341.591 220.312 343.282 221.563 345.305C222.648 347.06 223.835 347.574 225.48 348.886C225.488 348.707 225.498 348.525 225.513 348.337C226.034 341.625 228.736 338.202 231.438 334.599C234.14 330.997 233.962 327.164 233.962 327.164C233.962 327.164 236.672 326.494 238.018 323.791C239.364 321.089 240.167 318.199 242.696 315.721C247.668 310.849 259.754 308.444 268.2 314.673C267.644 312.358 264.467 308.912 262.871 307.49Z" fill="#E6B584"/>
<path d="M68.3415 218.067C68.3415 218.067 74.9289 203.281 78.2197 198.71C78.3352 198.55 78.4506 198.397 78.5669 198.247C78.5582 198.241 78.5495 198.235 78.5409 198.229C77.1317 197.271 75.2162 197.621 74.2405 199.018C69.3601 206.001 63.1825 214.759 63.1825 214.759C63.1825 214.759 69.7699 199.973 73.0607 195.401C73.212 195.192 73.3641 194.994 73.5166 194.801C73.508 194.795 73.4989 194.789 73.4902 194.783C72.0807 193.819 70.1589 194.168 69.1804 195.568C64.2858 202.573 58.0235 211.45 58.0235 211.45C58.0235 211.45 64.6113 196.665 67.9021 192.093C68.0924 191.828 68.2843 191.58 68.477 191.343C68.468 191.337 68.4593 191.33 68.4502 191.324C67.0391 190.353 65.109 190.703 64.1282 192.107C59.2179 199.135 52.8649 208.142 52.8649 208.142C52.8649 208.142 59.4519 193.356 62.7427 188.785C62.9764 188.46 63.2116 188.16 63.4481 187.878C63.439 187.871 63.4295 187.865 63.4205 187.858C62.0038 186.881 60.0639 187.231 59.0784 188.642C54.1534 195.693 47.7059 204.834 47.7059 204.834C47.7059 204.834 54.2933 190.048 57.5841 185.476C57.8603 185.092 58.1401 184.741 58.4199 184.415C58.4093 184.408 58.3986 184.4 58.388 184.393C56.9607 183.414 55.0117 183.77 54.0206 185.189C49.0835 192.258 42.5469 201.525 42.5469 201.525C42.5469 201.525 49.1343 186.739 52.4251 182.168C52.7155 181.765 53.0091 181.396 53.3031 181.057C53.2928 181.051 53.2822 181.044 53.2719 181.038C51.7781 180.109 49.8196 180.509 48.8124 181.951C43.8812 189.011 37.3879 198.216 37.3879 198.216C37.3879 198.216 43.9753 183.431 47.2661 178.859C47.4758 178.568 47.687 178.295 47.899 178.038C47.2377 177.803 46.5883 177.664 45.8794 177.629C42.3948 177.452 42.3451 178.319 39.937 181.285C37.529 184.251 23.8461 209.388 22.3117 211.955C21.1839 213.84 18.7754 219.108 21.7781 222.43C21.8443 221.974 21.8837 221.703 21.8837 221.703C23.1325 217.167 26.344 215.053 26.344 215.053C26.344 215.053 25.165 219.107 26.8811 224.056C26.9576 224.276 27.0392 224.497 27.1231 224.717C28.3715 220.181 31.5834 218.067 31.5834 218.067C31.5834 218.067 30.4044 222.122 32.1201 227.069C32.197 227.29 32.2785 227.511 32.3625 227.731C33.6109 223.195 36.8228 221.081 36.8228 221.081C36.8228 221.081 35.6434 225.135 37.3595 230.083C37.4364 230.305 37.5179 230.525 37.6019 230.745C38.8506 226.209 42.0618 224.095 42.0618 224.095C42.0618 224.095 40.8828 228.149 42.5989 233.098C42.6753 233.319 42.7573 233.539 42.8412 233.759C44.0896 229.223 47.3012 227.11 47.3012 227.11C47.3012 227.11 46.1222 231.163 47.8383 236.112C47.9151 236.333 47.9967 236.553 48.0802 236.773C49.3286 232.237 52.5406 230.123 52.5406 230.123C52.5406 230.123 51.3615 234.177 53.0777 239.126C53.1545 239.347 53.2361 239.567 53.3196 239.787C54.5684 235.251 57.78 233.137 57.78 233.137C57.78 233.137 56.6009 237.192 58.3171 242.14C58.3935 242.361 58.4755 242.581 58.5594 242.801C66.1785 231.043 72.5949 221.286 81.3316 207.153C83.0721 204.906 83.0197 202.244 80.9576 200.094C75.9578 207.27 68.3415 218.067 68.3415 218.067Z" fill="#55E3AA"/>
<path d="M166.592 67.6475C166.592 67.6475 167.493 67.1072 169.955 65.5459C172.416 63.9847 174.626 60.0138 174.626 60.0138C174.626 60.0138 168.514 60.7424 168.334 60.8023C168.153 60.8626 170.495 59.8416 172.537 58.4009C174.578 56.9598 177.236 54.1132 177.236 54.1132L171.156 54.6081C171.156 54.6081 173.317 53.5973 175.659 52.3364C178.001 51.0754 182.336 47.2518 182.336 47.2518L176.199 47.8315C176.199 47.8315 180.282 46.3321 183.344 45.1314C186.795 43.7782 188.883 40.6281 194.797 37.7811C194.797 37.7811 177.893 40.5206 169.886 51.2113C163.138 60.2218 162.528 74.3287 163.084 76.8294C163.867 74.7326 165.898 73.8365 167.985 73.4432C170.58 72.9542 172.512 70.764 172.794 68.1388C172.85 67.6207 172.923 67.0654 173.014 66.4842L166.592 67.6475Z" fill="#55E3AA"/>
<path d="M188.743 44.6384C173.749 56.6504 175.295 72.5049 175.4 72.9585H179.127C182.212 72.9585 184.849 70.697 185.272 67.6415C185.375 66.8967 185.509 66.0905 185.681 65.2377L179.921 65.9061C179.921 65.9061 181.174 64.8169 182.915 63.7963C184.015 63.1512 186.676 61.1179 187.393 59.2445H181.482C181.482 59.2445 182.254 59.1897 185.076 57.9288C187.272 56.948 189.468 54.608 189.935 53.1768H184.304C184.304 53.1768 185.359 52.4896 188.601 51.1687C191.843 49.8478 194.795 46.9925 194.795 46.9925H190.223C190.223 46.9925 191.124 46.8124 193.69 46.0318C196.257 45.2516 201.22 42.0691 201.22 42.0691H196.433C196.433 42.0691 200.196 41.3413 203.571 40.5426C204.297 40.3708 205.009 40.1402 205.696 39.8486C212.456 36.9779 218.182 37.0563 218.182 37.0563C218.182 37.0563 203.738 32.6264 188.743 44.6384Z" fill="#55E3AA"/>
<path d="M73.5912 259.762C74.7793 260.504 75.6719 261.633 76.1171 262.961C77.172 266.107 79.3055 272.207 81.301 276.327C84.0933 282.092 94.0905 291.368 94.0905 291.368C94.0905 291.368 84.9038 287.946 78.329 281.551C71.7541 275.157 70.133 270.383 69.1423 266.691C68.1517 262.998 67.377 255.881 67.377 255.881L73.5912 259.762Z" fill="#E6B584"/>
<path d="M88.6309 268.336L97.0342 273.234C97.0342 273.234 97.2773 275.787 97.0342 276.778C96.791 277.769 96.4628 278.174 96.4628 278.174C96.4628 278.174 98.6376 276.147 99.8982 276.733C101.159 277.318 102.285 278.579 102.78 280.2C103.276 281.821 103.096 283.262 102.78 284.704C102.465 286.145 102.33 286.64 102.33 286.64C102.33 286.64 105.617 283.067 107.239 283.165C108.859 283.262 107.779 283.398 111.179 286.1C114.579 288.801 123.745 294.211 126.287 297.357L128.829 300.504C128.829 300.504 122.414 297.673 116.875 295.646C111.336 293.62 102.283 291.683 98.3436 288.036C94.4042 284.388 90.401 279.124 89.4958 274.977C88.5903 270.829 88.6309 268.336 88.6309 268.336Z" fill="#E6B584"/>
<path d="M107.21 296.532C107.21 296.532 116.05 302.896 126.34 303.617C136.631 304.337 140.834 300.075 140.834 300.075C140.834 300.075 141.915 307.7 129.546 310.342C117.177 312.984 107.21 296.532 107.21 296.532Z" fill="#2CA483"/>
</svg>
