<svg width="353" height="350" viewBox="0 0 353 350" fill="none" xmlns="http://www.w3.org/2000/svg">
<g opacity="0.6">
<path d="M21.3949 202.509L12.9485 203.263L12.8011 201.734L19.9089 201.1L19.45 196.338L12.3422 196.972L12.1949 195.443L20.6413 194.689L21.3949 202.509Z" fill="white"/>
<path d="M19.7356 218.255C19.6203 218.277 19.4662 218.295 19.2732 218.309L17.9081 211.566C17.1933 211.798 16.6655 212.228 16.3248 212.856C15.9966 213.492 15.9151 214.219 16.0802 215.034C16.2812 216.027 16.7786 216.764 17.5723 217.245L16.7656 218.259C16.2491 217.965 15.8184 217.557 15.4734 217.036C15.1306 216.525 14.8894 215.925 14.7497 215.235C14.5719 214.357 14.5924 213.544 14.8113 212.798C15.0407 212.049 15.4423 211.426 16.0161 210.928C16.592 210.44 17.2888 210.119 18.1066 209.966C18.9138 209.815 19.6785 209.856 20.4004 210.089C21.1245 210.333 21.7283 210.736 22.2117 211.296C22.7077 211.865 23.0362 212.547 23.197 213.341C23.3579 214.136 23.3173 214.876 23.0752 215.561C22.8457 216.256 22.4409 216.836 21.8608 217.303C21.2827 217.78 20.5743 218.098 19.7356 218.255ZM21.9232 213.58C21.7772 212.859 21.4343 212.294 20.8945 211.885C20.3568 211.487 19.723 211.312 18.9932 211.362L20.0726 216.694C20.7581 216.479 21.2713 216.084 21.6121 215.51C21.9656 214.945 22.0693 214.301 21.9232 213.58Z" fill="white"/>
<path d="M27.0233 228.528C27.2685 229.312 27.314 230.065 27.1599 230.787C27.0057 231.509 26.6703 232.133 26.1536 232.661C25.6401 233.198 24.9735 233.585 24.1539 233.823C23.3342 234.06 22.5511 234.093 21.8045 233.921C21.0712 233.756 20.4334 233.413 19.8908 232.893C19.3482 232.373 18.9544 231.721 18.7092 230.937C18.5278 230.357 18.4733 229.789 18.5459 229.236C18.6216 228.692 18.8221 228.19 19.1474 227.729L14.9365 228.949L14.4781 227.483L25.6045 224.259L26.0439 225.664L24.753 226.038C25.3056 226.233 25.7727 226.548 26.1541 226.981C26.5457 227.412 26.8355 227.927 27.0233 228.528ZM19.9619 230.441C20.1243 230.96 20.387 231.389 20.75 231.728C21.1264 232.074 21.5664 232.302 22.0699 232.411C22.5869 232.528 23.1271 232.505 23.6906 232.342C24.2541 232.178 24.7128 231.912 25.0667 231.543C25.434 231.181 25.6702 230.758 25.7753 230.272C25.8836 229.796 25.8566 229.299 25.6942 228.78C25.535 228.271 25.2672 227.843 24.8908 227.497C24.5278 227.158 24.0929 226.929 23.5862 226.809C23.0827 226.7 22.5492 226.727 21.9857 226.89C21.4222 227.053 20.9568 227.316 20.5895 227.677C20.2324 228.036 19.9962 228.46 19.8808 228.949C19.7757 229.434 19.8028 229.932 19.9619 230.441Z" fill="white"/>
<path d="M29.5397 247.508C29.4307 247.552 29.2828 247.599 29.096 247.651L26.3787 241.33C25.7229 241.694 25.2915 242.216 25.0845 242.896C24.8915 243.581 24.9594 244.305 25.288 245.07C25.6882 246.001 26.3276 246.624 27.2062 246.94L26.6195 248.086C26.0516 247.899 25.5449 247.584 25.0994 247.142C24.6581 246.709 24.2985 246.17 24.0204 245.523C23.6665 244.7 23.5211 243.903 23.5842 243.131C23.6572 242.356 23.9251 241.67 24.3878 241.073C24.8548 240.485 25.4747 240.037 26.2477 239.729C27.0107 239.425 27.7711 239.318 28.5287 239.406C29.2906 239.504 29.9663 239.781 30.556 240.234C31.1598 240.694 31.6218 241.296 31.942 242.041C32.2622 242.786 32.3732 243.516 32.2749 244.232C32.1907 244.955 31.911 245.6 31.4356 246.168C30.9644 246.746 30.3325 247.193 29.5397 247.508ZM30.738 242.52C30.4473 241.844 29.9949 241.359 29.3807 241.064C28.7707 240.779 28.1119 240.731 27.4043 240.921L29.5529 245.919C30.1831 245.576 30.6074 245.092 30.8256 244.465C31.0579 243.845 31.0287 243.197 30.738 242.52Z" fill="white"/>
<path d="M36.5509 252.301L37.2985 253.643L31.8106 256.476L39.8297 258.185L40.5072 259.401L32.972 263.291L32.2243 261.949L37.7123 259.116L29.701 257.421L29.0156 256.191L36.5509 252.301ZM39.4633 255.261C39.0791 254.571 38.9464 253.95 39.0653 253.397C39.1937 252.838 39.5728 252.391 40.2026 252.054L40.7088 252.962C40.3633 253.152 40.1439 253.416 40.0505 253.752C39.9718 254.092 40.0388 254.454 40.2517 254.836C40.4646 255.218 40.7402 255.472 41.0785 255.597C41.4263 255.717 41.7782 255.692 42.134 255.52L42.6558 256.456C42.0156 256.775 41.4158 256.826 40.8566 256.611C40.3068 256.391 39.8423 255.941 39.4633 255.261Z" fill="white"/>
<path d="M43.3088 276.65L40.5288 278.45L39.7038 277.27L41.3557 276.2L37.2949 270.391L35.643 271.461L34.8088 270.267L37.5888 268.467L37.8455 268.834C38.184 269.263 38.7202 269.36 39.4541 269.126C40.188 268.892 41.1404 268.441 42.3113 267.771L44.7886 266.319L48.5561 271.709L42.5663 275.588L43.3088 276.65ZM43.024 268.986C42.1042 269.531 41.3091 269.938 40.6387 270.207C39.9834 270.479 39.4251 270.555 38.9638 270.434L41.6863 274.329L46.548 271.181L44.4396 268.165L43.024 268.986Z" fill="white"/>
<path d="M53.0574 277.706L54.0598 278.87L49.2322 282.722L57.4533 282.81L58.3617 283.864L51.7333 289.153L50.7309 287.99L55.5584 284.138L47.3477 284.062L46.4289 282.995L53.0574 277.706Z" fill="white"/>
<path d="M67.1216 294.703L64.8908 292.545L59.7367 297.481L58.6328 296.413L63.7868 291.477L61.556 289.319L62.5267 288.389L68.0923 293.774L67.1216 294.703Z" fill="white"/>
<path d="M75.4517 305.672C75.3744 305.76 75.2643 305.87 75.1214 306.001L69.7755 301.67C69.3586 302.293 69.2146 302.951 69.3437 303.646C69.4881 304.339 69.8835 304.947 70.53 305.471C71.3173 306.109 72.1761 306.365 73.1062 306.241L73.1121 307.522C72.5188 307.617 71.9211 307.572 71.3191 307.386C70.7254 307.207 70.155 306.896 69.6079 306.452C68.9117 305.888 68.4136 305.252 68.1136 304.542C67.8206 303.825 67.7426 303.096 67.8796 302.357C68.0248 301.624 68.3713 300.944 68.919 300.318C69.4597 299.7 70.0886 299.256 70.8057 298.986C71.5311 298.723 72.2619 298.657 72.9979 298.787C73.7492 298.915 74.4398 299.235 75.0698 299.745C75.6997 300.255 76.1362 300.849 76.3795 301.526C76.638 302.202 76.6864 302.9 76.5246 303.619C76.371 304.345 76.0134 305.03 75.4517 305.672ZM74.2166 300.721C73.6447 300.257 73.0166 300.036 72.3321 300.058C71.6559 300.087 71.046 300.347 70.5022 300.839L74.7292 304.264C75.1333 303.672 75.2881 303.05 75.1935 302.397C75.1141 301.743 74.7885 301.184 74.2166 300.721Z" fill="white"/>
<path d="M91.2799 311.629L92.6074 312.402L90.6921 315.45L94.8682 317.881L96.7835 314.833L98.111 315.605L93.5995 322.786L92.272 322.013L94.1617 319.005L89.9856 316.575L88.0959 319.582L86.7684 318.81L91.2799 311.629Z" fill="white"/>
<path d="M107.907 320.534C108.973 321.025 109.658 321.658 109.964 322.432C110.279 323.212 110.183 324.112 109.675 325.134L107.395 329.719L106.073 329.11L106.572 328.107C106.163 328.353 105.694 328.471 105.163 328.462C104.646 328.447 104.093 328.303 103.502 328.031C102.639 327.634 102.049 327.11 101.73 326.458C101.42 325.811 101.432 325.153 101.764 324.484C102.097 323.816 102.61 323.395 103.303 323.221C104.001 323.038 104.888 323.194 105.964 323.689L108.173 324.706L108.308 324.434C108.602 323.842 108.654 323.308 108.461 322.832C108.269 322.356 107.834 321.962 107.156 321.65C106.701 321.44 106.217 321.311 105.705 321.263C105.198 321.206 104.732 321.232 104.308 321.342L104.24 320.043C104.794 319.911 105.387 319.89 106.02 319.982C106.658 320.065 107.287 320.249 107.907 320.534ZM104.261 327.078C104.794 327.323 105.311 327.421 105.813 327.37C106.319 327.31 106.766 327.105 107.154 326.755L107.681 325.695L105.53 324.704C104.348 324.16 103.563 324.28 103.173 325.063C102.983 325.445 102.984 325.815 103.175 326.173C103.366 326.531 103.728 326.833 104.261 327.078Z" fill="white"/>
<path d="M132.113 331.119L127.611 329.757L125.396 336.541L123.925 336.096L126.557 328.035L132.53 329.841L132.113 331.119Z" fill="white"/>
<path d="M145.439 332.906L143.553 341.174L142.05 340.856L143.637 333.899L140.068 333.144L139.554 334.965C139.248 336.067 138.937 336.977 138.62 337.695C138.305 338.402 137.93 338.944 137.494 339.321C137.058 339.697 136.542 339.823 135.948 339.697C135.676 339.64 135.379 339.528 135.056 339.361L135.438 338.118C135.567 338.178 135.688 338.22 135.803 338.244C136.221 338.332 136.575 338.216 136.867 337.897C137.159 337.577 137.393 337.174 137.569 336.688C137.746 336.202 137.966 335.502 138.229 334.587L139.068 331.56L145.439 332.906Z" fill="white"/>
<path d="M156.295 334.543C157.461 334.679 158.314 335.069 158.857 335.712C159.41 336.357 159.615 337.245 159.472 338.378L158.831 343.457L157.385 343.288L157.525 342.177C157.221 342.539 156.818 342.798 156.314 342.954C155.823 343.1 155.254 343.136 154.608 343.06C153.665 342.95 152.936 342.634 152.421 342.112C151.917 341.591 151.712 340.961 151.805 340.22C151.899 339.479 152.244 338.918 152.84 338.537C153.438 338.145 154.325 338.018 155.501 338.155L157.916 338.437L157.954 338.136C158.037 337.48 157.91 336.955 157.572 336.561C157.235 336.167 156.696 335.927 155.954 335.84C155.456 335.782 154.958 335.81 154.46 335.923C153.963 336.026 153.533 336.196 153.17 336.433L152.679 335.216C153.157 334.917 153.71 334.713 154.336 334.604C154.964 334.484 155.617 334.464 156.295 334.543ZM155.01 341.915C155.593 341.983 156.112 341.915 156.568 341.711C157.025 341.496 157.379 341.161 157.63 340.707L157.778 339.533L155.426 339.258C154.133 339.107 153.432 339.465 153.323 340.333C153.27 340.756 153.392 341.109 153.689 341.39C153.987 341.672 154.427 341.847 155.01 341.915Z" fill="white"/>
<path d="M173.381 339.923C174.472 340.23 175.001 340.933 174.969 342.031C174.947 342.777 174.648 343.345 174.071 343.735C173.505 344.126 172.667 344.306 171.558 344.276L167.48 344.167L167.726 335.69L171.66 335.796C172.663 335.823 173.441 336.036 173.995 336.435C174.549 336.823 174.816 337.364 174.796 338.057C174.783 338.505 174.649 338.89 174.394 339.214C174.15 339.528 173.813 339.764 173.381 339.923ZM169.123 339.377L171.427 339.439C172.013 339.455 172.459 339.36 172.763 339.155C173.079 338.95 173.242 338.645 173.254 338.239C173.278 337.429 172.692 337.008 171.498 336.976L169.195 336.914L169.123 339.377ZM171.481 343.09C172.121 343.107 172.603 343.018 172.929 342.824C173.255 342.63 173.424 342.32 173.436 341.894C173.449 341.456 173.309 341.127 173.017 340.906C172.735 340.685 172.28 340.566 171.65 340.549L169.091 340.48L169.018 343.023L171.481 343.09Z" fill="white"/>
<path d="M182.211 335.83L183.743 335.727L184.004 339.317L188.825 338.993L188.564 335.403L190.097 335.3L190.71 343.757L189.178 343.86L188.921 340.318L184.1 340.642L184.357 344.184L182.824 344.287L182.211 335.83Z" fill="white"/>
<path d="M205.64 333.222L203.17 343.064C202.959 343.973 202.641 344.639 202.217 345.064C201.803 345.487 201.259 345.752 200.585 345.86C200.174 345.926 199.762 345.922 199.349 345.848C198.948 345.782 198.599 345.644 198.303 345.432L198.754 344.193C199.257 344.534 199.792 344.658 200.361 344.567C200.73 344.508 201.018 344.359 201.226 344.121C201.446 343.891 201.615 343.524 201.733 343.019L201.901 342.392L196.761 334.645L198.341 334.392L202.42 340.608L204.154 333.46L205.64 333.222Z" fill="white"/>
<path d="M218.838 330.075C219.631 329.862 220.394 329.851 221.126 330.041C221.855 330.221 222.492 330.58 223.037 331.118C223.578 331.646 223.965 332.31 224.197 333.109C224.428 333.908 224.456 334.674 224.279 335.406C224.1 336.127 223.748 336.752 223.223 337.279C222.698 337.806 222.04 338.177 221.246 338.389C220.525 338.583 219.828 338.61 219.155 338.471C218.481 338.331 217.877 338.046 217.341 337.616C216.813 337.172 216.403 336.62 216.112 335.958L214.458 336.402L215.456 339.844L213.972 340.242L211.612 332.097L213.096 331.699L214.062 335.034L215.731 334.586C215.638 333.882 215.703 333.225 215.925 332.613C216.155 331.988 216.518 331.46 217.015 331.028C217.519 330.584 218.127 330.266 218.838 330.075ZM220.872 337.099C221.377 336.963 221.796 336.724 222.13 336.38C222.474 336.034 222.702 335.614 222.814 335.12C222.923 334.616 222.895 334.077 222.729 333.503C222.565 332.94 222.303 332.474 221.941 332.108C221.577 331.731 221.154 331.48 220.674 331.355C220.204 331.227 219.716 331.231 219.212 331.366C218.707 331.502 218.282 331.743 217.939 332.089C217.595 332.435 217.368 332.86 217.259 333.364C217.157 333.856 217.188 334.383 217.351 334.946C217.517 335.52 217.777 335.997 218.132 336.377C218.493 336.743 218.914 336.989 219.395 337.114C219.875 337.239 220.368 337.234 220.872 337.099Z" fill="white"/>
<path d="M238.529 323.439L239.927 322.803L242.65 328.346L244.66 320.649L245.927 320.072L249.666 327.684L248.268 328.32L245.545 322.776L243.549 330.467L242.268 331.05L238.529 323.439Z" fill="white"/>
<path d="M259.129 312.915L263.624 320.106L262.294 320.875L258.512 314.824L255.355 316.652L256.273 318.301C256.832 319.296 257.25 320.156 257.528 320.882C257.8 321.599 257.91 322.238 257.857 322.798C257.805 323.358 257.516 323.79 256.99 324.095C256.75 324.234 256.452 324.351 256.097 324.446L255.493 323.298C255.63 323.256 255.749 323.206 255.85 323.147C256.22 322.933 256.398 322.614 256.384 322.191C256.371 321.767 256.257 321.322 256.041 320.856C255.825 320.39 255.488 319.741 255.031 318.909L253.494 316.178L259.129 312.915Z" fill="white"/>
<path d="M265.711 308.754L266.958 307.858L270.744 312.737L271.18 304.822L272.31 304.01L277.509 310.709L276.262 311.606L272.476 306.726L272.053 314.632L270.909 315.454L265.711 308.754Z" fill="white"/>
<path d="M291.816 292.354C292.801 291.775 293.694 291.863 294.493 292.617C295.035 293.13 295.252 293.723 295.144 294.397C295.042 295.064 294.596 295.786 293.804 296.563L290.891 299.42L284.726 293.598L287.536 290.842C288.251 290.139 288.951 289.722 289.633 289.59C290.308 289.45 290.898 289.619 291.402 290.095C291.728 290.402 291.923 290.755 291.989 291.154C292.054 291.538 291.996 291.938 291.816 292.354ZM288.452 295.049L290.097 293.436C290.515 293.025 290.754 292.642 290.812 292.286C290.878 291.923 290.763 291.602 290.468 291.324C289.879 290.767 289.158 290.907 288.305 291.744L286.66 293.358L288.452 295.049ZM292.863 295.828C293.32 295.38 293.589 294.974 293.67 294.611C293.751 294.248 293.637 293.92 293.326 293.627C293.008 293.327 292.665 293.208 292.297 293.271C291.936 293.326 291.531 293.574 291.082 294.015L289.255 295.807L291.104 297.554L292.863 295.828Z" fill="white"/>
<path d="M306.135 277.075L305.077 278.481L308.016 280.531L307.092 281.758L300.137 276.907L301.061 275.68L304.001 277.73L305.078 276.299L303.794 272.05L304.785 270.733L306.197 275.636L311.875 275.405L310.788 276.85L306.135 277.075Z" fill="white"/>
<path d="M309.91 262.814C310.524 261.815 311.243 261.194 312.068 260.951C312.898 260.7 313.809 260.857 314.801 261.422L319.25 263.955L318.488 265.195L317.514 264.641C317.723 265.054 317.795 265.518 317.729 266.033C317.659 266.533 317.454 267.06 317.114 267.615C316.617 268.423 316.018 268.96 315.318 269.224C314.623 269.478 313.951 269.421 313.303 269.052C312.654 268.682 312.277 268.155 312.173 267.47C312.059 266.779 312.312 265.93 312.932 264.921L314.205 262.849L313.941 262.699C313.366 262.371 312.825 262.284 312.318 262.437C311.811 262.59 311.362 262.985 310.971 263.621C310.709 264.048 310.526 264.509 310.423 265.002C310.311 265.49 310.289 265.944 310.357 266.362L309.02 266.338C308.944 265.791 308.985 265.214 309.146 264.606C309.298 263.993 309.552 263.396 309.91 262.814ZM316.219 266.811C316.526 266.311 316.68 265.816 316.681 265.326C316.672 264.83 316.51 264.382 316.193 263.981L315.164 263.395L313.925 265.413C313.243 266.521 313.283 267.292 314.043 267.725C314.414 267.936 314.792 267.961 315.178 267.801C315.565 267.641 315.912 267.311 316.219 266.811Z" fill="white"/>
<path d="M319.557 248.122L318.17 250.898L324.647 253.895L323.96 255.269L317.484 252.273L316.097 255.049L314.877 254.485L318.338 247.557L319.557 248.122Z" fill="white"/>
<path d="M321.651 239.629C322.08 238.537 322.679 237.802 323.447 237.424C324.218 237.036 325.14 237.037 326.213 237.428L331.023 239.182L330.49 240.537L329.437 240.153C329.714 240.526 329.865 240.973 329.89 241.493C329.908 241.999 329.799 242.555 329.56 243.16C329.213 244.044 328.718 244.675 328.076 245.054C327.438 245.422 326.768 245.479 326.067 245.223C325.365 244.967 324.904 244.51 324.682 243.85C324.45 243.187 324.551 242.304 324.985 241.202L325.876 238.939L325.59 238.835C324.969 238.609 324.422 238.614 323.951 238.851C323.48 239.087 323.107 239.553 322.834 240.248C322.65 240.714 322.551 241.2 322.535 241.705C322.51 242.207 322.567 242.659 322.706 243.062L321.389 243.262C321.219 242.735 321.16 242.157 321.212 241.529C321.254 240.898 321.401 240.264 321.651 239.629ZM328.542 242.516C328.756 241.97 328.822 241.455 328.738 240.97C328.643 240.482 328.406 240.066 328.025 239.723L326.913 239.318L326.046 241.521C325.569 242.732 325.742 243.487 326.563 243.787C326.964 243.933 327.34 243.894 327.692 243.671C328.044 243.447 328.327 243.062 328.542 242.516Z" fill="white"/>
<path d="M327.465 222.338L335.666 224.496L335.246 225.973L328.345 224.158L327.348 227.667L329.148 228.239C330.237 228.581 331.133 228.922 331.835 229.261C332.526 229.597 333.047 229.988 333.398 230.433C333.748 230.878 333.84 231.393 333.674 231.978C333.598 232.244 333.466 232.535 333.277 232.849L332.05 232.427C332.118 232.302 332.169 232.183 332.201 232.07C332.317 231.659 332.224 231.304 331.922 231.004C331.619 230.704 331.229 230.458 330.751 230.266C330.273 230.074 329.583 229.832 328.679 229.539L325.686 228.602L327.465 222.338Z" fill="white"/>
<path d="M338.285 212.949C338.138 213.779 337.821 214.494 337.336 215.095C336.85 215.696 336.252 216.133 335.543 216.406C334.825 216.666 334.056 216.729 333.235 216.594C332.414 216.459 331.715 216.155 331.138 215.682C330.553 215.196 330.14 214.593 329.9 213.873C329.649 213.15 329.597 212.375 329.744 211.545C329.891 210.715 330.207 210.005 330.691 209.414C331.166 208.812 331.763 208.38 332.48 208.12C333.19 207.847 333.955 207.778 334.776 207.913C335.597 208.048 336.3 208.359 336.885 208.844C337.462 209.317 337.876 209.915 338.127 210.637C338.38 211.349 338.433 212.12 338.285 212.949ZM336.959 212.731C337.054 212.196 337.018 211.698 336.85 211.238C336.674 210.766 336.387 210.373 335.987 210.058C335.578 209.742 335.083 209.537 334.504 209.442C333.926 209.346 333.394 209.383 332.909 209.552C332.413 209.719 332.006 209.998 331.688 210.389C331.371 210.769 331.165 211.227 331.07 211.763C330.975 212.299 331.01 212.802 331.176 213.272C331.344 213.732 331.631 214.125 332.039 214.452C332.438 214.766 332.927 214.97 333.506 215.066C334.085 215.161 334.622 215.125 335.118 214.958C335.605 214.778 336.012 214.499 336.339 214.121C336.657 213.73 336.864 213.267 336.959 212.731Z" fill="white"/>
<path d="M333.736 194.462L333.341 199.149L340.456 199.704L340.327 201.235L331.873 200.575L332.396 194.357L333.736 194.462Z" fill="white"/>
</g>
<path d="M12.944 141.744L25.0469 150.583C26.3698 151.502 27.2339 152.462 27.6391 153.461C28.0478 154.444 28.1214 155.538 27.8602 156.742C27.7177 157.399 27.4757 158.024 27.1341 158.617C26.7925 159.211 26.3985 159.669 25.9521 159.991L23.649 158.044C23.9593 157.821 24.2235 157.546 24.4417 157.22C24.6633 156.877 24.8131 156.526 24.8912 156.167C24.9997 155.666 24.9633 155.231 24.782 154.859C24.6162 154.491 24.2802 154.117 23.7738 153.734L23.6671 153.66L9.81926 156.145L10.6386 152.369L19.9341 150.834L12.1806 145.262L12.944 141.744Z" fill="white"/>
<path d="M19.3504 121.703L31.4327 126.257L30.2037 129.793L20.996 126.323L19.2313 131.401L28.4391 134.871L27.218 138.385L15.1356 133.832L19.3504 121.703Z" fill="white"/>
<path d="M37.3682 113.254C36.7652 114.491 35.9743 115.474 34.9954 116.205C34.0094 116.914 32.9341 117.313 31.7696 117.402C30.612 117.478 29.4675 117.216 28.336 116.618C27.2044 116.02 26.3263 115.212 25.7017 114.194C25.0841 113.162 24.7661 112.026 24.7479 110.786C24.7225 109.525 25.0114 108.275 25.6144 107.038C26.2104 105.816 26.9839 104.886 27.9348 104.25C28.8786 103.591 29.919 103.3 31.0559 103.377L31.1622 106.716C29.8211 106.767 28.8735 107.36 28.3196 108.496C27.8918 109.373 27.8206 110.249 28.1059 111.124C28.3912 111.998 29.0218 112.693 29.9978 113.209C30.9737 113.726 31.8848 113.846 32.7311 113.569C33.5773 113.293 34.2143 112.717 34.642 111.839C35.203 110.689 35.1039 109.542 34.3447 108.399L37.0176 106.529C37.7195 107.425 38.1007 108.468 38.1611 109.657C38.2286 110.833 37.9643 112.031 37.3682 113.254Z" fill="white"/>
<path d="M40.0283 98.5089C40.3756 97.9336 40.8416 97.5793 41.4263 97.4461C41.9975 97.3041 42.571 97.4215 43.1466 97.7983C43.4144 97.9736 43.6614 98.1831 43.8878 98.4269C44.1142 98.6706 44.4249 99.0842 44.8198 99.6676L47.0044 102.732L45.7766 104.766L43.1295 101.772C42.789 102.027 42.4094 102.16 41.9909 102.173C41.5672 102.163 41.1546 102.027 40.753 101.764C40.1774 101.387 39.8272 100.9 39.7024 100.302C39.5724 99.682 39.6811 99.0843 40.0283 98.5089Z" fill="white"/>
<path d="M59.6174 79.0148C58.7262 80.0632 57.7172 80.8182 56.5905 81.2797C55.4623 81.7182 54.3256 81.8335 53.1803 81.6257C52.0455 81.4057 51.0075 80.8618 50.0664 79.9942C49.1254 79.1265 48.4812 78.1195 48.1339 76.9729C47.797 75.8142 47.775 74.6306 48.068 73.4221C48.3596 72.1905 48.951 71.0505 49.8422 70.0021C50.7231 68.966 51.7017 68.2591 52.778 67.8815C53.853 67.4809 54.9289 67.4618 56.0058 67.8241L55.2718 71.0941C53.9661 70.8035 52.9039 71.1397 52.0852 72.1028C51.4531 72.8464 51.165 73.6789 51.221 74.6004C51.277 75.5218 51.7108 76.3567 52.5225 77.105C53.3342 77.8534 54.1825 78.2007 55.0676 78.1469C55.9526 78.0931 56.7112 77.6944 57.3434 76.9508C58.1724 75.9755 58.3641 74.8367 57.9185 73.5343L60.964 72.3955C61.4163 73.4431 61.5226 74.5523 61.2828 75.7229C61.0534 76.8813 60.4983 77.9786 59.6174 79.0148Z" fill="white"/>
<path d="M69.1762 54.8523L65.9904 57.8405L72.427 65.2833L69.7138 67.8282L63.2771 60.3855L60.0912 63.3737L58.0817 61.0501L67.1667 52.5287L69.1762 54.8523Z" fill="white"/>
<path d="M79.5351 42.4732C80.5048 41.7664 81.5403 41.358 82.6414 41.248C83.7465 41.1153 84.8064 41.3024 85.8212 41.8092C86.827 42.3028 87.7003 43.1007 88.4409 44.203C89.1816 45.3052 89.6067 46.4396 89.7163 47.6061C89.817 48.7593 89.6227 49.8604 89.1333 50.9095C88.648 51.9358 87.9204 52.8024 86.9506 53.5092C85.6188 54.4798 84.2814 54.8114 82.9384 54.5042L86.2982 59.5043L83.2724 61.7093L73.4743 47.1275L76.3642 45.0213L77.1941 46.2564C77.3195 44.7802 78.0998 43.5191 79.5351 42.4732ZM84.7136 51.341C85.4894 50.7756 85.9445 50.0482 86.079 49.1589C86.2174 48.2469 85.9832 47.3394 85.3764 46.4363C84.7696 45.5332 84.0355 44.9998 83.1743 44.8361C82.3171 44.6497 81.5005 44.8392 80.7247 45.4046C79.9489 45.97 79.4917 46.7087 79.3533 47.6208C79.2189 48.5101 79.4551 49.4062 80.0619 50.3093C80.6687 51.2124 81.4007 51.7571 82.258 51.9435C83.1192 52.1072 83.9377 51.9064 84.7136 51.341Z" fill="white"/>
<path d="M96.7223 31.4988C98.4774 30.5399 100.041 30.232 101.414 30.5754C102.779 30.9044 103.894 31.9263 104.758 33.641L108.073 40.2212L104.998 41.9013L104.274 40.4652C104.197 41.8745 103.315 43.0394 101.63 43.96C100.76 44.4356 99.9259 44.6999 99.1289 44.7527C98.3458 44.7979 97.6527 44.6481 97.0493 44.3036C96.446 43.959 95.9752 43.4509 95.6369 42.7793C95.097 41.7076 95.0654 40.6498 95.5421 39.6057C96.0329 38.554 97.1067 37.5755 98.7635 36.6702L101.375 35.2433C101.008 34.5146 100.51 34.0762 99.88 33.9282C99.2432 33.7659 98.4895 33.9226 97.619 34.3983C97.0152 34.7281 96.4689 35.1542 95.9799 35.6765C95.4978 36.1768 95.136 36.7025 94.8944 37.2536L92.538 35.5618C92.9326 34.7812 93.497 34.0355 94.2311 33.3246C94.9792 32.6061 95.8097 31.9975 96.7223 31.4988ZM101.318 41.2607C101.879 40.9538 102.313 40.5528 102.619 40.0578C102.917 39.5485 103.028 38.9868 102.952 38.3726L102.358 37.1938L100.104 38.4251C98.7563 39.1616 98.3091 39.9799 98.7626 40.8801C98.9785 41.3088 99.3128 41.5635 99.7653 41.6443C100.225 41.7031 100.742 41.5752 101.318 41.2607Z" fill="white"/>
<path d="M110.688 24.6174L114.158 23.2748L115.851 28.0217L121.089 25.995L119.395 21.2481L122.887 19.8969L127.226 32.058L123.734 33.4092L122.113 28.8657L116.876 30.8925L118.497 35.4359L115.027 36.7785L110.688 24.6174Z" fill="white"/>
<path d="M132.227 16.9163L135.849 16.0682L137.47 23.5752L141.972 14.6347L145.313 13.8522L148.038 26.4735L144.416 27.3215L142.795 19.8145L138.317 28.7496L134.952 29.5375L132.227 16.9163Z" fill="white"/>
<path d="M169.867 20.8058L170.357 26.6894L166.891 27.0026L166.656 24.1804L155.637 25.1759L154.565 12.3085L158.27 11.9738L159.087 21.7798L164.273 21.3112L163.457 11.5051L167.185 11.1682L168.002 20.9743L169.867 20.8058Z" fill="white"/>
<path d="M182.231 10.9442C184.229 11.0293 185.745 11.5743 186.778 12.5791C187.812 13.568 188.292 15.0217 188.217 16.9402L187.927 24.3026L184.427 24.1535L184.49 22.5467C183.739 23.7158 182.405 24.2596 180.487 24.1779C179.496 24.1357 178.639 23.9311 177.917 23.564C177.211 23.1976 176.677 22.7105 176.317 22.1026C175.956 21.4947 175.791 20.8151 175.82 20.0637C175.868 18.8646 176.352 17.9404 177.274 17.291C178.213 16.6424 179.625 16.3582 181.511 16.4385L184.484 16.5651C184.516 15.7497 184.293 15.1157 183.814 14.6629C183.337 14.1941 182.602 13.9387 181.611 13.8965C180.923 13.8672 180.24 13.9502 179.56 14.1454C178.896 14.3253 178.325 14.5893 177.847 14.9373L176.607 12.2661C177.33 11.8004 178.184 11.4525 179.17 11.2222C180.172 10.9926 181.192 10.9 182.231 10.9442ZM181.521 21.6996C182.16 21.7269 182.733 21.6072 183.24 21.3405C183.748 21.0578 184.116 20.6331 184.347 20.0664L184.399 18.7474L181.833 18.6382C180.298 18.5728 179.511 19.0438 179.472 20.051C179.453 20.5306 179.622 20.9222 179.978 21.2256C180.351 21.5137 180.865 21.6717 181.521 21.6996Z" fill="white"/>
<path d="M209.614 14.3864L213.219 15.3065L212.064 20.2124L217.506 21.6015L218.66 16.6956L222.288 17.6217L219.33 30.1902L215.702 29.2641L216.807 24.5685L211.366 23.1794L210.261 27.875L206.656 26.9549L209.614 14.3864Z" fill="white"/>
<path d="M240.867 31.4681C240.85 31.5131 240.71 31.819 240.448 32.3857L231.392 28.7255C231.275 29.5411 231.44 30.2892 231.887 30.9698C232.333 31.6504 233.008 32.1736 233.913 32.5393C234.536 32.7911 235.119 32.923 235.66 32.9349C236.222 32.9378 236.787 32.8208 237.353 32.5839L238.445 35.3544C236.832 36.2031 234.942 36.1898 232.777 35.3145C231.427 34.7689 230.33 34.0239 229.487 33.0794C228.65 32.12 228.126 31.0541 227.914 29.8817C227.702 28.7094 227.82 27.5235 228.267 26.324C228.708 25.1396 229.379 24.186 230.28 23.4633C231.201 22.7316 232.242 22.2982 233.402 22.1632C234.582 22.0191 235.773 22.1899 236.974 22.6755C238.146 23.1492 239.112 23.8327 239.871 24.7262C240.631 25.6197 241.099 26.6541 241.275 27.8295C241.472 28.9958 241.336 30.2087 240.867 31.4681ZM236.008 25.3383C235.221 25.0205 234.478 24.9786 233.776 25.2126C233.074 25.4465 232.519 25.9293 232.11 26.661L238.006 29.0442C238.173 28.2316 238.072 27.4925 237.706 26.8268C237.345 26.1462 236.779 25.65 236.008 25.3383Z" fill="white"/>
<path d="M261.753 35.2441L264.843 37.316L262.192 41.6027L266.857 44.7307L269.507 40.444L272.617 42.5293L265.826 53.5114L262.717 51.4261L265.254 47.3231L260.589 44.1951L258.052 48.2981L254.963 46.2261L261.753 35.2441Z" fill="white"/>
<path d="M284.322 51.7628C285.826 53.081 286.679 54.4667 286.882 55.9199C287.095 57.3607 286.598 58.8278 285.392 60.3212L280.761 66.0522L278.126 63.7429L279.136 62.4921C277.853 62.9615 276.489 62.5635 275.045 61.2981C274.299 60.6443 273.755 59.9442 273.412 59.1978C273.082 58.4619 272.958 57.7372 273.042 57.0236C273.125 56.3101 273.403 55.6608 273.876 55.0759C274.63 54.1425 275.56 53.7035 276.666 53.7589C277.784 53.8248 279.054 54.4799 280.474 55.7243L282.712 57.6857C283.225 57.051 283.43 56.4021 283.329 55.7392C283.237 55.0639 282.818 54.3993 282.072 53.7455C281.555 53.292 280.973 52.931 280.327 52.6623C279.703 52.3918 279.101 52.2467 278.52 52.2271L279.154 49.3066C279.995 49.3847 280.868 49.6397 281.773 50.0713C282.69 50.5136 283.54 51.0774 284.322 51.7628ZM277.333 59.9549C277.814 60.3767 278.332 60.639 278.886 60.7419C279.45 60.8324 279.991 60.7221 280.51 60.4112L281.339 59.3844L279.408 57.6919C278.253 56.6796 277.358 56.5655 276.725 57.3495C276.423 57.7229 276.32 58.1428 276.416 58.6094C276.534 59.074 276.839 59.5225 277.333 59.9549Z" fill="white"/>
<path d="M295.673 62.69L298.136 65.4777L292.591 70.7915L302.299 70.1897L304.572 72.7615L295.25 81.6954L292.786 78.9078L298.331 73.5939L288.639 74.2137L286.35 71.6239L295.673 62.69ZM300.968 66.5828C299.104 64.4726 299.061 62.5535 300.841 60.8256L302.462 62.66C302.069 63.0595 301.852 63.4778 301.811 63.915C301.793 64.3532 301.975 64.7881 302.356 65.2197C302.737 65.6514 303.139 65.8759 303.559 65.8934C304.002 65.9118 304.426 65.7272 304.83 65.3398L306.483 67.2102C304.682 68.9141 302.844 68.705 300.968 66.5828Z" fill="white"/>
<path d="M310.679 98.3602L305.942 101.803L304.004 98.9118L306.257 97.2752L301.207 89.7386L298.955 91.3753L297.017 88.4843L301.755 85.0417L302.048 85.4803C302.507 86.1355 303.196 86.3166 304.116 86.0236C305.036 85.7306 306.21 85.1141 307.64 84.1741L311.344 81.6894L317.61 91.0403L309.65 96.825L310.679 98.3602ZM309.31 87.1405C308.222 87.872 307.297 88.4158 306.535 88.772C305.782 89.1415 305.114 89.2804 304.533 89.1888L307.566 93.7147L313.041 89.7359L310.69 86.2268L309.31 87.1405Z" fill="white"/>
<path d="M322.895 114.624C322.853 114.647 322.547 114.785 321.977 115.039L317.614 106.3C316.989 106.838 316.619 107.511 316.504 108.319C316.389 109.127 316.549 109.968 316.985 110.841C317.285 111.442 317.634 111.926 318.032 112.293C318.45 112.666 318.95 112.95 319.53 113.145L318.52 115.956C316.753 115.531 315.348 114.273 314.304 112.183C313.654 110.881 313.325 109.595 313.317 108.326C313.323 107.05 313.634 105.9 314.249 104.876C314.863 103.852 315.734 103.035 316.859 102.426C317.971 101.824 319.102 101.548 320.253 101.598C321.425 101.654 322.489 102.014 323.446 102.678C324.424 103.349 325.203 104.264 325.782 105.423C326.346 106.554 326.618 107.707 326.597 108.882C326.576 110.058 326.244 111.147 325.601 112.15C324.979 113.159 324.077 113.984 322.895 114.624ZM323.302 106.793C322.923 106.034 322.394 105.512 321.715 105.225C321.036 104.938 320.302 104.935 319.513 105.217L322.353 110.907C323.014 110.404 323.426 109.781 323.591 109.037C323.77 108.285 323.674 107.537 323.302 106.793Z" fill="white"/>
<path d="M332.267 120.096L333.497 123.607L328.785 125.396L330.641 130.697L335.352 128.908L336.59 132.441L324.519 137.025L323.281 133.491L327.791 131.779L325.935 126.478L321.426 128.191L320.196 124.68L332.267 120.096Z" fill="white"/>
<path d="M340.657 147.322C341.081 149.277 340.939 150.888 340.232 152.156C339.541 153.419 338.26 154.271 336.391 154.711L329.219 156.399L328.476 152.975L330.041 152.606C328.724 152.193 327.862 151.048 327.455 149.172C327.244 148.203 327.225 147.32 327.396 146.524C327.57 145.743 327.905 145.097 328.4 144.586C328.894 144.075 329.508 143.734 330.24 143.562C331.408 143.287 332.422 143.508 333.281 144.226C334.145 144.96 334.776 146.249 335.177 148.094L335.808 151.003C336.602 150.816 337.157 150.431 337.472 149.847C337.803 149.259 337.863 148.481 337.653 147.512C337.507 146.839 337.254 146.2 336.893 145.595C336.552 145.002 336.153 144.52 335.696 144.151L337.958 142.238C338.59 142.813 339.142 143.546 339.613 144.437C340.088 145.344 340.436 146.306 340.657 147.322ZM330.106 149.51C330.242 150.135 330.503 150.657 330.888 151.076C331.289 151.491 331.792 151.734 332.397 151.805L333.682 151.503L333.137 148.993C332.811 147.492 332.158 146.857 331.177 147.088C330.71 147.198 330.375 147.466 330.173 147.892C329.989 148.329 329.967 148.868 330.106 149.51Z" fill="white"/>
</svg>
