<svg width="600" height="596" viewBox="0 0 600 596" fill="none" xmlns="http://www.w3.org/2000/svg">
    <path d="M587.961 243.155C590.147 227.147 591.958 206.226 590.154 189.606C586.829 158.966 569.795 150.694 550.792 148.925C545.955 148.475 541.242 148.576 536.901 148.975C506.138 112.037 465.796 83.3598 419.687 66.7554C420.193 51.3844 420.664 35.6746 420.664 30.5999C420.664 19.6741 421.241 4.4895 417.407 1.16437C413.572 -2.16071 405.754 2.33508 404.098 5.89783C402.814 8.65936 381.203 40.2493 371.87 54.3259C357.366 51.9409 342.478 50.6991 327.299 50.6991C306.354 50.6991 285.961 53.0642 266.371 57.5363C265.561 52.3629 264.157 43.5462 262.172 31.6335C258.846 11.6816 263.138 1.43146 256.274 0.83136C249.412 0.230652 247.461 11.173 243.678 21.6242C241.226 28.3974 234.589 52.3054 230.733 68.2956C143.136 101.479 77.0961 178.493 59.3747 272.569C52.4799 272.569 44.8396 274.012 38.1893 281.025C31.5385 288.039 7.82012 334.342 3.5446 341.253C-0.73091 348.166 -2.82127 365.029 7.25014 370.73L58.9079 400.104C58.9482 405.476 59.5438 414.235 62.1952 425.122C66.7083 443.649 79.4715 457.245 92.615 469.776C96.0624 473.064 99.8199 476.222 103.487 479.098C152.753 549.761 234.625 596 327.299 596C477.88 596 599.95 473.93 599.95 323.35C599.95 295.44 595.753 268.51 587.961 243.155Z"
          fill="#023543"/>
    <path d="M72.6459 408.852C71.1563 407.999 69.7179 407.174 68.3384 406.381C69.0717 411.681 70.4345 421.565 72.9732 429.409C76.518 440.36 90.4063 452.859 90.4063 452.859C90.4063 452.859 79.5952 437.592 78.4091 424.854C78.0934 421.464 77.8904 418.831 77.7034 416.736C77.4101 413.438 75.5189 410.498 72.6459 408.852Z"
          fill="#2CA483"/>
    <path d="M329.89 186.053C329.89 186.053 338.915 188.755 350.702 196.858C362.489 204.961 368.505 215.828 368.321 214.539C368.137 213.249 367.523 203.54 363.287 195.937C359.051 188.335 353.771 184.089 353.771 184.089C353.771 184.089 361.507 187.097 365.865 193.789C364.148 186.61 361.811 178.5 351.866 171.317C341.921 164.134 332.337 163.951 332.337 163.951C339.151 166.407 349.441 173.659 352.728 178.625C352.728 178.625 346.65 176.599 339.467 175.494C332.284 174.389 328.356 175.494 328.356 175.494C328.356 175.494 338.976 179.083 345.054 183.748C349.806 187.396 352.666 191.64 352.666 191.64C352.666 191.64 341.309 185.317 329.89 186.053Z"
          fill="#2CA483"/>
    <path d="M250.45 221.84C247.411 225.382 244.439 228.868 231.189 234.347C217.94 239.826 197.3 243.115 187.107 253.107C176.915 263.099 179.973 280.504 179.973 280.504C179.973 280.504 183.84 267.457 189.486 262.132C195.658 256.31 201.716 255.041 201.716 255.041C201.716 255.041 190.845 260.842 186.428 274.703C182.011 288.562 188.806 302.422 188.806 302.422C188.806 302.422 190.696 285.256 198.366 275.398C208.356 262.558 221.35 256.048 221.35 256.048C221.35 256.048 212.231 263.176 203.146 277.437C198.038 285.456 193.93 296.493 193.562 306.935C192.543 335.944 218.673 352.382 218.673 352.382C218.673 352.382 213.063 344.463 212.264 326.121C211.586 310.557 214.586 299.434 223.929 285.49C232.769 272.298 247.503 264.697 247.503 264.697C247.503 264.697 235.127 277.237 225.955 293.353C216.782 309.47 216.628 329.071 224.574 347.521C231.572 363.771 250.726 373.469 259.014 374.954C249.161 362.81 242.635 349.727 242.974 332.86C243.342 314.512 254.133 299.469 254.133 299.469C254.133 299.469 246.078 326.855 251.002 342.978C256.681 361.57 266.583 366.13 277.523 368.139C277.523 368.139 264.05 351.906 267.837 328.644C271.521 306.016 277.632 298.64 282.698 281.662C286.882 267.642 287.469 252.641 287.469 252.641C287.469 252.641 291.561 264.139 285.074 288.635C278.588 313.132 274.76 320.582 274.76 330.842C274.76 341.101 277.247 344.55 278.905 348.132C282.016 338.509 294.657 325.867 303.018 313.469C313.953 297.255 313.111 281.418 312.7 265.833C316.322 275.996 317.799 287.826 312.865 305.041C308.131 321.555 298.542 334.655 298.542 334.655C298.542 334.655 316.082 326.99 325.04 315.195C338.178 297.897 338.63 275.347 338.63 275.347C338.63 275.347 341.688 284.765 340.669 294.113C339.65 303.46 337.611 308.224 337.611 308.224C337.611 308.224 355.724 295.027 356.636 269.867C357.363 249.845 349.259 229.401 349.259 229.401C349.259 229.401 359.058 239.869 361.436 254.696C363.815 269.523 361.732 279.859 361.732 279.859C361.732 279.859 377.555 263.308 371.891 238.787C363.116 200.793 329 194.279 329 194.279C329 194.279 347.397 208.28 352.574 215.335C360.394 225.993 362.059 234.555 362.059 234.555C361.397 233.382 357.281 225.053 346.843 215.852C342.084 211.657 336.013 207.848 328.356 203.454C344.378 228.877 346.24 251.652 345.596 258.699C337.441 237.788 326.962 231.148 308.372 223.373C317.134 234.306 323.471 245.642 326.385 256.672C330.269 271.379 328.653 285.541 324.248 297.48C324.248 297.48 326.158 281.142 322.83 266.27C315.831 234.993 303.035 229.718 292.625 219.791C292.625 219.791 300.789 234.069 303.209 249.511C305.884 266.58 300.919 277.926 300.919 277.926C299.992 236.39 280.737 221.41 280.964 221.84C281.19 222.269 281.038 244.12 273.337 261.202C265.636 278.286 259.019 285.339 259.019 285.339C259.019 285.339 270.434 259.028 271.906 246.35C273.378 233.672 270.709 221.84 270.709 221.84C266.842 232.546 262.303 240.966 249.506 250.421C236.709 259.876 226.231 266.881 219.601 274.569C214.666 280.292 211.589 286.364 211.589 286.364C211.589 286.364 213.041 278.248 221.308 269.223C229.575 260.198 248.147 248.185 253.696 237.957C257.196 231.506 257.66 225.817 257.433 226.139C257.207 226.462 256.753 232.693 242.371 239.677C227.989 246.66 222.491 246.624 217.622 248.236C212.752 249.847 207.445 252.379 207.445 252.379C207.445 252.379 211.622 248.214 228.042 242.843C244.462 237.471 249.544 224.31 250.45 221.84Z"
          fill="#2CA483"/>
    <path d="M240.66 152.217C239.527 152.69 237.477 154.236 237.477 156.446C237.477 158.656 237.749 163.175 240.67 170.706C243.008 176.732 245.08 178.686 245.08 178.686V195.437C245.08 195.437 251.75 183.914 255.148 176.774C259.352 167.943 261.165 159.062 261.165 159.062C261.165 159.062 258.215 160.76 256.466 162.786C254.716 164.812 253.221 167.66 250.574 171.31C251.297 169.002 252.969 163.943 252.693 163.298C252.416 162.654 249.378 162.285 245.326 157.681C241.274 153.077 242.385 151.497 240.66 152.217Z"
          fill="#2CA483"/>
    <path d="M271.111 146.538C268.071 146.538 265.676 147.324 265.123 149.625C264.57 151.928 261.534 171.955 261.166 175.914C260.798 179.874 262.916 181.808 265.309 181.992C267.704 182.176 269.512 181.992 271.078 181.992C273.348 181.992 276.417 179.546 278.629 179.546C280.964 179.546 282.931 179.668 284.135 179.668C284.805 179.668 287.267 176.809 285.198 172.67C283.54 169.355 280.164 169.294 277.925 170.389C276.081 171.292 272.92 174.512 272.92 174.512C273.196 173.827 274.37 169.689 275.13 164.306C275.921 158.7 276.33 152.596 276.452 149.393C276.533 147.268 272.31 146.538 271.111 146.538Z"
          fill="#2CA483"/>
    <path d="M280.965 157.773C281.149 159.523 285.293 165.583 293.488 175.437C301.685 185.29 315.403 196.858 315.403 196.858C315.403 196.858 317.613 196.613 317.06 189.614C316.508 182.616 315.095 178.361 315.463 176.519C315.831 174.677 324.614 167.626 326.271 163.114C327.93 158.602 326.364 153.538 324.154 149.762C321.943 145.986 320.839 146.815 320.746 147.091C320.654 147.368 319.578 155.45 313.131 158.673C306.685 161.896 306.187 163.583 307.568 166.346C308.949 169.108 310.432 174.059 310.249 173.744C310.065 173.428 303.065 165.416 301.868 165.14C300.672 164.864 298.244 165.272 291.153 162.97C284.063 160.669 280.965 157.773 280.965 157.773Z"
          fill="#2CA483"/>
    <path d="M262.262 133.479C262.298 133.768 263.56 142.027 265.402 143.776C267.243 145.526 269.668 144.903 271.922 144.881C273.956 144.86 274.241 142.947 274.334 141.382C274.473 139.033 275.245 134.031 274.4 133.479C274.122 133.297 272.611 132.839 270.902 132.824C269.981 132.815 269.986 138.001 268.991 137.944C267.763 137.874 266.881 132.938 265.893 133.007C264.486 133.105 262.194 132.922 262.262 133.479Z"
          fill="#2CA483"/>
    <path d="M260.428 136.483C261.714 138.716 262.647 142.353 261.123 144.626C259.6 146.898 256.65 147.499 252.415 145.399C248.178 143.298 245.047 138.915 245.047 138.915C240.198 137.945 232.149 139.393 232.149 139.393C232.149 139.393 234.374 136.704 237.478 135.405C240.391 134.187 241.824 134.018 243.052 133.895C242.192 132.913 241.544 130.74 241.544 130.74C243.081 130.735 250.265 133.626 255.204 137.123C254.357 135.099 255.364 132.632 255.364 132.632C255.364 132.632 258.903 133.833 260.428 136.483Z"
          fill="#2CA483"/>
    <path d="M283.442 132.87C282.558 132.823 277.531 134.25 276.787 140.317C276.254 144.671 279.276 146.931 282.742 146.841C287.118 146.728 295.634 141.307 299.474 138.395C299.474 138.395 307.485 137.146 313.931 138.159C320.377 139.171 326.963 140.931 326.963 140.931C326.963 140.931 325.88 137.422 317.408 134.476C308.937 131.528 302.201 132.328 302.201 132.328C302.201 132.328 304.229 130.74 305.622 129.045C302.94 129.045 298.522 129.316 291.46 132.275C286.498 134.353 284.645 136.019 282.797 137.495C283.328 135.767 283.568 134.109 283.442 132.87Z"
          fill="#2CA483"/>
    <path d="M299.473 145.894C300.579 145.709 305.919 145.526 309.235 146.538C312.549 147.551 313.102 147.538 313.378 145.749C313.655 143.96 313.194 141.522 309.142 141.313C305.09 141.105 299.473 145.894 299.473 145.894Z"
          fill="#2CA483"/>
    <path d="M241.735 149.626L245.326 147.736C245.326 147.736 244.129 145.065 241.735 145.433C239.341 145.802 241.735 149.626 241.735 149.626Z"
          fill="#2CA483"/>
    <path d="M247.503 154.13C247.503 154.13 249.654 155.379 253.706 155.287C255.064 155.256 256.071 155.147 256.809 155.017C257.759 154.849 258.534 155.81 258.111 156.676C257.523 157.88 256.326 159.151 253.89 159.339C249.101 159.707 247.503 154.13 247.503 154.13Z"
          fill="#2CA483"/>
    <path d="M289.159 156.023C290.354 157.629 293.789 159.398 299.194 159.354C304.564 159.311 308.497 154.642 308.497 154.642C308.497 154.642 303.921 155.081 298.396 154.989C292.871 154.898 287.965 154.417 289.159 156.023Z"
          fill="#2CA483"/>
    <path d="M259.29 182.743C255.606 188.234 247.196 195.593 242.379 201.528C237.864 207.092 236.117 213.417 236.486 218.596C236.854 223.776 238.388 227.38 238.388 227.38C238.388 227.38 247.502 215.619 255.33 210.015C263.157 204.41 266.642 203.811 268.398 201.813C271.123 198.711 271.57 193.886 271.57 193.886C271.57 193.886 271.369 199.303 275.237 202.105C279.105 204.907 302.46 212.412 312.212 216.73C324.18 222.03 331.831 229.842 331.831 229.842C331.831 229.842 331.831 217.501 323.434 208.698C313.377 198.155 294.098 187.469 288.205 181.865C284.982 183.775 285.534 185.856 287.469 188.319C289.402 190.781 296.714 195.928 296.714 195.928C296.714 195.928 286.409 190.526 281.851 185.346C281.851 185.346 278.065 187.575 278.899 190.867C279.631 193.756 286.961 198.551 286.961 198.551C286.961 198.551 279.391 195.075 276.51 190.272C274.542 186.992 269.342 186.918 266.365 190.526C263.386 194.136 260.548 197.253 259.139 198.147C260.165 197.019 262.466 193.992 263.833 191.192C264.622 189.573 264.017 187.385 262.85 186.253C258.185 192.904 253.35 195.961 253.35 195.961C253.35 195.961 259.842 189.196 260.395 186.875C261.02 184.249 259.29 182.743 259.29 182.743Z"
          fill="#2CA483"/>
    <path d="M276.096 207.126C274.68 207.086 269.896 206.638 265.527 207.297C262.289 207.785 262.575 213.321 264.33 213.178C268.342 212.849 273.638 212.684 279.815 213.77C282.742 214.285 283.446 212.234 282.153 210.044C280.701 207.586 277.633 207.171 276.096 207.126Z"
          fill="#2CA483"/>
    <path d="M410.67 12.0124C410.67 12.0124 395.313 37.3888 375.7 63.731C352.694 94.6318 342.8 113.588 342.8 137.813C351.834 113.588 360.152 100.165 378.261 77.068C397.373 52.6913 406.53 39.9294 409.916 33.4963C413.302 27.0632 410.67 12.0124 410.67 12.0124Z"
          fill="#2CA483"/>
    <path d="M409.467 45.0085C409.467 45.0085 392.366 67.8232 380.375 82.0997C362.749 103.085 348.009 128.957 343.43 146.814C343.43 146.814 362.142 117.483 376.745 100.721C388.618 87.0931 402.597 70.7026 405.361 66.5372C410.932 58.1405 409.467 45.0085 409.467 45.0085Z"
          fill="#2CA483"/>
    <path d="M405.729 72.9217C405.729 72.9217 379.488 103.989 368.772 116.878C356.175 132.03 349.156 143.787 343.43 155.332C343.43 155.332 366.862 128.485 376.745 119.343C386.628 110.202 401.693 94.6893 403.154 90.1294C405.729 82.0997 405.729 72.9217 405.729 72.9217Z"
          fill="#2CA483"/>
    <path d="M398.83 101.756C396.77 103.954 380.435 120.07 368.648 133.002C359.593 142.936 344.951 159.974 344.951 159.974C344.951 159.974 371.973 139.759 386.328 126.823C397.502 116.755 398.83 101.756 398.83 101.756Z"
          fill="#2CA483"/>
    <path d="M235.287 130.249C234.272 126.186 232.549 106.98 234.919 92.7591C237.289 78.5384 254.057 12.0124 254.057 12.0124C254.057 12.0124 254.228 35.6039 253.551 42.3758C252.873 49.1478 251.287 61.5279 248.916 70.3313C246.546 79.134 243.822 85.6036 241.427 91.8177C235.55 107.061 235.287 130.249 235.287 130.249Z"
          fill="#2CA483"/>
    <path d="M256.159 49.3008C256.159 49.3008 255.173 61.0284 253.778 66.7705C252.702 71.1997 251.069 76.4199 251.069 76.4199C251.069 76.4199 256.199 70.8001 258.983 68.8577C260.416 56.3558 256.159 49.3008 256.159 49.3008Z"
          fill="#2CA483"/>
    <path d="M314.298 126.225C309.79 125.409 308.014 130.467 307.607 130.433C325.041 131.906 337.828 140.44 337.828 140.44C337.828 140.44 335.543 134.377 328.988 130.951C325.122 128.93 321.543 127.537 314.298 126.225Z"
          fill="#2CA483"/>
    <path d="M306.979 125.008C280.729 120.379 252.086 122.63 247.031 123.457C242.178 124.249 241.704 129.876 245.326 130.056C255.584 130.565 264.017 129.372 286.009 129.986C288.512 130.056 303.607 126.139 306.979 125.008Z"
          fill="#2CA483"/>
    <path d="M380.108 140.971C380.725 141.851 392.818 144.921 397.238 163.031C400.908 178.068 394.291 189.297 385.049 202.328C377.802 212.546 373.909 227.86 373.909 227.86C373.909 227.86 369.997 213.397 375.891 202.659C382.438 190.73 387.438 180.71 387.845 167.759C388.305 153.117 380.108 140.971 380.108 140.971Z"
          fill="#2CA483"/>
    <path d="M375.412 142.754C375.412 142.754 378.36 151.644 377.221 161.681C375.931 173.051 365.283 179.269 365.283 179.269C365.283 179.269 368.045 180.283 370.9 179.914C373.755 179.546 376.041 178.533 376.041 178.533C376.041 178.533 371.176 186.084 370.532 192.898C369.887 199.713 370.163 201.37 370.163 201.37C370.163 201.37 375.597 192.806 378.912 186.728C382.227 180.651 385.927 170.959 383.165 159.22C380.402 147.482 375.412 142.754 375.412 142.754Z"
          fill="#2CA483"/>
    <path d="M399.411 156.205C401.744 162.044 406.208 177.766 393.167 198.454C385.817 210.112 381.296 218.932 379.203 225.528C376.815 233.056 377.219 244.682 377.219 244.682C377.219 244.682 382.315 229.2 387.921 219.173C396.055 204.623 412.814 179.437 422.248 169.454C417.335 157.832 399.411 156.205 399.411 156.205Z"
          fill="#2CA483"/>
    <path d="M484.288 238.174C478.869 227.861 468.55 223.492 458.084 223.886C427.452 225.043 408.191 242.182 408.191 242.182C408.191 242.182 424.142 234.466 450.765 233.987C464.382 233.741 484.288 238.174 484.288 238.174Z"
          fill="#2CA483"/>
    <path d="M237.476 170.337C235.995 171.38 232.313 175.712 230.374 181.111C228.908 185.194 228.777 190.105 229.237 194.526C231.233 188.018 235.285 181.51 240.67 177.52C240.67 177.52 238.109 173.222 237.476 170.337Z"
          fill="#2CA483"/>
    <path d="M242.654 179.853C242.654 179.853 233.752 187.711 230.989 197.533C228.55 206.206 229.27 213.863 230.252 218.775C231.235 223.686 234.059 229.088 234.059 229.088C234.059 229.088 230.743 214.643 235.168 205.025C238.553 197.668 242.654 192.622 242.654 192.622C241.849 192.153 238.602 194.28 235.154 197.675C235.154 197.675 238.356 191.394 242.654 179.853Z"
          fill="#2CA483"/>
    <path d="M370.623 144.921C370.808 149.894 370.466 154.222 368.325 158.827C363.192 169.864 359.848 158.366 362.437 150.662C362.437 150.662 357.594 154.119 355.2 156.258L352.806 158.397C352.806 158.397 353.403 164.904 357.27 170.245C361.138 175.586 367.884 173.553 371.274 166.08C376.148 155.332 370.623 144.921 370.623 144.921Z"
          fill="#2CA483"/>
    <path d="M346.46 318.508C346.011 319.576 345.836 337.087 359.867 352.111C371.045 364.08 386.654 369.53 397.485 368.798C385.336 362.504 371.971 355.746 363.775 339.538C355.579 323.331 354.877 310.773 354.877 310.773L346.46 318.508Z"
          fill="#2CA483"/>
    <path d="M379.694 426.68C379.939 427.908 379.148 436.916 373.723 443.792C368.298 450.667 357.765 454.841 357.765 454.841C357.765 454.841 367.365 458.971 377.187 456.645C382.75 455.327 387.992 450.587 387.865 444.216C387.687 435.262 379.694 426.68 379.694 426.68Z"
          fill="#2CA483"/>
    <path d="M388.667 418.476C388.667 418.476 400.303 423.773 408.559 422.543C416.815 421.312 419.322 414.902 418.28 408.707C407.476 415.188 388.667 418.476 388.667 418.476Z"
          fill="#2CA483"/>
    <path d="M360.048 415.718C360.048 415.718 349.599 429.694 338.578 434.916C329.844 439.054 317.566 442.495 317.566 442.495C317.566 442.495 329.507 449.917 343.258 448.937C357.009 447.957 363.704 440.955 364.942 431.557C366.114 422.678 360.048 415.718 360.048 415.718Z"
          fill="#2CA483"/>
    <path d="M361.045 410.06C361.045 410.06 385.693 411.019 397.59 402.735C404.381 398.007 406.907 389.854 404.51 383.219C392.311 396.656 361.045 410.06 361.045 410.06Z"
          fill="#2CA483"/>
    <path d="M473.731 356.431C473.731 356.431 445.79 356.063 426.176 350.794C406.561 345.524 397.925 335.132 397.925 335.132C397.925 335.132 413.88 343.475 429.981 345.817C446.083 348.159 454.377 347.574 453.303 347.574C451.621 347.574 428.242 341.153 413.751 327.395C423.215 331.292 437.709 334.928 465.112 342.157C465.112 342.157 456.743 332.789 443.009 321.958C429.275 311.126 425.444 308.345 425.444 308.345C425.444 308.345 444.619 314.789 458.671 325.326L472.723 335.864C472.723 335.864 465.944 317.751 450.282 303.114C436.511 290.244 428.225 283.492 428.225 283.492C428.225 283.492 461.581 302.476 473.747 320.64C484.311 336.411 485.954 339.437 486.208 340.351C485.711 338.232 481.804 319.992 470.735 301.73C460.613 285.028 454.186 278.938 450.181 275.493C459.403 280.68 470.32 287.361 481.944 305.418C494.383 324.739 496.729 335.977 496.729 335.977C496.729 335.977 498.042 323.79 490.434 300.88C486.255 288.291 478.577 275.493 478.577 275.493C478.577 275.493 495.997 290.487 501.998 313.615C506.122 329.508 504.34 335.977 504.34 335.977C504.34 335.977 507.325 331.924 509.756 321.958C511.22 315.956 510.927 305.71 510.927 305.71C510.927 305.71 513.537 313.307 512.659 325.017C511.781 336.727 509.609 342.597 509.609 342.597C516.343 340.547 524.521 319.906 524.911 308.343C525.387 294.258 522.449 279.704 514.576 269.036C496.005 243.876 472.543 244.631 472.543 244.631C472.543 244.631 494.841 256.596 503.322 275.564C509.64 289.694 510.251 299.659 510.251 299.659C510.251 299.659 502.211 277.801 487.903 262.995C474.668 249.298 454.521 244.987 437.047 243.642C422.326 242.508 413.372 246.159 408.19 250.566C397.959 259.265 405.985 268.119 410.068 272.195C399.274 266.909 386.051 261.505 376.385 275.44C365.961 290.47 379.482 315.81 391.777 329.862C376.554 319.227 373.117 310.98 368.535 291.415C368.535 291.415 362.702 296.155 364.113 312.151C365.272 325.303 373.414 348.218 401.146 358.259C433.889 370.115 473.731 356.431 473.731 356.431Z"
          fill="#2CA483"/>
    <path d="M369.37 376.935C364.946 385.299 349.366 394.734 339.265 397.808C347.718 391.53 355.915 380.165 359.543 370.191C352.702 376.322 343.034 381.825 330.543 385.338C337.511 378.487 347.469 366.716 350.939 359.577C342.839 365.411 337.492 367.699 322.932 372.276C328.538 366.011 335.874 356.366 339.599 345.914C304.196 370.311 291.901 375.386 265.15 380.847C262.853 387.926 259.077 403.247 262.835 415.589C267.908 432.247 280.792 439.259 290.73 438.619C299.467 438.055 328.254 431.065 346.303 413.016C364.352 394.967 365.495 388.376 369.37 376.935Z"
          fill="#2CA483"/>
    <path d="M308.501 99.9067C314.62 97.614 325.618 97.1612 340.109 101.756C333.961 93.4659 325.38 88.9886 312.06 89.574C321.227 86.1477 329.717 86.5864 342.158 90.0998C337.035 82.6343 327.521 79.8535 317.714 79.1215C317.714 79.1215 328.502 75.4653 343.433 76.4202C334.504 70.8408 322.719 71.1302 322.719 71.1302C328.928 68.4385 333.961 66.9726 351.152 64.2533C351.152 64.2533 315.817 58.1333 294.874 79.8439C276.959 98.4171 280.97 117.98 280.97 117.98C308.501 118.199 324.382 122.816 337.076 130.865C326.938 114.837 308.501 110.739 308.501 110.739C308.501 110.739 321.52 109.275 338.792 114.127C330.449 100.785 308.501 99.9067 308.501 99.9067Z"
          fill="#2CA483"/>
    <path d="M286.871 151.138C286.871 150.918 291.774 148.576 291.774 148.576C291.774 148.576 290.896 150.626 291.189 151.724C291.482 152.821 291.793 153.188 291.793 153.188L286.871 151.138Z"
          fill="#2CA483"/>
    <path d="M248.019 151.138C248.019 150.26 250.439 148.576 250.439 148.576C250.124 148.87 249.684 150.626 249.935 151.724C250.188 152.821 250.455 153.188 250.455 153.188C250.455 153.188 248.019 152.017 248.019 151.138Z"
          fill="#2CA483"/>
    <path d="M553.373 192.145C531.723 181.922 506.925 187.078 506.925 187.078C506.925 187.078 525.019 180.726 541.066 183.618C571.93 189.18 580.673 208.228 580.673 208.228C579.043 200.384 575.746 189.545 562.176 182.296C547.675 174.549 531.4 174.659 531.4 174.659C531.4 174.659 546.451 172.425 558.269 175.135C570.085 177.846 578.871 184.635 578.871 184.635C578.871 184.635 576.069 177.438 565.538 171.249C558.971 167.39 543.875 165.181 543.875 165.181C553.29 163.238 566.376 165.779 578.707 174.929C570.253 162.192 562.194 157.962 545.805 157.381C489.988 155.404 390.571 232.61 379.678 254.987C444.439 209.561 489.821 193.065 533.592 197.058C573.788 200.725 578.554 245.426 578.554 245.426C580.85 224.077 573.802 201.792 553.373 192.145Z"
          fill="#2CA483"/>
    <path d="M486.728 164.022C477.939 163.521 463.02 168.979 447.064 177.617C451.598 172.14 470.946 161.934 487.778 158.657C470.824 155.261 458.545 162.568 449.387 167.202C449.387 167.202 465.351 154.372 481.117 152.755C470.013 149.783 456.464 154.486 447.193 160.818C416.931 181.485 398.231 211.655 385.715 236.265C422.755 196.99 470.713 169.859 486.728 164.022Z"
          fill="#2CA483"/>
    <path d="M258.018 149.7C258.018 150.584 257.302 151.301 256.417 151.301C255.534 151.301 254.817 150.584 254.817 149.7C254.817 148.816 255.534 148.099 256.417 148.099C257.302 148.099 258.018 148.816 258.018 149.7Z"
          fill="#2CA483"/>
    <path d="M299.51 149.7C299.51 150.584 298.793 151.301 297.909 151.301C297.025 151.301 296.309 150.584 296.309 149.7C296.309 148.816 297.025 148.099 297.909 148.099C298.793 148.099 299.51 148.816 299.51 149.7Z"
          fill="#2CA483"/>
    <path d="M557.053 225.797C557.053 225.797 558.722 231.908 557.058 244.9C555.393 257.891 544.037 266.05 544.037 266.05C544.037 266.05 553.948 250.858 551.808 234.258C549.667 217.658 538.805 210.569 538.805 210.569C538.805 210.569 545.015 222.829 540.946 235.978C538.405 244.183 532.951 250.893 532.951 250.893C532.951 250.893 538.754 238.865 536.044 228.039C533.334 217.212 525.955 212.888 523.026 211.199C525.862 218.771 527.138 233.828 519.198 240.64C519.198 240.64 521.095 228.65 517.497 222.499C512.133 213.33 498.845 213.123 498.845 213.123C498.845 213.123 507.998 219.32 507.289 228.211C506.352 239.961 504.315 244.398 504.315 244.398C508.848 240.138 511.826 237.185 513.244 228.952C515.796 236.552 513.527 248.608 513.527 248.608C523.451 250.463 528.694 240.171 529.973 235.262C529.999 241.196 526.879 258.076 524.586 259.741C531.152 262.078 538.056 261.834 545.003 244.381C544.719 253.846 538.974 267.369 535.274 273.044C541.884 277.853 553.091 268.898 555.778 265.807C555.778 265.807 553.509 275.702 542.135 287.732C547.972 284.917 559.322 280.147 563.002 259.497C565.478 245.6 557.053 225.797 557.053 225.797Z"
          fill="#2CA483"/>
    <path d="M390.818 468.938C399.241 470.919 404.464 469.802 418.953 483.117C433.395 496.388 440.128 518.149 440.128 518.149C440.128 518.149 439.87 486.805 426.564 470.139C413.259 453.472 395.435 454.33 390.818 468.938Z"
          fill="#2CA483"/>
    <path d="M204.88 348.85C204.88 348.85 211.925 357.911 225.186 365.821C238.447 373.731 242.867 376.176 243.281 376.896C243.695 377.614 244.525 398.562 240.933 408.943C240.56 410.021 240.175 411.013 239.784 411.923C237.281 417.758 230.024 419.785 224.827 416.139L200.46 399.044C200.46 399.044 210.682 402.064 216.759 403.215C222.838 404.366 224.633 404.509 224.633 404.509C224.633 404.509 215.793 401.345 210.129 394.873C204.466 388.401 201.979 385.237 201.979 385.237C201.979 385.237 206.123 386.676 212.202 387.25C218.279 387.826 220.351 387.882 220.351 387.882C220.351 387.882 210.682 380.347 205.847 371.718C201.012 363.088 199.217 358.055 199.217 358.055C199.217 358.055 206.4 365.246 212.063 368.698C217.727 372.149 220.351 372.732 220.351 372.732C220.351 372.732 207.505 361.074 204.88 348.85Z"
          fill="#2CA483"/>
    <path d="M177.045 290.78C167.531 298.099 160.488 315.598 161.09 337.327C170.605 343.914 184.511 354.014 189.048 357.527C187.438 339.23 190.366 323.129 190.366 323.129C190.366 323.129 187.024 325.292 184.377 331.619C181.729 337.946 181.729 342.304 181.729 342.304C181.729 342.304 179.093 334.562 179.545 325.617C179.984 316.916 183.486 305.564 183.486 305.564C183.486 305.564 179.893 308.394 175.71 316.396C172.343 322.836 170.312 331.472 170.312 331.472C170.312 331.472 169.371 319.893 171.19 310.248C172.654 302.49 177.045 290.78 177.045 290.78Z"
          fill="#2CA483"/>
    <path d="M230.07 77.3625C146.113 110.356 83.0756 184.968 66.3604 275.8L66.4583 275.851C70.8338 278.124 76.1384 275.576 77.1631 270.753C93.8707 192.085 146.805 126.811 217.678 93.2086C224.034 90.1954 228.606 84.379 230.043 77.4937L230.07 77.3625Z"
          fill="#2CA483"/>
    <path d="M414.733 73.9934C414.726 74.0299 414.719 74.0664 414.712 74.1029C413.626 79.4781 416.568 84.8263 421.66 86.8616C453.832 99.7214 482.777 118.936 506.942 142.955C512.277 148.257 519.588 151.033 527.097 150.597L527.225 150.59C497.333 116.105 458.68 89.4233 414.733 73.9934Z"
          fill="#2CA483"/>
    <path d="M580.674 295.319C581.731 304.755 582.286 314.342 582.286 324.059C582.286 333.274 581.794 342.372 580.842 351.334C584.121 355.411 586.888 358.849 589.223 361.847C590.986 349.505 591.901 336.889 591.901 324.059C591.901 310.333 590.853 296.854 588.84 283.691C586.535 287.826 583.843 291.78 580.674 295.319Z"
          fill="#2CA483"/>
    <path d="M440.379 371.035C438.427 375.424 436.079 389.154 439.664 400.667C443.826 414.041 458.965 418.332 470.282 418.907C470.282 418.907 488.042 419.687 506.193 433.74C514.073 431.59 526.324 420.762 529.465 403.693C532.607 386.623 523.66 361.847 509.217 355.555C512.048 361.847 513.804 375.537 513.804 375.537C513.804 375.537 505.315 364.163 498.524 358.842C499.414 365.058 502.472 381.395 499.069 392.755C496.337 383.289 493.307 374.529 489.283 366.229C488.628 377.434 482.207 398.464 482.207 398.464C482.207 398.464 479.65 383.387 477.666 374.727C471.453 386.509 460.406 389.182 460.406 389.182C460.406 389.182 465.306 378.02 465.501 371.872C454.458 372.575 440.379 371.035 440.379 371.035Z"
          fill="#2CA483"/>
    <path d="M591.929 324.059C591.929 306.441 590.205 289.225 586.924 272.57L586.836 272.639C581.731 276.723 579.141 283.184 580.014 289.662C581.586 301.325 582.37 313.238 582.311 325.345C581.618 465.661 466.934 579.596 326.618 579.41C268.14 579.332 214.271 559.595 171.259 526.457C166.554 522.832 160.077 522.442 154.99 525.509L154.905 525.561C201.285 565.201 261.511 589.113 327.326 589.025C473.547 588.829 591.929 470.281 591.929 324.059Z"
          fill="#2CA483"/>
    <path d="M529.076 333.814C529.076 333.814 546.641 345.089 555.862 361.847C565.085 378.605 566.401 385.237 566.401 385.237C566.401 385.237 565.327 362.221 553.666 341.719C543.567 323.958 534.745 319.227 534.745 319.227L529.076 333.814Z"
          fill="#2CA483"/>
    <path d="M409.195 455.11C413.741 451.031 435.62 434.732 441.292 430.565C446.964 426.399 453.844 425.931 458.862 426.926C465.594 428.262 472.029 427.32 495.556 444.182C507.267 452.574 513.317 468.284 514.39 474.237C507.933 466.465 492.434 453.549 475.552 448.572C485.1 455.249 492.594 465.5 497.335 475.157C502.076 484.816 504.106 492.303 504.106 492.303C504.106 492.303 487.122 473.775 480.041 467.797C472.959 461.818 462.768 458.136 462.768 458.136C462.768 458.136 478.546 473.154 482.383 482.922C486.219 492.69 486.398 503.512 486.398 503.512C486.398 503.512 477.015 487.899 470.184 479.897C464.995 473.817 461.989 471.951 455.547 468.187C459.451 472.871 468.819 489.948 467.101 503.817C467.101 503.817 454.279 476.482 431.835 460.868C420.707 453.127 409.195 455.11 409.195 455.11Z"
          fill="#2CA483"/>
    <path d="M139.86 184.416C146.376 186.288 151.533 191.366 153.509 197.836C155.486 191.366 160.644 186.288 167.159 184.416C160.644 182.544 155.486 177.466 153.509 170.996C151.533 177.466 146.376 182.544 139.86 184.416Z"
          fill="#2CA483"/>
    <path d="M101.993 236.265C106.39 237.529 109.87 240.955 111.205 245.322C112.539 240.955 116.019 237.529 120.416 236.265C116.019 235.001 112.539 231.575 111.205 227.208C109.87 231.575 106.39 235.001 101.993 236.265Z"
          fill="#2CA483"/>
    <path d="M130.649 293.443C135.046 294.706 138.526 298.133 139.86 302.5C141.195 298.133 144.675 294.706 149.072 293.443C144.675 292.179 141.195 288.753 139.86 284.386C138.526 288.753 135.046 292.179 130.649 293.443Z"
          fill="#2CA483"/>
    <path d="M405.277 136.337C409.674 137.6 413.155 141.027 414.489 145.393C415.823 141.027 419.303 137.6 423.701 136.337C419.303 135.073 415.823 131.647 414.489 127.28C413.155 131.647 409.674 135.073 405.277 136.337Z"
          fill="#2CA483"/>
    <path d="M180.333 150.642C180.333 148.088 178.263 146.017 175.709 146.017C173.154 146.017 171.084 148.088 171.084 150.642C171.084 153.196 173.154 155.266 175.709 155.266C178.263 155.266 180.333 153.196 180.333 150.642Z"
          fill="#2CA483"/>
    <path d="M437.798 112.318C437.798 110.356 436.208 108.766 434.246 108.766C432.286 108.766 430.695 110.356 430.695 112.318C430.695 114.279 432.286 115.869 434.246 115.869C436.208 115.869 437.798 114.279 437.798 112.318Z"
          fill="#2CA483"/>
    <path d="M453.342 137.813C453.342 135.851 451.752 134.261 449.79 134.261C447.829 134.261 446.239 135.851 446.239 137.813C446.239 139.774 447.829 141.364 449.79 141.364C451.752 141.364 453.342 139.774 453.342 137.813Z"
          fill="#2CA483"/>
    <path d="M164.604 232.327C164.604 230.365 163.014 228.776 161.053 228.776C159.092 228.776 157.501 230.365 157.501 232.327C157.501 234.288 159.092 235.878 161.053 235.878C163.014 235.878 164.604 234.288 164.604 232.327Z"
          fill="#2CA483"/>
    <path d="M131.707 400.72C132.928 388.167 144.347 386.233 144.347 386.233C144.347 386.233 137.643 394.791 139.639 406.29C139.719 406.751 139.904 407.329 140.161 407.983C140.179 407.479 140.213 406.956 140.266 406.412C141.486 393.859 152.906 391.925 152.906 391.925C152.906 391.925 146.202 400.482 148.199 411.982C148.279 412.442 148.464 413.02 148.721 413.675C148.739 413.17 148.773 412.647 148.825 412.103C150.046 399.55 161.465 397.615 161.465 397.615C161.465 397.615 154.762 406.174 156.758 417.672C156.838 418.133 157.023 418.711 157.28 419.366C157.298 418.861 157.332 418.338 157.384 417.794C158.605 405.241 170.025 403.307 170.025 403.307C170.025 403.307 163.321 411.864 165.317 423.364C165.397 423.824 165.582 424.402 165.839 425.057C165.857 424.553 165.891 424.029 165.944 423.485C167.164 410.932 178.584 408.998 178.584 408.998C178.584 408.998 171.881 417.556 173.877 429.055C173.956 429.515 174.141 430.093 174.399 430.748C174.417 430.244 174.45 429.72 174.503 429.176C175.723 416.623 187.143 414.689 187.143 414.689C187.143 414.689 180.439 423.247 182.435 434.746C182.516 435.207 182.701 435.784 182.957 436.439C182.975 435.935 183.009 435.412 183.062 434.867C184.283 422.314 195.702 420.38 195.702 420.38C195.702 420.38 188.999 428.938 190.995 440.437C191.075 440.898 191.259 441.475 191.517 442.13C191.535 441.626 191.569 441.103 191.622 440.558C192.842 428.005 204.261 426.071 204.261 426.071C204.261 426.071 197.558 434.629 199.554 446.128C199.634 446.589 199.819 447.166 200.076 447.821C200.094 447.317 200.128 446.794 200.181 446.25C201.401 433.697 212.821 431.763 212.821 431.763C212.821 431.763 206.117 440.32 208.114 451.82C208.194 452.28 208.378 452.858 208.635 453.513C208.653 453.009 208.687 452.485 208.74 451.941C209.961 439.388 221.38 437.453 221.38 437.453C221.38 437.453 214.677 446.011 216.673 457.51C216.752 457.972 216.937 458.549 217.195 459.204C217.213 458.7 217.247 458.176 217.299 457.631C218.52 445.079 229.939 443.145 229.939 443.145C229.939 443.145 223.235 451.702 225.232 463.202C225.312 463.662 225.496 464.24 225.754 464.895C225.772 464.391 225.805 463.867 225.859 463.322C227.079 450.77 238.499 448.836 238.499 448.836C238.499 448.836 231.795 457.394 233.791 468.893C233.872 469.353 234.056 469.931 234.313 470.586C234.331 470.082 234.365 469.558 234.418 469.014C235.638 456.461 247.058 454.527 247.058 454.527C247.058 454.527 240.355 463.085 242.351 474.584C242.43 475.044 242.615 475.622 242.873 476.277C242.89 475.773 242.924 475.25 242.977 474.705C244.198 462.152 255.617 460.218 255.617 460.218C255.617 460.218 248.913 468.776 250.91 480.275C250.99 480.736 251.174 481.313 251.432 481.968C251.45 481.464 251.483 480.941 251.537 480.396C252.757 467.844 264.176 465.91 264.176 465.91C264.176 465.91 257.473 474.467 259.469 485.966C259.549 486.427 259.734 487.004 259.991 487.659C260.009 487.155 260.043 486.631 260.096 486.087C261.316 473.535 272.736 471.601 272.736 471.601C272.736 471.601 266.032 480.158 268.028 491.658C268.129 492.236 268.393 492.998 268.764 493.871C276.668 476.872 287.136 469.218 287.136 469.218C284.202 467.938 149.403 375.823 149.403 375.823C149.403 375.823 144.688 372.771 136.524 382.806C130.36 390.387 130.404 397.527 131.654 401.513C131.672 401.249 131.68 400.995 131.707 400.72Z"
          fill="#2CA483"/>
    <path d="M185.095 364.846C183.801 363.722 86.0517 292.761 78.0949 287.999C70.6391 283.537 57.3091 280.842 52.479 283.492C54.976 283.605 62.2577 287.083 68.2003 290.399C79.6057 296.765 99.0614 310.789 109.555 318.454C112.151 320.35 118.494 327.96 114.36 336.051C113.159 342.965 72.5648 399.436 72.5648 399.436C80.3371 398.117 84.8329 393.624 84.8329 393.624C84.8329 393.624 84.3699 399.393 79.2887 404.326C79.639 404.278 79.9893 404.225 80.3371 404.166C88.11 402.847 92.6052 398.354 92.6052 398.354C92.6052 398.354 92.1421 404.124 87.061 409.057C87.4119 409.009 87.7622 408.956 88.11 408.897C95.8823 407.578 100.377 403.085 100.377 403.085C100.377 403.085 99.9144 408.855 94.8332 413.787C95.1842 413.739 95.5345 413.687 95.8823 413.628C103.655 412.308 108.15 407.816 108.15 407.816C108.15 407.816 107.687 413.586 102.606 418.518C102.957 418.47 103.307 418.418 103.655 418.359C111.427 417.04 115.923 412.546 115.923 412.546C115.923 412.546 115.46 418.316 110.378 423.249C110.729 423.201 111.079 423.148 111.427 423.089C119.199 421.77 123.695 417.277 123.695 417.277C123.695 417.277 123.232 423.046 118.151 427.979C118.502 427.931 118.851 427.879 119.199 427.82C126.971 426.501 131.467 422.008 131.467 422.008C131.467 422.008 131.004 427.777 125.923 432.71C126.274 432.662 126.624 432.61 126.971 432.551C134.744 431.232 139.239 426.739 139.239 426.739C139.239 426.739 138.776 432.508 133.695 437.441C134.047 437.392 134.396 437.34 134.744 437.282C142.516 435.962 147.012 431.469 147.012 431.469C147.012 431.469 146.549 437.238 141.467 442.171C141.818 442.123 142.169 442.071 142.516 442.012C150.289 440.693 154.785 436.2 154.785 436.2C154.785 436.2 154.372 441.329 150.067 446.049C155.136 446.081 158.741 442.804 160.662 440.566C163.365 437.419 166.378 433.101 166.378 433.101C166.378 433.101 136.707 413.059 129.889 407.604C123.07 402.15 125.281 391.548 130.184 384.205C135.087 376.863 141.701 366.28 151.566 372.024C161.432 377.768 187.824 397.098 187.824 397.098C187.824 397.098 193.484 390.228 194.277 381.893C195.07 373.559 186.389 365.97 185.095 364.846Z"
          fill="#2CA483"/>
    <path d="M216.154 228.027C212.228 221.47 206.928 210.836 204.621 200.858C202.645 192.315 201.385 183.426 203.276 175.746C203.316 186.334 206.852 197.42 210.199 206.259C213.801 215.771 219.866 223.987 227.085 230.296C198.904 182.119 217.15 153.187 217.15 153.187C203.89 155.654 190.948 167.697 196.658 192.652C201.54 213.989 215.479 228.171 219.245 232.326C218.505 231.03 217.109 229.623 216.154 228.027Z"
          fill="#2CA483"/>
    <path d="M186.594 187.5C186.424 188.363 187.104 200.726 196.799 214.526C206.494 228.326 213.637 233.213 213.637 233.213C213.637 233.213 194.019 223.595 185.535 208.358C177.051 193.12 186.594 187.5 186.594 187.5Z"
          fill="#2CA483"/>
    <path d="M238.611 537.879C252.497 540.597 261.756 541.064 272.708 539.509C272.708 539.509 254.344 532.67 247.251 527.37C240.159 522.07 230.126 513.489 227.503 507.983C246.634 519.921 254.502 514.415 254.502 514.415C254.502 514.415 245.4 510.317 234.818 501.109C226.302 493.699 219.635 486.406 219.635 486.406C219.635 486.406 237.261 494.475 243.971 493.726C230.365 482.639 211.973 468.812 208.492 466.203C208.411 469.131 209.243 473.647 210.83 477.634C212.671 482.259 214.156 483.801 214.156 483.801L208.411 479.175C208.411 479.175 208.534 489.407 211.283 495.435C213.867 501.097 218.687 505.387 218.687 505.387C218.687 505.387 212.14 502.677 209.933 498.548C209.625 503.966 210.094 511.719 212.958 516.413C214.995 519.752 218.032 523.383 219.219 525.411C215.309 523.613 211.776 519.252 211.776 519.252C212.712 531.551 218.198 540.873 226.666 545.567C235.713 550.581 248.804 557.053 262.063 560.89C286.015 567.82 296.309 565.307 296.309 565.307C276.411 560.527 260.983 555.635 238.611 537.879Z"
          fill="#2CA483"/>
    <path d="M289.95 352.355C289.95 352.355 306.734 344.744 319.42 335.961C332.105 327.179 335.667 321.762 335.667 321.762C335.667 321.762 326.641 344.897 308.49 355.555C290.34 366.212 289.95 352.355 289.95 352.355Z"
          fill="#2CA483"/>
    <path d="M390.849 521.668C375.588 523.384 362.234 539.917 363.09 556.451C370.986 544.017 379.822 536.245 390.013 533.446C394.969 532.084 400.257 532.583 406.18 534.646C409.448 535.784 412.534 532.284 410.868 529.252C408.204 524.404 401.619 520.457 390.849 521.668Z"
          fill="#2CA483"/>
    <path d="M401.437 499.365C396.746 495.186 385.386 486.096 374.538 480.629C370.009 478.346 353.731 467.836 337.471 465.15C321.21 462.464 314.257 456.663 304.244 459.697C294.45 462.664 293.48 470.297 290.192 474.92C286.904 479.543 279.079 491.517 275.004 496.444C270.928 501.372 267.264 505.959 270.078 512.301C271.194 514.818 273.463 517.473 275.794 519.762C275.143 516.985 274.965 514.137 275.701 511.514C278.335 502.12 293.364 488.123 296.584 482.708C299.804 477.292 300.584 473.554 307.611 471.993C317.371 469.823 323.126 474.432 323.126 474.432C323.126 474.432 315.884 474.962 310.489 480.108C309.655 481.253 308.947 482.632 308.625 484.266C307.524 489.856 307.739 491.585 306.171 494.094C304.603 496.602 297.508 504.823 291.829 511.82C286.61 518.252 285.361 523.844 286.337 526.791C287.797 531.198 289.638 532.497 293.287 535.446C292.374 532.976 292.011 530.405 292.707 527.921C295.342 518.528 311.283 504.258 314.504 498.842C317.724 493.426 319.377 486.719 328.786 484.848C338.593 482.898 346.936 488.582 346.936 488.582C346.936 488.582 342.15 488.634 337.125 490.11C335.977 490.591 329.871 493.274 328.541 496.412C327.073 499.879 326.92 503.472 326.499 505.9C325.628 510.923 307.182 529.855 306.672 538.661C306.377 543.759 307.934 546.172 310.559 548.51C311.983 549.778 314.666 551.889 317.382 553.733C316.083 551.343 315.352 548.481 316.11 545.166C318.284 535.655 332.712 520.3 335.665 514.734C338.618 509.168 337.193 501.483 346.546 497.95C355.9 494.416 364.444 500.242 364.444 500.242C364.444 500.242 358.098 501.028 352.947 504.939C351.545 506.348 349.986 508.52 349.506 511.506C348.575 517.302 348.907 519.801 347.886 522.552C346.865 525.302 334.48 540.811 332.106 547.799C329.733 554.787 332.27 557.536 334.302 560.822C336.066 563.675 337.995 564.511 340.668 566.642C340.682 566.352 340.698 566.056 340.722 565.751C341.569 554.841 345.96 549.278 350.352 543.424C354.743 537.569 354.454 531.34 354.454 531.34C354.454 531.34 358.858 530.25 361.046 525.859C363.233 521.467 364.538 516.77 368.649 512.742C376.729 504.824 396.371 500.916 410.099 511.039C409.194 507.277 404.031 501.676 401.437 499.365Z"
          fill="#2CA483"/>
    <path d="M85.2833 354.033C85.2833 354.033 95.9893 330.003 101.338 322.573C101.525 322.313 101.713 322.064 101.902 321.82C101.888 321.811 101.874 321.801 101.86 321.792C99.5694 320.235 96.4562 320.804 94.8705 323.074C86.9388 334.423 76.8988 348.656 76.8988 348.656C76.8988 348.656 87.6048 324.626 92.9531 317.196C93.199 316.855 93.4462 316.533 93.6941 316.221C93.68 316.211 93.6652 316.201 93.6511 316.192C91.3603 314.624 88.2369 315.191 86.6468 317.466C78.692 328.852 68.5142 343.279 68.5142 343.279C68.5142 343.279 79.221 319.249 84.5692 311.82C84.8785 311.389 85.1904 310.985 85.5036 310.6C85.4889 310.59 85.4748 310.58 85.46 310.57C83.1666 308.992 80.0298 309.559 78.4358 311.842C70.4554 323.265 60.1304 337.902 60.1304 337.902C60.1304 337.902 70.8358 313.872 76.184 306.442C76.5638 305.915 76.9462 305.427 77.3304 304.968C77.3157 304.958 77.3003 304.948 77.2856 304.937C74.9832 303.349 71.8304 303.918 70.2287 306.211C62.2246 317.67 51.7459 332.525 51.7459 332.525C51.7459 332.525 62.4519 308.495 67.8002 301.065C68.2491 300.441 68.7038 299.87 69.1585 299.341C69.1412 299.329 69.1239 299.316 69.1066 299.305C66.787 297.714 63.6194 298.292 62.0088 300.598C53.9848 312.087 43.3613 327.148 43.3613 327.148C43.3613 327.148 54.0674 303.118 59.4157 295.688C59.8876 295.033 60.3648 294.434 60.8425 293.884C60.8259 293.873 60.8086 293.862 60.7919 293.852C58.3641 292.342 55.1811 292.992 53.5442 295.335C45.5298 306.811 34.9768 321.771 34.9768 321.771C34.9768 321.771 45.6829 297.742 51.0311 290.311C51.3718 289.839 51.7151 289.394 52.0597 288.976C50.985 288.595 49.9296 288.369 48.7775 288.311C43.1141 288.025 43.0334 289.434 39.1198 294.254C35.2061 299.075 12.9684 339.927 10.4746 344.098C8.64169 347.164 4.72738 355.724 9.60746 361.123C9.71505 360.383 9.77909 359.941 9.77909 359.941C11.8086 352.57 17.0281 349.135 17.0281 349.135C17.0281 349.135 15.112 355.723 17.901 363.765C18.0253 364.124 18.1578 364.483 18.2943 364.84C20.3231 357.468 25.5433 354.033 25.5433 354.033C25.5433 354.033 23.6271 360.622 26.4156 368.663C26.5404 369.023 26.673 369.381 26.8094 369.738C28.8383 362.367 34.0584 358.931 34.0584 358.931C34.0584 358.931 32.1416 365.52 34.9307 373.562C35.0556 373.921 35.1882 374.279 35.3246 374.637C37.3541 367.265 42.573 363.83 42.573 363.83C42.573 363.83 40.6568 370.419 43.4459 378.461C43.5701 378.82 43.7033 379.178 43.8397 379.536C45.8686 372.164 51.0881 368.729 51.0881 368.729C51.0881 368.729 49.172 375.317 51.961 383.359C52.0859 383.719 52.2185 384.077 52.3543 384.435C54.3832 377.063 59.6033 373.627 59.6033 373.627C59.6033 373.627 57.6871 380.216 60.4762 388.257C60.6011 388.617 60.7337 388.975 60.8694 389.333C62.899 381.961 68.1185 378.525 68.1185 378.525C68.1185 378.525 66.2023 385.115 68.9914 393.156C69.1156 393.515 69.2488 393.874 69.3852 394.231C81.768 375.122 92.1961 359.265 106.395 336.294C109.224 332.644 109.139 328.316 105.787 324.822C97.6615 336.486 85.2833 354.033 85.2833 354.033Z"
          fill="#2CA483"/>
    <path d="M244.963 109.568C244.963 109.568 246.427 108.69 250.427 106.152C254.428 103.615 258.019 97.1612 258.019 97.1612C258.019 97.1612 248.085 98.3454 247.793 98.4427C247.5 98.5407 251.305 96.8813 254.624 94.5399C257.942 92.1979 262.261 87.5714 262.261 87.5714L252.379 88.3758C252.379 88.3758 255.892 86.7331 259.698 84.6837C263.504 82.6343 270.55 76.4202 270.55 76.4202L260.576 77.3623C260.576 77.3623 267.212 74.9255 272.189 72.9741C277.796 70.7748 281.19 65.6552 290.802 61.0281C290.802 61.0281 263.328 65.4804 250.317 82.8553C239.349 97.4994 238.357 120.426 239.261 124.49C240.533 121.083 243.834 119.626 247.227 118.987C251.443 118.192 254.584 114.633 255.042 110.366C255.133 109.524 255.252 108.622 255.399 107.677L244.963 109.568Z"
          fill="#2CA483"/>
    <path d="M280.963 72.1728C256.593 91.695 259.106 117.462 259.277 118.199H265.335C270.348 118.199 274.634 114.524 275.321 109.558C275.489 108.347 275.706 107.037 275.986 105.651L266.624 106.737C266.624 106.737 268.66 104.967 271.49 103.309C273.278 102.26 277.603 98.9556 278.768 95.911H269.162C269.162 95.911 270.416 95.8219 275.003 93.7726C278.571 92.1785 282.14 88.3757 282.9 86.0496H273.748C273.748 86.0496 275.462 84.9327 280.732 82.786C286.001 80.6393 290.798 75.9987 290.798 75.9987H283.368C283.368 75.9987 284.832 75.706 289.003 74.4373C293.174 73.1693 301.24 67.9972 301.24 67.9972H293.46C293.46 67.9972 299.576 66.8143 305.061 65.5161C306.241 65.2369 307.399 64.8623 308.515 64.3883C319.501 59.7228 328.808 59.8502 328.808 59.8502C328.808 59.8502 305.333 52.6505 280.963 72.1728Z"
          fill="#2CA483"/>
    <path d="M93.8154 421.796C95.7463 423.002 97.1969 424.837 97.9206 426.995C99.635 432.108 103.102 442.023 106.345 448.719C110.884 458.087 127.131 473.164 127.131 473.164C127.131 473.164 112.201 467.601 101.515 457.208C90.8297 446.816 88.195 439.058 86.5849 433.057C84.9749 427.055 83.7158 415.489 83.7158 415.489L93.8154 421.796Z"
          fill="#2CA483"/>
    <path d="M118.258 435.732L131.915 443.692C131.915 443.692 132.311 447.841 131.915 449.451C131.52 451.061 130.987 451.719 130.987 451.719C130.987 451.719 134.521 448.426 136.57 449.378C138.619 450.329 140.449 452.378 141.254 455.013C142.059 457.648 141.767 459.99 141.254 462.332C140.742 464.674 140.522 465.479 140.522 465.479C140.522 465.479 145.865 459.673 148.5 459.831C151.134 459.99 149.377 460.209 154.904 464.601C160.429 468.992 175.326 477.784 179.458 482.897L183.59 488.01C183.59 488.01 173.164 483.41 164.162 480.117C155.16 476.823 140.447 473.676 134.044 467.748C127.641 461.819 121.135 453.263 119.664 446.523C118.192 439.783 118.258 435.732 118.258 435.732Z"
          fill="#2CA483"/>
    <path d="M148.454 481.556C148.454 481.556 162.82 491.899 179.545 493.07C196.269 494.241 203.1 487.313 203.1 487.313C203.1 487.313 204.857 499.706 184.754 504C164.652 508.294 148.454 481.556 148.454 481.556Z"
          fill="#2CA483"/>
</svg>
