<svg width="64" height="64" viewBox="0 0 64 64" fill="none" xmlns="http://www.w3.org/2000/svg">
<style>path{fill:#013543}@media(prefers-color-scheme:dark){path{fill: #ffffff;}}</style>
<path d="M35.2654 52.8928C31.5647 52.8928 28.0454 52.0302 24.9615 50.512C24.0182 50.0289 22.9298 49.8219 21.8777 49.8219H13.7144C19.0115 55.4461 26.703 59 35.2654 59C50.1406 59 62.4036 48.3037 64 34.5366H60.8435C58.9932 34.5366 57.3968 35.7098 56.8889 37.366C54.2041 46.337 45.5329 52.8928 35.2654 52.8928Z" fill="#013543"/>
<path d="M13.7101 25.3924H7.03441C6.56276 27.3591 6.30879 29.3948 6.30879 31.4996C6.30879 33.6043 6.56276 35.6401 7.03441 37.6068H13.6739C13.0571 35.6746 12.7305 33.6043 12.7305 31.4996C12.7668 29.3603 13.0934 27.3246 13.7101 25.3924Z" fill="#013543"/>
<path d="M35.2604 4C26.698 4 19.0064 7.55392 13.7094 13.1781H21.8726C22.9611 13.1781 24.0132 12.9711 24.9565 12.488C28.0404 10.9698 31.5597 10.1072 35.2604 10.1072C45.5279 10.1072 54.1991 16.663 56.8839 25.5995C57.3918 27.2902 58.9882 28.4289 60.8385 28.4289H63.995C62.3986 14.6963 50.1356 4 35.2604 4Z" fill="#013543"/>
<path d="M45.0248 25.3935C45.0248 20.3214 40.7074 16.2154 35.3741 16.2154H0C0 19.5968 2.86621 22.3226 6.42175 22.3226H35.2289C36.9341 22.3226 38.4217 23.5648 38.5305 25.1865C38.6393 26.9807 37.1518 28.4644 35.3378 28.4644H16.2539C16.0725 29.465 16 30.4656 16 31.5352C16 32.5703 16.1088 33.6055 16.2539 34.6061H35.2652C36.9704 34.6061 38.4579 35.8482 38.5668 37.4699C38.6756 39.2641 37.1881 40.7478 35.3741 40.7478H6.45803C2.90249 40.7478 0.0362819 43.4736 0.0362819 46.855H35.4103C40.7436 46.855 45.0611 42.749 45.0611 37.6769C45.0611 35.3307 44.1178 33.1914 42.594 31.5697C44.0815 29.879 45.0248 27.7398 45.0248 25.3935Z" fill="#013543"/>
</svg>
