<svg width="286" height="375" viewBox="0 0 286 375" fill="none" xmlns="http://www.w3.org/2000/svg">
<path d="M16.4997 5.29232C9.85568 7.94993 5.49902 14.3848 5.49902 21.5407V98.4593C5.49902 105.615 9.85568 112.05 16.4997 114.708L23.4805 117.5L262.517 117.5L269.498 114.708C276.142 112.05 280.499 105.615 280.499 98.4594V21.5406C280.499 14.3848 276.142 7.94993 269.498 5.29232L262.517 2.5L23.4805 2.5L16.4997 5.29232Z" fill="#55E3AA" stroke="#023543" stroke-width="5"/>
<rect x="-2.5" y="2.5" width="217" height="115" transform="matrix(-1 0 0 1 248.999 0)" fill="#2CA483" stroke="#023543" stroke-width="5"/>
<path d="M277.772 34.7749L250.321 7.00036L252.581 20.7527L277.772 34.7749Z" fill="#013543"/>
<path d="M278.611 53.8354L250.545 25.4397L252.856 39.4997L278.611 53.8354Z" fill="#013543"/>
<path d="M278.611 73.9072L250.545 45.5115L252.856 59.5715L278.611 73.9072Z" fill="#013543"/>
<path d="M278.611 92.5808L250.545 64.1851L252.856 78.2451L278.611 92.5808Z" fill="#013543"/>
<path d="M278.455 112L250.39 83.6045L252.7 97.6645L278.455 112Z" fill="#013543"/>
<path d="M8.22777 34.7749L35.6794 7.00036L33.4193 20.7527L8.22777 34.7749Z" fill="#013543"/>
<path d="M7.38943 53.8354L35.4551 25.4397L33.1444 39.4997L7.38943 53.8354Z" fill="#013543"/>
<path d="M7.38943 73.9072L35.4551 45.5115L33.1444 59.5715L7.38943 73.9072Z" fill="#013543"/>
<path d="M7.38943 92.5808L35.4551 64.1851L33.1444 78.2451L7.38943 92.5808Z" fill="#013543"/>
<path d="M7.5447 112L35.6103 83.6045L33.2997 97.6645L7.5447 112Z" fill="#013543"/>
<path d="M164.499 117.5H121.499V343.5H164.499V117.5Z" fill="#55E3AA" stroke="#013543" stroke-width="5"/>
<path d="M138.228 145.775L165.679 118L163.419 131.753L138.228 145.775Z" fill="#013543"/>
<path d="M137.389 164.835L165.455 136.44L163.144 150.5L137.389 164.835Z" fill="#013543"/>
<path d="M137.389 184.907L165.455 156.512L163.144 170.571L137.389 184.907Z" fill="#013543"/>
<path d="M137.389 203.581L165.455 175.185L163.144 189.245L137.389 203.581Z" fill="#013543"/>
<path d="M137.545 223L165.61 194.605L163.3 208.664L137.545 223Z" fill="#013543"/>
<path d="M138.228 242.775L165.679 215L163.419 228.753L138.228 242.775Z" fill="#013543"/>
<path d="M137.389 261.835L165.455 233.44L163.144 247.5L137.389 261.835Z" fill="#013543"/>
<path d="M137.389 281.907L165.455 253.512L163.144 267.571L137.389 281.907Z" fill="#013543"/>
<path d="M137.389 300.581L165.455 272.185L163.144 286.245L137.389 300.581Z" fill="#013543"/>
<path d="M137.389 343.396L165.455 315L163.144 329.06L137.389 343.396Z" fill="#013543"/>
<path d="M137.545 320L165.61 291.605L163.3 305.664L137.545 320Z" fill="#013543"/>
<rect x="-2.5" y="2.5" width="85" height="30" rx="7.5" transform="matrix(-1 0 0 1 185 340)" fill="#2CA483" stroke="#013543" stroke-width="5"/>
</svg>
