<svg width="222" height="220" viewBox="0 0 222 220" fill="none" xmlns="http://www.w3.org/2000/svg">
    <path d="M217.033 89.7552C217.84 83.8461 218.508 76.1238 217.842 69.9888C216.615 58.6786 210.327 55.6253 203.313 54.9724C201.527 54.8062 199.787 54.8435 198.185 54.9908C186.829 41.3559 171.938 30.7704 154.918 24.6412C155.105 18.9674 155.279 13.1685 155.279 11.2953C155.279 7.26225 155.492 1.6572 154.076 0.42981C152.661 -0.797592 149.775 0.861938 149.164 2.17703C148.69 3.1964 140.712 14.8571 137.267 20.0532C131.914 19.1728 126.418 18.7144 120.815 18.7144C113.084 18.7144 105.556 19.5875 98.3248 21.2382C98.026 19.3286 97.5076 16.0741 96.7747 11.6768C95.5473 4.31198 97.1315 0.528381 94.598 0.30687C92.0649 0.0851288 91.3448 4.12428 89.9482 7.9821C89.043 10.4823 86.5932 19.3073 85.1701 25.2098C52.8354 37.4586 28.4583 65.8867 21.9169 100.613C19.3718 100.613 16.5515 101.145 14.0967 103.734C11.6417 106.323 2.88662 123.415 1.30841 125.966C-0.269799 128.518 -1.04141 134.742 2.67623 136.847L21.7445 147.689C21.7594 149.673 21.9793 152.906 22.958 156.924C24.6239 163.763 29.3351 168.782 34.1867 173.407C35.4593 174.621 36.8463 175.787 38.1999 176.848C56.3852 202.932 86.6067 220 120.815 220C176.399 220 221.458 174.941 221.458 119.357C221.458 109.055 219.909 99.1145 217.033 89.7552Z"
          fill="#023543"/>
    <path d="M26.8166 150.919C26.2667 150.604 25.7358 150.299 25.2266 150.006C25.4972 151.963 26.0003 155.611 26.9374 158.507C28.2459 162.549 33.3725 167.163 33.3725 167.163C33.3725 167.163 29.3818 161.527 28.944 156.825C28.8274 155.574 28.7525 154.602 28.6834 153.829C28.5752 152.611 27.8771 151.526 26.8166 150.919Z"
          fill="#E6B584"/>
    <path d="M121.773 68.6774C121.773 68.6774 125.105 69.6745 129.456 72.6657C133.806 75.6569 136.027 79.6681 135.959 79.1922C135.891 78.7161 135.665 75.1323 134.101 72.3258C132.537 69.5194 130.589 67.9521 130.589 67.9521C130.589 67.9521 133.444 69.0625 135.053 71.5326C134.419 68.8828 133.556 65.889 129.885 63.2378C126.214 60.5863 122.676 60.519 122.676 60.519C125.192 61.4253 128.99 64.1021 130.203 65.9354C130.203 65.9354 127.96 65.1874 125.309 64.7796C122.657 64.3718 121.207 64.7796 121.207 64.7796C121.207 64.7796 125.127 66.1044 127.371 67.8266C129.125 69.1731 130.181 70.7395 130.181 70.7395C130.181 70.7395 125.988 68.4055 121.773 68.6774Z"
          fill="#EFD9C2"/>
    <path d="M92.449 81.887C91.3273 83.1945 90.2304 84.4813 85.3395 86.5039C80.4486 88.5263 72.8299 89.7402 69.0676 93.4286C65.3055 97.1169 66.4341 103.542 66.4341 103.542C66.4341 103.542 67.8617 98.7256 69.9456 96.7601C72.224 94.611 74.4601 94.1425 74.4601 94.1425C74.4601 94.1425 70.4472 96.284 68.817 101.4C67.1865 106.516 69.6948 111.632 69.6948 111.632C69.6948 111.632 70.3924 105.296 73.2235 101.657C76.9111 96.9171 81.7077 94.5143 81.7077 94.5143C81.7077 94.5143 78.3413 97.1452 74.988 102.409C73.1022 105.37 71.586 109.444 71.4503 113.298C71.0742 124.006 80.7195 130.074 80.7195 130.074C80.7195 130.074 78.6484 127.151 78.3536 120.38C78.1035 114.635 79.2106 110.529 82.6594 105.382C85.9227 100.513 91.3613 97.7069 91.3613 97.7069C91.3613 97.7069 86.7931 102.336 83.4072 108.285C80.0212 114.234 79.9645 121.469 82.8975 128.279C85.4806 134.278 92.5511 137.857 95.6104 138.406C91.9731 133.923 89.5645 129.094 89.6895 122.868C89.8252 116.095 93.8086 110.542 93.8086 110.542C93.8086 110.542 90.8353 120.651 92.653 126.602C94.7492 133.465 98.4044 135.149 102.443 135.89C102.443 135.89 97.4692 129.898 98.8671 121.311C100.227 112.959 102.483 110.236 104.353 103.969C105.897 98.7939 106.114 93.2565 106.114 93.2565C106.114 93.2565 107.624 97.5008 105.23 106.543C102.836 115.585 101.423 118.336 101.423 122.123C101.423 125.91 102.341 127.183 102.953 128.505C104.101 124.953 108.767 120.286 111.853 115.71C115.89 109.725 115.579 103.879 115.427 98.1261C116.764 101.878 117.31 106.244 115.488 112.599C113.741 118.695 110.201 123.53 110.201 123.53C110.201 123.53 116.676 120.701 119.982 116.347C124.832 109.962 124.999 101.638 124.999 101.638C124.999 101.638 126.128 105.115 125.751 108.565C125.375 112.015 124.623 113.774 124.623 113.774C124.623 113.774 131.309 108.902 131.645 99.6154C131.913 92.2246 128.922 84.6782 128.922 84.6782C128.922 84.6782 132.539 88.5422 133.417 94.0153C134.295 99.4882 133.526 103.304 133.526 103.304C133.526 103.304 139.367 97.1939 137.276 88.1429C134.037 74.1182 121.444 71.7138 121.444 71.7138C121.444 71.7138 128.235 76.8817 130.146 79.4859C133.033 83.4203 133.647 86.5807 133.647 86.5807C133.403 86.1477 131.883 83.0733 128.03 79.6767C126.274 78.1282 124.033 76.7221 121.206 75.1002C127.121 84.4846 127.808 92.8917 127.57 95.4928C124.56 87.7741 120.692 85.3231 113.83 82.453C117.064 86.4885 119.403 90.6731 120.479 94.7446C121.913 100.173 121.316 105.401 119.69 109.808C119.69 109.808 120.395 103.777 119.167 98.2873C116.583 86.7422 111.86 84.7952 108.017 81.1308C108.017 81.1308 111.031 86.4013 111.924 92.1014C112.911 98.402 111.079 102.59 111.079 102.59C110.736 87.258 103.629 81.7284 103.713 81.887C103.796 82.0456 103.74 90.1111 100.897 96.4169C98.0548 102.723 95.6121 105.326 95.6121 105.326C95.6121 105.326 99.8257 95.6143 100.369 90.9345C100.913 86.2547 99.9273 81.887 99.9273 81.887C98.4997 85.8392 96.8243 88.9471 92.1006 92.4371C87.377 95.9273 83.5093 98.5131 81.0618 101.351C79.2401 103.464 78.1045 105.705 78.1045 105.705C78.1045 105.705 78.6404 102.709 81.6918 99.3776C84.7435 96.0462 91.5992 91.6118 93.6473 87.8365C94.9393 85.4552 95.1104 83.3551 95.0267 83.474C94.9433 83.5931 94.7759 85.8933 89.4671 88.4712C84.1582 91.049 82.1287 91.0355 80.3314 91.6305C78.5338 92.2253 76.575 93.1598 76.575 93.1598C76.575 93.1598 78.1165 91.6227 84.1776 89.6398C90.2389 87.6568 92.1145 82.799 92.449 81.887Z"
          fill="#EFD9C2"/>
    <path d="M88.8331 56.1875C88.4149 56.362 87.6582 56.9326 87.6582 57.7485C87.6582 58.5643 87.7584 60.2323 88.8369 63.0121C89.7 65.2364 90.4647 65.9579 90.4647 65.9579V72.141C90.4647 72.141 92.9269 67.8877 94.1812 65.252C95.7327 61.9923 96.4019 58.7142 96.4019 58.7142C96.4019 58.7142 95.3133 59.3408 94.6675 60.0888C94.0216 60.8366 93.4699 61.8878 92.4928 63.2351C92.7595 62.3831 93.3767 60.5158 93.2748 60.2777C93.1727 60.0399 92.051 59.904 90.5555 58.2042C89.0598 56.5048 89.47 55.9218 88.8331 56.1875Z"
          fill="#E6B584"/>
    <path d="M100.075 54.0913C98.953 54.0913 98.0689 54.3812 97.8648 55.2308C97.6608 56.0806 96.5401 63.4731 96.4041 64.9348C96.2682 66.3964 97.05 67.1101 97.9336 67.1782C98.8175 67.2461 99.4849 67.1782 100.063 67.1782C100.901 67.1782 102.034 66.2754 102.85 66.2754C103.712 66.2754 104.438 66.3206 104.883 66.3206C105.13 66.3206 106.039 65.265 105.275 63.7372C104.663 62.5136 103.417 62.4909 102.59 62.8951C101.91 63.2284 100.743 64.4171 100.743 64.4171C100.845 64.1643 101.278 62.6367 101.559 60.6498C101.851 58.5803 102.002 56.3272 102.047 55.1452C102.077 54.3608 100.518 54.0913 100.075 54.0913Z"
          fill="#E6B584"/>
    <path d="M103.713 58.2384C103.781 58.8842 105.31 61.1213 108.336 64.7585C111.361 68.3955 116.425 72.6656 116.425 72.6656C116.425 72.6656 117.241 72.5751 117.037 69.9917C116.833 67.4083 116.311 65.8377 116.447 65.158C116.583 64.4782 119.825 61.8754 120.437 60.2097C121.049 58.5443 120.471 56.6748 119.655 55.281C118.839 53.8874 118.431 54.1933 118.397 54.2952C118.363 54.3973 117.966 57.3807 115.586 58.5705C113.207 59.7601 113.023 60.383 113.533 61.4028C114.043 62.4224 114.59 64.25 114.522 64.1335C114.454 64.0169 111.871 61.0596 111.429 60.9577C110.987 60.8558 110.091 61.0064 107.474 60.1568C104.856 59.3071 103.713 58.2384 103.713 58.2384Z"
          fill="#E6B584"/>
    <path d="M96.8072 49.2706C96.8204 49.3773 97.2861 52.4259 97.966 53.0717C98.6459 53.7176 99.5407 53.4878 100.373 53.4795C101.124 53.4719 101.229 52.7656 101.263 52.1878C101.314 51.3207 101.599 49.4747 101.288 49.2706C101.185 49.2035 100.627 49.0345 99.9965 49.0288C99.6565 49.0255 99.6582 50.9401 99.2908 50.9191C98.8376 50.8931 98.5121 49.0709 98.1476 49.0964C97.6282 49.1326 96.7821 49.065 96.8072 49.2706Z"
          fill="#E6B584"/>
    <path d="M96.1338 50.3794C96.6085 51.2037 96.9527 52.5465 96.3903 53.3852C95.8279 54.224 94.7393 54.4459 93.1757 53.6705C91.6119 52.8952 90.4562 51.2772 90.4562 51.2772C88.6662 50.9191 85.6953 51.4538 85.6953 51.4538C85.6953 51.4538 86.5166 50.4612 87.6622 49.9818C88.7376 49.5319 89.2664 49.4697 89.7198 49.4243C89.4023 49.0619 89.1631 48.2596 89.1631 48.2596C89.7304 48.2577 92.3824 49.3248 94.2053 50.6158C93.8927 49.8685 94.2644 48.9579 94.2644 48.9579C94.2644 48.9579 95.5707 49.4014 96.1338 50.3794Z"
          fill="#EFD9C2"/>
    <path d="M104.628 49.046C104.301 49.0287 102.446 49.5554 102.171 51.7948C101.974 53.4019 103.09 54.2361 104.369 54.203C105.984 54.1614 109.128 52.1603 110.545 51.0854C110.545 51.0854 113.503 50.6242 115.882 50.9981C118.261 51.3719 120.692 52.0213 120.692 52.0213C120.692 52.0213 120.293 50.7263 117.166 49.6386C114.038 48.5507 111.552 48.8457 111.552 48.8457C111.552 48.8457 112.301 48.2597 112.815 47.6339C111.825 47.6339 110.194 47.7339 107.587 48.8261C105.756 49.5932 105.072 50.2083 104.39 50.7532C104.585 50.1152 104.674 49.5032 104.628 49.046Z"
          fill="#EFD9C2"/>
    <path d="M110.547 53.8534C110.955 53.7853 112.926 53.7174 114.15 54.0912C115.374 54.4652 115.578 54.4605 115.68 53.8C115.782 53.1395 115.612 52.2395 114.116 52.1626C112.62 52.0858 110.547 53.8534 110.547 53.8534Z"
          fill="#E6B584"/>
    <path d="M89.2306 55.2308L90.5564 54.5332C90.5564 54.5332 90.1145 53.5474 89.2306 53.6834C88.347 53.8193 89.2306 55.2308 89.2306 55.2308Z"
          fill="#E6B584"/>
    <path d="M91.3613 56.8937C91.3613 56.8937 92.1554 57.3546 93.6511 57.3206C94.1525 57.3093 94.5241 57.2691 94.7965 57.2211C95.147 57.1591 95.4331 57.5137 95.2771 57.8334C95.0601 58.2778 94.6182 58.747 93.719 58.8163C91.9514 58.9522 91.3613 56.8937 91.3613 56.8937Z"
          fill="#E6B584"/>
    <path d="M106.739 57.5925C107.18 58.1851 108.448 58.838 110.443 58.822C112.425 58.8059 113.877 57.0825 113.877 57.0825C113.877 57.0825 112.188 57.2447 110.148 57.2107C108.109 57.1769 106.298 56.9996 106.739 57.5925Z"
          fill="#E6B584"/>
    <path d="M95.7105 67.4555C94.351 69.4824 91.2464 72.1988 89.4684 74.3896C87.8018 76.4434 87.1569 78.7779 87.293 80.6899C87.429 82.6019 87.9951 83.9323 87.9951 83.9323C87.9951 83.9323 91.3596 79.5908 94.2489 77.5221C97.1382 75.4534 98.4247 75.2321 99.0729 74.4945C100.079 73.3496 100.244 71.5686 100.244 71.5686C100.244 71.5686 100.17 73.5681 101.597 74.6023C103.025 75.6368 111.646 78.407 115.246 80.001C119.663 81.9575 122.487 84.8411 122.487 84.8411C122.487 84.8411 122.487 80.2856 119.388 77.0363C115.676 73.1444 108.559 69.2001 106.384 67.1314C105.194 67.8365 105.398 68.6046 106.112 69.5136C106.826 70.4225 109.525 72.3222 109.525 72.3222C109.525 72.3222 105.721 70.3284 104.039 68.4164C104.039 68.4164 102.641 69.2391 102.949 70.4542C103.219 71.5206 105.925 73.2908 105.925 73.2908C105.925 73.2908 103.131 72.0074 102.067 70.2346C101.341 69.024 99.4213 68.9966 98.3223 70.3284C97.2228 71.661 96.1751 72.8114 95.655 73.1416C96.0337 72.7251 96.8831 71.6078 97.3876 70.5741C97.6791 69.9764 97.4554 69.1689 97.0249 68.7509C95.3028 71.2062 93.5182 72.3345 93.5182 72.3345C93.5182 72.3345 95.9146 69.8374 96.1186 68.9807C96.3493 68.0112 95.7105 67.4555 95.7105 67.4555Z"
          fill="#EFD9C2"/>
    <path d="M101.915 76.4561C101.392 76.4409 99.6265 76.2757 98.0138 76.5189C96.8183 76.6991 96.924 78.7425 97.5717 78.6898C99.0528 78.5685 101.008 78.5075 103.288 78.9085C104.368 79.0983 104.628 78.3413 104.151 77.5329C103.615 76.6256 102.482 76.4724 101.915 76.4561Z"
          fill="#E6B584"/>
    <path d="M151.594 4.4341C151.594 4.4341 145.925 13.8012 138.685 23.5249C130.193 34.9312 126.541 41.9284 126.541 50.8705C129.876 41.9284 132.946 36.9737 139.631 28.4479C146.686 19.4498 150.066 14.739 151.315 12.3644C152.565 9.98975 151.594 4.4341 151.594 4.4341Z"
          fill="#EFD9C2"/>
    <path d="M151.148 16.6138C151.148 16.6138 144.835 25.0354 140.409 30.3052C133.903 38.0513 128.462 47.6014 126.771 54.193C126.771 54.193 133.679 43.3663 139.069 37.179C143.452 32.1484 148.612 26.0982 149.632 24.5607C151.688 21.4612 151.148 16.6138 151.148 16.6138Z"
          fill="#EFD9C2"/>
    <path d="M149.768 26.9174C149.768 26.9174 140.082 38.3852 136.126 43.1427C131.476 48.7357 128.885 53.0756 126.771 57.3374C126.771 57.3374 135.421 47.4275 139.069 44.0529C142.717 40.6785 148.278 34.9524 148.817 33.2692C149.768 30.3052 149.768 26.9174 149.768 26.9174Z"
          fill="#EFD9C2"/>
    <path d="M147.22 37.5608C146.46 38.3724 140.43 44.3211 136.079 49.0945C132.737 52.7613 127.332 59.0508 127.332 59.0508C127.332 59.0508 137.306 51.5888 142.605 46.8137C146.73 43.0973 147.22 37.5608 147.22 37.5608Z"
          fill="#EFD9C2"/>
    <path d="M86.8517 48.0782C86.4768 46.5785 85.8409 39.4891 86.7158 34.2398C87.5907 28.9906 93.7802 4.43399 93.7802 4.43399C93.7802 4.43399 93.843 13.1423 93.5932 15.642C93.343 18.1417 92.7575 22.7115 91.8826 25.9611C91.0076 29.2104 90.0022 31.5985 89.1179 33.8923C86.9487 39.5191 86.8517 48.0782 86.8517 48.0782Z"
          fill="#EFD9C2"/>
    <path d="M94.5564 18.1982C94.5564 18.1982 94.1926 22.5272 93.6775 24.6468C93.2803 26.2817 92.6777 28.2086 92.6777 28.2086C92.6777 28.2086 94.5711 26.1342 95.5989 25.4172C96.128 20.8024 94.5564 18.1982 94.5564 18.1982Z"
          fill="#EFD9C2"/>
    <path d="M116.019 46.5932C114.354 46.2918 113.699 48.1591 113.549 48.1463C119.984 48.6903 124.704 51.8401 124.704 51.8401C124.704 51.8401 123.861 49.6023 121.441 48.3376C120.014 47.5917 118.693 47.0773 116.019 46.5932Z"
          fill="#55E3AA"/>
    <path d="M113.315 46.144C103.626 44.4353 93.0529 45.2662 91.187 45.5712C89.3956 45.8639 89.2204 47.9406 90.5577 48.0071C94.3442 48.1952 97.4571 47.7548 105.575 47.9815C106.499 48.0073 112.071 46.5612 113.315 46.144Z"
          fill="#55E3AA"/>
    <path d="M140.312 52.0363C140.54 52.3609 145.004 53.4944 146.636 60.1794C147.99 65.7296 145.548 69.8749 142.137 74.6849C139.461 78.4567 138.024 84.1095 138.024 84.1095C138.024 84.1095 136.58 78.7706 138.756 74.8071C141.173 70.4037 143.018 66.705 143.168 61.9243C143.338 56.5197 140.312 52.0363 140.312 52.0363Z"
          fill="#EFD9C2"/>
    <path d="M138.577 52.6944C138.577 52.6944 139.665 55.9759 139.244 59.681C138.768 63.8778 134.838 66.1732 134.838 66.1732C134.838 66.1732 135.857 66.5472 136.911 66.4113C137.965 66.2754 138.809 65.9014 138.809 65.9014C138.809 65.9014 137.013 68.6888 136.775 71.2041C136.537 73.7194 136.639 74.3312 136.639 74.3312C136.639 74.3312 138.645 71.17 139.868 68.9266C141.092 66.6831 142.458 63.1055 141.438 58.7725C140.419 54.4397 138.577 52.6944 138.577 52.6944Z"
          fill="#EFD9C2"/>
    <path d="M147.436 57.6594C148.297 59.8149 149.945 65.6181 145.131 73.2547C142.418 77.5582 140.749 80.8139 139.977 83.2483C139.095 86.0275 139.244 90.3186 139.244 90.3186C139.244 90.3186 141.125 84.6041 143.194 80.9025C146.197 75.5318 152.383 66.2351 155.865 62.5501C154.052 58.2601 147.436 57.6594 147.436 57.6594Z"
          fill="#EFD9C2"/>
    <path d="M178.767 87.9166C176.767 84.1096 172.958 82.4969 169.095 82.6425C157.787 83.0694 150.678 89.396 150.678 89.396C150.678 89.396 156.566 86.5478 166.393 86.3708C171.42 86.28 178.767 87.9166 178.767 87.9166Z"
          fill="#E6B584"/>
    <path d="M87.6616 62.8761C87.1145 63.2612 85.7555 64.8602 85.0399 66.853C84.4988 68.3601 84.4505 70.1731 84.62 71.8047C85.3569 69.4024 86.8526 67.0003 88.8405 65.5273C88.8405 65.5273 87.8951 63.9411 87.6616 62.8761Z"
          fill="#EFD9C2"/>
    <path d="M89.5714 66.3885C89.5714 66.3885 86.2855 69.2891 85.2659 72.9148C84.3654 76.1162 84.6314 78.9428 84.9938 80.7558C85.3564 82.5685 86.3989 84.5627 86.3989 84.5627C86.3989 84.5627 85.1751 79.2307 86.8084 75.6802C88.0578 72.9647 89.5714 71.1021 89.5714 71.1021C89.2743 70.9291 88.0757 71.7139 86.8032 72.9671C86.8032 72.9671 87.9852 70.6487 89.5714 66.3885Z"
          fill="#EFD9C2"/>
    <path d="M136.809 53.4945C136.877 55.3299 136.751 56.9275 135.961 58.6272C134.066 62.7014 132.832 58.4573 133.788 55.6136C133.788 55.6136 132 56.8897 131.116 57.6793L130.232 58.4688C130.232 58.4688 130.453 60.8707 131.88 62.8422C133.308 64.8136 135.798 64.0633 137.05 61.3047C138.849 57.3374 136.809 53.4945 136.809 53.4945Z"
          fill="#E6B584"/>
    <path d="M127.889 117.57C127.723 117.964 127.658 124.428 132.838 129.974C136.963 134.392 142.725 136.404 146.723 136.133C142.239 133.81 137.305 131.316 134.28 125.333C131.255 119.35 130.995 114.715 130.995 114.715L127.889 117.57Z"
          fill="#2CA483"/>
    <path d="M140.157 157.499C140.248 157.953 139.956 161.278 137.953 163.816C135.951 166.354 132.062 167.894 132.062 167.894C132.062 167.894 135.606 169.419 139.232 168.56C141.285 168.074 143.22 166.324 143.173 163.972C143.108 160.667 140.157 157.499 140.157 157.499Z"
          fill="#2CA483"/>
    <path d="M143.469 154.471C143.469 154.471 147.764 156.426 150.812 155.972C153.859 155.518 154.784 153.152 154.4 150.865C150.412 153.257 143.469 154.471 143.469 154.471Z"
          fill="#2CA483"/>
    <path d="M132.906 153.453C132.906 153.453 129.049 158.612 124.981 160.539C121.757 162.067 117.225 163.337 117.225 163.337C117.225 163.337 121.632 166.077 126.708 165.715C131.784 165.353 134.255 162.769 134.713 159.3C135.145 156.022 132.906 153.453 132.906 153.453Z"
          fill="#2CA483"/>
    <path d="M133.273 151.365C133.273 151.365 142.372 151.718 146.763 148.661C149.27 146.915 150.202 143.906 149.318 141.457C144.815 146.417 133.273 151.365 133.273 151.365Z"
          fill="#2CA483"/>
    <path d="M174.87 131.568C174.87 131.568 164.557 131.433 157.317 129.488C150.076 127.542 146.889 123.706 146.889 123.706C146.889 123.706 152.778 126.786 158.721 127.65C164.665 128.515 167.726 128.299 167.33 128.299C166.709 128.299 158.079 125.929 152.73 120.85C156.224 122.289 161.574 123.631 171.689 126.3C171.689 126.3 168.6 122.842 163.53 118.843C158.461 114.845 157.047 113.819 157.047 113.819C157.047 113.819 164.124 116.197 169.311 120.087L174.499 123.977C174.499 123.977 171.996 117.291 166.215 111.888C161.132 107.137 158.073 104.645 158.073 104.645C158.073 104.645 170.386 111.652 174.877 118.357C178.776 124.179 179.382 125.295 179.476 125.633C179.293 124.851 177.85 118.118 173.765 111.377C170.028 105.212 167.656 102.964 166.178 101.692C169.582 103.607 173.612 106.073 177.902 112.738C182.494 119.87 183.36 124.018 183.36 124.018C183.36 124.018 183.844 119.52 181.036 111.063C179.493 106.416 176.66 101.692 176.66 101.692C176.66 101.692 183.09 107.227 185.305 115.764C186.827 121.631 186.169 124.018 186.169 124.018C186.169 124.018 187.271 122.522 188.168 118.843C188.709 116.628 188.601 112.846 188.601 112.846C188.601 112.846 189.564 115.65 189.24 119.973C188.916 124.295 188.114 126.462 188.114 126.462C190.6 125.705 193.619 118.086 193.763 113.818C193.938 108.619 192.854 103.246 189.948 99.3087C183.093 90.0214 174.432 90.3001 174.432 90.3001C174.432 90.3001 182.663 94.7166 185.793 101.718C188.126 106.934 188.351 110.612 188.351 110.612C188.351 110.612 185.383 102.544 180.102 97.0787C175.217 92.0226 167.78 90.4314 161.329 89.9349C155.896 89.5165 152.59 90.8642 150.678 92.4906C146.901 95.7017 149.864 98.9699 151.371 100.475C147.386 98.5233 142.506 96.5286 138.938 101.672C135.09 107.22 140.081 116.574 144.619 121.761C139 117.835 137.731 114.791 136.04 107.569C136.04 107.569 133.887 109.319 134.407 115.223C134.836 120.078 137.841 128.537 148.077 132.243C160.164 136.62 174.87 131.568 174.87 131.568Z"
          fill="#E6B584"/>
    <path d="M136.344 139.137C134.711 142.224 128.96 145.707 125.232 146.842C128.352 144.524 131.378 140.329 132.717 136.648C130.192 138.911 126.623 140.942 122.012 142.239C124.584 139.71 128.26 135.365 129.541 132.729C126.551 134.883 124.577 135.728 119.203 137.417C121.272 135.105 123.98 131.544 125.355 127.686C112.287 136.692 107.748 138.565 97.8737 140.581C97.0259 143.194 95.6319 148.849 97.0193 153.405C98.8918 159.554 103.648 162.143 107.316 161.906C110.541 161.698 121.167 159.118 127.829 152.455C134.492 145.793 134.914 143.36 136.344 139.137Z"
          fill="#55E3AA"/>
    <path d="M113.877 36.8783C116.135 36.032 120.195 35.8649 125.544 37.5608C123.275 34.5008 120.107 32.8482 115.19 33.0642C118.574 31.7995 121.708 31.9614 126.3 33.2583C124.409 30.5026 120.897 29.4761 117.277 29.2059C117.277 29.2059 121.26 27.8563 126.771 28.2088C123.475 26.1493 119.125 26.2561 119.125 26.2561C121.417 25.2625 123.275 24.7214 129.62 23.7177C129.62 23.7177 116.577 21.4586 108.846 29.4726C102.233 36.3284 103.714 43.5495 103.714 43.5495C113.877 43.6304 119.739 45.3346 124.424 48.3059C120.682 42.3895 113.877 40.8768 113.877 40.8768C113.877 40.8768 118.682 40.3364 125.058 42.1276C121.978 37.2027 113.877 36.8783 113.877 36.8783Z"
          fill="#55E3AA"/>
    <path d="M105.895 55.7892C105.895 55.7081 107.705 54.8436 107.705 54.8436C107.705 54.8436 107.381 55.6001 107.489 56.0055C107.597 56.4104 107.712 56.5457 107.712 56.5457L105.895 55.7892Z"
          fill="#EFD9C2"/>
    <path d="M91.5508 55.7892C91.5508 55.4651 92.4444 54.8436 92.4444 54.8436C92.3281 54.9518 92.1654 55.6001 92.2583 56.0055C92.3515 56.4104 92.45 56.5457 92.45 56.5457C92.45 56.5457 91.5508 56.1135 91.5508 55.7892Z"
          fill="#EFD9C2"/>
    <path d="M204.264 70.926C196.272 67.1523 187.119 69.0556 187.119 69.0556C187.119 69.0556 193.798 66.7107 199.721 67.7783C211.114 69.8312 214.341 76.8627 214.341 76.8627C213.739 73.9673 212.522 69.966 207.513 67.2902C202.161 64.4307 196.153 64.4713 196.153 64.4713C196.153 64.4713 201.709 63.6465 206.071 64.647C210.433 65.6476 213.676 68.1537 213.676 68.1537C213.676 68.1537 212.642 65.4971 208.754 63.2127C206.33 61.7882 200.758 60.9728 200.758 60.9728C204.233 60.2556 209.064 61.1936 213.615 64.5711C210.495 59.8693 207.52 58.3079 201.47 58.0937C180.867 57.3637 144.169 85.8627 140.148 94.1226C164.053 77.3544 180.805 71.2655 196.962 72.7394C211.8 74.0931 213.559 90.5933 213.559 90.5933C214.407 82.7127 211.805 74.4869 204.264 70.926Z"
          fill="#55E3AA"/>
    <path d="M179.666 60.5449C176.422 60.36 170.914 62.3746 165.025 65.5634C166.698 63.5417 173.84 59.7742 180.053 58.5648C173.795 57.3109 169.263 60.0082 165.882 61.7188C165.882 61.7188 171.775 56.9828 177.594 56.3861C173.496 55.289 168.495 57.0249 165.072 59.3622C153.902 66.991 146.999 78.1276 142.379 87.2118C156.052 72.7143 173.754 62.6997 179.666 60.5449Z"
          fill="#55E3AA"/>
    <path d="M95.2423 55.2584C95.2423 55.5848 94.9778 55.8494 94.6513 55.8494C94.3251 55.8494 94.0605 55.5848 94.0605 55.2584C94.0605 54.9321 94.3251 54.6674 94.6513 54.6674C94.9778 54.6674 95.2423 54.9321 95.2423 55.2584Z"
          fill="#EFD9C2"/>
    <path d="M110.561 55.2584C110.561 55.5848 110.296 55.8494 109.97 55.8494C109.643 55.8494 109.379 55.5848 109.379 55.2584C109.379 54.9321 109.643 54.6674 109.97 54.6674C110.296 54.6674 110.561 54.9321 110.561 55.2584Z"
          fill="#EFD9C2"/>
    <path d="M205.627 83.348C205.627 83.348 206.243 85.6038 205.629 90.3994C205.014 95.1948 200.822 98.2065 200.822 98.2065C200.822 98.2065 204.481 92.5986 203.691 86.4711C202.901 80.3436 198.891 77.7267 198.891 77.7267C198.891 77.7267 201.183 82.2523 199.681 87.1058C198.744 90.1348 196.73 92.6116 196.73 92.6116C196.73 92.6116 198.872 88.1715 197.872 84.1754C196.872 80.1791 194.148 78.5827 193.067 77.9593C194.113 80.7542 194.585 86.3122 191.654 88.8268C191.654 88.8268 192.354 84.4009 191.026 82.1306C189.046 78.746 184.141 78.6694 184.141 78.6694C184.141 78.6694 187.519 80.9571 187.258 84.239C186.912 88.5763 186.16 90.214 186.16 90.214C187.833 88.6415 188.932 87.5515 189.456 84.5125C190.398 87.3179 189.56 91.7681 189.56 91.7681C193.224 92.4527 195.159 88.6536 195.631 86.8415C195.641 89.032 194.489 95.2631 193.643 95.8777C196.066 96.7403 198.614 96.6503 201.179 90.2079C201.074 93.7014 198.953 98.6932 197.588 100.788C200.027 102.563 204.164 99.2578 205.156 98.1167C205.156 98.1167 204.319 101.769 200.12 106.21C202.275 105.171 206.464 103.41 207.823 95.7876C208.737 90.6578 205.627 83.348 205.627 83.348Z"
          fill="#2CA483"/>
    <path d="M144.262 173.098C147.371 173.829 149.299 173.417 154.647 178.332C159.978 183.231 162.464 191.263 162.464 191.263C162.464 191.263 162.368 179.693 157.457 173.541C152.545 167.389 145.966 167.706 144.262 173.098Z"
          fill="#55E3AA"/>
    <path d="M75.6296 128.77C75.6296 128.77 78.23 132.115 83.1249 135.035C88.02 137.954 89.6514 138.857 89.8044 139.123C89.9573 139.388 90.2635 147.12 88.9377 150.952C88.7999 151.35 88.6578 151.716 88.5136 152.052C87.5898 154.206 84.9109 154.954 82.9925 153.608L73.9979 147.298C73.9979 147.298 77.7711 148.413 80.0145 148.838C82.2582 149.262 82.9209 149.315 82.9209 149.315C82.9209 149.315 79.6578 148.148 77.5671 145.759C75.4766 143.369 74.5587 142.201 74.5587 142.201C74.5587 142.201 76.0884 142.733 78.3321 142.945C80.5755 143.157 81.3403 143.178 81.3403 143.178C81.3403 143.178 77.7711 140.397 75.9865 137.211C74.2017 134.026 73.5391 132.168 73.5391 132.168C73.5391 132.168 76.1905 134.822 78.281 136.096C80.3715 137.37 81.3403 137.586 81.3403 137.586C81.3403 137.586 76.5983 133.283 75.6296 128.77Z"
          fill="#55E3AA"/>
    <path d="M65.3519 107.335C61.84 110.036 59.24 116.496 59.4625 124.517C62.9747 126.948 68.1077 130.676 69.7826 131.973C69.1882 125.219 70.2688 119.276 70.2688 119.276C70.2688 119.276 69.0355 120.074 68.0582 122.41C67.081 124.745 67.081 126.354 67.081 126.354C67.081 126.354 66.1079 123.496 66.2746 120.194C66.4368 116.982 67.7294 112.792 67.7294 112.792C67.7294 112.792 66.403 113.837 64.859 116.79C63.6163 119.168 62.8667 122.356 62.8667 122.356C62.8667 122.356 62.5191 118.081 63.1908 114.521C63.7312 111.657 65.3519 107.335 65.3519 107.335Z"
          fill="#E6B584"/>
    <path d="M84.926 28.5566C53.935 40.7352 30.6661 68.2766 24.4961 101.805L24.5323 101.824C26.1474 102.663 28.1055 101.723 28.4837 99.9425C34.6509 70.9037 54.1906 46.8095 80.3516 34.4058C82.6976 33.2936 84.3855 31.1466 84.9158 28.6051L84.926 28.5566Z"
          fill="#2CA483"/>
    <path d="M153.093 27.313C153.09 27.3264 153.088 27.3399 153.085 27.3534C152.684 29.3375 153.77 31.3117 155.65 32.063C167.525 36.8099 178.21 43.9024 187.129 52.7686C189.099 54.7257 191.798 55.7503 194.569 55.5895L194.617 55.5867C183.583 42.8575 169.315 33.0086 153.093 27.313Z"
          fill="#2CA483"/>
    <path d="M214.346 109.01C214.736 112.493 214.941 116.032 214.941 119.619C214.941 123.02 214.759 126.379 214.408 129.687C215.618 131.192 216.639 132.461 217.501 133.568C218.152 129.012 218.49 124.355 218.49 119.619C218.49 114.553 218.103 109.577 217.36 104.718C216.509 106.244 215.515 107.704 214.346 109.01Z"
          fill="#2CA483"/>
    <path d="M162.559 136.959C161.839 138.579 160.972 143.647 162.295 147.897C163.832 152.834 169.42 154.418 173.597 154.63C173.597 154.63 180.153 154.918 186.853 160.105C189.762 159.312 194.284 155.315 195.444 149.014C196.603 142.713 193.301 133.568 187.97 131.245C189.014 133.568 189.663 138.621 189.663 138.621C189.663 138.621 186.529 134.422 184.022 132.458C184.351 134.753 185.48 140.784 184.224 144.977C183.215 141.483 182.097 138.249 180.611 135.185C180.369 139.321 177.999 147.084 177.999 147.084C177.999 147.084 177.056 141.518 176.323 138.322C174.03 142.671 169.952 143.658 169.952 143.658C169.952 143.658 171.761 139.537 171.833 137.268C167.756 137.528 162.559 136.959 162.559 136.959Z"
          fill="#E6B584"/>
    <path d="M218.497 119.619C218.497 113.116 217.861 106.761 216.65 100.613L216.617 100.639C214.733 102.146 213.777 104.531 214.099 106.922C214.679 111.227 214.969 115.625 214.947 120.094C214.691 171.888 172.358 213.945 120.563 213.876C98.9777 213.847 79.0933 206.562 63.2164 194.33C61.4796 192.992 59.0886 192.848 57.2111 193.98L57.1797 193.999C74.2998 208.631 96.5307 217.458 120.825 217.425C174.799 217.353 218.497 173.593 218.497 119.619Z"
          fill="#2CA483"/>
    <path d="M195.297 123.22C195.297 123.22 201.781 127.382 205.185 133.568C208.589 139.754 209.075 142.202 209.075 142.202C209.075 142.202 208.678 133.706 204.374 126.138C200.646 119.582 197.39 117.835 197.39 117.835L195.297 123.22Z"
          fill="#E6B584"/>
    <path d="M151.047 167.994C152.725 166.488 160.801 160.471 162.895 158.933C164.989 157.395 167.528 157.223 169.38 157.59C171.865 158.083 174.241 157.736 182.925 163.96C187.248 167.057 189.481 172.856 189.877 175.054C187.494 172.185 181.773 167.417 175.541 165.58C179.066 168.045 181.832 171.829 183.582 175.393C185.332 178.959 186.081 181.722 186.081 181.722C186.081 181.722 179.812 174.883 177.198 172.677C174.584 170.47 170.822 169.11 170.822 169.11C170.822 169.11 176.646 174.654 178.062 178.26C179.479 181.865 179.545 185.86 179.545 185.86C179.545 185.86 176.081 180.097 173.56 177.143C171.644 174.899 170.535 174.21 168.157 172.821C169.598 174.55 173.056 180.853 172.422 185.973C172.422 185.973 167.689 175.882 159.404 170.119C155.296 167.262 151.047 167.994 151.047 167.994Z"
          fill="#55E3AA"/>
    <path d="M51.627 68.073C54.0321 68.764 55.9358 70.6384 56.6654 73.0267C57.3951 70.6384 59.2991 68.764 61.704 68.073C59.2991 67.382 57.3951 65.5075 56.6654 63.1192C55.9358 65.5075 54.0321 67.382 51.627 68.073Z"
          fill="#55E3AA"/>
    <path d="M37.6504 87.2119C39.2735 87.6783 40.5581 88.943 41.0508 90.5551C41.5432 88.943 42.8278 87.6783 44.4509 87.2119C42.8278 86.7455 41.5432 85.4805 41.0508 83.8687C40.5581 85.4805 39.2735 86.7455 37.6504 87.2119Z"
          fill="#2CA483"/>
    <path d="M48.2266 108.318C49.8497 108.784 51.1343 110.049 51.6267 111.661C52.1194 110.049 53.404 108.784 55.0271 108.318C53.404 107.851 52.1194 106.587 51.6267 104.975C51.1343 106.587 49.8497 107.851 48.2266 108.318Z"
          fill="#55E3AA"/>
    <path d="M149.602 50.3255C151.224 50.7919 152.509 52.0569 153.002 53.6687C153.494 52.0569 154.779 50.7919 156.402 50.3255C154.779 49.8591 153.494 48.5944 153.002 46.9823C152.509 48.5944 151.224 49.8591 149.602 50.3255Z"
          fill="#55E3AA"/>
    <path d="M66.5664 55.6059C66.5664 54.6632 65.8022 53.8989 64.8594 53.8989C63.9166 53.8989 63.1523 54.6632 63.1523 55.6059C63.1523 56.5487 63.9166 57.313 64.8594 57.313C65.8022 57.313 66.5664 56.5487 66.5664 55.6059Z"
          fill="#2CA483"/>
    <path d="M161.604 41.4594C161.604 40.7353 161.017 40.1486 160.293 40.1486C159.569 40.1486 158.982 40.7353 158.982 41.4594C158.982 42.1835 159.569 42.7703 160.293 42.7703C161.017 42.7703 161.604 42.1835 161.604 41.4594Z"
          fill="#2CA483"/>
    <path d="M167.342 50.8703C167.342 50.1462 166.756 49.5595 166.032 49.5595C165.308 49.5595 164.721 50.1462 164.721 50.8703C164.721 51.5942 165.308 52.1812 166.032 52.1812C166.756 52.1812 167.342 51.5942 167.342 50.8703Z"
          fill="#2CA483"/>
    <path d="M60.7604 85.7581C60.7604 85.034 60.1736 84.4473 59.4495 84.4473C58.7257 84.4473 58.1387 85.034 58.1387 85.7581C58.1387 86.4822 58.7257 87.069 59.4495 87.069C60.1736 87.069 60.7604 86.4822 60.7604 85.7581Z"
          fill="#2CA483"/>
    <path d="M48.6169 147.917C49.0674 143.283 53.2824 142.569 53.2824 142.569C53.2824 142.569 50.808 145.728 51.5449 149.973C51.5745 150.143 51.6425 150.356 51.7376 150.598C51.7442 150.412 51.7567 150.219 51.7763 150.018C52.2267 145.384 56.4419 144.67 56.4419 144.67C56.4419 144.67 53.9675 147.829 54.7044 152.074C54.7339 152.244 54.8023 152.457 54.8971 152.699C54.9037 152.512 54.9162 152.319 54.9356 152.118C55.3862 147.485 59.6014 146.771 59.6014 146.771C59.6014 146.771 57.127 149.93 57.8639 154.174C57.8934 154.344 57.9615 154.558 58.0566 154.799C58.0632 154.613 58.0757 154.42 58.0951 154.219C58.5457 149.586 62.7609 148.872 62.7609 148.872C62.7609 148.872 60.2865 152.03 61.0234 156.275C61.0527 156.445 61.121 156.658 61.2158 156.9C61.2227 156.714 61.235 156.521 61.2546 156.32C61.7052 151.686 65.9204 150.972 65.9204 150.972C65.9204 150.972 63.446 154.131 64.1829 158.376C64.2122 158.546 64.2805 158.759 64.3755 159.001C64.3822 158.815 64.3945 158.622 64.4141 158.421C64.8644 153.787 69.0799 153.073 69.0799 153.073C69.0799 153.073 66.6053 156.232 67.3421 160.477C67.3717 160.647 67.44 160.86 67.5348 161.102C67.5414 160.916 67.5539 160.722 67.5733 160.521C68.0241 155.888 72.2392 155.174 72.2392 155.174C72.2392 155.174 69.7648 158.333 70.5016 162.577C70.5312 162.747 70.5993 162.961 70.6945 163.202C70.7009 163.016 70.7134 162.823 70.7331 162.622C71.1834 157.988 75.3987 157.274 75.3987 157.274C75.3987 157.274 72.9243 160.434 73.6611 164.678C73.6907 164.848 73.759 165.061 73.8538 165.303C73.8604 165.117 73.8729 164.924 73.8926 164.723C74.3429 160.089 78.5582 159.375 78.5582 159.375C78.5582 159.375 76.0837 162.534 76.8206 166.779C76.8502 166.949 76.9182 167.162 77.0133 167.404C77.0199 167.218 77.0324 167.025 77.0518 166.824C77.5024 162.19 81.7176 161.476 81.7176 161.476C81.7176 161.476 79.2432 164.635 79.9801 168.88C80.0094 169.05 80.0777 169.263 80.1728 169.505C80.1794 169.319 80.1919 169.125 80.2113 168.924C80.6619 164.291 84.8771 163.577 84.8771 163.577C84.8771 163.577 82.4025 166.736 83.1396 170.981C83.1689 171.15 83.237 171.364 83.3323 171.606C83.3389 171.419 83.3512 171.226 83.371 171.025C83.8214 166.392 88.0366 165.678 88.0366 165.678C88.0366 165.678 85.562 168.837 86.2988 173.081C86.3286 173.251 86.3967 173.464 86.4915 173.706C86.4984 173.52 86.5109 173.327 86.5303 173.126C86.9806 168.492 91.1961 167.778 91.1961 167.778C91.1961 167.778 88.7217 170.937 89.4586 175.182C89.4879 175.352 89.5562 175.565 89.6512 175.807C89.6576 175.621 89.6702 175.428 89.6898 175.227C90.1404 170.593 94.3554 169.879 94.3554 169.879C94.3554 169.879 91.881 173.038 92.6178 177.283C92.6474 177.453 92.7155 177.666 92.8107 177.908C92.8174 177.722 92.8296 177.528 92.8493 177.327C93.2998 172.694 97.5149 171.98 97.5149 171.98C97.5149 171.98 95.0405 175.139 95.7773 179.383C95.8069 179.554 95.8752 179.767 95.97 180.008C95.9766 179.822 95.9891 179.629 96.0088 179.428C96.4591 174.795 100.674 174.081 100.674 174.081C100.674 174.081 98.2 177.239 98.9368 181.484C98.9739 181.698 99.0713 181.979 99.2082 182.301C102.126 176.026 105.99 173.201 105.99 173.201C104.907 172.729 55.1491 138.727 55.1491 138.727C55.1491 138.727 53.4085 137.6 50.3951 141.304C48.1195 144.102 48.136 146.738 48.5975 148.209C48.6038 148.112 48.6069 148.018 48.6169 147.917Z"
          fill="#55E3AA"/>
    <path d="M68.3233 134.675C67.8455 134.26 31.7637 108.066 28.8266 106.308C26.0745 104.661 21.154 103.667 19.3711 104.645C20.2928 104.686 22.9807 105.97 25.1743 107.194C29.3843 109.544 36.5659 114.721 40.4393 117.55C41.3977 118.25 43.739 121.059 42.2131 124.046C41.7696 126.598 26.7853 147.443 26.7853 147.443C29.6543 146.956 31.3138 145.297 31.3138 145.297C31.3138 145.297 31.1429 147.427 29.2673 149.248C29.3966 149.23 29.5259 149.211 29.6543 149.189C32.5235 148.702 34.1828 147.044 34.1828 147.044C34.1828 147.044 34.0118 149.173 32.1362 150.994C32.2658 150.976 32.3951 150.957 32.5235 150.935C35.3924 150.448 37.0517 148.79 37.0517 148.79C37.0517 148.79 36.8808 150.92 35.0052 152.74C35.1348 152.722 35.2641 152.703 35.3924 152.681C38.2614 152.194 39.9207 150.536 39.9207 150.536C39.9207 150.536 39.7498 152.666 37.8742 154.487C38.0039 154.469 38.133 154.449 38.2614 154.428C41.1303 153.941 42.7899 152.282 42.7899 152.282C42.7899 152.282 42.619 154.412 40.7434 156.233C40.8727 156.215 41.002 156.196 41.1303 156.174C43.9993 155.687 45.6588 154.028 45.6588 154.028C45.6588 154.028 45.4879 156.158 43.6123 157.979C43.7419 157.961 43.8709 157.942 43.9993 157.92C46.8683 157.433 48.5278 155.775 48.5278 155.775C48.5278 155.775 48.3569 157.904 46.4813 159.725C46.6108 159.707 46.7401 159.688 46.8683 159.666C49.7372 159.179 51.3967 157.521 51.3967 157.521C51.3967 157.521 51.2258 159.651 49.3502 161.472C49.48 161.454 49.6088 161.434 49.7372 161.413C52.6064 160.925 54.2657 159.267 54.2657 159.267C54.2657 159.267 54.0948 161.397 52.2192 163.218C52.3487 163.2 52.478 163.18 52.6064 163.159C55.4754 162.672 57.1349 161.013 57.1349 161.013C57.1349 161.013 56.9826 162.906 55.3933 164.649C57.2644 164.661 58.5954 163.451 59.3046 162.625C60.3022 161.463 61.4144 159.869 61.4144 159.869C61.4144 159.869 50.462 152.471 47.9453 150.458C45.4283 148.445 46.2444 144.531 48.0543 141.821C49.8642 139.11 52.3052 135.204 55.9467 137.324C59.5885 139.444 69.3308 146.58 69.3308 146.58C69.3308 146.58 71.4199 144.044 71.7125 140.967C72.0052 137.891 68.801 135.09 68.3233 134.675Z"
          fill="#2CA483"/>
    <path d="M79.7899 84.1711C78.3408 81.7506 76.3845 77.8252 75.5328 74.1423C74.8035 70.9887 74.3385 67.7077 75.0364 64.8728C75.0512 68.781 76.3564 72.8733 77.5918 76.1358C78.9214 79.6471 81.1601 82.6796 83.8248 85.0084C73.4224 67.225 80.1577 56.5456 80.1577 56.5456C75.2631 57.4562 70.4859 61.9017 72.5934 71.113C74.3957 78.9892 79.5407 84.2241 80.931 85.7581C80.658 85.2796 80.1426 84.7602 79.7899 84.1711Z"
          fill="#55E3AA"/>
    <path d="M68.8777 69.2114C68.8148 69.5299 69.0661 74.0933 72.6447 79.1873C76.2233 84.2815 78.8602 86.0854 78.8602 86.0854C78.8602 86.0854 71.6183 82.5352 68.4867 76.9105C65.3551 71.2858 68.8777 69.2114 68.8777 69.2114Z"
          fill="#55E3AA"/>
    <path d="M88.0774 198.546C93.203 199.549 96.6207 199.722 100.664 199.148C100.664 199.148 93.8848 196.623 91.2667 194.667C88.6485 192.71 84.9451 189.543 83.977 187.51C91.0388 191.917 93.9432 189.885 93.9432 189.885C93.9432 189.885 90.5832 188.372 86.6772 184.973C83.5338 182.238 81.0726 179.546 81.0726 179.546C81.0726 179.546 87.5788 182.524 90.0558 182.248C85.0335 178.155 78.2443 173.051 76.9597 172.088C76.9297 173.169 77.2368 174.836 77.8226 176.308C78.5022 178.015 79.0502 178.584 79.0502 178.584L76.9297 176.877C76.9297 176.877 76.9751 180.654 77.9899 182.879C78.9436 184.969 80.7227 186.552 80.7227 186.552C80.7227 186.552 78.306 185.552 77.4916 184.028C77.3779 186.027 77.5507 188.889 78.6079 190.622C79.3601 191.855 80.4811 193.195 80.9192 193.944C79.4757 193.28 78.1717 191.67 78.1717 191.67C78.5174 196.21 80.5421 199.651 83.668 201.384C87.0077 203.235 91.8399 205.624 96.7339 207.04C105.576 209.598 109.375 208.67 109.375 208.67C102.03 206.906 96.3353 205.1 88.0774 198.546Z"
          fill="#2CA483"/>
    <path d="M107.029 130.064C107.029 130.064 113.225 127.254 117.908 124.012C122.59 120.771 123.905 118.771 123.905 118.771C123.905 118.771 120.573 127.311 113.873 131.245C107.173 135.179 107.029 130.064 107.029 130.064Z"
          fill="#55E3AA"/>
    <path d="M144.275 192.562C138.641 193.195 133.712 199.298 134.028 205.401C136.943 200.811 140.204 197.942 143.966 196.909C145.796 196.407 147.748 196.591 149.934 197.352C151.14 197.772 152.279 196.481 151.664 195.361C150.681 193.572 148.25 192.115 144.275 192.562Z"
          fill="#2CA483"/>
    <path d="M148.182 184.329C146.45 182.787 142.257 179.431 138.253 177.413C136.581 176.571 130.573 172.691 124.57 171.7C118.568 170.708 116.002 168.567 112.306 169.687C108.69 170.782 108.332 173.599 107.118 175.306C105.905 177.013 103.017 181.432 101.512 183.251C100.008 185.07 98.6553 186.763 99.6938 189.105C100.106 190.034 100.943 191.013 101.804 191.858C101.564 190.833 101.498 189.782 101.769 188.814C102.742 185.346 108.289 180.18 109.478 178.181C110.667 176.181 110.954 174.802 113.548 174.225C117.151 173.425 119.276 175.126 119.276 175.126C119.276 175.126 116.602 175.321 114.611 177.221C114.303 177.644 114.041 178.153 113.923 178.756C113.516 180.819 113.596 181.458 113.017 182.384C112.438 183.31 109.819 186.344 107.723 188.927C105.796 191.301 105.335 193.365 105.696 194.453C106.235 196.08 106.914 196.559 108.261 197.648C107.924 196.736 107.79 195.787 108.047 194.87C109.02 191.403 114.904 186.136 116.093 184.136C117.281 182.137 117.892 179.661 121.365 178.971C124.985 178.251 128.064 180.349 128.064 180.349C128.064 180.349 126.298 180.368 124.443 180.913C124.019 181.091 121.765 182.081 121.274 183.239C120.732 184.519 120.676 185.845 120.521 186.741C120.199 188.596 113.39 195.584 113.202 198.835C113.093 200.717 113.668 201.607 114.637 202.47C115.162 202.938 116.153 203.717 117.155 204.398C116.676 203.516 116.406 202.459 116.686 201.236C117.488 197.725 122.814 192.057 123.904 190.003C124.994 187.948 124.468 185.111 127.92 183.807C131.373 182.503 134.527 184.653 134.527 184.653C134.527 184.653 132.184 184.943 130.283 186.387C129.766 186.907 129.19 187.709 129.013 188.811C128.669 190.951 128.792 191.873 128.415 192.888C128.038 193.903 123.466 199.628 122.59 202.208C121.714 204.787 122.651 205.802 123.401 207.015C124.052 208.068 124.764 208.377 125.751 209.163C125.756 209.056 125.762 208.947 125.771 208.834C126.083 204.807 127.704 202.754 129.325 200.593C130.946 198.431 130.839 196.132 130.839 196.132C130.839 196.132 132.465 195.73 133.273 194.109C134.08 192.488 134.562 190.754 136.079 189.267C139.062 186.344 146.312 184.902 151.379 188.639C151.046 187.25 149.14 185.182 148.182 184.329Z"
          fill="#E6B584"/>
    <path d="M31.4825 130.683C31.4825 130.683 35.4344 121.813 37.4086 119.071C37.4778 118.975 37.5471 118.883 37.6169 118.793C37.6117 118.789 37.6065 118.785 37.6012 118.782C36.7559 118.207 35.6067 118.418 35.0214 119.255C32.0936 123.445 28.3875 128.698 28.3875 128.698C28.3875 128.698 32.3394 119.828 34.3136 117.086C34.4044 116.96 34.4957 116.841 34.5871 116.726C34.5819 116.722 34.5765 116.719 34.5713 116.715C33.7257 116.136 32.5728 116.346 31.9858 117.185C29.0495 121.388 25.2926 126.714 25.2926 126.714C25.2926 126.714 29.2447 117.844 31.2189 115.101C31.3331 114.942 31.4482 114.793 31.5638 114.651C31.5584 114.647 31.5532 114.643 31.5477 114.64C30.7012 114.057 29.5433 114.267 28.9549 115.109C26.0091 119.326 22.1979 124.729 22.1979 124.729C22.1979 124.729 26.1495 115.859 28.1237 113.116C28.2639 112.922 28.405 112.741 28.5469 112.572C28.5414 112.568 28.5358 112.565 28.5303 112.561C27.6805 111.974 26.5167 112.184 25.9254 113.031C22.9709 117.261 19.1029 122.744 19.1029 122.744C19.1029 122.744 23.0548 113.874 25.029 111.131C25.1947 110.901 25.3626 110.69 25.5304 110.495C25.524 110.49 25.5176 110.486 25.5113 110.482C24.655 109.894 23.4858 110.108 22.8912 110.959C19.9294 115.2 16.008 120.759 16.008 120.759C16.008 120.759 19.9599 111.889 21.934 109.147C22.1083 108.905 22.2844 108.684 22.4607 108.48C22.4546 108.476 22.4482 108.472 22.4421 108.469C21.5459 107.911 20.371 108.151 19.7667 109.016C16.8084 113.252 12.913 118.775 12.913 118.775C12.913 118.775 16.8649 109.905 18.8391 107.162C18.9649 106.987 19.0916 106.823 19.2188 106.669C18.8221 106.528 18.4325 106.445 18.0072 106.424C15.9167 106.318 15.8869 106.838 14.4423 108.617C12.9976 110.397 4.78911 125.476 3.86856 127.016C3.19199 128.148 1.74711 131.308 3.54848 133.3C3.58819 133.027 3.61183 132.864 3.61183 132.864C4.36099 130.143 6.28765 128.875 6.28765 128.875C6.28765 128.875 5.58034 131.307 6.60986 134.276C6.65573 134.408 6.70466 134.541 6.75501 134.672C7.50393 131.951 9.43083 130.683 9.43083 130.683C9.43083 130.683 8.72352 133.116 9.75281 136.084C9.7989 136.216 9.84784 136.349 9.89819 136.48C10.6471 133.759 12.574 132.491 12.574 132.491C12.574 132.491 11.8665 134.924 12.896 137.892C12.9421 138.025 12.991 138.157 13.0414 138.289C13.7905 135.568 15.717 134.299 15.717 134.299C15.717 134.299 15.0096 136.732 16.0392 139.7C16.085 139.833 16.1342 139.965 16.1846 140.097C16.9335 137.376 18.8601 136.108 18.8601 136.108C18.8601 136.108 18.1528 138.54 19.1823 141.508C19.2284 141.641 19.2774 141.773 19.3275 141.905C20.0764 139.184 22.0033 137.916 22.0033 137.916C22.0033 137.916 21.296 140.348 22.3255 143.316C22.3716 143.449 22.4206 143.581 22.4707 143.713C23.2198 140.992 25.1465 139.724 25.1465 139.724C25.1465 139.724 24.4392 142.156 25.4687 145.125C25.5146 145.257 25.5637 145.39 25.6141 145.522C30.1849 138.468 34.0342 132.614 39.2754 124.135C40.3196 122.788 40.2882 121.191 39.0511 119.901C36.0516 124.206 31.4825 130.683 31.4825 130.683Z"
          fill="#55E3AA"/>
    <path d="M90.4241 40.4444C90.4241 40.4444 90.9645 40.1203 92.4413 39.1837C93.9181 38.247 95.2436 35.8648 95.2436 35.8648C95.2436 35.8648 91.5768 36.3019 91.4688 36.3379C91.3608 36.374 92.7654 35.7615 93.9902 34.8973C95.215 34.0327 96.8095 32.325 96.8095 32.325L93.1619 32.6219C93.1619 32.6219 94.4583 32.0155 95.8632 31.2591C97.2682 30.5026 99.869 28.2088 99.869 28.2088L96.1873 28.5565C96.1873 28.5565 98.6369 27.657 100.474 26.9367C102.544 26.1249 103.797 24.2351 107.345 22.5271C107.345 22.5271 97.2034 24.1706 92.4004 30.5841C88.3521 35.9897 87.9859 44.4526 88.3195 45.9528C88.7892 44.6949 90.0076 44.1573 91.2598 43.9214C92.8163 43.628 93.9758 42.3141 94.1448 40.7392C94.1782 40.4283 94.2221 40.0952 94.2765 39.7465L90.4241 40.4444Z"
          fill="#55E3AA"/>
    <path d="M103.713 26.6409C94.7173 33.8471 95.6447 43.3584 95.708 43.6305H97.9439C99.7945 43.6305 101.376 42.2738 101.63 40.4407C101.692 39.9939 101.772 39.5103 101.876 38.9987L98.42 39.3996C98.42 39.3996 99.1716 38.7462 100.216 38.1339C100.876 37.747 102.472 36.5271 102.903 35.4033H99.3567C99.3567 35.4033 99.8198 35.3704 101.513 34.6139C102.83 34.0255 104.147 32.6218 104.428 31.7632H101.05C101.05 31.7632 101.682 31.3509 103.627 30.5585C105.573 29.7661 107.343 28.0531 107.343 28.0531H104.6C104.6 28.0531 105.141 27.9451 106.681 27.4768C108.22 27.0087 111.197 25.0995 111.197 25.0995H108.326C108.326 25.0995 110.583 24.6629 112.608 24.1837C113.044 24.0806 113.471 23.9424 113.883 23.7674C117.938 22.0452 121.374 22.0923 121.374 22.0923C121.374 22.0923 112.708 19.4347 103.713 26.6409Z"
          fill="#55E3AA"/>
    <path d="M34.6304 155.697C35.3431 156.142 35.8786 156.819 36.1457 157.616C36.7786 159.503 38.0584 163.163 39.2556 165.634C40.9307 169.092 46.9282 174.658 46.9282 174.658C46.9282 174.658 41.417 172.604 37.4726 168.768C33.5283 164.932 32.5557 162.068 31.9614 159.853C31.3671 157.638 30.9023 153.368 30.9023 153.368L34.6304 155.697Z"
          fill="#E6B584"/>
    <path d="M43.6525 160.84L48.6937 163.779C48.6937 163.779 48.8396 165.31 48.6937 165.905C48.5479 166.499 48.351 166.742 48.351 166.742C48.351 166.742 49.6557 165.526 50.4119 165.878C51.1684 166.229 51.8438 166.985 52.1409 167.958C52.4381 168.93 52.3301 169.795 52.1409 170.659C51.9518 171.524 51.8707 171.821 51.8707 171.821C51.8707 171.821 53.8428 169.678 54.8156 169.736C55.7879 169.795 55.1394 169.876 57.1793 171.497C59.219 173.118 64.7177 176.363 66.2432 178.251L67.7682 180.138C67.7682 180.138 63.9196 178.44 60.5968 177.224C57.2739 176.008 51.8428 174.847 49.4793 172.658C47.116 170.47 44.7144 167.312 44.1714 164.824C43.6282 162.336 43.6525 160.84 43.6525 160.84Z"
          fill="#E6B584"/>
    <path d="M54.8027 177.755C54.8027 177.755 60.1059 181.574 66.2793 182.006C72.4529 182.438 74.9743 179.881 74.9743 179.881C74.9743 179.881 75.6228 184.455 68.2024 186.04C60.782 187.625 54.8027 177.755 54.8027 177.755Z"
          fill="#2CA483"/>
</svg>
