<svg width="444" height="447" viewBox="0 0 444 447" fill="none" xmlns="http://www.w3.org/2000/svg">
    <path d="M240.093 40L240.075 31.648L235.935 38.56H234.891L230.751 31.756V40H228.537V27.4H230.463L235.449 35.734L240.381 27.4H242.289L242.325 40H240.093ZM250.639 33.556C251.863 33.556 252.799 33.832 253.447 34.384C254.095 34.936 254.419 35.716 254.419 36.724C254.419 37.78 254.059 38.596 253.339 39.172C252.631 39.748 251.623 40.03 250.315 40.018L245.959 40V30.388H248.209V33.538L250.639 33.556ZM255.661 30.388H257.911V40H255.661V30.388ZM250.117 38.362C250.777 38.374 251.281 38.236 251.629 37.948C251.977 37.66 252.151 37.24 252.151 36.688C252.151 36.148 251.983 35.752 251.647 35.5C251.311 35.248 250.801 35.116 250.117 35.104L248.209 35.086V38.344L250.117 38.362ZM276.08 40V33.628L272.84 38.992H271.868L268.682 33.61V40H266.63V30.388H268.988L272.408 36.4L275.99 30.388H278.096L278.114 40H276.08ZM285.776 40.126C284.804 40.126 283.928 39.916 283.148 39.496C282.368 39.076 281.756 38.494 281.312 37.75C280.88 36.994 280.664 36.142 280.664 35.194C280.664 34.246 280.88 33.4 281.312 32.656C281.756 31.912 282.368 31.33 283.148 30.91C283.928 30.49 284.804 30.28 285.776 30.28C286.76 30.28 287.642 30.49 288.422 30.91C289.202 31.33 289.808 31.912 290.24 32.656C290.684 33.4 290.906 34.246 290.906 35.194C290.906 36.142 290.684 36.994 290.24 37.75C289.808 38.494 289.202 39.076 288.422 39.496C287.642 39.916 286.76 40.126 285.776 40.126ZM285.776 38.2C286.604 38.2 287.288 37.924 287.828 37.372C288.368 36.82 288.638 36.094 288.638 35.194C288.638 34.294 288.368 33.568 287.828 33.016C287.288 32.464 286.604 32.188 285.776 32.188C284.948 32.188 284.264 32.464 283.724 33.016C283.196 33.568 282.932 34.294 282.932 35.194C282.932 36.094 283.196 36.82 283.724 37.372C284.264 37.924 284.948 38.2 285.776 38.2ZM302.298 36.148H300.678V40H298.446V36.148H296.826L294.486 40H291.822L294.972 35.032L292.056 30.388H294.45L296.79 34.276H298.446V30.388H300.678V34.276H302.316L304.674 30.388H307.068L304.152 35.032L307.32 40H304.638L302.298 36.148ZM318.036 35.248C318.036 35.404 318.024 35.626 318 35.914H310.458C310.59 36.622 310.932 37.186 311.484 37.606C312.048 38.014 312.744 38.218 313.572 38.218C314.628 38.218 315.498 37.87 316.182 37.174L317.388 38.56C316.956 39.076 316.41 39.466 315.75 39.73C315.09 39.994 314.346 40.126 313.518 40.126C312.462 40.126 311.532 39.916 310.728 39.496C309.924 39.076 309.3 38.494 308.856 37.75C308.424 36.994 308.208 36.142 308.208 35.194C308.208 34.258 308.418 33.418 308.838 32.674C309.27 31.918 309.864 31.33 310.62 30.91C311.376 30.49 312.228 30.28 313.176 30.28C314.112 30.28 314.946 30.49 315.678 30.91C316.422 31.318 316.998 31.9 317.406 32.656C317.826 33.4 318.036 34.264 318.036 35.248ZM313.176 32.08C312.456 32.08 311.844 32.296 311.34 32.728C310.848 33.148 310.548 33.712 310.44 34.42H315.894C315.798 33.724 315.504 33.16 315.012 32.728C314.52 32.296 313.908 32.08 313.176 32.08ZM330.307 40V33.628L327.067 38.992H326.095L322.909 33.61V40H320.857V30.388H323.215L326.635 36.4L330.217 30.388H332.323L332.341 40H330.307ZM345.428 40.126C344.432 40.126 343.538 39.916 342.746 39.496C341.954 39.076 341.336 38.494 340.892 37.75C340.448 36.994 340.226 36.142 340.226 35.194C340.226 34.246 340.448 33.4 340.892 32.656C341.336 31.912 341.948 31.33 342.728 30.91C343.52 30.49 344.42 30.28 345.428 30.28C346.376 30.28 347.204 30.472 347.912 30.856C348.632 31.24 349.172 31.792 349.532 32.512L347.804 33.52C347.528 33.076 347.18 32.746 346.76 32.53C346.352 32.302 345.902 32.188 345.41 32.188C344.57 32.188 343.874 32.464 343.322 33.016C342.77 33.556 342.494 34.282 342.494 35.194C342.494 36.106 342.764 36.838 343.304 37.39C343.856 37.93 344.558 38.2 345.41 38.2C345.902 38.2 346.352 38.092 346.76 37.876C347.18 37.648 347.528 37.312 347.804 36.868L349.532 37.876C349.16 38.596 348.614 39.154 347.894 39.55C347.186 39.934 346.364 40.126 345.428 40.126ZM361.922 38.092V42.142H359.816V40H352.4V42.142H350.312V38.092H350.762C351.374 38.068 351.788 37.678 352.004 36.922C352.232 36.154 352.382 35.074 352.454 33.682L352.58 30.388H360.5V38.092H361.922ZM354.506 33.844C354.458 34.948 354.368 35.848 354.236 36.544C354.104 37.24 353.864 37.756 353.516 38.092H358.25V32.296H354.56L354.506 33.844ZM373.291 35.248C373.291 35.404 373.279 35.626 373.255 35.914H365.713C365.845 36.622 366.187 37.186 366.739 37.606C367.303 38.014 367.999 38.218 368.827 38.218C369.883 38.218 370.753 37.87 371.437 37.174L372.643 38.56C372.211 39.076 371.665 39.466 371.005 39.73C370.345 39.994 369.601 40.126 368.773 40.126C367.717 40.126 366.787 39.916 365.983 39.496C365.179 39.076 364.555 38.494 364.111 37.75C363.679 36.994 363.463 36.142 363.463 35.194C363.463 34.258 363.673 33.418 364.093 32.674C364.525 31.918 365.119 31.33 365.875 30.91C366.631 30.49 367.483 30.28 368.431 30.28C369.367 30.28 370.201 30.49 370.933 30.91C371.677 31.318 372.253 31.9 372.661 32.656C373.081 33.4 373.291 34.264 373.291 35.248ZM368.431 32.08C367.711 32.08 367.099 32.296 366.595 32.728C366.103 33.148 365.803 33.712 365.695 34.42H371.149C371.053 33.724 370.759 33.16 370.267 32.728C369.775 32.296 369.163 32.08 368.431 32.08ZM384.701 30.388V40H382.451V32.296H378.851L378.761 34.204C378.701 35.476 378.581 36.544 378.401 37.408C378.233 38.26 377.939 38.938 377.519 39.442C377.111 39.934 376.547 40.18 375.827 40.18C375.491 40.18 375.077 40.114 374.585 39.982L374.693 38.092C374.861 38.128 375.005 38.146 375.125 38.146C375.581 38.146 375.923 37.966 376.151 37.606C376.379 37.234 376.523 36.796 376.583 36.292C376.655 35.776 376.715 35.044 376.763 34.096L376.925 30.388H384.701ZM391.673 30.28C393.089 30.28 394.169 30.622 394.913 31.306C395.669 31.978 396.047 32.998 396.047 34.366V40H393.923V38.83C393.647 39.25 393.251 39.574 392.735 39.802C392.231 40.018 391.619 40.126 390.899 40.126C390.179 40.126 389.549 40.006 389.009 39.766C388.469 39.514 388.049 39.172 387.749 38.74C387.461 38.296 387.317 37.798 387.317 37.246C387.317 36.382 387.635 35.692 388.271 35.176C388.919 34.648 389.933 34.384 391.313 34.384H393.797V34.24C393.797 33.568 393.593 33.052 393.185 32.692C392.789 32.332 392.195 32.152 391.403 32.152C390.863 32.152 390.329 32.236 389.801 32.404C389.285 32.572 388.847 32.806 388.487 33.106L387.605 31.468C388.109 31.084 388.715 30.79 389.423 30.586C390.131 30.382 390.881 30.28 391.673 30.28ZM391.367 38.488C391.931 38.488 392.429 38.362 392.861 38.11C393.305 37.846 393.617 37.474 393.797 36.994V35.878H391.475C390.179 35.878 389.531 36.304 389.531 37.156C389.531 37.564 389.693 37.888 390.017 38.128C390.341 38.368 390.791 38.488 391.367 38.488ZM406.806 32.296H403.44V40H401.19V32.296H397.806V30.388H406.806V32.296ZM413.622 33.556C414.846 33.556 415.782 33.832 416.43 34.384C417.09 34.936 417.42 35.716 417.42 36.724C417.42 37.78 417.06 38.596 416.34 39.172C415.62 39.748 414.606 40.03 413.298 40.018L408.798 40V30.388H411.048V33.538L413.622 33.556ZM413.1 38.362C413.76 38.374 414.264 38.236 414.612 37.948C414.96 37.66 415.134 37.24 415.134 36.688C415.134 36.148 414.966 35.752 414.63 35.5C414.294 35.248 413.784 35.116 413.1 35.104L411.048 35.086V38.344L413.1 38.362ZM237.522 53.388H239.772V59.724L245.082 53.388H247.134V63H244.884V56.664L239.592 63H237.522V53.388ZM256.139 57.996C256.739 58.164 257.201 58.44 257.525 58.824C257.861 59.196 258.029 59.646 258.029 60.174C258.029 60.762 257.831 61.284 257.435 61.74C257.039 62.184 256.493 62.532 255.797 62.784C255.101 63.036 254.309 63.162 253.421 63.162C252.677 63.162 251.951 63.078 251.243 62.91C250.535 62.73 249.893 62.478 249.317 62.154L249.965 60.48C250.433 60.744 250.961 60.948 251.549 61.092C252.137 61.236 252.725 61.308 253.313 61.308C254.069 61.308 254.657 61.194 255.077 60.966C255.509 60.726 255.725 60.402 255.725 59.994C255.725 59.622 255.557 59.334 255.221 59.13C254.897 58.926 254.435 58.824 253.835 58.824H251.963V57.312H253.655C254.219 57.312 254.657 57.216 254.969 57.024C255.293 56.832 255.455 56.562 255.455 56.214C255.455 55.866 255.263 55.59 254.879 55.386C254.495 55.182 253.967 55.08 253.295 55.08C252.335 55.08 251.321 55.314 250.253 55.782L249.677 54.126C250.937 53.538 252.209 53.244 253.493 53.244C254.309 53.244 255.041 53.358 255.689 53.586C256.337 53.802 256.841 54.114 257.201 54.522C257.573 54.918 257.759 55.374 257.759 55.89C257.759 56.358 257.615 56.778 257.327 57.15C257.039 57.51 256.643 57.792 256.139 57.996ZM270.984 61.092V65.142H268.878V63H261.462V65.142H259.374V61.092H259.824C260.436 61.068 260.85 60.678 261.066 59.922C261.294 59.154 261.444 58.074 261.516 56.682L261.642 53.388H269.562V61.092H270.984ZM263.568 56.844C263.52 57.948 263.43 58.848 263.298 59.544C263.166 60.24 262.926 60.756 262.578 61.092H267.312V55.296H263.622L263.568 56.844ZM282.354 58.248C282.354 58.404 282.342 58.626 282.318 58.914H274.776C274.908 59.622 275.25 60.186 275.802 60.606C276.366 61.014 277.062 61.218 277.89 61.218C278.946 61.218 279.816 60.87 280.5 60.174L281.706 61.56C281.274 62.076 280.728 62.466 280.068 62.73C279.408 62.994 278.664 63.126 277.836 63.126C276.78 63.126 275.85 62.916 275.046 62.496C274.242 62.076 273.618 61.494 273.174 60.75C272.742 59.994 272.526 59.142 272.526 58.194C272.526 57.258 272.736 56.418 273.156 55.674C273.588 54.918 274.182 54.33 274.938 53.91C275.694 53.49 276.546 53.28 277.494 53.28C278.43 53.28 279.264 53.49 279.996 53.91C280.74 54.318 281.316 54.9 281.724 55.656C282.144 56.4 282.354 57.264 282.354 58.248ZM277.494 55.08C276.774 55.08 276.162 55.296 275.658 55.728C275.166 56.148 274.866 56.712 274.758 57.42H280.212C280.116 56.724 279.822 56.16 279.33 55.728C278.838 55.296 278.226 55.08 277.494 55.08ZM293.763 53.388V63H291.513V55.296H287.913L287.823 57.204C287.763 58.476 287.643 59.544 287.463 60.408C287.295 61.26 287.001 61.938 286.581 62.442C286.173 62.934 285.609 63.18 284.889 63.18C284.553 63.18 284.139 63.114 283.647 62.982L283.755 61.092C283.923 61.128 284.067 61.146 284.187 61.146C284.643 61.146 284.985 60.966 285.213 60.606C285.441 60.234 285.585 59.796 285.645 59.292C285.717 58.776 285.777 58.044 285.825 57.096L285.987 53.388H293.763ZM297.154 53.388H299.404V59.724L304.714 53.388H306.766V63H304.516V56.664L299.224 63H297.154V53.388ZM319.152 58.248C319.152 58.404 319.14 58.626 319.116 58.914H311.574C311.706 59.622 312.048 60.186 312.6 60.606C313.164 61.014 313.86 61.218 314.688 61.218C315.744 61.218 316.614 60.87 317.298 60.174L318.504 61.56C318.072 62.076 317.526 62.466 316.866 62.73C316.206 62.994 315.462 63.126 314.634 63.126C313.578 63.126 312.648 62.916 311.844 62.496C311.04 62.076 310.416 61.494 309.972 60.75C309.54 59.994 309.324 59.142 309.324 58.194C309.324 57.258 309.534 56.418 309.954 55.674C310.386 54.918 310.98 54.33 311.736 53.91C312.492 53.49 313.344 53.28 314.292 53.28C315.228 53.28 316.062 53.49 316.794 53.91C317.538 54.318 318.114 54.9 318.522 55.656C318.942 56.4 319.152 57.264 319.152 58.248ZM314.292 55.08C313.572 55.08 312.96 55.296 312.456 55.728C311.964 56.148 311.664 56.712 311.556 57.42H317.01C316.914 56.724 316.62 56.16 316.128 55.728C315.636 55.296 315.024 55.08 314.292 55.08ZM327.308 53.388H329.558V57.294H334.4V53.388H336.65V63H334.4V59.202H329.558V63H327.308V53.388ZM343.607 53.28C345.023 53.28 346.103 53.622 346.847 54.306C347.603 54.978 347.981 55.998 347.981 57.366V63H345.857V61.83C345.581 62.25 345.185 62.574 344.669 62.802C344.165 63.018 343.553 63.126 342.833 63.126C342.113 63.126 341.483 63.006 340.943 62.766C340.403 62.514 339.983 62.172 339.683 61.74C339.395 61.296 339.251 60.798 339.251 60.246C339.251 59.382 339.569 58.692 340.205 58.176C340.853 57.648 341.867 57.384 343.247 57.384H345.731V57.24C345.731 56.568 345.527 56.052 345.119 55.692C344.723 55.332 344.129 55.152 343.337 55.152C342.797 55.152 342.263 55.236 341.735 55.404C341.219 55.572 340.781 55.806 340.421 56.106L339.539 54.468C340.043 54.084 340.649 53.79 341.357 53.586C342.065 53.382 342.815 53.28 343.607 53.28ZM343.301 61.488C343.865 61.488 344.363 61.362 344.795 61.11C345.239 60.846 345.551 60.474 345.731 59.994V58.878H343.409C342.113 58.878 341.465 59.304 341.465 60.156C341.465 60.564 341.627 60.888 341.951 61.128C342.275 61.368 342.725 61.488 343.301 61.488ZM362.202 57.996C362.802 58.164 363.264 58.44 363.588 58.824C363.924 59.196 364.092 59.646 364.092 60.174C364.092 60.762 363.894 61.284 363.498 61.74C363.102 62.184 362.556 62.532 361.86 62.784C361.164 63.036 360.372 63.162 359.484 63.162C358.74 63.162 358.014 63.078 357.306 62.91C356.598 62.73 355.956 62.478 355.38 62.154L356.028 60.48C356.496 60.744 357.024 60.948 357.612 61.092C358.2 61.236 358.788 61.308 359.376 61.308C360.132 61.308 360.72 61.194 361.14 60.966C361.572 60.726 361.788 60.402 361.788 59.994C361.788 59.622 361.62 59.334 361.284 59.13C360.96 58.926 360.498 58.824 359.898 58.824H358.026V57.312H359.718C360.282 57.312 360.72 57.216 361.032 57.024C361.356 56.832 361.518 56.562 361.518 56.214C361.518 55.866 361.326 55.59 360.942 55.386C360.558 55.182 360.03 55.08 359.358 55.08C358.398 55.08 357.384 55.314 356.316 55.782L355.74 54.126C357 53.538 358.272 53.244 359.556 53.244C360.372 53.244 361.104 53.358 361.752 53.586C362.4 53.802 362.904 54.114 363.264 54.522C363.636 54.918 363.822 55.374 363.822 55.89C363.822 56.358 363.678 56.778 363.39 57.15C363.102 57.51 362.706 57.792 362.202 57.996ZM370.369 53.28C371.785 53.28 372.865 53.622 373.609 54.306C374.365 54.978 374.743 55.998 374.743 57.366V63H372.619V61.83C372.343 62.25 371.947 62.574 371.431 62.802C370.927 63.018 370.315 63.126 369.595 63.126C368.875 63.126 368.245 63.006 367.705 62.766C367.165 62.514 366.745 62.172 366.445 61.74C366.157 61.296 366.013 60.798 366.013 60.246C366.013 59.382 366.331 58.692 366.967 58.176C367.615 57.648 368.629 57.384 370.009 57.384H372.493V57.24C372.493 56.568 372.289 56.052 371.881 55.692C371.485 55.332 370.891 55.152 370.099 55.152C369.559 55.152 369.025 55.236 368.497 55.404C367.981 55.572 367.543 55.806 367.183 56.106L366.301 54.468C366.805 54.084 367.411 53.79 368.119 53.586C368.827 53.382 369.577 53.28 370.369 53.28ZM370.063 61.488C370.627 61.488 371.125 61.362 371.557 61.11C372.001 60.846 372.313 60.474 372.493 59.994V58.878H370.171C368.875 58.878 368.227 59.304 368.227 60.156C368.227 60.564 368.389 60.888 368.713 61.128C369.037 61.368 369.487 61.488 370.063 61.488ZM381.883 59.148H380.137V63H377.887V53.388H380.137V57.276H381.937L384.781 53.388H387.193L383.701 58.014L387.427 63H384.781L381.883 59.148ZM392.78 53.28C394.196 53.28 395.276 53.622 396.02 54.306C396.776 54.978 397.154 55.998 397.154 57.366V63H395.03V61.83C394.754 62.25 394.358 62.574 393.842 62.802C393.338 63.018 392.726 63.126 392.006 63.126C391.286 63.126 390.656 63.006 390.116 62.766C389.576 62.514 389.156 62.172 388.856 61.74C388.568 61.296 388.424 60.798 388.424 60.246C388.424 59.382 388.742 58.692 389.378 58.176C390.026 57.648 391.04 57.384 392.42 57.384H394.904V57.24C394.904 56.568 394.7 56.052 394.292 55.692C393.896 55.332 393.302 55.152 392.51 55.152C391.97 55.152 391.436 55.236 390.908 55.404C390.392 55.572 389.954 55.806 389.594 56.106L388.712 54.468C389.216 54.084 389.822 53.79 390.53 53.586C391.238 53.382 391.988 53.28 392.78 53.28ZM392.474 61.488C393.038 61.488 393.536 61.362 393.968 61.11C394.412 60.846 394.724 60.474 394.904 59.994V58.878H392.582C391.286 58.878 390.638 59.304 390.638 60.156C390.638 60.564 390.8 60.888 391.124 61.128C391.448 61.368 391.898 61.488 392.474 61.488ZM405.918 57.996C406.518 58.164 406.98 58.44 407.304 58.824C407.64 59.196 407.808 59.646 407.808 60.174C407.808 60.762 407.61 61.284 407.214 61.74C406.818 62.184 406.272 62.532 405.576 62.784C404.88 63.036 404.088 63.162 403.2 63.162C402.456 63.162 401.73 63.078 401.022 62.91C400.314 62.73 399.672 62.478 399.096 62.154L399.744 60.48C400.212 60.744 400.74 60.948 401.328 61.092C401.916 61.236 402.504 61.308 403.092 61.308C403.848 61.308 404.436 61.194 404.856 60.966C405.288 60.726 405.504 60.402 405.504 59.994C405.504 59.622 405.336 59.334 405 59.13C404.676 58.926 404.214 58.824 403.614 58.824H401.742V57.312H403.434C403.998 57.312 404.436 57.216 404.748 57.024C405.072 56.832 405.234 56.562 405.234 56.214C405.234 55.866 405.042 55.59 404.658 55.386C404.274 55.182 403.746 55.08 403.074 55.08C402.114 55.08 401.1 55.314 400.032 55.782L399.456 54.126C400.716 53.538 401.988 53.244 403.272 53.244C404.088 53.244 404.82 53.358 405.468 53.586C406.116 53.802 406.62 54.114 406.98 54.522C407.352 54.918 407.538 55.374 407.538 55.89C407.538 56.358 407.394 56.778 407.106 57.15C406.818 57.51 406.422 57.792 405.918 57.996ZM229.198 76.388H231.448V82.724L236.758 76.388H238.81V86H236.56V79.664L231.268 86H229.198V76.388ZM247.816 80.996C248.416 81.164 248.878 81.44 249.202 81.824C249.538 82.196 249.706 82.646 249.706 83.174C249.706 83.762 249.508 84.284 249.112 84.74C248.716 85.184 248.17 85.532 247.474 85.784C246.778 86.036 245.986 86.162 245.098 86.162C244.354 86.162 243.628 86.078 242.92 85.91C242.212 85.73 241.57 85.478 240.994 85.154L241.642 83.48C242.11 83.744 242.638 83.948 243.226 84.092C243.814 84.236 244.402 84.308 244.99 84.308C245.746 84.308 246.334 84.194 246.754 83.966C247.186 83.726 247.402 83.402 247.402 82.994C247.402 82.622 247.234 82.334 246.898 82.13C246.574 81.926 246.112 81.824 245.512 81.824H243.64V80.312H245.332C245.896 80.312 246.334 80.216 246.646 80.024C246.97 79.832 247.132 79.562 247.132 79.214C247.132 78.866 246.94 78.59 246.556 78.386C246.172 78.182 245.644 78.08 244.972 78.08C244.012 78.08 242.998 78.314 241.93 78.782L241.354 77.126C242.614 76.538 243.886 76.244 245.17 76.244C245.986 76.244 246.718 76.358 247.366 76.586C248.014 76.802 248.518 77.114 248.878 77.522C249.25 77.918 249.436 78.374 249.436 78.89C249.436 79.358 249.292 79.778 249.004 80.15C248.716 80.51 248.32 80.792 247.816 80.996ZM266.447 76.388V86H264.197V78.296H260.597L260.507 80.204C260.447 81.476 260.327 82.544 260.147 83.408C259.979 84.26 259.685 84.938 259.265 85.442C258.857 85.934 258.293 86.18 257.573 86.18C257.237 86.18 256.823 86.114 256.331 85.982L256.439 84.092C256.607 84.128 256.751 84.146 256.871 84.146C257.327 84.146 257.669 83.966 257.897 83.606C258.125 83.234 258.269 82.796 258.329 82.292C258.401 81.776 258.461 81.044 258.509 80.096L258.671 76.388H266.447ZM278.622 76.28C279.582 76.28 280.44 76.49 281.196 76.91C281.952 77.318 282.546 77.9 282.978 78.656C283.41 79.4 283.626 80.246 283.626 81.194C283.626 82.142 283.41 82.994 282.978 83.75C282.546 84.494 281.952 85.076 281.196 85.496C280.44 85.916 279.582 86.126 278.622 86.126C277.782 86.126 277.014 85.964 276.318 85.64C275.622 85.304 275.046 84.836 274.59 84.236C274.134 83.624 273.84 82.928 273.708 82.148H272.088V86H269.838V76.388H272.088V80.114H273.744C273.888 79.358 274.188 78.692 274.644 78.116C275.1 77.528 275.67 77.078 276.354 76.766C277.038 76.442 277.794 76.28 278.622 76.28ZM278.622 84.218C279.15 84.218 279.624 84.098 280.044 83.858C280.464 83.606 280.794 83.252 281.034 82.796C281.274 82.328 281.394 81.794 281.394 81.194C281.394 80.282 281.13 79.556 280.602 79.016C280.086 78.464 279.426 78.188 278.622 78.188C277.818 78.188 277.158 78.464 276.642 79.016C276.126 79.556 275.868 80.282 275.868 81.194C275.868 82.106 276.126 82.838 276.642 83.39C277.17 83.942 277.83 84.218 278.622 84.218ZM291.396 76.856C292.308 76.856 293.112 77.054 293.808 77.45C294.504 77.834 295.044 78.374 295.428 79.07C295.824 79.766 296.022 80.564 296.022 81.464C296.022 82.388 295.806 83.21 295.374 83.93C294.942 84.638 294.336 85.19 293.556 85.586C292.776 85.982 291.888 86.18 290.892 86.18C289.224 86.18 287.934 85.628 287.022 84.524C286.11 83.42 285.654 81.83 285.654 79.754C285.654 77.822 286.068 76.292 286.896 75.164C287.724 74.036 288.99 73.292 290.694 72.932L295.158 71.978L295.482 73.994L291.432 74.822C290.268 75.062 289.398 75.47 288.822 76.046C288.246 76.622 287.91 77.432 287.814 78.476C288.246 77.96 288.768 77.564 289.38 77.288C289.992 77 290.664 76.856 291.396 76.856ZM290.946 84.362C291.774 84.362 292.44 84.098 292.944 83.57C293.46 83.03 293.718 82.346 293.718 81.518C293.718 80.69 293.46 80.024 292.944 79.52C292.44 79.016 291.774 78.764 290.946 78.764C290.106 78.764 289.428 79.016 288.912 79.52C288.396 80.024 288.138 80.69 288.138 81.518C288.138 82.358 288.396 83.042 288.912 83.57C289.44 84.098 290.118 84.362 290.946 84.362ZM302.844 86.126C301.872 86.126 300.996 85.916 300.216 85.496C299.436 85.076 298.824 84.494 298.38 83.75C297.948 82.994 297.732 82.142 297.732 81.194C297.732 80.246 297.948 79.4 298.38 78.656C298.824 77.912 299.436 77.33 300.216 76.91C300.996 76.49 301.872 76.28 302.844 76.28C303.828 76.28 304.71 76.49 305.49 76.91C306.27 77.33 306.876 77.912 307.308 78.656C307.752 79.4 307.974 80.246 307.974 81.194C307.974 82.142 307.752 82.994 307.308 83.75C306.876 84.494 306.27 85.076 305.49 85.496C304.71 85.916 303.828 86.126 302.844 86.126ZM302.844 84.2C303.672 84.2 304.356 83.924 304.896 83.372C305.436 82.82 305.706 82.094 305.706 81.194C305.706 80.294 305.436 79.568 304.896 79.016C304.356 78.464 303.672 78.188 302.844 78.188C302.016 78.188 301.332 78.464 300.792 79.016C300.264 79.568 300 80.294 300 81.194C300 82.094 300.264 82.82 300.792 83.372C301.332 83.924 302.016 84.2 302.844 84.2ZM317.936 78.296H312.806V86H310.556V76.388H317.936V78.296ZM323.796 86.126C322.824 86.126 321.948 85.916 321.168 85.496C320.388 85.076 319.776 84.494 319.332 83.75C318.9 82.994 318.684 82.142 318.684 81.194C318.684 80.246 318.9 79.4 319.332 78.656C319.776 77.912 320.388 77.33 321.168 76.91C321.948 76.49 322.824 76.28 323.796 76.28C324.78 76.28 325.662 76.49 326.442 76.91C327.222 77.33 327.828 77.912 328.26 78.656C328.704 79.4 328.926 80.246 328.926 81.194C328.926 82.142 328.704 82.994 328.26 83.75C327.828 84.494 327.222 85.076 326.442 85.496C325.662 85.916 324.78 86.126 323.796 86.126ZM323.796 84.2C324.624 84.2 325.308 83.924 325.848 83.372C326.388 82.82 326.658 82.094 326.658 81.194C326.658 80.294 326.388 79.568 325.848 79.016C325.308 78.464 324.624 78.188 323.796 78.188C322.968 78.188 322.284 78.464 321.744 79.016C321.216 79.568 320.952 80.294 320.952 81.194C320.952 82.094 321.216 82.82 321.744 83.372C322.284 83.924 322.968 84.2 323.796 84.2ZM346.293 86V79.628L343.053 84.992H342.081L338.895 79.61V86H336.843V76.388H339.201L342.621 82.4L346.203 76.388H348.309L348.327 86H346.293ZM360.705 81.248C360.705 81.404 360.693 81.626 360.669 81.914H353.127C353.259 82.622 353.601 83.186 354.153 83.606C354.717 84.014 355.413 84.218 356.241 84.218C357.297 84.218 358.167 83.87 358.851 83.174L360.057 84.56C359.625 85.076 359.079 85.466 358.419 85.73C357.759 85.994 357.015 86.126 356.187 86.126C355.131 86.126 354.201 85.916 353.397 85.496C352.593 85.076 351.969 84.494 351.525 83.75C351.093 82.994 350.877 82.142 350.877 81.194C350.877 80.258 351.087 79.418 351.507 78.674C351.939 77.918 352.533 77.33 353.289 76.91C354.045 76.49 354.897 76.28 355.845 76.28C356.781 76.28 357.615 76.49 358.347 76.91C359.091 77.318 359.667 77.9 360.075 78.656C360.495 79.4 360.705 80.264 360.705 81.248ZM355.845 78.08C355.125 78.08 354.513 78.296 354.009 78.728C353.517 79.148 353.217 79.712 353.109 80.42H358.563C358.467 79.724 358.173 79.16 357.681 78.728C357.189 78.296 356.577 78.08 355.845 78.08ZM370.789 78.296H367.423V86H365.173V78.296H361.789V76.388H370.789V78.296ZM376.363 76.28C377.779 76.28 378.859 76.622 379.603 77.306C380.359 77.978 380.737 78.998 380.737 80.366V86H378.613V84.83C378.337 85.25 377.941 85.574 377.425 85.802C376.921 86.018 376.309 86.126 375.589 86.126C374.869 86.126 374.239 86.006 373.699 85.766C373.159 85.514 372.739 85.172 372.439 84.74C372.151 84.296 372.007 83.798 372.007 83.246C372.007 82.382 372.325 81.692 372.961 81.176C373.609 80.648 374.623 80.384 376.003 80.384H378.487V80.24C378.487 79.568 378.283 79.052 377.875 78.692C377.479 78.332 376.885 78.152 376.093 78.152C375.553 78.152 375.019 78.236 374.491 78.404C373.975 78.572 373.537 78.806 373.177 79.106L372.295 77.468C372.799 77.084 373.405 76.79 374.113 76.586C374.821 76.382 375.571 76.28 376.363 76.28ZM376.057 84.488C376.621 84.488 377.119 84.362 377.551 84.11C377.995 83.846 378.307 83.474 378.487 82.994V81.878H376.165C374.869 81.878 374.221 82.304 374.221 83.156C374.221 83.564 374.383 83.888 374.707 84.128C375.031 84.368 375.481 84.488 376.057 84.488ZM392.593 76.388V86H390.343V78.296H386.743L386.653 80.204C386.593 81.476 386.473 82.544 386.293 83.408C386.125 84.26 385.831 84.938 385.411 85.442C385.003 85.934 384.439 86.18 383.719 86.18C383.383 86.18 382.969 86.114 382.477 85.982L382.585 84.092C382.753 84.128 382.897 84.146 383.017 84.146C383.473 84.146 383.815 83.966 384.043 83.606C384.271 83.234 384.415 82.796 384.475 82.292C384.547 81.776 384.607 81.044 384.655 80.096L384.817 76.388H392.593ZM404.695 76.388V86H402.445V78.296H398.845L398.755 80.204C398.695 81.476 398.575 82.544 398.395 83.408C398.227 84.26 397.933 84.938 397.513 85.442C397.105 85.934 396.541 86.18 395.821 86.18C395.485 86.18 395.071 86.114 394.579 85.982L394.687 84.092C394.855 84.128 394.999 84.146 395.119 84.146C395.575 84.146 395.917 83.966 396.145 83.606C396.373 83.234 396.517 82.796 396.577 82.292C396.649 81.776 396.709 81.044 396.757 80.096L396.919 76.388H404.695ZM411.667 76.28C413.083 76.28 414.163 76.622 414.907 77.306C415.663 77.978 416.041 78.998 416.041 80.366V86H413.917V84.83C413.641 85.25 413.245 85.574 412.729 85.802C412.225 86.018 411.613 86.126 410.893 86.126C410.173 86.126 409.543 86.006 409.003 85.766C408.463 85.514 408.043 85.172 407.743 84.74C407.455 84.296 407.311 83.798 407.311 83.246C407.311 82.382 407.629 81.692 408.265 81.176C408.913 80.648 409.927 80.384 411.307 80.384H413.791V80.24C413.791 79.568 413.587 79.052 413.179 78.692C412.783 78.332 412.189 78.152 411.397 78.152C410.857 78.152 410.323 78.236 409.795 78.404C409.279 78.572 408.841 78.806 408.481 79.106L407.599 77.468C408.103 77.084 408.709 76.79 409.417 76.586C410.125 76.382 410.875 76.28 411.667 76.28ZM411.361 84.488C411.925 84.488 412.423 84.362 412.855 84.11C413.299 83.846 413.611 83.474 413.791 82.994V81.878H411.469C410.173 81.878 409.525 82.304 409.525 83.156C409.525 83.564 409.687 83.888 410.011 84.128C410.335 84.368 410.785 84.488 411.361 84.488Z"
          fill="white"/>
    <path d="M419 1H225C211.745 1 201 11.7452 201 25V87.051C201 100.306 211.745 111.051 225 111.051H247.305C248.175 111.051 249.052 111.429 249.612 112.18C254.271 118.424 253.247 126.658 247.355 137.545C254.074 136.008 260.068 134.044 265.404 130.661C271.287 126.929 276.432 121.43 280.828 112.732C281.337 111.723 282.376 111.051 283.534 111.051H419C432.255 111.051 443 100.306 443 87.051V25C443 11.7452 432.255 1 419 1Z"
          stroke="white" stroke-width="2"/>
    <path d="M0.473785 192.981C-0.686432 203.673 0.478333 217.132 1.88495 227.431C7.6499 249.205 25.3417 263.037 34.3485 269.792C22.3211 281.431 12.1533 298.42 12.1533 319.651C14.405 341.846 24.0551 365.971 45.9286 384.306C67.8578 401.568 83.5922 412.649 108.333 424.837C107.689 434.165 113.801 440.724 119.269 443.815C126.668 447.997 136.639 448.64 145.325 442.207C172.667 448.64 242.469 436.738 246.329 414.222C246.684 412.152 247.56 402.174 247.616 394.278C259.839 407.467 278.174 401.033 287.503 386.558C300.369 385.593 305.516 383.341 313.566 379.222C315.925 377.373 318.343 375.34 320.561 373.226C329.016 365.164 337.227 356.417 340.131 344.498C341.837 337.494 342.22 331.859 342.246 328.403L375.479 309.505C381.959 305.838 380.614 294.989 377.863 290.542C375.113 286.095 359.854 256.307 355.575 251.795C351.296 247.283 346.381 246.354 341.945 246.354C330.598 247.566 305.142 267.787 278.818 285.875C278.754 273.076 278.464 265.935 268.846 253.708C267.971 238.583 266.494 229.711 246.651 224.115C259.517 216.716 268.524 204.171 265.951 193.556C263.706 184.298 253.74 170.889 234.749 163.319C237.579 152.284 237.263 133.507 231.704 114.937C229.223 104.65 224.954 89.2692 223.376 84.9117C220.942 78.188 219.687 71.1484 215.272 71.5348C210.856 71.9209 213.617 78.5152 211.478 91.3511C210.201 99.015 208.571 107.88 208.05 111.209C195.447 108.332 188.715 106.705 175.24 106.705C164.946 106.705 155.618 108.015 146.29 111.209C140.285 102.153 120.997 76.5709 120.171 74.7943C119.106 72.5023 114.076 69.6099 111.609 71.7491C109.143 73.8882 109.514 83.6571 109.514 90.6861C109.514 93.9509 109.817 104.058 110.142 113.946C113.801 138.551 118.626 149.166 129.241 161.067L121.843 168.466C111.549 170.396 110.969 172.194 105.759 177.473C98.1822 171.646 91.7162 167.035 80.6689 164.927C72.6272 162.676 61.4289 168.216 57.1871 173.291C46.7031 168.599 41.9521 167.386 34.7336 166.841C31.9409 166.585 28.9094 166.52 25.797 166.809C13.5721 167.947 2.61337 173.269 0.473785 192.981Z"
          fill="#013543"/>
    <path d="M333.409 335.318C334.367 334.769 335.293 334.238 336.18 333.728C335.708 337.137 334.832 343.496 333.198 348.542C330.918 355.587 321.983 363.629 321.983 363.629C321.983 363.629 328.938 353.807 329.701 345.612C329.904 343.431 330.035 341.738 330.155 340.389C330.344 338.268 331.561 336.376 333.409 335.318Z"
          fill="#E6B584"/>
    <path d="M167.917 191.982C167.917 191.982 162.111 193.72 154.528 198.933C146.945 204.147 143.075 211.138 143.193 210.308C143.312 209.478 143.707 203.232 146.432 198.341C149.157 193.45 152.554 190.718 152.554 190.718C152.554 190.718 147.577 192.653 144.773 196.959C145.878 192.34 147.381 187.123 153.78 182.502C160.177 177.881 166.343 177.763 166.343 177.763C161.959 179.343 155.339 184.008 153.225 187.203C153.225 187.203 157.135 185.9 161.756 185.189C166.377 184.478 168.904 185.189 168.904 185.189C168.904 185.189 162.072 187.498 158.162 190.499C155.105 192.846 153.265 195.576 153.265 195.576C153.265 195.576 160.571 191.508 167.917 191.982Z"
          fill="#EFD9C2"/>
    <path d="M219.022 215.005C220.977 217.284 222.888 219.526 231.412 223.052C239.937 226.576 253.215 228.692 259.772 235.12C266.329 241.549 264.362 252.746 264.362 252.746C264.362 252.746 261.874 244.352 258.242 240.927C254.271 237.181 250.374 236.365 250.374 236.365C250.374 236.365 257.368 240.097 260.209 249.014C263.051 257.93 258.679 266.847 258.679 266.847C258.679 266.847 257.463 255.803 252.529 249.461C246.102 241.2 237.742 237.013 237.742 237.013C237.742 237.013 243.609 241.598 249.454 250.773C252.74 255.932 255.383 263.033 255.62 269.75C256.275 288.413 239.464 298.988 239.464 298.988C239.464 298.988 243.074 293.893 243.588 282.093C244.024 272.08 242.094 264.924 236.083 255.954C230.396 247.467 220.917 242.577 220.917 242.577C220.917 242.577 228.879 250.644 234.78 261.012C240.682 271.381 240.78 283.991 235.669 295.861C231.167 306.315 218.844 312.554 213.512 313.509C219.851 305.697 224.049 297.28 223.831 286.428C223.595 274.625 216.652 264.947 216.652 264.947C216.652 264.947 221.834 282.566 218.666 292.938C215.013 304.899 208.642 307.833 201.604 309.125C201.604 309.125 210.272 298.682 207.836 283.716C205.466 269.159 201.534 264.414 198.275 253.491C195.583 244.471 195.206 234.82 195.206 234.82C195.206 234.82 192.573 242.218 196.746 257.977C200.919 273.737 203.382 278.53 203.382 285.13C203.382 291.731 201.782 293.949 200.715 296.254C198.714 290.063 190.581 281.93 185.203 273.954C178.167 263.522 178.709 253.334 178.973 243.307C176.643 249.846 175.693 257.456 178.867 268.532C181.913 279.156 188.082 287.583 188.082 287.583C188.082 287.583 176.798 282.652 171.035 275.064C162.583 263.935 162.292 249.428 162.292 249.428C162.292 249.428 160.324 255.487 160.98 261.501C161.636 267.514 162.947 270.579 162.947 270.579C162.947 270.579 151.295 262.089 150.708 245.903C150.24 233.022 155.454 219.87 155.454 219.87C155.454 219.87 149.149 226.604 147.619 236.143C146.089 245.681 147.429 252.331 147.429 252.331C147.429 252.331 137.25 241.683 140.893 225.908C146.539 201.465 168.487 197.274 168.487 197.274C168.487 197.274 156.651 206.281 153.321 210.82C148.29 217.677 147.219 223.185 147.219 223.185C147.645 222.431 150.293 217.072 157.008 211.153C160.069 208.454 163.976 206.003 168.902 203.176C158.593 219.532 157.396 234.185 157.81 238.718C163.056 225.265 169.798 220.994 181.758 215.991C176.121 223.025 172.044 230.318 170.169 237.414C167.671 246.875 168.71 255.987 171.544 263.668C171.544 263.668 170.316 253.157 172.457 243.588C176.959 223.467 185.191 220.074 191.888 213.687C191.888 213.687 186.636 222.873 185.079 232.807C183.358 243.788 186.552 251.087 186.552 251.087C187.149 224.366 199.537 214.728 199.391 215.005C199.245 215.281 199.343 229.338 204.297 240.329C209.251 251.319 213.509 255.857 213.509 255.857C213.509 255.857 206.165 238.93 205.218 230.774C204.271 222.617 205.988 215.005 205.988 215.005C208.476 221.893 211.396 227.31 219.629 233.392C227.861 239.475 234.602 243.982 238.868 248.928C242.043 252.61 244.022 256.516 244.022 256.516C244.022 256.516 243.088 251.295 237.77 245.489C232.451 239.683 220.503 231.954 216.933 225.374C214.681 221.224 214.383 217.564 214.529 217.771C214.674 217.978 214.966 221.987 224.219 226.48C233.471 230.973 237.008 230.949 240.141 231.986C243.274 233.023 246.688 234.652 246.688 234.652C246.688 234.652 244.001 231.973 233.438 228.517C222.873 225.061 219.605 216.594 219.022 215.005Z"
          fill="#EFD9C2"/>
    <path d="M225.32 170.214C226.049 170.518 227.368 171.513 227.368 172.935C227.368 174.356 227.193 177.264 225.314 182.109C223.81 185.985 222.477 187.243 222.477 187.243V198.019C222.477 198.019 218.186 190.606 215.999 186.012C213.295 180.331 212.129 174.618 212.129 174.618C212.129 174.618 214.026 175.71 215.152 177.014C216.278 178.317 217.239 180.149 218.942 182.497C218.477 181.012 217.402 177.758 217.579 177.343C217.757 176.928 219.712 176.691 222.319 173.729C224.925 170.767 224.21 169.751 225.32 170.214Z"
          fill="#E6B584"/>
    <path d="M205.73 166.561C207.686 166.561 209.227 167.066 209.583 168.547C209.938 170.028 211.891 182.912 212.128 185.459C212.365 188.007 211.003 189.251 209.463 189.37C207.922 189.488 206.759 189.37 205.752 189.37C204.291 189.37 202.317 187.796 200.894 187.796C199.391 187.796 198.126 187.875 197.351 187.875C196.92 187.875 195.336 186.035 196.668 183.372C197.734 181.24 199.906 181.2 201.346 181.905C202.533 182.486 204.567 184.557 204.567 184.557C204.389 184.117 203.634 181.454 203.145 177.991C202.636 174.385 202.373 170.458 202.294 168.398C202.242 167.031 204.959 166.561 205.73 166.561Z"
          fill="#E6B584"/>
    <path d="M199.39 173.789C199.271 174.914 196.606 178.813 191.333 185.152C186.06 191.491 177.235 198.933 177.235 198.933C177.235 198.933 175.813 198.776 176.169 194.273C176.524 189.771 177.433 187.033 177.196 185.849C176.959 184.664 171.309 180.127 170.243 177.224C169.176 174.322 170.183 171.064 171.605 168.634C173.027 166.206 173.738 166.739 173.797 166.916C173.856 167.094 174.549 172.294 178.696 174.368C182.843 176.441 183.164 177.526 182.275 179.304C181.387 181.081 180.433 184.266 180.551 184.063C180.669 183.86 185.172 178.706 185.942 178.528C186.712 178.35 188.274 178.613 192.835 177.132C197.397 175.651 199.39 173.789 199.39 173.789Z"
          fill="#E6B584"/>
    <path d="M211.423 158.159C211.4 158.345 210.588 163.658 209.403 164.784C208.218 165.909 206.659 165.509 205.208 165.495C203.899 165.481 203.716 164.25 203.656 163.243C203.567 161.732 203.071 158.515 203.614 158.159C203.793 158.042 204.765 157.747 205.864 157.738C206.457 157.732 206.454 161.069 207.094 161.032C207.884 160.987 208.451 157.811 209.087 157.855C209.992 157.918 211.467 157.801 211.423 158.159Z"
          fill="#E6B584"/>
    <path d="M212.603 160.091C211.775 161.528 211.175 163.868 212.155 165.33C213.136 166.792 215.033 167.179 217.758 165.827C220.484 164.476 222.498 161.656 222.498 161.656C225.618 161.032 230.795 161.964 230.795 161.964C230.795 161.964 229.364 160.234 227.367 159.398C225.493 158.614 224.572 158.506 223.781 158.427C224.335 157.795 224.752 156.397 224.752 156.397C223.763 156.394 219.141 158.253 215.964 160.503C216.508 159.201 215.861 157.614 215.861 157.614C215.861 157.614 213.584 158.387 212.603 160.091Z"
          fill="#EFD9C2"/>
    <path d="M197.797 157.768C198.366 157.738 201.601 158.655 202.079 162.558C202.422 165.359 200.478 166.813 198.248 166.756C195.433 166.683 189.954 163.195 187.484 161.322C187.484 161.322 182.33 160.518 178.183 161.17C174.036 161.821 169.799 162.953 169.799 162.953C169.799 162.953 170.495 160.696 175.946 158.8C181.396 156.904 185.729 157.419 185.729 157.419C185.729 157.419 184.425 156.397 183.528 155.307C185.254 155.307 188.096 155.481 192.639 157.384C195.831 158.721 197.024 159.793 198.212 160.743C197.871 159.631 197.717 158.564 197.797 157.768Z"
          fill="#EFD9C2"/>
    <path d="M187.483 166.146C186.772 166.027 183.336 165.909 181.203 166.56C179.07 167.212 178.715 167.204 178.537 166.053C178.359 164.902 178.656 163.333 181.262 163.199C183.869 163.065 187.483 166.146 187.483 166.146Z"
          fill="#E6B584"/>
    <path d="M224.628 168.547L222.318 167.331C222.318 167.331 223.088 165.613 224.628 165.85C226.169 166.087 224.628 168.547 224.628 168.547Z"
          fill="#E6B584"/>
    <path d="M220.917 171.445C220.917 171.445 219.533 172.248 216.926 172.189C216.052 172.169 215.405 172.099 214.93 172.015C214.319 171.907 213.82 172.526 214.092 173.083C214.471 173.857 215.241 174.675 216.808 174.796C219.889 175.033 220.917 171.445 220.917 171.445Z"
          fill="#E6B584"/>
    <path d="M194.119 172.663C193.351 173.696 191.141 174.834 187.664 174.806C184.209 174.778 181.679 171.774 181.679 171.774C181.679 171.774 184.623 172.057 188.177 171.997C191.732 171.939 194.888 171.63 194.119 172.663Z"
          fill="#E6B584"/>
    <path d="M213.335 189.853C215.704 193.385 221.115 198.12 224.214 201.938C227.119 205.517 228.243 209.586 228.005 212.918C227.768 216.251 226.782 218.57 226.782 218.57C226.782 218.57 220.918 211.003 215.882 207.397C210.847 203.792 208.604 203.406 207.475 202.121C205.722 200.125 205.434 197.021 205.434 197.021C205.434 197.021 205.563 200.506 203.075 202.309C200.587 204.112 185.561 208.94 179.288 211.718C171.588 215.128 166.666 220.153 166.666 220.153C166.666 220.153 166.666 212.214 172.068 206.551C178.539 199.768 190.941 192.893 194.732 189.288C196.806 190.517 196.45 191.855 195.206 193.44C193.962 195.024 189.258 198.335 189.258 198.335C189.258 198.335 195.888 194.86 198.82 191.527C198.82 191.527 201.256 192.961 200.719 195.079C200.248 196.938 195.532 200.023 195.532 200.023C195.532 200.023 200.402 197.786 202.256 194.696C203.522 192.586 206.867 192.538 208.783 194.86C210.699 197.182 212.525 199.187 213.432 199.763C212.772 199.037 211.291 197.09 210.412 195.288C209.904 194.246 210.294 192.839 211.044 192.11C214.046 196.39 217.156 198.356 217.156 198.356C217.156 198.356 212.979 194.004 212.624 192.511C212.222 190.821 213.335 189.853 213.335 189.853Z"
          fill="#EFD9C2"/>
    <path d="M202.524 205.54C203.435 205.513 206.512 205.225 209.323 205.649C211.406 205.963 211.222 209.525 210.093 209.433C207.512 209.221 204.105 209.115 200.131 209.814C198.248 210.145 197.795 208.825 198.627 207.416C199.561 205.835 201.534 205.568 202.524 205.54Z"
          fill="#E6B584"/>
    <path d="M115.946 80.0149C115.946 80.0149 125.825 96.3405 138.443 113.288C153.244 133.167 159.609 145.362 159.609 160.947C153.798 145.362 148.446 136.727 136.796 121.868C124.5 106.185 118.609 97.975 116.431 93.8363C114.253 89.6976 115.946 80.0149 115.946 80.0149Z"
          fill="#EFD9C2"/>
    <path d="M116.72 101.243C116.72 101.243 127.722 115.92 135.436 125.105C146.775 138.605 156.258 155.25 159.204 166.738C159.204 166.738 147.166 147.869 137.771 137.085C130.132 128.317 121.139 117.773 119.361 115.093C115.777 109.691 116.72 101.243 116.72 101.243Z"
          fill="#EFD9C2"/>
    <path d="M119.124 119.2C119.124 119.2 136.006 139.187 142.9 147.479C151.005 157.227 155.52 164.79 159.204 172.218C159.204 172.218 144.129 154.947 137.771 149.065C131.413 143.184 121.721 133.204 120.781 130.271C119.124 125.105 119.124 119.2 119.124 119.2Z"
          fill="#EFD9C2"/>
    <path d="M123.563 137.75C124.888 139.165 135.397 149.533 142.98 157.852C148.806 164.243 158.225 175.204 158.225 175.204C158.225 175.204 140.841 162.199 131.606 153.877C124.417 147.4 123.563 137.75 123.563 137.75Z"
          fill="#EFD9C2"/>
    <path d="M228.777 156.081C229.43 153.467 230.539 141.111 229.014 131.962C227.489 122.814 216.701 80.0149 216.701 80.0149C216.701 80.0149 216.592 95.1922 217.027 99.5489C217.463 103.906 218.484 111.87 220.009 117.534C221.534 123.197 223.286 127.359 224.827 131.357C228.608 141.164 228.777 156.081 228.777 156.081Z"
          fill="#EFD9C2"/>
    <path d="M215.349 104.004C215.349 104.004 215.983 111.549 216.881 115.243C217.573 118.092 218.623 121.451 218.623 121.451C218.623 121.451 215.323 117.835 213.532 116.586C212.61 108.543 215.349 104.004 215.349 104.004Z"
          fill="#EFD9C2"/>
    <path d="M177.945 153.492C180.845 152.967 181.988 156.222 182.25 156.199C171.033 157.147 162.807 162.637 162.807 162.637C162.807 162.637 164.277 158.737 168.494 156.533C170.981 155.233 173.284 154.336 177.945 153.492Z"
          fill="#55E3AA"/>
    <path d="M182.655 152.709C199.543 149.731 217.97 151.18 221.222 151.711C224.344 152.221 224.65 155.841 222.319 155.957C215.72 156.285 210.294 155.517 196.146 155.912C194.536 155.957 184.825 153.437 182.655 152.709Z"
          fill="#55E3AA"/>
    <path d="M135.608 162.979C135.211 163.545 127.431 165.52 124.588 177.171C122.227 186.845 126.484 194.069 132.429 202.453C137.091 209.026 139.596 218.878 139.596 218.878C139.596 218.878 142.113 209.573 138.321 202.666C134.109 194.991 130.893 188.545 130.631 180.212C130.334 170.793 135.608 162.979 135.608 162.979Z"
          fill="#EFD9C2"/>
    <path d="M138.628 164.126C138.628 164.126 136.732 169.845 137.465 176.303C138.294 183.617 145.145 187.618 145.145 187.618C145.145 187.618 143.368 188.27 141.531 188.033C139.694 187.796 138.224 187.144 138.224 187.144C138.224 187.144 141.353 192.002 141.768 196.386C142.183 200.77 142.005 201.836 142.005 201.836C142.005 201.836 138.509 196.327 136.377 192.417C134.244 188.507 131.863 182.271 133.641 174.719C135.418 167.168 138.628 164.126 138.628 164.126Z"
          fill="#EFD9C2"/>
    <path d="M123.191 172.779C121.69 176.536 118.818 186.65 127.208 199.96C131.936 207.46 134.845 213.135 136.191 217.378C137.728 222.221 137.468 229.7 137.468 229.7C137.468 229.7 134.189 219.74 130.583 213.289C125.35 203.929 114.568 187.726 108.499 181.303C111.659 173.826 123.191 172.779 123.191 172.779Z"
          fill="#EFD9C2"/>
    <path d="M68.5837 225.514C72.0697 218.879 78.7085 216.068 85.4421 216.322C105.149 217.066 117.54 228.092 117.54 228.092C117.54 228.092 107.278 223.128 90.1506 222.82C81.3899 222.661 68.5837 225.514 68.5837 225.514Z"
          fill="#E6B584"/>
    <path d="M227.368 181.871C228.321 182.543 230.69 185.329 231.937 188.803C232.88 191.429 232.964 194.589 232.668 197.433C231.384 193.246 228.777 189.059 225.313 186.492C225.313 186.492 226.96 183.727 227.368 181.871Z"
          fill="#EFD9C2"/>
    <path d="M224.038 187.993C224.038 187.993 229.765 193.049 231.542 199.368C233.112 204.947 232.648 209.874 232.017 213.033C231.385 216.193 229.568 219.668 229.568 219.668C229.568 219.668 231.701 210.375 228.854 204.187C226.677 199.455 224.038 196.208 224.038 196.208C224.556 195.907 226.645 197.275 228.863 199.459C228.863 199.459 226.803 195.418 224.038 187.993Z"
          fill="#EFD9C2"/>
    <path d="M141.709 165.521C141.591 168.719 141.81 171.504 143.188 174.466C146.49 181.567 148.641 174.17 146.976 169.214C146.976 169.214 150.091 171.438 151.632 172.814L153.172 174.19C153.172 174.19 152.788 178.376 150.3 181.812C147.812 185.248 143.471 183.94 141.291 179.133C138.155 172.218 141.709 165.521 141.709 165.521Z"
          fill="#E6B584"/>
    <path d="M157.255 277.196C157.544 277.883 157.657 289.148 148.63 298.814C141.439 306.514 131.397 310.02 124.429 309.549C132.245 305.5 140.843 301.152 146.116 290.725C151.389 280.299 151.841 272.219 151.841 272.219L157.255 277.196Z"
          fill="#2CA483"/>
    <path d="M135.872 346.787C135.714 347.577 136.223 353.372 139.713 357.796C143.204 362.219 149.98 364.904 149.98 364.904C149.98 364.904 143.804 367.561 137.485 366.064C133.906 365.217 130.534 362.167 130.615 358.069C130.73 352.308 135.872 346.787 135.872 346.787Z"
          fill="#2CA483"/>
    <path d="M130.103 341.509C130.103 341.509 122.617 344.917 117.305 344.125C111.994 343.333 110.381 339.21 111.051 335.224C118.002 339.394 130.103 341.509 130.103 341.509Z"
          fill="#2CA483"/>
    <path d="M148.513 339.735C148.513 339.735 155.236 348.726 162.326 352.086C167.945 354.748 175.844 356.961 175.844 356.961C175.844 356.961 168.162 361.737 159.315 361.106C150.468 360.475 146.161 355.971 145.365 349.925C144.611 344.212 148.513 339.735 148.513 339.735Z"
          fill="#2CA483"/>
    <path d="M147.872 336.095C147.872 336.095 132.015 336.712 124.361 331.382C119.992 328.34 118.367 323.095 119.909 318.827C127.757 327.471 147.872 336.095 147.872 336.095Z"
          fill="#2CA483"/>
    <path d="M75.3773 301.593C75.3773 301.593 93.3527 301.356 105.971 297.966C118.59 294.576 124.146 287.89 124.146 287.89C124.146 287.89 113.882 293.258 103.523 294.764C93.1644 296.271 87.8284 295.895 88.519 295.895C89.6013 295.895 104.642 291.764 113.965 282.913C107.876 285.42 98.5515 287.759 80.9222 292.41C80.9222 292.41 86.3064 286.383 95.1421 279.415C103.977 272.446 106.442 270.658 106.442 270.658C106.442 270.658 94.1063 274.803 85.0659 281.582L76.0254 288.361C76.0254 288.361 80.3866 276.709 90.4628 267.292C99.322 259.012 104.653 254.668 104.653 254.668C104.653 254.668 83.1937 266.882 75.3666 278.567C68.5709 288.714 67.5136 290.66 67.3501 291.248C67.6702 289.885 70.1835 278.15 77.3043 266.401C83.8162 255.656 87.9512 251.739 90.5275 249.522C84.5949 252.859 77.5713 257.157 70.0933 268.774C62.0907 281.204 60.5819 288.434 60.5819 288.434C60.5819 288.434 59.7369 280.594 64.6312 265.855C67.32 257.756 72.2592 249.522 72.2592 249.522C72.2592 249.522 61.0524 259.169 57.1919 274.048C54.5385 284.273 55.6851 288.434 55.6851 288.434C55.6851 288.434 53.7647 285.827 52.2007 279.415C51.2593 275.554 51.4476 268.962 51.4476 268.962C51.4476 268.962 49.7686 273.849 50.3335 281.383C50.8983 288.916 52.2951 292.693 52.2951 292.693C47.9632 291.374 42.7017 278.095 42.4508 270.656C42.1451 261.595 44.0346 252.231 49.0999 245.368C61.0471 229.182 76.1412 229.668 76.1412 229.668C76.1412 229.668 61.7965 237.365 56.3402 249.568C52.2753 258.658 51.8822 265.069 51.8822 265.069C51.8822 265.069 57.0551 251.007 66.2595 241.482C74.7742 232.67 87.7357 229.897 98.9775 229.031C108.448 228.302 114.208 230.651 117.542 233.486C124.124 239.082 118.961 244.778 116.334 247.401C123.279 244 131.785 240.523 138.004 249.488C144.71 259.157 136.011 275.46 128.101 284.5C137.895 277.658 140.106 272.353 143.054 259.766C143.054 259.766 146.807 262.815 145.899 273.106C145.153 281.567 139.915 296.309 122.074 302.769C101.009 310.397 75.3773 301.593 75.3773 301.593Z"
          fill="#E6B584"/>
    <path d="M142.517 314.784C145.363 320.165 155.386 326.235 161.884 328.212C156.446 324.173 151.173 316.862 148.839 310.445C153.24 314.39 159.46 317.93 167.495 320.19C163.013 315.783 156.607 308.21 154.374 303.617C159.585 307.371 163.025 308.842 172.392 311.787C168.786 307.756 164.066 301.551 161.67 294.827C184.446 310.522 192.356 313.788 209.566 317.301C211.043 321.855 213.473 331.712 211.055 339.652C207.791 350.369 199.502 354.88 193.109 354.468C187.488 354.105 168.968 349.608 157.357 337.996C145.745 326.385 145.01 322.145 142.517 314.784Z"
          fill="#55E3AA"/>
    <path d="M181.674 136.561C177.737 135.086 170.662 134.794 161.339 137.75C165.294 132.417 170.815 129.537 179.384 129.913C173.487 127.709 168.025 127.991 160.021 130.251C163.317 125.449 169.437 123.66 175.747 123.189C175.747 123.189 168.806 120.837 159.201 121.451C164.945 117.861 172.527 118.048 172.527 118.048C168.532 116.316 165.294 115.373 154.235 113.623C154.235 113.623 176.967 109.686 190.441 123.653C201.966 135.602 199.386 148.188 199.386 148.188C181.674 148.329 171.457 151.299 163.29 156.477C169.812 146.166 181.674 143.529 181.674 143.529C181.674 143.529 173.298 142.588 162.187 145.709C167.554 137.126 181.674 136.561 181.674 136.561Z"
          fill="#55E3AA"/>
    <path d="M195.59 169.52C195.59 169.379 192.435 167.872 192.435 167.872C192.435 167.872 193 169.19 192.812 169.897C192.623 170.603 192.423 170.838 192.423 170.838L195.59 169.52Z"
          fill="#EFD9C2"/>
    <path d="M220.586 169.52C220.586 168.955 219.029 167.872 219.029 167.872C219.231 168.061 219.515 169.19 219.353 169.897C219.19 170.603 219.019 170.838 219.019 170.838C219.019 170.838 220.586 170.085 220.586 169.52Z"
          fill="#EFD9C2"/>
    <path d="M24.1413 195.901C38.0694 189.324 54.0226 192.641 54.0226 192.641C54.0226 192.641 42.3824 188.555 32.0586 190.415C12.2028 193.993 6.57753 206.248 6.57753 206.248C7.62651 201.202 9.74757 194.228 18.4777 189.565C27.807 184.581 38.2771 184.652 38.2771 184.652C38.2771 184.652 28.5939 183.214 20.9914 184.958C13.3894 186.702 7.73735 191.07 7.73735 191.07C7.73735 191.07 9.53991 186.439 16.3147 182.458C20.5395 179.975 30.2514 178.554 30.2514 178.554C24.1944 177.304 15.7753 178.939 7.84282 184.826C13.2814 176.631 18.4658 173.91 29.0097 173.536C64.9192 172.264 128.878 221.934 135.886 236.33C94.2229 207.105 65.0263 196.493 36.8672 199.062C11.0075 201.421 7.94088 230.179 7.94088 230.179C6.46381 216.444 10.9984 202.108 24.1413 195.901Z"
          fill="#55E3AA"/>
    <path d="M67.0152 177.808C72.6693 177.486 82.2676 180.997 92.5325 186.555C89.6158 183.031 77.1685 176.465 66.3399 174.357C77.2467 172.172 85.1463 176.873 91.0381 179.854C91.0381 179.854 80.7678 171.6 70.6253 170.56C77.7684 168.648 86.4849 171.673 92.4497 175.747C111.918 189.043 123.949 208.453 132.001 224.285C108.171 199.018 77.3184 181.564 67.0152 177.808Z"
          fill="#55E3AA"/>
    <path d="M214.151 168.595C214.151 169.164 214.612 169.625 215.181 169.625C215.75 169.625 216.211 169.164 216.211 168.595C216.211 168.026 215.75 167.565 215.181 167.565C214.612 167.565 214.151 168.026 214.151 168.595Z"
          fill="#EFD9C2"/>
    <path d="M187.459 168.595C187.459 169.164 187.92 169.625 188.489 169.625C189.058 169.625 189.519 169.164 189.519 168.595C189.519 168.026 189.058 167.565 188.489 167.565C187.92 167.565 187.459 168.026 187.459 168.595Z"
          fill="#EFD9C2"/>
    <path d="M21.7713 217.551C21.7713 217.551 20.6976 221.483 21.7684 229.841C22.8396 238.198 30.145 243.448 30.145 243.448C30.145 243.448 23.7691 233.674 25.1457 222.994C26.523 212.315 33.5112 207.754 33.5112 207.754C33.5112 207.754 29.5159 215.641 32.1338 224.101C33.7683 229.38 37.2774 233.696 37.2774 233.696C37.2774 233.696 33.5437 225.958 35.2874 218.993C37.0306 212.028 41.7779 209.246 43.6624 208.159C41.838 213.031 41.0169 222.717 46.125 227.1C46.125 227.1 44.9046 219.386 47.2197 215.429C50.6704 209.53 59.2192 209.397 59.2192 209.397C59.2192 209.397 53.3307 213.384 53.7868 219.104C54.3896 226.663 55.6998 229.518 55.6998 229.518C52.7836 226.777 50.8681 224.877 49.9559 219.581C48.314 224.47 49.7734 232.226 49.7734 232.226C43.3888 233.419 40.0161 226.798 39.1929 223.64C39.1764 227.458 41.1837 238.318 42.6587 239.389C38.4348 240.892 33.9933 240.735 29.5237 229.507C29.7062 235.596 33.4024 244.296 35.783 247.947C31.5306 251.041 24.3204 245.28 22.592 243.291C22.592 243.291 24.0513 249.657 31.3691 257.396C27.614 255.585 20.3119 252.516 17.9441 239.232C16.3512 230.291 21.7713 217.551 21.7713 217.551Z"
          fill="#2CA483"/>
    <path d="M128.718 373.973C123.299 375.247 119.939 374.529 110.618 383.095C101.327 391.633 96.9948 405.633 96.9948 405.633C96.9948 405.633 97.1609 385.468 105.721 374.746C114.281 364.023 125.748 364.575 128.718 373.973Z"
          fill="#55E3AA"/>
    <path d="M248.338 296.716C248.338 296.716 243.806 302.545 235.275 307.634C226.744 312.723 223.9 314.296 223.634 314.759C223.367 315.221 222.834 328.698 225.144 335.376C225.384 336.07 225.632 336.708 225.883 337.294C227.493 341.047 232.162 342.351 235.506 340.005L251.182 329.008C251.182 329.008 244.606 330.951 240.696 331.691C236.786 332.431 235.631 332.524 235.631 332.524C235.631 332.524 241.318 330.488 244.962 326.324C248.605 322.161 250.205 320.125 250.205 320.125C250.205 320.125 247.539 321.051 243.628 321.42C239.718 321.791 238.385 321.827 238.385 321.827C238.385 321.827 244.606 316.979 247.716 311.428C250.827 305.876 251.982 302.638 251.982 302.638C251.982 302.638 247.361 307.264 243.717 309.485C240.074 311.705 238.385 312.08 238.385 312.08C238.385 312.08 246.65 304.58 248.338 296.716Z"
          fill="#55E3AA"/>
    <path d="M266.245 259.357C272.365 264.066 276.897 275.324 276.509 289.303C270.388 293.54 261.442 300.038 258.523 302.298C259.558 290.527 257.675 280.168 257.675 280.168C257.675 280.168 259.825 281.56 261.528 285.63C263.231 289.701 263.231 292.505 263.231 292.505C263.231 292.505 264.927 287.524 264.636 281.769C264.354 276.171 262.101 268.868 262.101 268.868C262.101 268.868 264.413 270.689 267.104 275.837C269.27 279.98 270.576 285.536 270.576 285.536C270.576 285.536 271.182 278.086 270.011 271.882C269.069 266.891 266.245 259.357 266.245 259.357Z"
          fill="#E6B584"/>
    <path d="M96.8335 310.988C98.0893 313.812 99.5997 322.645 97.2937 330.052C94.6156 338.656 84.8764 341.416 77.5957 341.786C77.5957 341.786 66.1697 342.288 54.4924 351.329C49.4234 349.946 41.5416 342.98 39.5206 331.998C37.4997 321.017 43.2551 305.077 52.5469 301.029C50.7262 305.077 49.596 313.884 49.596 313.884C49.596 313.884 55.0577 306.567 59.4267 303.144C58.8536 307.143 56.8866 317.654 59.0757 324.961C60.8333 318.872 62.783 313.236 65.3712 307.897C65.7931 315.105 69.924 328.635 69.924 328.635C69.924 328.635 71.5688 318.935 72.8452 313.363C76.8421 320.943 83.949 322.663 83.949 322.663C83.949 322.663 80.797 315.482 80.6714 311.526C87.7757 311.979 96.8335 310.988 96.8335 310.988Z"
          fill="#E6B584"/>
    <path d="M39.771 287.043C39.771 287.043 28.4707 294.296 22.5381 305.077C16.6051 315.858 15.758 320.125 15.758 320.125C15.758 320.125 16.4493 305.318 23.9509 292.128C30.4479 280.702 36.1234 277.658 36.1234 277.658L39.771 287.043Z"
          fill="#E6B584"/>
    <path d="M116.896 365.078C113.971 362.453 99.8954 351.967 96.2462 349.287C92.597 346.606 88.1711 346.305 84.9426 346.946C80.6119 347.805 76.4715 347.199 61.3358 358.047C53.8021 363.446 49.9098 373.553 49.2193 377.382C53.3736 372.383 63.3444 364.073 74.2055 360.871C68.0628 365.167 63.2418 371.761 60.1916 377.974C57.1415 384.188 55.8354 389.005 55.8354 389.005C55.8354 389.005 66.762 377.085 71.3177 373.239C75.8737 369.393 82.4297 367.024 82.4297 367.024C82.4297 367.024 72.2789 376.686 69.8109 382.97C67.343 389.254 67.2276 396.216 67.2276 396.216C67.2276 396.216 73.264 386.171 77.6586 381.024C80.9971 377.112 82.9311 375.912 87.0752 373.49C84.5639 376.504 78.537 387.49 79.642 396.412C79.642 396.412 87.8914 378.826 102.33 368.782C109.49 363.802 116.896 365.078 116.896 365.078Z"
          fill="#55E3AA"/>
    <path d="M295.415 330.086C294.63 322.01 287.284 320.766 287.284 320.766C287.284 320.766 291.596 326.272 290.312 333.669C290.26 333.966 290.142 334.338 289.976 334.759C289.965 334.434 289.943 334.098 289.909 333.748C289.124 325.672 281.777 324.427 281.777 324.427C281.777 324.427 286.09 329.933 284.805 337.331C284.754 337.627 284.635 337.999 284.47 338.42C284.458 338.096 284.436 337.759 284.402 337.409C283.617 329.333 276.27 328.089 276.27 328.089C276.27 328.089 280.583 333.594 279.299 340.992C279.247 341.288 279.129 341.66 278.963 342.081C278.951 341.757 278.93 341.42 278.896 341.07C278.11 332.994 270.764 331.75 270.764 331.75C270.764 331.75 275.076 337.255 273.792 344.654C273.741 344.95 273.622 345.321 273.457 345.742C273.445 345.418 273.423 345.082 273.389 344.731C272.604 336.656 265.257 335.411 265.257 335.411C265.257 335.411 269.57 340.917 268.286 348.315C268.234 348.611 268.115 348.983 267.95 349.404C267.938 349.08 267.917 348.743 267.883 348.393C267.098 340.317 259.751 339.073 259.751 339.073C259.751 339.073 264.064 344.578 262.779 351.976C262.728 352.273 262.609 352.644 262.444 353.065C262.432 352.741 262.41 352.404 262.376 352.054C261.591 343.978 254.245 342.734 254.245 342.734C254.245 342.734 258.557 348.24 257.273 355.637C257.221 355.934 257.103 356.305 256.937 356.727C256.926 356.403 256.904 356.066 256.869 355.715C256.085 347.639 248.738 346.395 248.738 346.395C248.738 346.395 253.051 351.901 251.766 359.299C251.715 359.595 251.596 359.966 251.431 360.388C251.419 360.064 251.397 359.727 251.363 359.377C250.578 351.301 243.231 350.057 243.231 350.057C243.231 350.057 247.544 355.562 246.26 362.96C246.208 363.256 246.09 363.628 245.924 364.05C245.912 363.725 245.891 363.388 245.857 363.038C245.071 354.962 237.725 353.718 237.725 353.718C237.725 353.718 242.037 359.224 240.753 366.621C240.702 366.918 240.583 367.289 240.417 367.711C240.406 367.386 240.384 367.049 240.35 366.699C239.565 358.624 232.218 357.379 232.218 357.379C232.218 357.379 236.531 362.885 235.247 370.283C235.195 370.579 235.077 370.951 234.911 371.372C234.899 371.048 234.878 370.711 234.843 370.36C234.058 362.285 226.712 361.041 226.712 361.041C226.712 361.041 231.025 366.546 229.74 373.944C229.689 374.24 229.57 374.612 229.405 375.033C229.393 374.709 229.371 374.372 229.337 374.022C228.552 365.946 221.205 364.702 221.205 364.702C221.205 364.702 225.518 370.207 224.233 377.605C224.182 377.901 224.063 378.273 223.898 378.695C223.887 378.37 223.865 378.034 223.83 377.683C223.045 369.608 215.699 368.363 215.699 368.363C215.699 368.363 220.012 373.869 218.727 381.267C218.676 381.563 218.557 381.935 218.391 382.356C218.38 382.032 218.358 381.695 218.324 381.345C217.539 373.269 210.192 372.025 210.192 372.025C210.192 372.025 214.505 377.53 213.221 384.928C213.169 385.225 213.05 385.596 212.885 386.017C212.873 385.693 212.852 385.356 212.817 385.006C212.032 376.93 204.686 375.686 204.686 375.686C204.686 375.686 208.998 381.191 207.714 388.59C207.649 388.962 207.48 389.452 207.241 390.013C202.156 379.077 195.422 374.153 195.422 374.153C197.309 373.33 284.03 314.068 284.03 314.068C284.03 314.068 287.064 312.105 292.316 318.561C296.282 323.438 296.253 328.032 295.449 330.596C295.438 330.426 295.432 330.263 295.415 330.086Z"
          fill="#55E3AA"/>
    <path d="M261.067 307.007C261.9 306.283 324.786 260.631 329.905 257.568C334.701 254.698 343.277 252.964 346.384 254.668C344.778 254.741 340.093 256.979 336.27 259.112C328.933 263.207 316.416 272.23 309.665 277.161C307.995 278.381 303.914 283.276 306.574 288.482C307.347 292.93 333.462 329.26 333.462 329.26C328.462 328.411 325.57 325.521 325.57 325.521C325.57 325.521 325.868 329.232 329.137 332.406C328.911 332.375 328.686 332.341 328.462 332.303C323.461 331.454 320.57 328.564 320.57 328.564C320.57 328.564 320.867 332.276 324.136 335.449C323.911 335.418 323.685 335.384 323.461 335.347C318.461 334.498 315.569 331.608 315.569 331.608C315.569 331.608 315.867 335.319 319.136 338.493C318.91 338.461 318.685 338.428 318.461 338.39C313.461 337.541 310.569 334.651 310.569 334.651C310.569 334.651 310.867 338.363 314.136 341.536C313.91 341.505 313.685 341.472 313.461 341.434C308.461 340.585 305.568 337.694 305.568 337.694C305.568 337.694 305.866 341.406 309.135 344.579C308.91 344.548 308.685 344.515 308.461 344.477C303.461 343.628 300.568 340.738 300.568 340.738C300.568 340.738 300.866 344.449 304.135 347.623C303.909 347.592 303.684 347.558 303.461 347.52C298.46 346.672 295.568 343.781 295.568 343.781C295.568 343.781 295.866 347.493 299.135 350.666C298.909 350.635 298.684 350.602 298.46 350.564C293.46 349.715 290.568 346.825 290.568 346.825C290.568 346.825 290.866 350.536 294.135 353.71C293.908 353.679 293.684 353.645 293.46 353.607C288.46 352.758 285.568 349.868 285.568 349.868C285.568 349.868 285.866 353.579 289.134 356.753C288.909 356.722 288.683 356.688 288.46 356.651C283.459 355.802 280.567 352.912 280.567 352.912C280.567 352.912 280.832 356.211 283.602 359.248C280.341 359.268 278.022 357.16 276.786 355.72C275.047 353.696 273.108 350.918 273.108 350.918C273.108 350.918 292.197 338.024 296.583 334.515C300.97 331.006 299.548 324.185 296.393 319.461C293.239 314.738 288.985 307.929 282.638 311.624C276.291 315.32 259.311 327.756 259.311 327.756C259.311 327.756 255.67 323.336 255.16 317.974C254.65 312.612 260.235 307.73 261.067 307.007Z"
          fill="#2CA483"/>
    <path d="M241.086 218.986C243.612 214.767 247.021 207.926 248.506 201.507C249.777 196.011 250.587 190.292 249.371 185.351C249.345 192.163 247.07 199.295 244.917 204.981C242.6 211.101 238.698 216.386 234.054 220.445C252.184 189.451 240.445 170.838 240.445 170.838C248.976 172.425 257.302 180.173 253.629 196.227C250.488 209.954 241.521 219.078 239.097 221.752C239.573 220.918 240.472 220.012 241.086 218.986Z"
          fill="#55E3AA"/>
    <path d="M260.102 192.913C260.211 193.468 259.773 201.421 253.536 210.299C247.299 219.178 242.703 222.322 242.703 222.322C242.703 222.322 255.325 216.134 260.783 206.331C266.241 196.528 260.102 192.913 260.102 192.913Z"
          fill="#55E3AA"/>
    <path d="M226.638 418.326C217.705 420.074 211.748 420.375 204.702 419.375C204.702 419.375 216.516 414.974 221.079 411.565C225.643 408.155 232.097 402.634 233.784 399.092C221.477 406.772 216.415 403.231 216.415 403.231C216.415 403.231 222.271 400.594 229.078 394.67C234.557 389.903 238.846 385.211 238.846 385.211C238.846 385.211 227.507 390.402 223.19 389.92C231.943 382.788 243.776 373.892 246.015 372.214C246.067 374.097 245.532 377.003 244.511 379.567C243.326 382.543 242.371 383.535 242.371 383.535L246.067 380.559C246.067 380.559 245.988 387.142 244.219 391.02C242.557 394.662 239.456 397.422 239.456 397.422C239.456 397.422 243.668 395.679 245.088 393.022C245.286 396.508 244.985 401.496 243.142 404.516C241.831 406.663 239.877 409 239.114 410.304C241.63 409.148 243.902 406.342 243.902 406.342C243.3 414.254 239.771 420.252 234.323 423.271C228.502 426.497 220.08 430.661 211.551 433.129C196.141 437.588 189.519 435.971 189.519 435.971C202.32 432.896 212.245 429.749 226.638 418.326Z"
          fill="#2CA483"/>
    <path d="M193.61 298.971C193.61 298.971 182.812 294.074 174.651 288.424C166.489 282.774 164.198 279.289 164.198 279.289C164.198 279.289 170.005 294.172 181.682 301.029C193.359 307.886 193.61 298.971 193.61 298.971Z"
          fill="#55E3AA"/>
    <path d="M128.695 407.897C138.514 409.001 147.104 419.637 146.554 430.274C141.474 422.274 135.79 417.274 129.233 415.474C126.045 414.598 122.643 414.918 118.832 416.246C116.73 416.978 114.745 414.726 115.817 412.775C117.53 409.657 121.766 407.118 128.695 407.897Z"
          fill="#2CA483"/>
    <path d="M121.885 393.548C124.903 390.859 132.212 385.012 139.19 381.494C142.104 380.026 152.576 373.264 163.037 371.536C173.498 369.808 177.972 366.076 184.413 368.028C190.714 369.937 191.339 374.847 193.454 377.822C195.569 380.796 200.603 388.499 203.225 391.669C205.847 394.839 208.204 397.79 206.394 401.87C205.676 403.49 204.216 405.198 202.716 406.67C203.135 404.884 203.249 403.052 202.776 401.364C201.081 395.32 191.413 386.316 189.341 382.832C187.27 379.347 186.768 376.943 182.247 375.938C175.968 374.543 172.266 377.508 172.266 377.508C172.266 377.508 176.925 377.848 180.395 381.159C180.932 381.896 181.388 382.783 181.595 383.834C182.303 387.431 182.165 388.543 183.174 390.157C184.182 391.771 188.747 397.059 192.4 401.561C195.758 405.699 196.561 409.297 195.933 411.192C194.994 414.028 193.81 414.863 191.462 416.761C192.05 415.172 192.283 413.517 191.835 411.92C190.14 405.876 179.885 396.696 177.813 393.212C175.741 389.727 174.677 385.412 168.625 384.209C162.315 382.954 156.948 386.611 156.948 386.611C156.948 386.611 160.027 386.644 163.26 387.594C163.998 387.903 167.927 389.63 168.782 391.648C169.727 393.879 169.825 396.19 170.095 397.752C170.656 400.984 182.523 413.163 182.851 418.829C183.041 422.109 182.039 423.661 180.351 425.165C179.435 425.981 177.708 427.339 175.961 428.525C176.797 426.987 177.267 425.146 176.78 423.014C175.381 416.895 166.099 407.017 164.199 403.436C162.299 399.855 163.216 394.911 157.199 392.638C151.181 390.364 145.684 394.112 145.684 394.112C145.684 394.112 149.767 394.618 153.081 397.134C153.982 398.041 154.986 399.438 155.294 401.359C155.893 405.088 155.68 406.696 156.337 408.465C156.993 410.234 164.961 420.212 166.488 424.708C168.015 429.204 166.383 430.971 165.076 433.086C163.941 434.921 162.7 435.459 160.98 436.83C160.971 436.643 160.961 436.453 160.945 436.257C160.4 429.238 157.576 425.659 154.75 421.893C151.925 418.126 152.111 414.119 152.111 414.119C152.111 414.119 149.278 413.418 147.871 410.592C146.463 407.767 145.624 404.746 142.979 402.154C137.781 397.06 125.144 394.546 116.313 401.058C116.895 398.638 120.216 395.035 121.885 393.548Z"
          fill="#E6B584"/>
    <path d="M325.28 300.05C325.28 300.05 318.392 284.59 314.952 279.811C314.831 279.643 314.71 279.483 314.589 279.327C314.598 279.32 314.607 279.314 314.616 279.308C316.089 278.306 318.092 278.673 319.112 280.133C324.215 287.434 330.674 296.591 330.674 296.591C330.674 296.591 323.787 281.132 320.346 276.351C320.188 276.132 320.029 275.925 319.869 275.724C319.878 275.718 319.888 275.712 319.897 275.705C321.37 274.697 323.38 275.061 324.403 276.525C329.521 283.85 336.068 293.132 336.068 293.132C336.068 293.132 329.18 277.672 325.739 272.893C325.54 272.616 325.34 272.356 325.138 272.108C325.148 272.101 325.157 272.095 325.166 272.089C326.642 271.074 328.66 271.439 329.685 272.907C334.819 280.256 341.462 289.673 341.462 289.673C341.462 289.673 334.575 274.213 331.134 269.433C330.89 269.094 330.644 268.78 330.396 268.485C330.406 268.478 330.416 268.472 330.425 268.465C331.906 267.443 333.935 267.809 334.965 269.285C340.115 276.656 346.856 286.213 346.856 286.213C346.856 286.213 339.968 270.754 336.528 265.974C336.239 265.572 335.946 265.205 335.654 264.864C335.665 264.857 335.676 264.849 335.687 264.841C337.179 263.818 339.217 264.19 340.253 265.673C345.416 273.065 352.25 282.754 352.25 282.754C352.25 282.754 345.362 267.295 341.922 262.515C341.618 262.093 341.311 261.708 341.004 261.354C341.014 261.347 341.026 261.34 341.036 261.333C342.598 260.362 344.646 260.78 345.699 262.288C350.855 269.67 357.644 279.295 357.644 279.295C357.644 279.295 350.757 263.836 347.316 259.055C347.097 258.751 346.876 258.465 346.654 258.196C347.345 257.951 348.024 257.806 348.766 257.769C352.409 257.585 352.461 258.491 354.979 261.592C357.497 264.693 371.803 290.975 373.407 293.659C374.587 295.631 377.105 301.138 373.965 304.611C373.896 304.135 373.855 303.851 373.855 303.851C372.549 299.109 369.191 296.899 369.191 296.899C369.191 296.899 370.424 301.137 368.63 306.311C368.55 306.542 368.465 306.773 368.377 307.003C367.071 302.26 363.713 300.05 363.713 300.05C363.713 300.05 364.946 304.289 363.152 309.463C363.072 309.694 362.986 309.924 362.899 310.154C361.593 305.412 358.235 303.201 358.235 303.201C358.235 303.201 359.468 307.44 357.674 312.614C357.594 312.845 357.508 313.075 357.42 313.305C356.115 308.563 352.757 306.353 352.757 306.353C352.757 306.353 353.99 310.592 352.196 315.766C352.116 315.997 352.03 316.227 351.942 316.457C350.637 311.715 347.279 309.505 347.279 309.505C347.279 309.505 348.512 313.743 346.718 318.917C346.637 319.148 346.552 319.378 346.465 319.609C345.159 314.866 341.801 312.656 341.801 312.656C341.801 312.656 343.034 316.894 341.239 322.068C341.159 322.299 341.074 322.53 340.986 322.76C339.681 318.017 336.323 315.807 336.323 315.807C336.323 315.807 337.556 320.046 335.761 325.22C335.681 325.451 335.596 325.681 335.508 325.911C327.542 313.618 320.833 303.416 311.698 288.638C309.878 286.29 309.933 283.506 312.089 281.258C317.317 288.761 325.28 300.05 325.28 300.05Z"
          fill="#55E3AA"/>
    <path d="M222.551 142.776C222.551 142.776 221.609 142.211 219.036 140.579C216.462 138.946 214.152 134.794 214.152 134.794C214.152 134.794 220.542 135.556 220.731 135.619C220.919 135.682 218.471 134.614 216.336 133.108C214.201 131.601 211.422 128.625 211.422 128.625L217.78 129.142C217.78 129.142 215.52 128.086 213.072 126.767C210.623 125.449 206.09 121.451 206.09 121.451L212.507 122.057C212.507 122.057 208.238 120.489 205.036 119.234C201.428 117.819 199.244 114.525 193.061 111.548C193.061 111.548 210.736 114.413 219.107 125.591C226.163 135.012 226.801 149.762 226.219 152.376C225.401 150.184 223.277 149.247 221.095 148.836C218.382 148.324 216.361 146.034 216.067 143.29C216.009 142.748 215.932 142.167 215.837 141.56L222.551 142.776Z"
          fill="#55E3AA"/>
    <path d="M199.392 118.718C215.07 131.278 213.454 147.855 213.343 148.329H209.447C206.221 148.329 203.464 145.965 203.022 142.77C202.914 141.991 202.774 141.148 202.594 140.257L208.617 140.955C208.617 140.955 207.307 139.816 205.487 138.749C204.336 138.075 201.554 135.949 200.804 133.99H206.984C206.984 133.99 206.177 133.933 203.226 132.614C200.931 131.589 198.635 129.142 198.146 127.646H204.034C204.034 127.646 202.931 126.927 199.541 125.546C196.151 124.165 193.065 121.18 193.065 121.18H197.845C197.845 121.18 196.903 120.992 194.22 120.175C191.536 119.36 186.347 116.032 186.347 116.032H191.352C191.352 116.032 187.418 115.271 183.889 114.436C183.13 114.256 182.385 114.015 181.667 113.71C174.599 110.709 168.612 110.791 168.612 110.791C168.612 110.791 183.714 106.159 199.392 118.718Z"
          fill="#55E3AA"/>
    <path d="M319.791 343.645C318.549 344.421 317.616 345.601 317.15 346.99C316.047 350.279 313.816 356.658 311.73 360.965C308.811 366.992 298.358 376.692 298.358 376.692C298.358 376.692 307.963 373.113 314.837 366.427C321.712 359.741 323.407 354.75 324.443 350.889C325.479 347.028 326.289 339.587 326.289 339.587L319.791 343.645Z"
          fill="#E6B584"/>
    <path d="M304.066 352.61L295.279 357.731C295.279 357.731 295.025 360.4 295.279 361.436C295.534 362.472 295.877 362.896 295.877 362.896C295.877 362.896 293.603 360.777 292.285 361.389C290.966 362.001 289.789 363.32 289.271 365.015C288.754 366.71 288.942 368.216 289.271 369.723C289.601 371.23 289.742 371.748 289.742 371.748C289.742 371.748 286.305 368.012 284.61 368.114C282.915 368.216 284.045 368.358 280.49 371.183C276.935 374.008 267.352 379.664 264.693 382.954L262.035 386.243C262.035 386.243 268.743 383.283 274.534 381.165C280.325 379.046 289.791 377.021 293.91 373.207C298.029 369.393 302.215 363.889 303.161 359.553C304.108 355.216 304.066 352.61 304.066 352.61Z"
          fill="#E6B584"/>
    <path d="M284.639 382.091C284.639 382.091 275.396 388.745 264.637 389.498C253.877 390.252 249.482 385.795 249.482 385.795C249.482 385.795 248.352 393.768 261.285 396.53C274.218 399.292 284.639 382.091 284.639 382.091Z"
          fill="#2CA483"/>
</svg>
