<svg width="180" height="180" viewBox="0 0 180 180" fill="none" xmlns="http://www.w3.org/2000/svg">
    <path d="M0.224274 58.7235C-0.325104 63.7865 0.226425 70.1593 0.892471 75.0358C3.62221 85.3459 11.9994 91.8953 16.2641 95.0939C10.5691 100.605 5.75458 108.65 5.75458 118.702C6.82077 129.212 11.3901 140.635 21.7474 149.317C32.131 157.491 39.5813 162.738 51.296 168.508C50.9914 172.926 53.8853 176.031 56.4746 177.495C59.9778 179.475 64.6995 179.78 68.8119 176.733C81.7585 179.78 114.81 174.144 116.638 163.482C116.806 162.502 117.221 157.778 117.247 154.039C123.035 160.284 131.717 157.237 136.134 150.383C143.14 150.231 149.882 145.887 151.787 144.07C155.791 140.253 159.679 136.111 161.054 130.468C161.861 127.151 162.043 124.483 162.055 122.846L177.791 113.898C180.859 112.162 180.223 107.025 178.92 104.919C177.618 102.814 170.393 88.7087 168.367 86.5721C166.341 84.4357 164.013 83.9961 161.913 83.9961C156.54 84.5697 144.486 94.1447 132.022 102.71C131.991 96.649 131.854 93.2677 127.3 87.4782C126.886 80.3162 126.186 76.1155 116.79 73.4655C122.883 69.9623 127.148 64.0221 125.929 58.9958C124.866 54.6122 120.147 48.263 111.155 44.6785C112.495 39.4534 112.345 30.5622 109.713 21.7694C108.538 16.8984 106.517 9.6154 105.77 7.55212C104.617 4.36844 104.023 1.03511 101.932 1.21811C99.8416 1.40091 101.149 4.52336 100.136 10.6012C99.5313 14.2301 98.7594 18.428 98.5128 20.0039C92.5452 18.6416 89.3574 17.8715 82.977 17.8715C78.103 17.8715 73.6859 18.4919 69.2689 20.0039C66.4258 15.7158 57.2929 3.60271 56.9017 2.76147C56.3972 1.67619 54.0157 0.306641 52.8475 1.31955C51.6795 2.33246 51.8553 6.95808 51.8553 10.2863C51.8553 11.8322 51.9989 16.6178 52.1528 21.3002C53.8853 32.9505 56.17 37.9767 61.1963 43.6123L57.6931 47.1154C52.8191 48.0293 52.5444 48.8806 50.0775 51.3802C46.4897 48.6212 43.4281 46.438 38.1971 45.44C34.3893 44.3738 29.0869 46.9972 27.0783 49.4001C22.1141 47.1783 19.8645 46.604 16.4465 46.3463C15.1242 46.2248 13.6887 46.1939 12.215 46.3311C6.42641 46.8699 1.23738 49.3897 0.224274 58.7235Z"
          fill="#013543"/>
    <path d="M157.87 126.12C158.324 125.86 158.762 125.608 159.183 125.367C158.959 126.982 158.544 129.992 157.771 132.382C156.691 135.718 152.46 139.526 152.46 139.526C152.46 139.526 155.754 134.875 156.115 130.994C156.211 129.962 156.273 129.16 156.33 128.521C156.419 127.517 156.995 126.621 157.87 126.12Z"
          fill="#E6B584"/>
    <path d="M79.5072 58.2501C79.5072 58.2501 76.7581 59.073 73.1675 61.5414C69.5768 64.0099 67.7442 67.3202 67.8001 66.9275C67.8563 66.5346 68.0434 63.577 69.3338 61.2609C70.6241 58.945 72.2324 57.6515 72.2324 57.6515C72.2324 57.6515 69.8761 58.5679 68.5483 60.6064C69.0716 58.4196 69.7832 55.949 72.813 53.761C75.8424 51.5729 78.7619 51.5173 78.7619 51.5173C76.6862 52.2653 73.5514 54.4743 72.5504 55.9872C72.5504 55.9872 74.4018 55.3699 76.5898 55.0334C78.7779 54.6969 79.9746 55.0334 79.9746 55.0334C79.9746 55.0334 76.7394 56.1267 74.888 57.5479C73.4404 58.6592 72.5691 59.9518 72.5691 59.9518C72.5691 59.9518 76.0287 58.0257 79.5072 58.2501Z"
          fill="#EFD9C2"/>
    <path d="M103.707 69.1512C104.632 70.2303 105.538 71.2921 109.574 72.9613C113.61 74.6304 119.897 75.6321 123.002 78.676C126.107 81.7198 125.176 87.0219 125.176 87.0219C125.176 87.0219 123.998 83.0474 122.278 81.4254C120.398 79.6518 118.552 79.2651 118.552 79.2651C118.552 79.2651 121.864 81.0325 123.209 85.2546C124.555 89.4766 122.485 93.6987 122.485 93.6987C122.485 93.6987 121.909 88.4693 119.573 85.4663C116.529 81.5549 112.571 79.572 112.571 79.572C112.571 79.572 115.349 81.7432 118.116 86.0875C119.673 88.5304 120.924 91.8926 121.036 95.0734C121.346 103.91 113.387 108.918 113.387 108.918C113.387 108.918 115.096 106.505 115.339 100.918C115.545 96.1766 114.632 92.7883 111.786 88.5407C109.093 84.5221 104.604 82.2067 104.604 82.2067C104.604 82.2067 108.374 86.0266 111.169 90.9361C113.963 95.8455 114.01 101.817 111.589 107.437C109.457 112.387 103.622 115.341 101.098 115.794C104.099 112.094 106.087 108.109 105.984 102.971C105.872 97.3817 102.585 92.799 102.585 92.799C102.585 92.799 105.038 101.142 103.538 106.053C101.808 111.717 98.792 113.106 95.4594 113.718C95.4594 113.718 99.5637 108.773 98.4102 101.686C97.288 94.7934 95.4264 92.5465 93.8831 87.3745C92.6085 83.1037 92.4298 78.5339 92.4298 78.5339C92.4298 78.5339 91.1832 82.0366 93.1593 89.4988C95.135 96.9611 96.3012 99.2307 96.3012 102.356C96.3012 105.481 95.5435 106.532 95.0386 107.623C94.0908 104.692 90.2401 100.84 87.6932 97.0639C84.362 92.1246 84.6186 87.3001 84.7436 82.5526C83.6402 85.6487 83.1903 89.2522 84.6935 94.4965C86.1356 99.5269 89.0567 103.517 89.0567 103.517C89.0567 103.517 83.7134 101.183 80.9846 97.5896C76.9825 92.32 76.8448 85.4509 76.8448 85.4509C76.8448 85.4509 75.9132 88.3199 76.2236 91.1674C76.5342 94.0148 77.1552 95.4661 77.1552 95.4661C77.1552 95.4661 71.6376 91.4458 71.3596 83.7817C71.1384 77.6824 73.6071 71.4547 73.6071 71.4547C73.6071 71.4547 70.6218 74.6434 69.8974 79.1602C69.1728 83.6767 69.8073 86.8255 69.8073 86.8255C69.8073 86.8255 64.9874 81.7834 66.7125 74.3139C69.3857 62.7399 79.7784 60.7557 79.7784 60.7557C79.7784 60.7557 74.174 65.0206 72.5971 67.1697C70.2148 70.4166 69.7078 73.0247 69.7078 73.0247C69.9093 72.6673 71.1632 70.1302 74.3429 67.3271C75.7925 66.0493 77.6421 64.8889 79.9746 63.5504C75.0937 71.2949 74.5265 78.2329 74.7228 80.3795C77.2069 74.0096 80.3992 71.9869 86.0621 69.6183C83.393 72.9487 81.4626 76.402 80.5749 79.762C79.3917 84.2421 79.8839 88.5563 81.226 92.1932C81.226 92.1932 80.6442 87.2163 81.6579 82.6857C83.7898 73.158 87.688 71.5512 90.859 68.5271C90.859 68.5271 88.3719 72.8767 87.6349 77.5807C86.82 82.7803 88.3323 86.2365 88.3323 86.2365C88.6148 73.5837 94.4804 69.0203 94.4114 69.1512C94.3423 69.2821 94.3887 75.9382 96.7347 81.1421C99.0805 86.3462 101.096 88.4947 101.096 88.4947C101.096 88.4947 97.6191 80.4798 97.1705 76.6177C96.722 72.7557 97.5352 69.1512 97.5352 69.1512C98.7133 72.4128 100.096 74.9776 103.994 77.8577C107.892 80.7381 111.084 82.872 113.104 85.214C114.607 86.9574 115.545 88.8068 115.545 88.8068C115.545 88.8068 115.102 86.3346 112.584 83.5854C110.066 80.8362 104.408 77.1767 102.718 74.0611C101.652 72.0959 101.51 70.3627 101.579 70.4609C101.648 70.5592 101.786 72.4574 106.168 74.5849C110.549 76.7122 112.224 76.701 113.707 77.1921C115.19 77.6829 116.807 78.4541 116.807 78.4541C116.807 78.4541 115.535 77.1857 110.533 75.5492C105.531 73.9128 103.983 69.9039 103.707 69.1512Z"
          fill="#EFD9C2"/>
    <path d="M106.689 47.9428C107.034 48.0868 107.659 48.5577 107.659 49.231C107.659 49.9042 107.576 51.2808 106.686 53.5749C105.974 55.4105 105.343 56.0059 105.343 56.0059V61.1085C105.343 61.1085 103.311 57.5984 102.276 55.4234C100.995 52.7333 100.443 50.0279 100.443 50.0279C100.443 50.0279 101.341 50.5451 101.874 51.1624C102.407 51.7795 102.863 52.647 103.669 53.7589C103.449 53.0557 102.939 51.5147 103.024 51.3183C103.108 51.122 104.034 51.0098 105.268 49.6071C106.502 48.2046 106.164 47.7235 106.689 47.9428Z"
          fill="#E6B584"/>
    <path d="M97.4128 46.2127C98.3389 46.2127 99.0685 46.4518 99.2369 47.153C99.4052 47.8544 100.33 53.9551 100.442 55.1613C100.555 56.3675 99.9093 56.9565 99.1801 57.0127C98.4506 57.0687 97.8999 57.0127 97.4229 57.0127C96.7313 57.0127 95.7964 56.2677 95.1226 56.2677C94.4113 56.2677 93.8122 56.3049 93.4454 56.3049C93.2411 56.3049 92.4912 55.4338 93.1215 54.173C93.6266 53.1632 94.6551 53.1444 95.337 53.4781C95.8989 53.7531 96.8618 54.734 96.8618 54.734C96.7777 54.5255 96.4201 53.2648 96.1886 51.6251C95.9476 49.9173 95.823 48.0578 95.7857 47.0824C95.7611 46.4351 97.0475 46.2127 97.4128 46.2127Z"
          fill="#E6B584"/>
    <path d="M94.4111 49.636C94.3549 50.169 93.0927 52.0152 90.5961 55.0168C88.0994 58.0183 83.9205 61.5422 83.9205 61.5422C83.9205 61.5422 83.2472 61.4675 83.4156 59.3356C83.5838 57.2036 84.0143 55.9074 83.9022 55.3465C83.79 54.7855 81.1145 52.6375 80.6096 51.2629C80.1045 49.8885 80.5815 48.3457 81.2548 47.1954C81.928 46.0454 82.2646 46.2978 82.2927 46.3819C82.3208 46.4662 82.6487 48.9282 84.6125 49.9101C86.5761 50.8918 86.7279 51.4059 86.3071 52.2475C85.8864 53.0889 85.4346 54.5972 85.4906 54.501C85.5466 54.4048 87.6787 51.9642 88.0434 51.8802C88.408 51.7961 89.1476 51.9203 91.3074 51.2192C93.4675 50.518 94.4111 49.636 94.4111 49.636Z"
          fill="#E6B584"/>
    <path d="M100.108 42.2346C100.098 42.3225 99.7132 44.8384 99.1521 45.3714C98.591 45.9044 97.8526 45.7148 97.1657 45.708C96.5461 45.7017 96.4593 45.1188 96.431 44.642C96.3888 43.9264 96.1536 42.4029 96.4109 42.2346C96.4955 42.1791 96.956 42.0397 97.4765 42.035C97.757 42.0322 97.7556 43.6123 98.0588 43.5949C98.4328 43.5735 98.7014 42.0697 99.0023 42.0908C99.4309 42.1206 100.129 42.0648 100.108 42.2346Z"
          fill="#E6B584"/>
    <path d="M100.667 43.1496C100.276 43.8299 99.9915 44.938 100.456 45.6302C100.92 46.3224 101.818 46.5056 103.108 45.8657C104.399 45.2258 105.353 43.8906 105.353 43.8906C106.83 43.595 109.282 44.0363 109.282 44.0363C109.282 44.0363 108.604 43.2171 107.659 42.8215C106.771 42.4502 106.335 42.3989 105.961 42.3614C106.223 42.0624 106.42 41.4002 106.42 41.4002C105.952 41.3987 103.763 42.2793 102.259 43.3447C102.517 42.728 102.21 41.9765 102.21 41.9765C102.21 41.9765 101.132 42.3425 100.667 43.1496Z"
          fill="#EFD9C2"/>
    <path d="M93.6565 42.049C93.926 42.0347 95.4574 42.4694 95.6839 44.3175C95.8464 45.6437 94.9258 46.3322 93.87 46.3049C92.5369 46.2705 89.9426 44.6191 88.773 43.732C88.773 43.732 86.3324 43.3514 84.3688 43.66C82.4053 43.9685 80.3991 44.5044 80.3991 44.5044C80.3991 44.5044 80.7288 43.4357 83.3097 42.5381C85.8904 41.6403 87.9421 41.8837 87.9421 41.8837C87.9421 41.8837 87.3245 41.4001 86.9 40.8837C87.7172 40.8837 89.0629 40.9662 91.2142 41.8675C92.7256 42.5006 93.2902 43.0082 93.853 43.4579C93.6915 42.9314 93.6183 42.4263 93.6565 42.049Z"
          fill="#EFD9C2"/>
    <path d="M88.7729 46.0171C88.4362 45.9609 86.8094 45.9049 85.7994 46.2133C84.7896 46.5219 84.6212 46.518 84.5371 45.973C84.4529 45.4279 84.5931 44.6852 85.8275 44.6218C87.0618 44.5584 88.7729 46.0171 88.7729 46.0171Z"
          fill="#E6B584"/>
    <path d="M106.361 47.1536L105.267 46.5779C105.267 46.5779 105.632 45.7643 106.361 45.8765C107.091 45.9887 106.361 47.1536 106.361 47.1536Z"
          fill="#E6B584"/>
    <path d="M104.604 48.526C104.604 48.526 103.949 48.9065 102.715 48.8784C102.301 48.869 101.994 48.8359 101.77 48.7962C101.48 48.7451 101.244 49.0378 101.373 49.3015C101.552 49.6683 101.917 50.0556 102.659 50.1127C104.118 50.2249 104.604 48.526 104.604 48.526Z"
          fill="#E6B584"/>
    <path d="M91.9151 49.1031C91.5513 49.5922 90.5048 50.1311 88.8582 50.1178C87.2226 50.1045 86.0243 48.6823 86.0243 48.6823C86.0243 48.6823 87.4183 48.8162 89.1013 48.7881C90.7846 48.7602 92.2789 48.6138 91.9151 49.1031Z"
          fill="#E6B584"/>
    <path d="M101.014 57.2417C102.136 58.9144 104.698 61.1562 106.165 62.9641C107.541 64.659 108.073 66.5855 107.961 68.1634C107.848 69.7413 107.381 70.8393 107.381 70.8393C107.381 70.8393 104.605 67.2565 102.22 65.5492C99.8358 63.842 98.7741 63.6594 98.2391 63.0507C97.409 62.1059 97.2729 60.636 97.2729 60.636C97.2729 60.636 97.3341 62.2861 96.156 63.1396C94.9778 63.9934 87.863 66.2794 84.8924 67.5949C81.2467 69.2095 78.9162 71.5892 78.9162 71.5892C78.9162 71.5892 78.9162 67.8298 81.474 65.1483C84.5377 61.9365 90.4103 58.6814 92.2056 56.9742C93.1875 57.5561 93.0191 58.19 92.4299 58.9401C91.8409 59.6902 89.6134 61.258 89.6134 61.258C89.6134 61.258 92.7526 59.6126 94.1411 58.0347C94.1411 58.0347 95.2944 58.7136 95.0404 59.7164C94.8174 60.5964 92.5844 62.0573 92.5844 62.0573C92.5844 62.0573 94.8904 60.9981 95.7681 59.5351C96.3676 58.5361 97.9516 58.5135 98.8586 59.6126C99.7659 60.7123 100.631 61.6616 101.06 61.9342C100.747 61.5904 100.046 60.6684 99.63 59.8153C99.3894 59.3221 99.574 58.6557 99.9292 58.3108C101.35 60.337 102.823 61.2681 102.823 61.2681C102.823 61.2681 100.846 59.2074 100.677 58.5004C100.487 57.7003 101.014 57.2417 101.014 57.2417Z"
          fill="#EFD9C2"/>
    <path d="M95.8945 64.6698C96.3259 64.6573 97.783 64.5209 99.1139 64.7217C100.101 64.8703 100.013 66.5567 99.4788 66.5132C98.2565 66.4131 96.6431 66.3628 94.7615 66.6937C93.8699 66.8503 93.6553 66.2256 94.0494 65.5584C94.4916 64.8097 95.4261 64.6832 95.8945 64.6698Z"
          fill="#E6B584"/>
    <path d="M54.8997 5.23276C54.8997 5.23276 59.5778 12.963 65.5525 20.9875C72.5607 30.4007 75.5747 36.1752 75.5747 43.5547C72.8228 36.1752 70.2889 32.0863 64.7723 25.0503C58.9502 17.6245 56.1608 13.737 55.1296 11.7773C54.0981 9.81759 54.8997 5.23276 54.8997 5.23276Z"
          fill="#EFD9C2"/>
    <path d="M55.2662 15.2839C55.2662 15.2839 60.4757 22.2339 64.1284 26.5828C69.4977 32.9754 73.9879 40.8567 75.3828 46.2964C75.3828 46.2964 69.6826 37.3616 65.2342 32.2555C61.6172 28.104 57.3589 23.111 56.5169 21.8421C54.82 19.2843 55.2662 15.2839 55.2662 15.2839Z"
          fill="#EFD9C2"/>
    <path d="M56.4047 23.7879C56.4047 23.7879 64.3984 33.2518 67.6629 37.178C71.5003 41.7936 73.6385 45.3751 75.3828 48.8922C75.3828 48.8922 68.2448 40.714 65.2342 37.9291C62.2235 35.1443 57.6344 30.4188 57.1892 29.0298C56.4047 26.5837 56.4047 23.7879 56.4047 23.7879Z"
          fill="#EFD9C2"/>
    <path d="M58.5066 32.5715C59.134 33.2413 64.1102 38.1505 67.7009 42.0898C70.4593 45.1159 74.9194 50.3063 74.9194 50.3063C74.9194 50.3063 66.688 44.1482 62.315 40.2076C58.9112 37.1406 58.5066 32.5715 58.5066 32.5715Z"
          fill="#EFD9C2"/>
    <path d="M108.326 41.251C108.635 40.0133 109.16 34.1627 108.438 29.8307C107.716 25.4987 102.608 5.23327 102.608 5.23327C102.608 5.23327 102.556 12.4198 102.762 14.4827C102.969 16.5456 103.452 20.3169 104.174 22.9987C104.896 25.6802 105.726 27.651 106.456 29.544C108.246 34.1875 108.326 41.251 108.326 41.251Z"
          fill="#EFD9C2"/>
    <path d="M101.968 16.592C101.968 16.592 102.268 20.1645 102.693 21.9137C103.021 23.263 103.518 24.8531 103.518 24.8531C103.518 24.8531 101.956 23.1412 101.107 22.5495C100.671 18.7411 101.968 16.592 101.968 16.592Z"
          fill="#EFD9C2"/>
    <path d="M84.2571 40.0254C85.6305 39.7767 86.1715 41.3177 86.2954 41.3072C80.9844 41.7561 77.0893 44.3555 77.0893 44.3555C77.0893 44.3555 77.7855 42.5087 79.7823 41.465C80.9599 40.8495 82.0502 40.425 84.2571 40.0254Z"
          fill="#55E3AA"/>
    <path d="M86.4867 39.6541C94.4831 38.244 103.208 38.9297 104.748 39.1814C106.227 39.4229 106.371 41.1368 105.268 41.1916C102.143 41.3469 99.5738 40.9835 92.8746 41.1706C92.1122 41.1918 87.5139 39.9985 86.4867 39.6541Z"
          fill="#55E3AA"/>
    <path d="M64.2099 44.5173C64.0221 44.7851 60.3382 45.7206 58.9916 51.2374C57.8738 55.8177 59.8895 59.2386 62.7046 63.2081C64.9123 66.3208 66.0982 70.9858 66.0982 70.9858C66.0982 70.9858 67.2898 66.5799 65.4944 63.309C63.5 59.675 61.9771 56.6226 61.853 52.6773C61.7128 48.2172 64.2099 44.5173 64.2099 44.5173Z"
          fill="#EFD9C2"/>
    <path d="M65.64 45.0606C65.64 45.0606 64.7422 47.7687 65.0891 50.8263C65.482 54.2898 68.7256 56.1841 68.7256 56.1841C68.7256 56.1841 67.8842 56.4927 67.0144 56.3806C66.1449 56.2684 65.4486 55.9598 65.4486 55.9598C65.4486 55.9598 66.9304 58.2601 67.1268 60.3358C67.3231 62.4116 67.239 62.9165 67.239 62.9165C67.239 62.9165 65.5838 60.3077 64.574 58.4563C63.5641 56.6049 62.4368 53.6524 63.2784 50.0766C64.1199 46.501 65.64 45.0606 65.64 45.0606Z"
          fill="#EFD9C2"/>
    <path d="M58.3295 49.1576C57.6188 50.9365 56.259 55.7256 60.2316 62.0278C62.4705 65.5792 63.8478 68.266 64.4852 70.2751C65.2129 72.5686 65.0898 76.1099 65.0898 76.1099C65.0898 76.1099 63.5374 71.3939 61.8296 68.3392C59.3518 63.9069 54.2466 56.2348 51.3727 53.1937C52.8693 49.6534 58.3295 49.1576 58.3295 49.1576Z"
          fill="#EFD9C2"/>
    <path d="M32.4737 74.1275C34.1243 70.9858 37.2678 69.6549 40.4562 69.775C49.7874 70.1274 55.6548 75.3484 55.6548 75.3484C55.6548 75.3484 50.7957 72.9979 42.6857 72.8518C38.5375 72.7769 32.4737 74.1275 32.4737 74.1275Z"
          fill="#E6B584"/>
    <path d="M107.659 53.4625C108.11 53.7803 109.232 55.0999 109.823 56.7446C110.269 57.9883 110.309 59.4844 110.169 60.8309C109.561 58.8484 108.327 56.8661 106.686 55.6505C106.686 55.6505 107.466 54.3414 107.659 53.4625Z"
          fill="#EFD9C2"/>
    <path d="M106.082 56.3612C106.082 56.3612 108.794 58.755 109.635 61.7471C110.378 64.389 110.159 66.7217 109.86 68.2179C109.56 69.7138 108.7 71.3596 108.7 71.3596C108.7 71.3596 109.71 66.9593 108.362 64.0293C107.331 61.7883 106.082 60.2511 106.082 60.2511C106.327 60.1083 107.316 60.756 108.366 61.7902C108.366 61.7902 107.391 59.877 106.082 56.3612Z"
          fill="#EFD9C2"/>
    <path d="M67.0992 45.7199C67.043 47.2346 67.147 48.553 67.7992 49.9557C69.3631 53.3179 70.3814 49.8155 69.5929 47.4687C69.5929 47.4687 71.0682 48.5218 71.7976 49.1734L72.5269 49.825C72.5269 49.825 72.345 51.8071 71.1669 53.4342C69.9887 55.0611 67.9336 54.4419 66.901 52.1653C65.4162 48.8913 67.0992 45.7199 67.0992 45.7199Z"
          fill="#E6B584"/>
    <path d="M74.4595 98.5992C74.5965 98.9244 74.6497 104.259 70.3755 108.836C66.9706 112.481 62.2156 114.142 58.916 113.919C62.6169 112.001 66.6885 109.943 69.1851 105.005C71.6816 100.068 71.8956 96.2429 71.8956 96.2429L74.4595 98.5992Z"
          fill="#2CA483"/>
    <path d="M64.3355 131.551C64.2608 131.925 64.5017 134.669 66.1543 136.764C67.807 138.858 71.0156 140.13 71.0156 140.13C71.0156 140.13 68.0914 141.388 65.0991 140.679C63.4047 140.278 61.8077 138.834 61.8463 136.893C61.9006 134.165 64.3355 131.551 64.3355 131.551Z"
          fill="#2CA483"/>
    <path d="M61.6025 129.052C61.6025 129.052 58.0579 130.665 55.5428 130.29C53.0281 129.915 52.2643 127.963 52.5815 126.076C55.8727 128.05 61.6025 129.052 61.6025 129.052Z"
          fill="#2CA483"/>
    <path d="M70.3205 128.211C70.3205 128.211 73.5037 132.469 76.861 134.06C79.5216 135.32 83.2617 136.368 83.2617 136.368C83.2617 136.368 79.6242 138.629 75.4353 138.331C71.2463 138.032 69.207 135.899 68.8297 133.037C68.4728 130.332 70.3205 128.211 70.3205 128.211Z"
          fill="#2CA483"/>
    <path d="M70.0171 126.488C70.0171 126.488 62.5088 126.78 58.8846 124.257C56.8159 122.817 56.0464 120.333 56.7765 118.312C60.4925 122.405 70.0171 126.488 70.0171 126.488Z"
          fill="#2CA483"/>
    <path d="M35.69 110.152C35.69 110.152 44.2014 110.04 50.1765 108.435C56.1515 106.829 58.7821 103.664 58.7821 103.664C58.7821 103.664 53.922 106.205 49.0173 106.919C44.1123 107.632 41.5857 107.454 41.9126 107.454C42.4251 107.454 49.5469 105.498 53.9613 101.307C51.0782 102.494 46.6631 103.601 38.3155 105.804C38.3155 105.804 40.865 102.95 45.0487 99.6504C49.2322 96.3508 50.3993 95.5037 50.3993 95.5037C50.3993 95.5037 44.5583 97.4666 40.2776 100.677L35.9969 103.887C35.9969 103.887 38.0619 98.369 42.8331 93.91C47.0279 89.9897 49.5522 87.9328 49.5522 87.9328C49.5522 87.9328 39.3911 93.7159 35.6849 99.2491C32.4671 104.053 31.9665 104.975 31.889 105.253C32.0406 104.608 33.2307 99.0517 36.6024 93.4885C39.6859 88.4007 41.6438 86.5456 42.8637 85.4962C40.0546 87.0762 36.7289 89.1114 33.188 94.612C29.3987 100.498 28.6843 103.921 28.6843 103.921C28.6843 103.921 28.2842 100.209 30.6016 93.2296C31.8748 89.3949 34.2136 85.4962 34.2136 85.4962C34.2136 85.4962 28.9071 90.0638 27.0791 97.109C25.8227 101.951 26.3656 103.921 26.3656 103.921C26.3656 103.921 25.4563 102.686 24.7157 99.6504C24.27 97.8222 24.3591 94.7011 24.3591 94.7011C24.3591 94.7011 23.5641 97.0151 23.8316 100.582C24.0991 104.149 24.7604 105.938 24.7604 105.938C22.7092 105.313 20.2179 99.0253 20.0991 95.5032C19.9543 91.2125 20.849 86.7789 23.2475 83.5293C28.9045 75.8649 36.0517 76.0949 36.0517 76.0949C36.0517 76.0949 29.2594 79.7396 26.6758 85.5178C24.7511 89.8221 24.5649 92.8577 24.5649 92.8577C24.5649 92.8577 27.0143 86.1991 31.3726 81.689C35.4044 77.5164 41.5418 76.2032 46.8648 75.7935C51.3492 75.4482 54.0767 76.5604 55.6552 77.9026C58.772 80.5526 56.3271 83.2497 55.0832 84.4916C58.3715 82.8812 62.3993 81.235 65.3438 85.48C68.5193 90.0584 64.4006 97.7777 60.655 102.058C65.2923 98.8185 66.3394 96.3064 67.7351 90.3465C67.7351 90.3465 69.5122 91.7902 69.0824 96.663C68.7291 100.67 66.2491 107.65 57.8012 110.709C47.8266 114.32 35.69 110.152 35.69 110.152Z"
          fill="#E6B584"/>
    <path d="M67.481 116.398C68.8285 118.945 73.5746 121.82 76.6514 122.756C74.0766 120.843 71.5794 117.382 70.4744 114.343C72.5584 116.211 75.5033 117.887 79.3083 118.958C77.186 116.87 74.1525 113.285 73.0955 111.11C75.5628 112.887 77.1916 113.584 81.627 114.978C79.9194 113.07 77.6846 110.132 76.5498 106.948C87.3344 114.38 91.0799 115.926 99.2289 117.589C99.9285 119.746 101.079 124.413 99.934 128.173C98.3886 133.247 94.4638 135.383 91.4366 135.188C88.7751 135.016 80.0058 132.887 74.5077 127.389C69.0095 121.891 68.6613 119.883 67.481 116.398Z"
          fill="#55E3AA"/>
    <path d="M86.0227 32.0074C84.1586 31.309 80.8085 31.1711 76.3942 32.5706C78.2669 30.0454 80.8811 28.6815 84.9386 28.8598C82.1461 27.8161 79.5599 27.9497 75.7699 29.02C77.3304 26.7458 80.2287 25.8987 83.2163 25.6757C83.2163 25.6757 79.9298 24.562 75.3817 24.8528C78.1016 23.1532 81.6915 23.2414 81.6915 23.2414C79.8001 22.4214 78.2669 21.9749 73.0302 21.1465C73.0302 21.1465 83.7942 19.2822 90.1739 25.8958C95.6313 31.5536 94.4095 37.5129 94.4095 37.5129C86.0227 37.5796 81.1849 38.986 77.318 41.4381C80.4062 36.5556 86.0227 35.3072 86.0227 35.3072C86.0227 35.3072 82.0569 34.8612 76.7955 36.3394C79.337 32.2751 86.0227 32.0074 86.0227 32.0074Z"
          fill="#55E3AA"/>
    <path d="M92.6123 47.6145C92.6123 47.5476 91.1185 46.8341 91.1185 46.8341C91.1185 46.8341 91.386 47.4584 91.2968 47.793C91.2076 48.1272 91.1128 48.2388 91.1128 48.2388L92.6123 47.6145Z"
          fill="#EFD9C2"/>
    <path d="M104.447 47.6145C104.447 47.347 103.71 46.8341 103.71 46.8341C103.806 46.9235 103.94 47.4584 103.863 47.793C103.786 48.1272 103.705 48.2388 103.705 48.2388C103.705 48.2388 104.447 47.8821 104.447 47.6145Z"
          fill="#EFD9C2"/>
    <path d="M11.4292 60.106C18.0243 56.9918 25.5782 58.5625 25.5782 58.5625C25.5782 58.5625 20.0665 56.6274 15.1781 57.5084C5.77626 59.2026 3.11268 65.0054 3.11268 65.0054C3.60938 62.6159 4.61371 59.3138 8.74749 57.1055C13.1649 54.7457 18.1226 54.7793 18.1226 54.7793C18.1226 54.7793 13.5376 54.0986 9.93774 54.9242C6.33812 55.75 3.66186 57.8182 3.66186 57.8182C3.66186 57.8182 4.51538 55.6258 7.72326 53.7406C9.72373 52.565 14.3224 51.8921 14.3224 51.8921C11.4544 51.3002 7.46789 52.0743 3.7118 54.8616C6.287 50.9814 8.74184 49.6929 13.7344 49.5161C30.7378 48.9137 61.0225 72.4327 64.3408 79.2491C44.6132 65.4111 30.7885 60.3862 17.455 61.6026C5.2103 62.7197 3.75823 76.3366 3.75823 76.3366C3.05883 69.8331 5.20601 63.0447 11.4292 60.106Z"
          fill="#55E3AA"/>
    <path d="M31.7308 51.539C34.4081 51.3864 38.9529 53.049 43.8134 55.6806C42.4324 54.0121 36.5385 50.903 31.4111 49.9049C36.5755 48.8701 40.316 51.0961 43.1058 52.5078C43.1058 52.5078 38.2428 48.5993 33.4402 48.1069C36.8225 47.2015 40.9499 48.6341 43.7742 50.5629C52.9926 56.8587 58.6891 66.0493 62.502 73.546C51.2185 61.5819 36.6095 53.3172 31.7308 51.539Z"
          fill="#55E3AA"/>
    <path d="M101.401 47.1756C101.401 47.445 101.62 47.6633 101.889 47.6633C102.158 47.6633 102.376 47.445 102.376 47.1756C102.376 46.9064 102.158 46.6879 101.889 46.6879C101.62 46.6879 101.401 46.9064 101.401 47.1756Z"
          fill="#EFD9C2"/>
    <path d="M88.7616 47.1756C88.7616 47.445 88.9799 47.6633 89.2493 47.6633C89.5185 47.6633 89.7368 47.445 89.7368 47.1756C89.7368 46.9064 89.5185 46.6879 89.2493 46.6879C88.9799 46.6879 88.7616 46.9064 88.7616 47.1756Z"
          fill="#EFD9C2"/>
    <path d="M10.3077 70.3579C10.3077 70.3579 9.79932 72.2194 10.3064 76.177C10.8136 80.1345 14.2728 82.6199 14.2728 82.6199C14.2728 82.6199 11.2537 77.992 11.9055 72.9352C12.5577 67.8785 15.8667 65.7188 15.8667 65.7188C15.8667 65.7188 13.9749 69.4536 15.2145 73.459C15.9884 75.9587 17.65 78.0027 17.65 78.0027C17.65 78.0027 15.8821 74.3385 16.7077 71.0407C17.5331 67.7427 19.781 66.4252 20.6733 65.9108C19.8094 68.2173 19.4206 72.8041 21.8394 74.8793C21.8394 74.8793 21.2615 71.2268 22.3577 69.3531C23.9916 66.56 28.0396 66.4968 28.0396 66.4968C28.0396 66.4968 25.2513 68.3847 25.4673 71.0932C25.7527 74.6725 26.3731 76.0241 26.3731 76.0241C24.9922 74.7263 24.0853 73.8268 23.6533 71.3189C22.8759 73.634 23.5669 77.3066 23.5669 77.3066C20.5438 77.8716 18.9467 74.7363 18.557 73.2409C18.5492 75.0486 19.4996 80.1908 20.1981 80.6981C18.198 81.41 16.0949 81.3356 13.9786 76.019C14.065 78.9021 15.8151 83.0216 16.9424 84.7503C14.9288 86.2153 11.5148 83.4875 10.6963 82.5458C10.6963 82.5458 11.3874 85.5599 14.8524 89.2247C13.0743 88.3671 9.61671 86.9141 8.49553 80.6238C7.7413 76.3903 10.3077 70.3579 10.3077 70.3579Z"
          fill="#2CA483"/>
    <path d="M60.9473 144.424C58.3812 145.027 56.7905 144.687 52.3765 148.743C47.9772 152.786 45.926 159.415 45.926 159.415C45.926 159.415 46.0047 149.867 50.0581 144.789C54.1111 139.712 59.5407 139.974 60.9473 144.424Z"
          fill="#55E3AA"/>
    <path d="M117.589 107.842C117.589 107.842 115.443 110.602 111.403 113.012C107.363 115.421 106.017 116.166 105.891 116.385C105.765 116.604 105.512 122.985 106.606 126.147C106.72 126.476 106.837 126.778 106.956 127.055C107.719 128.833 109.929 129.45 111.512 128.339L118.935 123.132C118.935 123.132 115.821 124.052 113.97 124.403C112.118 124.753 111.572 124.797 111.572 124.797C111.572 124.797 114.264 123.833 115.99 121.861C117.715 119.89 118.473 118.926 118.473 118.926C118.473 118.926 117.21 119.364 115.358 119.539C113.507 119.715 112.876 119.732 112.876 119.732C112.876 119.732 115.821 117.436 117.294 114.808C118.767 112.179 119.314 110.646 119.314 110.646C119.314 110.646 117.126 112.836 115.401 113.888C113.675 114.939 112.876 115.117 112.876 115.117C112.876 115.117 116.789 111.566 117.589 107.842Z"
          fill="#55E3AA"/>
    <path d="M126.068 90.1527C128.966 92.3822 131.112 97.7129 130.928 104.332C128.03 106.339 123.794 109.415 122.411 110.485C122.902 104.912 122.01 100.007 122.01 100.007C122.01 100.007 123.028 100.666 123.834 102.593C124.641 104.521 124.641 105.848 124.641 105.848C124.641 105.848 125.444 103.49 125.306 100.765C125.172 98.1144 124.106 94.6562 124.106 94.6562C124.106 94.6562 125.2 95.5183 126.474 97.9559C127.5 99.9178 128.119 102.549 128.119 102.549C128.119 102.549 128.405 99.0211 127.851 96.0831C127.405 93.7199 126.068 90.1527 126.068 90.1527Z"
          fill="#E6B584"/>
    <path d="M45.8496 114.6C46.4442 115.938 47.1594 120.12 46.0675 123.627C44.7994 127.701 40.1879 129.009 36.7404 129.184C36.7404 129.184 31.3302 129.421 25.8009 133.702C23.4007 133.047 19.6686 129.749 18.7117 124.549C17.7547 119.349 20.48 111.802 24.8797 109.885C24.0176 111.802 23.4824 115.972 23.4824 115.972C23.4824 115.972 26.0686 112.507 28.1373 110.886C27.8659 112.78 26.9346 117.757 27.9711 121.217C28.8033 118.334 29.7265 115.665 30.9521 113.137C31.1518 116.55 33.1078 122.956 33.1078 122.956C33.1078 122.956 33.8866 118.363 34.491 115.725C36.3836 119.314 39.7487 120.129 39.7487 120.129C39.7487 120.129 38.2563 116.728 38.1968 114.855C41.5607 115.07 45.8496 114.6 45.8496 114.6Z"
          fill="#E6B584"/>
    <path d="M18.8306 103.261C18.8306 103.261 13.4798 106.696 10.6707 111.801C7.86138 116.906 7.46027 118.926 7.46027 118.926C7.46027 118.926 7.78764 111.915 11.3397 105.669C14.416 100.259 17.1034 98.8176 17.1034 98.8176L18.8306 103.261Z"
          fill="#E6B584"/>
    <path d="M55.3491 140.211C53.9644 138.969 47.2995 134.004 45.5715 132.734C43.8436 131.465 41.748 131.322 40.2192 131.626C38.1686 132.033 36.2082 131.746 29.0413 136.882C25.4741 139.439 23.631 144.224 23.3041 146.038C25.2712 143.67 29.9924 139.736 35.1352 138.22C32.2265 140.253 29.9438 143.376 28.4995 146.318C27.0553 149.26 26.4368 151.541 26.4368 151.541C26.4368 151.541 31.6106 145.897 33.7678 144.076C35.9251 142.255 39.0294 141.133 39.0294 141.133C39.0294 141.133 34.2229 145.708 33.0543 148.683C31.8857 151.659 31.8311 154.956 31.8311 154.956C31.8311 154.956 34.6894 150.199 36.7702 147.762C38.351 145.91 39.2668 145.341 41.229 144.195C40.0399 145.622 37.1861 150.824 37.7094 155.049C37.7094 155.049 41.6155 146.722 48.4525 141.965C51.8424 139.607 55.3491 140.211 55.3491 140.211Z"
          fill="#55E3AA"/>
    <path d="M139.879 123.643C139.507 119.819 136.028 119.23 136.028 119.23C136.028 119.23 138.07 121.837 137.462 125.34C137.438 125.48 137.382 125.656 137.303 125.855C137.298 125.702 137.288 125.543 137.271 125.377C136.9 121.553 133.421 120.964 133.421 120.964C133.421 120.964 135.463 123.57 134.855 127.073C134.831 127.214 134.774 127.39 134.696 127.589C134.69 127.435 134.68 127.276 134.664 127.11C134.292 123.286 130.814 122.697 130.814 122.697C130.814 122.697 132.856 125.304 132.248 128.807C132.223 128.947 132.167 129.123 132.089 129.323C132.083 129.169 132.073 129.01 132.057 128.844C131.685 125.02 128.206 124.431 128.206 124.431C128.206 124.431 130.248 127.038 129.64 130.541C129.616 130.681 129.56 130.857 129.481 131.056C129.476 130.903 129.466 130.743 129.449 130.578C129.078 126.754 125.599 126.164 125.599 126.164C125.599 126.164 127.641 128.771 127.033 132.274C127.009 132.415 126.952 132.591 126.874 132.79C126.868 132.637 126.858 132.477 126.842 132.311C126.47 128.487 122.991 127.898 122.991 127.898C122.991 127.898 125.034 130.505 124.426 134.008C124.401 134.148 124.345 134.324 124.267 134.524C124.261 134.37 124.251 134.211 124.235 134.045C123.863 130.221 120.384 129.632 120.384 129.632C120.384 129.632 122.426 132.239 121.818 135.742C121.794 135.882 121.738 136.058 121.659 136.258C121.654 136.104 121.643 135.944 121.627 135.779C121.256 131.955 117.777 131.365 117.777 131.365C117.777 131.365 119.819 133.972 119.211 137.475C119.186 137.616 119.13 137.792 119.052 137.991C119.046 137.838 119.036 137.678 119.02 137.512C118.648 133.688 115.169 133.099 115.169 133.099C115.169 133.099 117.211 135.706 116.603 139.209C116.579 139.349 116.523 139.525 116.444 139.725C116.439 139.571 116.429 139.412 116.413 139.246C116.041 135.422 112.562 134.833 112.562 134.833C112.562 134.833 114.604 137.44 113.996 140.943C113.972 141.083 113.915 141.259 113.837 141.458C113.832 141.305 113.821 141.145 113.805 140.979C113.433 137.156 109.955 136.567 109.955 136.567C109.955 136.567 111.997 139.173 111.389 142.676C111.364 142.817 111.308 142.993 111.23 143.192C111.224 143.038 111.214 142.879 111.198 142.713C110.826 138.889 107.347 138.3 107.347 138.3C107.347 138.3 109.39 140.907 108.781 144.41C108.757 144.55 108.701 144.726 108.622 144.926C108.617 144.772 108.606 144.613 108.59 144.447C108.219 140.623 104.74 140.034 104.74 140.034C104.74 140.034 106.782 142.641 106.174 146.144C106.15 146.284 106.093 146.46 106.015 146.659C106.01 146.506 105.999 146.346 105.983 146.18C105.611 142.357 102.133 141.767 102.133 141.767C102.133 141.767 104.175 144.374 103.567 147.877C103.542 148.018 103.486 148.194 103.407 148.393C103.402 148.24 103.392 148.08 103.376 147.914C103.004 144.09 99.5253 143.501 99.5253 143.501C99.5253 143.501 101.567 146.108 100.959 149.611C100.935 149.751 100.878 149.927 100.8 150.127C100.795 149.973 100.784 149.814 100.768 149.648C100.397 145.824 96.9179 145.235 96.9179 145.235C96.9179 145.235 98.9599 147.842 98.3518 151.345C98.3212 151.521 98.2408 151.753 98.1279 152.019C95.7199 146.841 92.5313 144.509 92.5313 144.509C93.4248 144.119 134.488 116.059 134.488 116.059C134.488 116.059 135.924 115.129 138.411 118.186C140.289 120.495 140.276 122.67 139.895 123.884C139.889 123.804 139.887 123.727 139.879 123.643Z"
          fill="#55E3AA"/>
    <path d="M123.616 112.715C124.01 112.373 153.787 90.7564 156.21 89.3057C158.482 87.9467 162.542 87.1258 164.014 87.9328C163.253 87.9672 161.035 89.0267 159.225 90.0369C155.75 91.9761 149.824 96.2482 146.627 98.5833C145.836 99.1607 143.904 101.479 145.163 103.944C145.529 106.05 157.895 123.252 157.895 123.252C155.527 122.85 154.158 121.482 154.158 121.482C154.158 121.482 154.299 123.239 155.847 124.742C155.74 124.727 155.633 124.711 155.527 124.693C153.16 124.291 151.79 122.923 151.79 122.923C151.79 122.923 151.931 124.68 153.479 126.183C153.372 126.168 153.266 126.152 153.16 126.134C150.792 125.733 149.423 124.364 149.423 124.364C149.423 124.364 149.564 126.122 151.112 127.624C151.005 127.609 150.898 127.593 150.792 127.576C148.424 127.173 147.055 125.805 147.055 125.805C147.055 125.805 147.196 127.563 148.744 129.065C148.637 129.05 148.53 129.035 148.424 129.017C146.057 128.615 144.687 127.246 144.687 127.246C144.687 127.246 144.828 129.004 146.376 130.506C146.269 130.492 146.163 130.476 146.057 130.458C143.689 130.056 142.32 128.687 142.32 128.687C142.32 128.687 142.461 130.445 144.008 131.947C143.902 131.933 143.795 131.917 143.689 131.899C141.321 131.497 139.952 130.128 139.952 130.128C139.952 130.128 140.093 131.886 141.641 133.388C141.534 133.374 141.427 133.358 141.321 133.34C138.954 132.938 137.584 131.569 137.584 131.569C137.584 131.569 137.725 133.327 139.273 134.83C139.166 134.815 139.06 134.799 138.954 134.781C136.586 134.379 135.217 133.01 135.217 133.01C135.217 133.01 135.358 134.768 136.906 136.271C136.799 136.256 136.692 136.24 136.586 136.222C134.218 135.82 132.849 134.452 132.849 134.452C132.849 134.452 132.974 136.014 134.286 137.452C132.742 137.462 131.644 136.463 131.058 135.781C130.235 134.823 129.317 133.507 129.317 133.507C129.317 133.507 138.356 127.402 140.433 125.741C142.51 124.079 141.836 120.849 140.343 118.613C138.849 116.376 136.835 113.152 133.829 114.902C130.824 116.652 122.784 122.54 122.784 122.54C122.784 122.54 121.06 120.447 120.819 117.908C120.577 115.37 123.221 113.058 123.616 112.715Z"
          fill="#2CA483"/>
    <path d="M114.154 71.0364C115.35 69.0389 116.964 65.7994 117.667 62.7601C118.269 60.1576 118.653 57.4499 118.077 55.1104C118.065 58.3356 116.988 61.7128 115.968 64.4053C114.871 67.303 113.023 69.8056 110.824 71.7274C119.409 57.0515 113.851 48.2383 113.851 48.2383C117.89 48.9898 121.832 52.6585 120.093 60.2602C118.606 66.76 114.36 71.0801 113.212 72.3461C113.438 71.9512 113.863 71.5226 114.154 71.0364Z"
          fill="#55E3AA"/>
    <path d="M123.159 58.6906C123.211 58.9534 123.004 62.7194 120.05 66.9232C117.097 71.1272 114.921 72.616 114.921 72.616C114.921 72.616 120.897 69.6861 123.482 65.0443C126.066 60.4025 123.159 58.6906 123.159 58.6906Z"
          fill="#55E3AA"/>
    <path d="M107.313 165.425C103.083 166.253 100.263 166.395 96.9261 165.922C96.9261 165.922 102.52 163.838 104.681 162.224C106.842 160.609 109.898 157.995 110.697 156.318C104.869 159.955 102.472 158.278 102.472 158.278C102.472 158.278 105.245 157.029 108.469 154.224C111.063 151.967 113.094 149.745 113.094 149.745C113.094 149.745 107.724 152.203 105.68 151.975C109.825 148.598 115.428 144.385 116.488 143.591C116.513 144.483 116.259 145.858 115.776 147.073C115.215 148.482 114.763 148.952 114.763 148.952L116.513 147.542C116.513 147.542 116.475 150.659 115.638 152.496C114.851 154.22 113.382 155.527 113.382 155.527C113.382 155.527 115.377 154.702 116.049 153.444C116.143 155.094 116 157.456 115.128 158.886C114.507 159.903 113.582 161.009 113.22 161.627C114.412 161.079 115.488 159.751 115.488 159.751C115.202 163.497 113.532 166.337 110.952 167.767C108.196 169.295 104.208 171.266 100.169 172.435C92.8725 174.546 89.7368 173.78 89.7368 173.78C95.7983 172.324 100.498 170.834 107.313 165.425Z"
          fill="#2CA483"/>
    <path d="M91.6743 108.91C91.6743 108.91 86.5614 106.591 82.697 103.916C78.8326 101.241 77.7475 99.5908 77.7475 99.5908C77.7475 99.5908 80.4972 106.638 86.0264 109.885C91.5555 113.131 91.6743 108.91 91.6743 108.91Z"
          fill="#55E3AA"/>
    <path d="M60.9377 160.487C65.5867 161.009 69.6545 166.046 69.3939 171.082C66.9886 167.295 64.2969 164.927 61.1925 164.074C59.6826 163.66 58.0718 163.811 56.2674 164.44C55.272 164.787 54.3321 163.72 54.8395 162.797C55.6509 161.32 57.6568 160.118 60.9377 160.487Z"
          fill="#2CA483"/>
    <path d="M57.7122 153.693C59.1413 152.42 62.6018 149.651 65.9062 147.985C67.2859 147.29 72.2445 144.088 77.1979 143.27C82.1513 142.452 84.2694 140.684 87.3196 141.609C90.3029 142.513 90.5987 144.838 91.6003 146.246C92.6017 147.654 94.9853 151.302 96.2269 152.803C97.4684 154.304 98.5846 155.701 97.7275 157.633C97.3875 158.4 96.6963 159.209 95.9861 159.906C96.1843 159.06 96.2386 158.193 96.0146 157.394C95.212 154.532 90.634 150.268 89.6531 148.618C88.6722 146.968 88.4346 145.83 86.294 145.354C83.3208 144.694 81.5675 146.097 81.5675 146.097C81.5675 146.097 83.7736 146.259 85.4171 147.827C85.6713 148.175 85.8871 148.595 85.985 149.093C86.3206 150.796 86.255 151.323 86.7326 152.087C87.2102 152.851 89.3716 155.355 91.1014 157.487C92.6914 159.446 93.0717 161.15 92.7744 162.047C92.3297 163.39 91.7689 163.786 90.6572 164.684C90.9354 163.931 91.046 163.148 90.834 162.392C90.0314 159.53 85.1752 155.183 84.1943 153.533C83.2133 151.883 82.7096 149.84 79.8435 149.27C76.8561 148.676 74.3145 150.408 74.3145 150.408C74.3145 150.408 75.7724 150.424 77.3032 150.873C77.653 151.02 79.513 151.837 79.9181 152.793C80.3654 153.849 80.4118 154.944 80.54 155.683C80.8053 157.214 86.4245 162.981 86.5798 165.663C86.6698 167.216 86.1955 167.951 85.3958 168.663C84.9621 169.05 84.1447 169.693 83.3173 170.254C83.7132 169.526 83.9358 168.655 83.705 167.645C83.0426 164.748 78.6474 160.07 77.7479 158.374C76.8483 156.679 77.2826 154.338 74.4333 153.262C71.584 152.185 68.9813 153.96 68.9813 153.96C68.9813 153.96 70.9144 154.199 72.4835 155.391C72.9104 155.82 73.3854 156.482 73.5316 157.391C73.8152 159.157 73.7142 159.918 74.0251 160.756C74.3361 161.594 78.109 166.318 78.832 168.447C79.555 170.576 78.7822 171.413 78.1632 172.414C77.6257 173.283 77.0381 173.538 76.2238 174.187C76.2197 174.098 76.2146 174.008 76.2074 173.915C75.9493 170.592 74.6118 168.898 73.274 167.114C71.9363 165.33 72.0245 163.433 72.0245 163.433C72.0245 163.433 70.6826 163.101 70.0164 161.763C69.35 160.425 68.9526 158.995 67.7003 157.768C65.2388 155.355 59.2554 154.165 55.0736 157.249C55.3491 156.103 56.9219 154.397 57.7122 153.693Z"
          fill="#E6B584"/>
    <path d="M154.021 109.421C154.021 109.421 150.759 102.1 149.13 99.8372C149.073 99.758 149.016 99.6821 148.958 99.608C148.963 99.605 148.967 99.6019 148.971 99.5992C149.669 99.1249 150.617 99.2984 151.1 99.9898C153.516 103.447 156.575 107.783 156.575 107.783C156.575 107.783 153.313 100.463 151.684 98.1992C151.609 98.0954 151.534 97.9973 151.459 97.9021C151.463 97.8992 151.467 97.8962 151.472 97.8933C152.169 97.4157 153.121 97.5884 153.605 98.2815C156.029 101.75 159.129 106.145 159.129 106.145C159.129 106.145 155.867 98.8247 154.238 96.5614C154.144 96.4303 154.049 96.3072 153.954 96.19C153.958 96.1869 153.962 96.1837 153.967 96.1808C154.665 95.7001 155.621 95.873 156.107 96.5683C158.538 100.048 161.683 104.507 161.683 104.507C161.683 104.507 158.422 97.1867 156.793 94.9234C156.677 94.7629 156.56 94.614 156.443 94.4743C156.448 94.4712 156.452 94.4681 156.457 94.4648C157.158 93.981 158.119 94.1544 158.607 94.853C161.045 98.3436 164.237 102.869 164.237 102.869C164.237 102.869 160.976 95.5487 159.346 93.2855C159.21 93.0952 159.071 92.9214 158.933 92.7601C158.938 92.7564 158.943 92.7527 158.948 92.7492C159.655 92.2645 160.62 92.4405 161.111 93.143C163.555 96.643 166.791 101.231 166.791 101.231C166.791 101.231 163.53 93.9107 161.901 91.6475C161.757 91.4479 161.611 91.2655 161.466 91.0977C161.471 91.0944 161.476 91.0911 161.481 91.088C162.221 90.6281 163.191 90.8261 163.689 91.54C166.131 95.0356 169.345 99.5929 169.345 99.5929C169.345 99.5929 166.084 92.2729 164.455 90.0095C164.351 89.8655 164.246 89.7301 164.141 89.6027C164.469 89.4866 164.79 89.418 165.141 89.4002C166.866 89.313 166.891 89.7422 168.083 91.2107C169.275 92.6791 176.05 105.124 176.809 106.394C177.368 107.328 178.56 109.936 177.073 111.581C177.041 111.355 177.021 111.221 177.021 111.221C176.403 108.975 174.813 107.929 174.813 107.929C174.813 107.929 175.397 109.936 174.547 112.385C174.509 112.495 174.469 112.604 174.427 112.713C173.809 110.467 172.219 109.421 172.219 109.421C172.219 109.421 172.803 111.428 171.953 113.878C171.915 113.987 171.875 114.096 171.833 114.205C171.215 111.959 169.625 110.913 169.625 110.913C169.625 110.913 170.209 112.92 169.359 115.37C169.321 115.479 169.281 115.588 169.239 115.697C168.621 113.452 167.031 112.405 167.031 112.405C167.031 112.405 167.615 114.412 166.765 116.862C166.728 116.971 166.687 117.081 166.645 117.19C166.027 114.944 164.437 113.897 164.437 113.897C164.437 113.897 165.021 115.904 164.171 118.354C164.133 118.464 164.093 118.573 164.052 118.682C163.434 116.436 161.843 115.389 161.843 115.389C161.843 115.389 162.427 117.397 161.578 119.846C161.539 119.956 161.499 120.065 161.458 120.174C160.839 117.928 159.249 116.882 159.249 116.882C159.249 116.882 159.833 118.889 158.984 121.339C158.946 121.448 158.905 121.557 158.864 121.666C155.092 115.845 151.915 111.014 147.589 104.017C146.728 102.905 146.754 101.587 147.775 100.522C150.25 104.075 154.021 109.421 154.021 109.421Z"
          fill="#55E3AA"/>
    <path d="M105.378 34.9509C105.378 34.9509 104.932 34.6834 103.713 33.9105C102.495 33.1375 101.401 31.1716 101.401 31.1716C101.401 31.1716 104.427 31.5323 104.516 31.562C104.605 31.5918 103.446 31.0863 102.435 30.3731C101.424 29.6596 100.109 28.2503 100.109 28.2503L103.119 28.4953C103.119 28.4953 102.049 27.9949 100.89 27.3706C99.7301 26.7463 97.5837 24.8534 97.5837 24.8534L100.622 25.1403C100.622 25.1403 98.6005 24.398 97.0845 23.8036C95.3763 23.1336 94.3423 21.5741 91.4144 20.1645C91.4144 20.1645 99.7836 21.5208 103.747 26.8136C107.088 31.2746 107.39 38.2587 107.115 39.4967C106.727 38.4586 105.722 38.015 104.689 37.8203C103.404 37.5782 102.447 36.4939 102.308 35.1942C102.28 34.9376 102.244 34.6627 102.199 34.375L105.378 34.9509Z"
          fill="#55E3AA"/>
    <path d="M94.4115 23.5589C101.835 29.5059 101.07 37.3552 101.018 37.5797H99.1723C97.6452 37.5797 96.3396 36.4601 96.1303 34.9473C96.079 34.5786 96.0128 34.1795 95.9276 33.7573L98.7794 34.0882C98.7794 34.0882 98.1592 33.5489 97.2973 33.0437C96.7524 32.7243 95.4352 31.7176 95.0801 30.7902H98.0065C98.0065 30.7902 97.6243 30.763 96.227 30.1387C95.1402 29.6532 94.053 28.4947 93.8214 27.7861H96.6094C96.6094 27.7861 96.0872 27.4459 94.482 26.792C92.8767 26.138 91.4155 24.7244 91.4155 24.7244H93.679C93.679 24.7244 93.233 24.6352 91.9624 24.2488C90.6917 23.8625 88.2347 22.2869 88.2347 22.2869H90.6045C90.6045 22.2869 88.7416 21.9266 87.0706 21.5311C86.7111 21.4461 86.3586 21.3319 86.0185 21.1876C82.6719 19.7663 79.8369 19.8052 79.8369 19.8052C79.8369 19.8052 86.9879 17.612 94.4115 23.5589Z"
          fill="#55E3AA"/>
    <path d="M151.421 130.063C150.833 130.43 150.391 130.989 150.171 131.647C149.649 133.204 148.592 136.225 147.605 138.264C146.222 141.118 141.273 145.711 141.273 145.711C141.273 145.711 145.821 144.016 149.076 140.85C152.331 137.685 153.134 135.322 153.624 133.493C154.114 131.665 154.498 128.142 154.498 128.142L151.421 130.063Z"
          fill="#E6B584"/>
    <path d="M143.976 134.308L139.816 136.733C139.816 136.733 139.695 137.997 139.816 138.487C139.936 138.978 140.099 139.178 140.099 139.178C140.099 139.178 139.022 138.175 138.398 138.465C137.773 138.755 137.216 139.379 136.971 140.181C136.726 140.984 136.815 141.697 136.971 142.411C137.127 143.124 137.194 143.37 137.194 143.37C137.194 143.37 135.566 141.601 134.764 141.649C133.961 141.697 134.496 141.764 132.813 143.102C131.13 144.44 126.592 147.118 125.333 148.676L124.074 150.233C124.074 150.233 127.25 148.832 129.993 147.829C132.735 146.825 137.217 145.867 139.167 144.061C141.118 142.255 143.1 139.648 143.548 137.595C143.996 135.542 143.976 134.308 143.976 134.308Z"
          fill="#E6B584"/>
    <path d="M134.777 148.267C134.777 148.267 130.401 151.418 125.306 151.775C120.211 152.132 118.131 150.021 118.131 150.021C118.131 150.021 117.595 153.796 123.719 155.104C129.843 156.412 134.777 148.267 134.777 148.267Z"
          fill="#2CA483"/>
</svg>
