<svg width="168" height="31" viewBox="0 0 168 31" fill="none" xmlns="http://www.w3.org/2000/svg">
<path d="M51.9835 12.083C50.5469 10.0537 48.143 8.88328 45.6281 8.98344C47.6714 7.51367 48.8453 5.11167 48.7278 2.62784C50.1644 4.65746 52.5679 5.8277 55.0833 5.72776C53.0394 7.19731 51.8661 9.59952 51.9835 12.083Z" fill="#2CA483"/>
<path d="M13.9938 13.2359C13.4156 10.8178 11.6198 8.83687 9.24819 7.99401C11.6917 7.39012 13.675 5.59739 14.4902 3.2482C15.0685 5.66664 16.8639 7.64718 19.2359 8.4904C16.792 9.09393 14.809 10.887 13.9938 13.2359Z" fill="#2CA483"/>
<path d="M116.853 12.3977C117.339 9.95959 119.059 7.91258 121.398 6.98115C118.933 6.46955 116.884 4.75266 115.981 2.43578C115.494 4.87426 113.774 6.92089 111.436 7.8527C113.901 8.36392 115.95 10.0812 116.853 12.3977Z" fill="#2CA483"/>
<path d="M152.17 9.78606C154.238 8.40635 156.902 8.17513 159.214 9.16991C157.833 7.06548 157.598 4.40237 158.598 2.12562C156.529 3.5056 153.866 3.73678 151.553 2.74203C152.935 4.84642 153.169 7.50957 152.17 9.78606Z" fill="#2CA483"/>
<path d="M136.835 19.9416C139.554 21.1691 141.484 23.7328 141.941 26.7182C143.205 23.9747 145.766 22.042 148.718 21.6117C145.999 20.3841 144.07 17.8209 143.611 14.835C142.348 17.579 139.787 19.5112 136.835 19.9416Z" fill="#55E3AA"/>
<path d="M72.9364 20.5283C70.2259 21.7753 67.0254 21.5493 64.4719 19.9362C65.7136 22.6897 65.4922 25.8902 63.8798 28.401C66.5906 27.1537 69.7905 27.3796 72.3446 28.9927C71.1024 26.2392 71.3243 23.0388 72.9364 20.5283Z" fill="#55E3AA"/>
<path d="M81.7218 0.574556C80.3323 2.53742 78.0071 3.66956 75.5744 3.57268C77.5509 4.99434 78.6863 7.31771 78.5727 9.72024C79.9622 7.75705 82.287 6.62512 84.7201 6.72179C82.7432 5.30034 81.6082 2.97677 81.7218 0.574556Z" fill="#55E3AA"/>
<path d="M93.9581 21.0912C96.9237 21.4182 99.5506 23.2603 100.909 25.9581C101.262 22.9585 103.101 20.3291 105.776 19.0074C102.81 18.6804 100.183 16.8386 98.8249 14.1405C98.4715 17.1405 96.6329 19.7695 93.9581 21.0912Z" fill="#55E3AA"/>
<path d="M36.2021 22.4151C33.3109 23.1518 30.9659 25.3415 29.9965 28.2021C29.2287 25.2809 27.0425 22.9329 24.2094 21.9963C27.101 21.2597 29.4456 19.0704 30.4153 16.2094C31.1827 19.1311 33.3693 21.4786 36.2021 22.4151Z" fill="#55E3AA"/>
</svg>
