<svg width="34" height="34" viewBox="0 0 34 34" fill="none" xmlns="http://www.w3.org/2000/svg">
<path d="M0 17C8.11495 19.3713 14.5382 25.8038 16.9996 34C19.4618 25.8038 25.8858 19.3713 34 17C25.8858 14.6287 19.4618 8.19618 16.9996 0C14.5382 8.19618 8.11495 14.6287 0 17Z" fill="#55E3AA"/>
<path d="M13.228 17.3635C12.4254 17.3635 11.77 17.1462 11.262 16.7117C10.754 16.2772 10.5 15.6838 10.5 14.9318C10.5 14.4387 10.6168 14.0084 10.8505 13.6407C11.0842 13.273 11.4043 12.993 11.8107 12.8008C12.2272 12.6003 12.6997 12.5 13.228 12.5C14.0408 12.5 14.7013 12.7214 15.2093 13.1643C15.7173 13.5989 15.9713 14.188 15.9713 14.9318C15.9713 15.6838 15.7173 16.2772 15.2093 16.7117C14.7013 17.1462 14.0408 17.3635 13.228 17.3635ZM19.5375 12.6128H21.7321L14.4472 21.3872H12.2526L19.5375 12.6128ZM13.228 16.1727C13.5023 16.1727 13.7208 16.0724 13.8834 15.8719C14.0459 15.6713 14.1272 15.3579 14.1272 14.9318C14.1272 14.5056 14.0459 14.1922 13.8834 13.9916C13.7208 13.7911 13.5023 13.6908 13.228 13.6908C12.9639 13.6908 12.7454 13.7953 12.5727 14.0042C12.4101 14.2047 12.3288 14.5139 12.3288 14.9318C12.3288 15.3496 12.4101 15.663 12.5727 15.8719C12.7454 16.0724 12.9639 16.1727 13.228 16.1727ZM20.7567 21.5C19.9439 21.5 19.2835 21.2827 18.7755 20.8482C18.2776 20.4136 18.0287 19.8203 18.0287 19.0682C18.0287 18.3245 18.2827 17.7354 18.7907 17.3008C19.2987 16.8579 19.9541 16.6365 20.7567 16.6365C21.5696 16.6365 22.23 16.8579 22.738 17.3008C23.246 17.7354 23.5 18.3245 23.5 19.0682C23.5 19.8203 23.246 20.4136 22.738 20.8482C22.23 21.2827 21.5696 21.5 20.7567 21.5ZM20.7567 20.3092C21.0311 20.3092 21.2495 20.2089 21.4121 20.0084C21.5746 19.8078 21.6559 19.4944 21.6559 19.0682C21.6559 18.6421 21.5746 18.3287 21.4121 18.1281C21.2495 17.9276 21.0311 17.8273 20.7567 17.8273C20.4824 17.8273 20.264 17.9276 20.1014 18.1281C19.9388 18.3287 19.8576 18.6421 19.8576 19.0682C19.8576 19.4944 19.9388 19.8078 20.1014 20.0084C20.264 20.2089 20.4824 20.3092 20.7567 20.3092Z" fill="white"/>
</svg>
